<?xml version="1.0" encoding="UTF-8" standalone="no"?>
<!DOCTYPE svg PUBLIC "-//W3C//DTD SVG 1.1//EN"
 "http://www.w3.org/Graphics/SVG/1.1/DTD/svg11.dtd">
<!-- Generated by graphviz version 2.43.0 (0)
 -->
<!-- Title: UmsciPaintNControlComponentBase Pages: 1 -->
<svg width="567pt" height="113pt"
 viewBox="0.00 0.00 567.00 112.50" xmlns="http://www.w3.org/2000/svg" xmlns:xlink="http://www.w3.org/1999/xlink">
<g id="graph0" class="graph" transform="scale(1 1) rotate(0) translate(4 108.5)">
<title>UmsciPaintNControlComponentBase</title>
<!-- Node1 -->
<g id="Node000001" class="node">
<title>Node1</title>
<g id="a_Node000001"><a xlink:title="Abstract base class for all three overlaid visualisation layers in UmsciControlComponent.">
<polygon fill="#999999" stroke="#666666" points="329,-67.5 135,-67.5 135,-48.5 329,-48.5 329,-67.5"/>
<text text-anchor="middle" x="232" y="-55.5" font-family="Helvetica,sans-Serif" font-size="10.00">UmsciPaintNControlComponentBase</text>
</a>
</g>
</g>
<!-- Node3 -->
<g id="Node000003" class="node">
<title>Node3</title>
<g id="a_Node000003"><a xlink:href="classUmsciLoudspeakersPaintComponent.html" target="_top" xlink:title="The bottom layer of the UmsciControlComponent stack — paints a speaker SVG icon at each loudspeaker&#39;s...">
<polygon fill="white" stroke="#666666" points="559,-104.5 365,-104.5 365,-85.5 559,-85.5 559,-104.5"/>
<text text-anchor="middle" x="462" y="-92.5" font-family="Helvetica,sans-Serif" font-size="10.00">UmsciLoudspeakersPaintComponent</text>
</a>
</g>
</g>
<!-- Node1&#45;&gt;Node3 -->
<g id="edge2_Node000001_Node000003" class="edge">
<title>Node1&#45;&gt;Node3</title>
<g id="a_edge2_Node000001_Node000003"><a xlink:title=" ">
<path fill="none" stroke="#63b8ff" d="M301.88,-69.18C333.85,-74.37 371.46,-80.47 402.09,-85.44"/>
<polygon fill="#63b8ff" stroke="#63b8ff" points="302.15,-65.68 291.72,-67.53 301.03,-72.59 302.15,-65.68"/>
</a>
</g>
</g>
<!-- Node4 -->
<g id="Node000004" class="node">
<title>Node4</title>
<g id="a_Node000004"><a xlink:href="classUmsciSoundobjectsPaintComponent.html" target="_top" xlink:title="The middle layer of the UmsciControlComponent stack — paints a filled circle for each sound object an...">
<polygon fill="white" stroke="#666666" points="558.5,-67.5 365.5,-67.5 365.5,-48.5 558.5,-48.5 558.5,-67.5"/>
<text text-anchor="middle" x="462" y="-55.5" font-family="Helvetica,sans-Serif" font-size="10.00">UmsciSoundobjectsPaintComponent</text>
</a>
</g>
</g>
<!-- Node1&#45;&gt;Node4 -->
<g id="edge3_Node000001_Node000004" class="edge">
<title>Node1&#45;&gt;Node4</title>
<g id="a_edge3_Node000001_Node000004"><a xlink:title=" ">
<path fill="none" stroke="#63b8ff" d="M339.25,-58C347.99,-58 356.79,-58 365.44,-58"/>
<polygon fill="#63b8ff" stroke="#63b8ff" points="339.03,-54.5 329.03,-58 339.03,-61.5 339.03,-54.5"/>
</a>
</g>
</g>
<!-- Node5 -->
<g id="Node000005" class="node">
<title>Node5</title>
<g id="a_Node000005"><a xlink:href="classUmsciUpmixIndicatorPaintNControlComponent.html" target="_top" xlink:title="The top layer of the UmsciControlComponent stack — renders an interactive upmix speaker ring and lets...">
<polygon fill="white" stroke="#666666" points="535,-30 389,-30 389,0 535,0 535,-30"/>
<text text-anchor="start" x="397" y="-18" font-family="Helvetica,sans-Serif" font-size="10.00">UmsciUpmixIndicatorPaint</text>
<text text-anchor="middle" x="462" y="-7" font-family="Helvetica,sans-Serif" font-size="10.00">NControlComponent</text>
</a>
</g>
</g>
<!-- Node1&#45;&gt;Node5 -->
<g id="edge4_Node000001_Node000005" class="edge">
<title>Node1&#45;&gt;Node5</title>
<g id="a_edge4_Node000001_Node000005"><a xlink:title=" ">
<path fill="none" stroke="#63b8ff" d="M293.68,-46.56C322.96,-41.03 358.28,-34.37 388.92,-28.59"/>
<polygon fill="#63b8ff" stroke="#63b8ff" points="292.78,-43.16 283.6,-48.46 294.08,-50.04 292.78,-43.16"/>
</a>
</g>
</g>
<!-- Node2 -->
<g id="Node000002" class="node">
<title>Node2</title>
<g id="a_Node000002"><a xlink:title=" ">
<polygon fill="white" stroke="#666666" points="99,-67.5 0,-67.5 0,-48.5 99,-48.5 99,-67.5"/>
<text text-anchor="middle" x="49.5" y="-55.5" font-family="Helvetica,sans-Serif" font-size="10.00">juce::Component</text>
</a>
</g>
</g>
<!-- Node2&#45;&gt;Node1 -->
<g id="edge1_Node000001_Node000002" class="edge">
<title>Node2&#45;&gt;Node1</title>
<g id="a_edge1_Node000001_Node000002"><a xlink:title=" ">
<path fill="none" stroke="#63b8ff" d="M109.46,-58C117.63,-58 126.18,-58 134.82,-58"/>
<polygon fill="#63b8ff" stroke="#63b8ff" points="109.35,-54.5 99.35,-58 109.35,-61.5 109.35,-54.5"/>
</a>
</g>
</g>
</g>
</svg>
