<?xml version="1.0" encoding="UTF-8" standalone="no"?>
<!DOCTYPE svg PUBLIC "-//W3C//DTD SVG 1.1//EN"
 "http://www.w3.org/Graphics/SVG/1.1/DTD/svg11.dtd">
<!-- Generated by graphviz version 2.43.0 (0)
 -->
<!-- Title: UmsciUpmixIndicatorPaintNControlComponent Pages: 1 -->
<svg width="480pt" height="148pt"
 viewBox="0.00 0.00 479.50 148.00" xmlns="http://www.w3.org/2000/svg" xmlns:xlink="http://www.w3.org/1999/xlink">
<g id="graph0" class="graph" transform="scale(1 1) rotate(0) translate(4 144)">
<title>UmsciUpmixIndicatorPaintNControlComponent</title>
<!-- Node1 -->
<g id="Node000001" class="node">
<title>Node1</title>
<g id="a_Node000001"><a xlink:title="The top layer of the UmsciControlComponent stack — renders an interactive upmix speaker ring and lets...">
<polygon fill="#999999" stroke="#666666" points="370,-30 224,-30 224,0 370,0 370,-30"/>
<text text-anchor="start" x="232" y="-18" font-family="Helvetica,sans-Serif" font-size="10.00">UmsciUpmixIndicatorPaint</text>
<text text-anchor="middle" x="297" y="-7" font-family="Helvetica,sans-Serif" font-size="10.00">NControlComponent</text>
</a>
</g>
</g>
<!-- Node2 -->
<g id="Node000002" class="node">
<title>Node2</title>
<g id="a_Node000002"><a xlink:href="classUmsciPaintNControlComponentBase.html" target="_top" xlink:title="Abstract base class for all three overlaid visualisation layers in UmsciControlComponent.">
<polygon fill="white" stroke="#666666" points="194,-85 0,-85 0,-66 194,-66 194,-85"/>
<text text-anchor="middle" x="97" y="-73" font-family="Helvetica,sans-Serif" font-size="10.00">UmsciPaintNControlComponentBase</text>
</a>
</g>
</g>
<!-- Node2&#45;&gt;Node1 -->
<g id="edge1_Node000001_Node000002" class="edge">
<title>Node2&#45;&gt;Node1</title>
<g id="a_edge1_Node000001_Node000002"><a xlink:title=" ">
<path fill="none" stroke="#63b8ff" d="M136.05,-63.08C168.35,-53.63 214.36,-40.17 248.92,-30.06"/>
<polygon fill="#63b8ff" stroke="#63b8ff" points="134.7,-59.83 126.08,-65.99 136.66,-66.55 134.7,-59.83"/>
</a>
</g>
</g>
<!-- Node3 -->
<g id="Node000003" class="node">
<title>Node3</title>
<g id="a_Node000003"><a xlink:title=" ">
<polygon fill="white" stroke="#666666" points="146.5,-140 47.5,-140 47.5,-121 146.5,-121 146.5,-140"/>
<text text-anchor="middle" x="97" y="-128" font-family="Helvetica,sans-Serif" font-size="10.00">juce::Component</text>
</a>
</g>
</g>
<!-- Node3&#45;&gt;Node2 -->
<g id="edge2_Node000002_Node000003" class="edge">
<title>Node3&#45;&gt;Node2</title>
<g id="a_edge2_Node000002_Node000003"><a xlink:title=" ">
<path fill="none" stroke="#63b8ff" d="M97,-110.66C97,-101.93 97,-91.99 97,-85.09"/>
<polygon fill="#63b8ff" stroke="#63b8ff" points="93.5,-110.75 97,-120.75 100.5,-110.75 93.5,-110.75"/>
</a>
</g>
</g>
<!-- Node4 -->
<g id="Node000004" class="node">
<title>Node4</title>
<g id="a_Node000004"><a xlink:title=" ">
<polygon fill="white" stroke="#666666" points="382,-85 212,-85 212,-66 382,-66 382,-85"/>
<text text-anchor="middle" x="297" y="-73" font-family="Helvetica,sans-Serif" font-size="10.00">JUCEAppBasics::TwoDFieldBase</text>
</a>
</g>
</g>
<!-- Node4&#45;&gt;Node1 -->
<g id="edge3_Node000001_Node000004" class="edge">
<title>Node4&#45;&gt;Node1</title>
<g id="a_edge3_Node000001_Node000004"><a xlink:title=" ">
<path fill="none" stroke="#63b8ff" d="M297,-55.65C297,-47.36 297,-37.78 297,-30.11"/>
<polygon fill="#63b8ff" stroke="#63b8ff" points="293.5,-55.87 297,-65.87 300.5,-55.87 293.5,-55.87"/>
</a>
</g>
</g>
<!-- Node5 -->
<g id="Node000005" class="node">
<title>Node5</title>
<g id="a_Node000005"><a xlink:title=" ">
<polygon fill="white" stroke="#666666" points="471.5,-85 400.5,-85 400.5,-66 471.5,-66 471.5,-85"/>
<text text-anchor="middle" x="436" y="-73" font-family="Helvetica,sans-Serif" font-size="10.00">juce::Timer</text>
</a>
</g>
</g>
<!-- Node5&#45;&gt;Node1 -->
<g id="edge4_Node000001_Node000005" class="edge">
<title>Node5&#45;&gt;Node1</title>
<g id="a_edge4_Node000001_Node000005"><a xlink:title=" ">
<path fill="none" stroke="#63b8ff" d="M406.49,-62.08C384.21,-52.7 353.6,-39.82 330.42,-30.06"/>
<polygon fill="#63b8ff" stroke="#63b8ff" points="405.21,-65.34 415.79,-65.99 407.93,-58.89 405.21,-65.34"/>
</a>
</g>
</g>
</g>
</svg>
