<?xml version="1.0" encoding="UTF-8" standalone="no"?>
<!DOCTYPE svg PUBLIC "-//W3C//DTD SVG 1.1//EN"
 "http://www.w3.org/Graphics/SVG/1.1/DTD/svg11.dtd">
<!-- Generated by graphviz version 2.43.0 (0)
 -->
<!-- Title: Source/dbprProjectUtils.h Pages: 1 -->
<svg width="626pt" height="214pt"
 viewBox="0.00 0.00 626.00 214.00" xmlns="http://www.w3.org/2000/svg" xmlns:xlink="http://www.w3.org/1999/xlink">
<g id="graph0" class="graph" transform="scale(1 1) rotate(0) translate(4 210)">
<title>Source/dbprProjectUtils.h</title>
<!-- Node1 -->
<g id="Node000001" class="node">
<title>Node1</title>
<g id="a_Node000001"><a xlink:title=" ">
<polygon fill="#999999" stroke="#666666" points="401.5,-206 261.5,-206 261.5,-187 401.5,-187 401.5,-206"/>
<text text-anchor="middle" x="331.5" y="-194" font-family="Helvetica,sans-Serif" font-size="10.00">Source/dbprProjectUtils.h</text>
</a>
</g>
</g>
<!-- Node2 -->
<g id="Node000002" class="node">
<title>Node2</title>
<g id="a_Node000002"><a xlink:href="DbprController_8h.html" target="_top" xlink:title=" ">
<polygon fill="white" stroke="#666666" points="196.5,-145.5 64.5,-145.5 64.5,-126.5 196.5,-126.5 196.5,-145.5"/>
<text text-anchor="middle" x="130.5" y="-133.5" font-family="Helvetica,sans-Serif" font-size="10.00">Source/DbprController.h</text>
</a>
</g>
</g>
<!-- Node1&#45;&gt;Node2 -->
<g id="edge1_Node000001_Node000002" class="edge">
<title>Node1&#45;&gt;Node2</title>
<g id="a_edge1_Node000001_Node000002"><a xlink:title=" ">
<path fill="none" stroke="#63b8ff" d="M292.36,-184.11C253.48,-172.79 194.76,-155.7 159.76,-145.52"/>
<polygon fill="#63b8ff" stroke="#63b8ff" points="291.69,-187.56 302.27,-186.99 293.65,-180.84 291.69,-187.56"/>
</a>
</g>
</g>
<!-- Node7 -->
<g id="Node000007" class="node">
<title>Node7</title>
<g id="a_Node000007"><a xlink:href="UmsciDbprProjectComponent_8h.html" target="_top" xlink:title=" ">
<polygon fill="white" stroke="#666666" points="448.5,-151 214.5,-151 214.5,-121 448.5,-121 448.5,-151"/>
<text text-anchor="start" x="222.5" y="-139" font-family="Helvetica,sans-Serif" font-size="10.00">Source/UmsciPaintNControl</text>
<text text-anchor="middle" x="331.5" y="-128" font-family="Helvetica,sans-Serif" font-size="10.00">Components/UmsciDbprProjectComponent.h</text>
</a>
</g>
</g>
<!-- Node1&#45;&gt;Node7 -->
<g id="edge6_Node000001_Node000007" class="edge">
<title>Node1&#45;&gt;Node7</title>
<g id="a_edge6_Node000001_Node000007"><a xlink:title=" ">
<path fill="none" stroke="#63b8ff" d="M331.5,-176.65C331.5,-168.36 331.5,-158.78 331.5,-151.11"/>
<polygon fill="#63b8ff" stroke="#63b8ff" points="328,-176.87 331.5,-186.87 335,-176.87 328,-176.87"/>
</a>
</g>
</g>
<!-- Node9 -->
<g id="Node000009" class="node">
<title>Node9</title>
<g id="a_Node000009"><a xlink:href="dbprProjectUtils_8cpp.html" target="_top" xlink:title=" ">
<polygon fill="white" stroke="#666666" points="618,-145.5 467,-145.5 467,-126.5 618,-126.5 618,-145.5"/>
<text text-anchor="middle" x="542.5" y="-133.5" font-family="Helvetica,sans-Serif" font-size="10.00">Source/dbprProjectUtils.cpp</text>
</a>
</g>
</g>
<!-- Node1&#45;&gt;Node9 -->
<g id="edge10_Node000001_Node000009" class="edge">
<title>Node1&#45;&gt;Node9</title>
<g id="a_edge10_Node000001_Node000009"><a xlink:title=" ">
<path fill="none" stroke="#63b8ff" d="M372.07,-184.25C412.88,-172.94 474.89,-155.75 511.78,-145.52"/>
<polygon fill="#63b8ff" stroke="#63b8ff" points="370.88,-180.95 362.18,-186.99 372.75,-187.69 370.88,-180.95"/>
</a>
</g>
</g>
<!-- Node3 -->
<g id="Node000003" class="node">
<title>Node3</title>
<g id="a_Node000003"><a xlink:href="DbprController_8cpp.html" target="_top" xlink:title=" ">
<polygon fill="white" stroke="#666666" points="143,-79.5 0,-79.5 0,-60.5 143,-60.5 143,-79.5"/>
<text text-anchor="middle" x="71.5" y="-67.5" font-family="Helvetica,sans-Serif" font-size="10.00">Source/DbprController.cpp</text>
</a>
</g>
</g>
<!-- Node2&#45;&gt;Node3 -->
<g id="edge2_Node000002_Node000003" class="edge">
<title>Node2&#45;&gt;Node3</title>
<g id="a_edge2_Node000002_Node000003"><a xlink:title=" ">
<path fill="none" stroke="#63b8ff" d="M115.73,-118.98C104.34,-106.62 89.01,-89.99 79.71,-79.91"/>
<polygon fill="#63b8ff" stroke="#63b8ff" points="113.19,-121.39 122.54,-126.37 118.34,-116.64 113.19,-121.39"/>
</a>
</g>
</g>
<!-- Node4 -->
<g id="Node000004" class="node">
<title>Node4</title>
<g id="a_Node000004"><a xlink:href="MainComponent_8h.html" target="_top" xlink:title=" ">
<polygon fill="white" stroke="#666666" points="303.5,-79.5 161.5,-79.5 161.5,-60.5 303.5,-60.5 303.5,-79.5"/>
<text text-anchor="middle" x="232.5" y="-67.5" font-family="Helvetica,sans-Serif" font-size="10.00">Source/MainComponent.h</text>
</a>
</g>
</g>
<!-- Node2&#45;&gt;Node4 -->
<g id="edge3_Node000002_Node000004" class="edge">
<title>Node2&#45;&gt;Node4</title>
<g id="a_edge3_Node000002_Node000004"><a xlink:title=" ">
<path fill="none" stroke="#63b8ff" d="M152.78,-121.02C172.84,-108.43 201.7,-90.32 218.64,-79.7"/>
<polygon fill="#63b8ff" stroke="#63b8ff" points="150.87,-118.09 144.26,-126.37 154.59,-124.02 150.87,-118.09"/>
</a>
</g>
</g>
<!-- Node5 -->
<g id="Node000005" class="node">
<title>Node5</title>
<g id="a_Node000005"><a xlink:href="Main_8cpp.html" target="_top" xlink:title=" ">
<polygon fill="white" stroke="#666666" points="237,-19 140,-19 140,0 237,0 237,-19"/>
<text text-anchor="middle" x="188.5" y="-7" font-family="Helvetica,sans-Serif" font-size="10.00">Source/Main.cpp</text>
</a>
</g>
</g>
<!-- Node4&#45;&gt;Node5 -->
<g id="edge4_Node000004_Node000005" class="edge">
<title>Node4&#45;&gt;Node5</title>
<g id="a_edge4_Node000004_Node000005"><a xlink:title=" ">
<path fill="none" stroke="#63b8ff" d="M219.81,-52.13C211.7,-41.35 201.53,-27.82 195.02,-19.17"/>
<polygon fill="#63b8ff" stroke="#63b8ff" points="217.2,-54.48 226.01,-60.37 222.79,-50.27 217.2,-54.48"/>
</a>
</g>
</g>
<!-- Node6 -->
<g id="Node000006" class="node">
<title>Node6</title>
<g id="a_Node000006"><a xlink:href="MainComponent_8cpp.html" target="_top" xlink:title=" ">
<polygon fill="white" stroke="#666666" points="408,-19 255,-19 255,0 408,0 408,-19"/>
<text text-anchor="middle" x="331.5" y="-7" font-family="Helvetica,sans-Serif" font-size="10.00">Source/MainComponent.cpp</text>
</a>
</g>
</g>
<!-- Node4&#45;&gt;Node6 -->
<g id="edge5_Node000004_Node000006" class="edge">
<title>Node4&#45;&gt;Node6</title>
<g id="a_edge5_Node000004_Node000006"><a xlink:title=" ">
<path fill="none" stroke="#63b8ff" d="M255.73,-55.27C274.63,-44.1 300.72,-28.69 316.83,-19.17"/>
<polygon fill="#63b8ff" stroke="#63b8ff" points="253.94,-52.27 247.11,-60.37 257.5,-58.29 253.94,-52.27"/>
</a>
</g>
</g>
<!-- Node7&#45;&gt;Node4 -->
<g id="edge8_Node000007_Node000004" class="edge">
<title>Node7&#45;&gt;Node4</title>
<g id="a_edge8_Node000007_Node000004"><a xlink:title=" ">
<path fill="none" stroke="#63b8ff" d="M301.12,-115.36C282.65,-103.42 259.99,-88.77 245.89,-79.66"/>
<polygon fill="#63b8ff" stroke="#63b8ff" points="299.23,-118.31 309.53,-120.8 303.03,-112.43 299.23,-118.31"/>
</a>
</g>
</g>
<!-- Node7&#45;&gt;Node6 -->
<g id="edge7_Node000007_Node000006" class="edge">
<title>Node7&#45;&gt;Node6</title>
<g id="a_edge7_Node000007_Node000006"><a xlink:title=" ">
<path fill="none" stroke="#63b8ff" d="M331.5,-110.48C331.5,-82.34 331.5,-37.67 331.5,-19.07"/>
<polygon fill="#63b8ff" stroke="#63b8ff" points="328,-110.72 331.5,-120.72 335,-110.72 328,-110.72"/>
</a>
</g>
</g>
<!-- Node8 -->
<g id="Node000008" class="node">
<title>Node8</title>
<g id="a_Node000008"><a xlink:href="UmsciDbprProjectComponent_8cpp.html" target="_top" xlink:title=" ">
<polygon fill="white" stroke="#666666" points="605,-85 360,-85 360,-55 605,-55 605,-85"/>
<text text-anchor="start" x="368" y="-73" font-family="Helvetica,sans-Serif" font-size="10.00">Source/UmsciPaintNControl</text>
<text text-anchor="middle" x="482.5" y="-62" font-family="Helvetica,sans-Serif" font-size="10.00">Components/UmsciDbprProjectComponent.cpp</text>
</a>
</g>
</g>
<!-- Node7&#45;&gt;Node8 -->
<g id="edge9_Node000007_Node000008" class="edge">
<title>Node7&#45;&gt;Node8</title>
<g id="a_edge9_Node000007_Node000008"><a xlink:title=" ">
<path fill="none" stroke="#63b8ff" d="M374.16,-116.92C398.03,-106.8 427.33,-94.38 449.44,-85.01"/>
<polygon fill="#63b8ff" stroke="#63b8ff" points="372.48,-113.83 364.64,-120.95 375.21,-120.28 372.48,-113.83"/>
</a>
</g>
</g>
</g>
</svg>
