<?xml version="1.0" encoding="UTF-8" standalone="no"?>
<!DOCTYPE svg PUBLIC "-//W3C//DTD SVG 1.1//EN"
 "http://www.w3.org/Graphics/SVG/1.1/DTD/svg11.dtd">
<!-- Generated by graphviz version 2.43.0 (0)
 -->
<!-- Title: Graphical Class Hierarchy Pages: 1 -->
<svg width="659pt" height="401pt"
 viewBox="0.00 0.00 659.00 401.00" xmlns="http://www.w3.org/2000/svg" xmlns:xlink="http://www.w3.org/1999/xlink">
<g id="graph0" class="graph" transform="scale(1 1) rotate(0) translate(4 397)">
<title>Graphical Class Hierarchy</title>
<!-- Node0 -->
<g id="Node000000" class="node">
<title>Node0</title>
<g id="a_Node000000"><a xlink:title=" ">
<polygon fill="#e0e0e0" stroke="#999999" points="145,-252.5 46,-252.5 46,-233.5 145,-233.5 145,-252.5"/>
<text text-anchor="middle" x="95.5" y="-240.5" font-family="Helvetica,sans-Serif" font-size="10.00">juce::Component</text>
</a>
</g>
</g>
<!-- Node1 -->
<g id="Node000001" class="node">
<title>Node1</title>
<g id="a_Node000001"><a xlink:href="classAboutComponent.html" target="_top" xlink:title="Small overlay panel showing the application icon, version info, and a link to the project repository.">
<polygon fill="white" stroke="#666666" points="374.5,-252.5 273.5,-252.5 273.5,-233.5 374.5,-233.5 374.5,-252.5"/>
<text text-anchor="middle" x="324" y="-240.5" font-family="Helvetica,sans-Serif" font-size="10.00">AboutComponent</text>
</a>
</g>
</g>
<!-- Node0&#45;&gt;Node1 -->
<g id="edge1_Node000000_Node000001" class="edge">
<title>Node0&#45;&gt;Node1</title>
<g id="a_edge1_Node000000_Node000001"><a xlink:title=" ">
<path fill="none" stroke="#63b8ff" d="M155.14,-243C191.8,-243 238.49,-243 273.32,-243"/>
<polygon fill="#63b8ff" stroke="#63b8ff" points="155.09,-239.5 145.09,-243 155.09,-246.5 155.09,-239.5"/>
</a>
</g>
</g>
<!-- Node2 -->
<g id="Node000002" class="node">
<title>Node2</title>
<g id="a_Node000002"><a xlink:href="classMainComponent.html" target="_top" xlink:title="Root JUCE component — the top&#45;level UI that wires together the device connection, the visualisation,...">
<polygon fill="white" stroke="#666666" points="372.5,-363.5 275.5,-363.5 275.5,-344.5 372.5,-344.5 372.5,-363.5"/>
<text text-anchor="middle" x="324" y="-351.5" font-family="Helvetica,sans-Serif" font-size="10.00">MainComponent</text>
</a>
</g>
</g>
<!-- Node0&#45;&gt;Node2 -->
<g id="edge2_Node000000_Node000002" class="edge">
<title>Node0&#45;&gt;Node2</title>
<g id="a_edge2_Node000000_Node000002"><a xlink:title=" ">
<path fill="none" stroke="#63b8ff" d="M120.43,-257.95C139.83,-270.31 167.68,-288.59 191,-306 207.69,-318.46 208.16,-327.13 227,-336 241.88,-343.01 259.27,-347.29 275.13,-349.9"/>
<polygon fill="#63b8ff" stroke="#63b8ff" points="122.22,-254.94 111.9,-252.55 118.48,-260.86 122.22,-254.94"/>
</a>
</g>
</g>
<!-- Node5 -->
<g id="Node000005" class="node">
<title>Node5</title>
<g id="a_Node000005"><a xlink:href="classUmsciConnectingComponent.html" target="_top" xlink:title="Fullscreen progress overlay shown while the OCP.1 connection is being established,...">
<polygon fill="white" stroke="#666666" points="403,-215.5 245,-215.5 245,-196.5 403,-196.5 403,-215.5"/>
<text text-anchor="middle" x="324" y="-203.5" font-family="Helvetica,sans-Serif" font-size="10.00">UmsciConnectingComponent</text>
</a>
</g>
</g>
<!-- Node0&#45;&gt;Node5 -->
<g id="edge3_Node000000_Node000005" class="edge">
<title>Node0&#45;&gt;Node5</title>
<g id="a_edge3_Node000000_Node000005"><a xlink:title=" ">
<path fill="none" stroke="#63b8ff" d="M155.23,-233.41C188.84,-227.92 230.86,-221.05 264.44,-215.57"/>
<polygon fill="#63b8ff" stroke="#63b8ff" points="154.39,-230 145.09,-235.06 155.52,-236.9 154.39,-230"/>
</a>
</g>
</g>
<!-- Node6 -->
<g id="Node000006" class="node">
<title>Node6</title>
<g id="a_Node000006"><a xlink:href="classUmsciControlComponent.html" target="_top" xlink:title="The main visualisation and interaction surface for Umsci.">
<polygon fill="white" stroke="#666666" points="393.5,-178.5 254.5,-178.5 254.5,-159.5 393.5,-159.5 393.5,-178.5"/>
<text text-anchor="middle" x="324" y="-166.5" font-family="Helvetica,sans-Serif" font-size="10.00">UmsciControlComponent</text>
</a>
</g>
</g>
<!-- Node0&#45;&gt;Node6 -->
<g id="edge4_Node000000_Node000006" class="edge">
<title>Node0&#45;&gt;Node6</title>
<g id="a_edge4_Node000000_Node000006"><a xlink:title=" ">
<path fill="none" stroke="#63b8ff" d="M125.2,-228.9C151.23,-216.6 190.94,-199.04 227,-188 239.1,-184.29 252.29,-181.14 264.91,-178.52"/>
<polygon fill="#63b8ff" stroke="#63b8ff" points="123.45,-225.86 115.93,-233.33 126.46,-232.18 123.45,-225.86"/>
</a>
</g>
</g>
<!-- Node8 -->
<g id="Node000008" class="node">
<title>Node8</title>
<g id="a_Node000008"><a xlink:href="classUmsciDiscoveringHintComponent.html" target="_top" xlink:title="Fullscreen overlay shown when no DS100 connection has been configured yet.">
<polygon fill="white" stroke="#666666" points="415,-326.5 233,-326.5 233,-307.5 415,-307.5 415,-326.5"/>
<text text-anchor="middle" x="324" y="-314.5" font-family="Helvetica,sans-Serif" font-size="10.00">UmsciDiscoveringHintComponent</text>
</a>
</g>
</g>
<!-- Node0&#45;&gt;Node8 -->
<g id="edge5_Node000000_Node000008" class="edge">
<title>Node0&#45;&gt;Node8</title>
<g id="a_edge5_Node000000_Node000008"><a xlink:title=" ">
<path fill="none" stroke="#63b8ff" d="M124.7,-257.25C150.68,-269.86 190.61,-287.93 227,-299 237.87,-302.31 249.62,-305.12 261.06,-307.46"/>
<polygon fill="#63b8ff" stroke="#63b8ff" points="125.98,-253.98 115.46,-252.71 122.89,-260.26 125.98,-253.98"/>
</a>
</g>
</g>
<!-- Node9 -->
<g id="Node000009" class="node">
<title>Node9</title>
<g id="a_Node000009"><a xlink:href="classUmsciPaintNControlComponentBase.html" target="_top" xlink:title="Abstract base class for all three overlaid visualisation layers in UmsciControlComponent.">
<polygon fill="white" stroke="#666666" points="421,-289.5 227,-289.5 227,-270.5 421,-270.5 421,-289.5"/>
<text text-anchor="middle" x="324" y="-277.5" font-family="Helvetica,sans-Serif" font-size="10.00">UmsciPaintNControlComponentBase</text>
</a>
</g>
</g>
<!-- Node0&#45;&gt;Node9 -->
<g id="edge6_Node000000_Node000009" class="edge">
<title>Node0&#45;&gt;Node9</title>
<g id="a_edge6_Node000000_Node000009"><a xlink:title=" ">
<path fill="none" stroke="#63b8ff" d="M155.23,-252.59C188.84,-258.08 230.86,-264.95 264.44,-270.43"/>
<polygon fill="#63b8ff" stroke="#63b8ff" points="155.52,-249.1 145.09,-250.94 154.39,-256 155.52,-249.1"/>
</a>
</g>
</g>
<!-- Node17 -->
<g id="Node000017" class="node">
<title>Node17</title>
<g id="a_Node000017"><a xlink:href="classUmsciZeroconfDiscoverComboComponent.html" target="_top" xlink:title="A ComboBox that continuously scans the local network for DS100 devices announced via Zeroconf/mDNS an...">
<polygon fill="white" stroke="#666666" points="408,-30 240,-30 240,0 408,0 408,-30"/>
<text text-anchor="start" x="248" y="-18" font-family="Helvetica,sans-Serif" font-size="10.00">UmsciZeroconfDiscoverCombo</text>
<text text-anchor="middle" x="324" y="-7" font-family="Helvetica,sans-Serif" font-size="10.00">Component</text>
</a>
</g>
</g>
<!-- Node0&#45;&gt;Node17 -->
<g id="edge10_Node000000_Node000017" class="edge">
<title>Node0&#45;&gt;Node17</title>
<g id="a_edge10_Node000000_Node000017"><a xlink:title=" ">
<path fill="none" stroke="#63b8ff" d="M139.08,-229.58C157.59,-221.7 177.97,-209.9 191,-193 233.92,-137.34 177.68,-89.08 227,-39 230.86,-35.08 235.25,-31.77 239.98,-28.97"/>
<polygon fill="#63b8ff" stroke="#63b8ff" points="137.62,-226.39 129.62,-233.35 140.21,-232.9 137.62,-226.39"/>
</a>
</g>
</g>
<!-- Node10 -->
<g id="Node000010" class="node">
<title>Node10</title>
<g id="a_Node000010"><a xlink:href="classUmsciLoudspeakersPaintComponent.html" target="_top" xlink:title="The bottom layer of the UmsciControlComponent stack — paints a speaker SVG icon at each loudspeaker&#39;s...">
<polygon fill="white" stroke="#666666" points="651,-307.5 457,-307.5 457,-288.5 651,-288.5 651,-307.5"/>
<text text-anchor="middle" x="554" y="-295.5" font-family="Helvetica,sans-Serif" font-size="10.00">UmsciLoudspeakersPaintComponent</text>
</a>
</g>
</g>
<!-- Node9&#45;&gt;Node10 -->
<g id="edge7_Node000009_Node000010" class="edge">
<title>Node9&#45;&gt;Node10</title>
<g id="a_edge7_Node000009_Node000010"><a xlink:title=" ">
<path fill="none" stroke="#63b8ff" d="M431.04,-288.37C439.6,-289.05 448.23,-289.73 456.71,-290.4"/>
<polygon fill="#63b8ff" stroke="#63b8ff" points="431.28,-284.88 421.03,-287.58 430.73,-291.86 431.28,-284.88"/>
</a>
</g>
</g>
<!-- Node11 -->
<g id="Node000011" class="node">
<title>Node11</title>
<g id="a_Node000011"><a xlink:href="classUmsciSoundobjectsPaintComponent.html" target="_top" xlink:title="The middle layer of the UmsciControlComponent stack — paints a filled circle for each sound object an...">
<polygon fill="white" stroke="#666666" points="650.5,-270.5 457.5,-270.5 457.5,-251.5 650.5,-251.5 650.5,-270.5"/>
<text text-anchor="middle" x="554" y="-258.5" font-family="Helvetica,sans-Serif" font-size="10.00">UmsciSoundobjectsPaintComponent</text>
</a>
</g>
</g>
<!-- Node9&#45;&gt;Node11 -->
<g id="edge8_Node000009_Node000011" class="edge">
<title>Node9&#45;&gt;Node11</title>
<g id="a_edge8_Node000009_Node000011"><a xlink:title=" ">
<path fill="none" stroke="#63b8ff" d="M431.25,-271.15C439.99,-270.42 448.79,-269.68 457.44,-268.96"/>
<polygon fill="#63b8ff" stroke="#63b8ff" points="430.71,-267.68 421.03,-272 431.29,-274.65 430.71,-267.68"/>
</a>
</g>
</g>
<!-- Node12 -->
<g id="Node000012" class="node">
<title>Node12</title>
<g id="a_Node000012"><a xlink:href="classUmsciUpmixIndicatorPaintNControlComponent.html" target="_top" xlink:title="The top layer of the UmsciControlComponent stack — renders an interactive upmix speaker ring and lets...">
<polygon fill="white" stroke="#666666" points="627,-147 481,-147 481,-117 627,-117 627,-147"/>
<text text-anchor="start" x="489" y="-135" font-family="Helvetica,sans-Serif" font-size="10.00">UmsciUpmixIndicatorPaint</text>
<text text-anchor="middle" x="554" y="-124" font-family="Helvetica,sans-Serif" font-size="10.00">NControlComponent</text>
</a>
</g>
</g>
<!-- Node9&#45;&gt;Node12 -->
<g id="edge9_Node000009_Node000012" class="edge">
<title>Node9&#45;&gt;Node12</title>
<g id="a_edge9_Node000009_Node000012"><a xlink:title=" ">
<path fill="none" stroke="#63b8ff" d="M409.84,-267.05C413.69,-265.54 417.42,-263.87 421,-262 475.45,-233.55 522.13,-175.19 542.32,-147.38"/>
<polygon fill="#63b8ff" stroke="#63b8ff" points="408.4,-263.85 400.11,-270.44 410.71,-270.45 408.4,-263.85"/>
</a>
</g>
</g>
<!-- Node3 -->
<g id="Node000003" class="node">
<title>Node3</title>
<g id="a_Node000003"><a xlink:title=" ">
<polygon fill="#e0e0e0" stroke="#999999" points="161,-345 30,-345 30,-315 161,-315 161,-345"/>
<text text-anchor="start" x="38" y="-333" font-family="Helvetica,sans-Serif" font-size="10.00">UmsciAppConfiguration</text>
<text text-anchor="middle" x="95.5" y="-322" font-family="Helvetica,sans-Serif" font-size="10.00">::Dumper</text>
</a>
</g>
</g>
<!-- Node3&#45;&gt;Node2 -->
<g id="edge11_Node000003_Node000002" class="edge">
<title>Node3&#45;&gt;Node2</title>
<g id="a_edge11_Node000003_Node000002"><a xlink:title=" ">
<path fill="none" stroke="#63b8ff" d="M171.09,-337.9C205.38,-341.54 245.04,-345.74 275.24,-348.94"/>
<polygon fill="#63b8ff" stroke="#63b8ff" points="171.42,-334.42 161.1,-336.85 170.68,-341.38 171.42,-334.42"/>
</a>
</g>
</g>
<!-- Node15 -->
<g id="Node000015" class="node">
<title>Node15</title>
<g id="a_Node000015"><a xlink:title=" ">
<polygon fill="#e0e0e0" stroke="#999999" points="386.5,-67.5 261.5,-67.5 261.5,-48.5 386.5,-48.5 386.5,-67.5"/>
<text text-anchor="middle" x="324" y="-55.5" font-family="Helvetica,sans-Serif" font-size="10.00">juce::MessageListener</text>
</a>
</g>
</g>
<!-- Node14 -->
<g id="Node000014" class="node">
<title>Node14</title>
<g id="a_Node000014"><a xlink:href="classDeviceController.html" target="_top" xlink:title="Singleton that owns the OCP.1 (AES70) TCP connection to a d&amp;b audiotechnik DS100 device and exposes a...">
<polygon fill="white" stroke="#666666" points="603,-83.5 505,-83.5 505,-64.5 603,-64.5 603,-83.5"/>
<text text-anchor="middle" x="554" y="-71.5" font-family="Helvetica,sans-Serif" font-size="10.00">DeviceController</text>
</a>
</g>
</g>
<!-- Node15&#45;&gt;Node14 -->
<g id="edge12_Node000015_Node000014" class="edge">
<title>Node15&#45;&gt;Node14</title>
<g id="a_edge12_Node000015_Node000014"><a xlink:title=" ">
<path fill="none" stroke="#63b8ff" d="M396.94,-63.05C432.18,-65.52 473.66,-68.43 504.99,-70.63"/>
<polygon fill="#63b8ff" stroke="#63b8ff" points="396.92,-59.54 386.7,-62.33 396.43,-66.52 396.92,-59.54"/>
</a>
</g>
</g>
<!-- Node13 -->
<g id="Node000013" class="node">
<title>Node13</title>
<g id="a_Node000013"><a xlink:title=" ">
<polygon fill="#e0e0e0" stroke="#999999" points="359.5,-104.5 288.5,-104.5 288.5,-85.5 359.5,-85.5 359.5,-104.5"/>
<text text-anchor="middle" x="324" y="-92.5" font-family="Helvetica,sans-Serif" font-size="10.00">juce::Timer</text>
</a>
</g>
</g>
<!-- Node13&#45;&gt;Node12 -->
<g id="edge14_Node000013_Node000012" class="edge">
<title>Node13&#45;&gt;Node12</title>
<g id="a_edge14_Node000013_Node000012"><a xlink:title=" ">
<path fill="none" stroke="#63b8ff" d="M369.87,-102.28C401.43,-107.4 444.35,-114.37 480.71,-120.27"/>
<polygon fill="#63b8ff" stroke="#63b8ff" points="370.06,-98.77 359.63,-100.62 368.94,-105.68 370.06,-98.77"/>
</a>
</g>
</g>
<!-- Node13&#45;&gt;Node14 -->
<g id="edge13_Node000013_Node000014" class="edge">
<title>Node13&#45;&gt;Node14</title>
<g id="a_edge13_Node000013_Node000014"><a xlink:title=" ">
<path fill="none" stroke="#63b8ff" d="M369.63,-90.89C408.58,-87.3 464.96,-82.11 504.91,-78.43"/>
<polygon fill="#63b8ff" stroke="#63b8ff" points="369.27,-87.41 359.63,-91.81 369.91,-94.38 369.27,-87.41"/>
</a>
</g>
</g>
<!-- Node16 -->
<g id="Node000016" class="node">
<title>Node16</title>
<g id="a_Node000016"><a xlink:title=" ">
<polygon fill="#e0e0e0" stroke="#999999" points="409,-141.5 239,-141.5 239,-122.5 409,-122.5 409,-141.5"/>
<text text-anchor="middle" x="324" y="-129.5" font-family="Helvetica,sans-Serif" font-size="10.00">JUCEAppBasics::TwoDFieldBase</text>
</a>
</g>
</g>
<!-- Node16&#45;&gt;Node12 -->
<g id="edge15_Node000016_Node000012" class="edge">
<title>Node16&#45;&gt;Node12</title>
<g id="a_edge15_Node000016_Node000012"><a xlink:title=" ">
<path fill="none" stroke="#63b8ff" d="M419.53,-132C439.97,-132 461.28,-132 480.71,-132"/>
<polygon fill="#63b8ff" stroke="#63b8ff" points="419.25,-128.5 409.25,-132 419.25,-135.5 419.25,-128.5"/>
</a>
</g>
</g>
<!-- Node4 -->
<g id="Node000004" class="node">
<title>Node4</title>
<g id="a_Node000004"><a xlink:title=" ">
<polygon fill="#e0e0e0" stroke="#999999" points="161,-393 30,-393 30,-363 161,-363 161,-393"/>
<text text-anchor="start" x="38" y="-381" font-family="Helvetica,sans-Serif" font-size="10.00">UmsciAppConfiguration</text>
<text text-anchor="middle" x="95.5" y="-370" font-family="Helvetica,sans-Serif" font-size="10.00">::Watcher</text>
</a>
</g>
</g>
<!-- Node4&#45;&gt;Node2 -->
<g id="edge16_Node000004_Node000002" class="edge">
<title>Node4&#45;&gt;Node2</title>
<g id="a_edge16_Node000004_Node000002"><a xlink:title=" ">
<path fill="none" stroke="#63b8ff" d="M171.09,-370.1C205.38,-366.46 245.04,-362.26 275.24,-359.06"/>
<polygon fill="#63b8ff" stroke="#63b8ff" points="170.68,-366.62 161.1,-371.15 171.42,-373.58 170.68,-366.62"/>
</a>
</g>
</g>
<!-- Node7 -->
<g id="Node000007" class="node">
<title>Node7</title>
<g id="a_Node000007"><a xlink:title=" ">
<polygon fill="#e0e0e0" stroke="#999999" points="167.5,-184 23.5,-184 23.5,-154 167.5,-154 167.5,-184"/>
<text text-anchor="start" x="31.5" y="-172" font-family="Helvetica,sans-Serif" font-size="10.00">UmsciAppConfiguration</text>
<text text-anchor="middle" x="95.5" y="-161" font-family="Helvetica,sans-Serif" font-size="10.00">::XmlConfigurableElement</text>
</a>
</g>
</g>
<!-- Node7&#45;&gt;Node6 -->
<g id="edge17_Node000007_Node000006" class="edge">
<title>Node7&#45;&gt;Node6</title>
<g id="a_edge17_Node000007_Node000006"><a xlink:title=" ">
<path fill="none" stroke="#63b8ff" d="M177.74,-169C202.76,-169 230.05,-169 254.15,-169"/>
<polygon fill="#63b8ff" stroke="#63b8ff" points="177.54,-165.5 167.54,-169 177.54,-172.5 177.54,-165.5"/>
</a>
</g>
</g>
<!-- Node18 -->
<g id="Node000018" class="node">
<title>Node18</title>
<g id="a_Node000018"><a xlink:title=" ">
<polygon fill="#e0e0e0" stroke="#999999" points="191,-30 0,-30 0,0 191,0 191,-30"/>
<text text-anchor="start" x="8" y="-18" font-family="Helvetica,sans-Serif" font-size="10.00">ZeroconfSearcher::Zeroconf</text>
<text text-anchor="middle" x="95.5" y="-7" font-family="Helvetica,sans-Serif" font-size="10.00">Searcher::ZeroconfSearcherListener</text>
</a>
</g>
</g>
<!-- Node18&#45;&gt;Node17 -->
<g id="edge18_Node000018_Node000017" class="edge">
<title>Node18&#45;&gt;Node17</title>
<g id="a_edge18_Node000018_Node000017"><a xlink:title=" ">
<path fill="none" stroke="#63b8ff" d="M201.5,-15C214.35,-15 227.34,-15 239.8,-15"/>
<polygon fill="#63b8ff" stroke="#63b8ff" points="201.24,-11.5 191.24,-15 201.24,-18.5 201.24,-11.5"/>
</a>
</g>
</g>
</g>
</svg>
