<?xml version="1.0" encoding="UTF-8" standalone="no"?>
<!DOCTYPE svg PUBLIC "-//W3C//DTD SVG 1.1//EN"
 "http://www.w3.org/Graphics/SVG/1.1/DTD/svg11.dtd">
<!-- Generated by graphviz version 2.43.0 (0)
 -->
<!-- Title: Graphical Class Hierarchy Pages: 1 -->
<svg width="297pt" height="86pt"
 viewBox="0.00 0.00 297.00 86.00" xmlns="http://www.w3.org/2000/svg" xmlns:xlink="http://www.w3.org/1999/xlink">
<g id="graph0" class="graph" transform="scale(1 1) rotate(0) translate(4 82)">
<title>Graphical Class Hierarchy</title>
<!-- Node0 -->
<g id="Node000000" class="node">
<title>Node0</title>
<g id="a_Node000000"><a xlink:title=" ">
<polygon fill="#e0e0e0" stroke="#999999" points="86,-48.5 0,-48.5 0,-29.5 86,-29.5 86,-48.5"/>
<text text-anchor="middle" x="43" y="-36.5" font-family="Helvetica,sans-Serif" font-size="10.00">juce::Message</text>
</a>
</g>
</g>
<!-- Node1 -->
<g id="Node000001" class="node">
<title>Node1</title>
<g id="a_Node000001"><a xlink:href="classDeviceController_1_1RemoteObjectReceivedMessage.html" target="_top" xlink:title="Carries a decoded RemoteObject across the thread boundary via JUCE&#39;s message queue.">
<polygon fill="white" stroke="#666666" points="277,-78 134,-78 134,-48 277,-48 277,-78"/>
<text text-anchor="start" x="142" y="-66" font-family="Helvetica,sans-Serif" font-size="10.00">DeviceController::Remote</text>
<text text-anchor="middle" x="205.5" y="-55" font-family="Helvetica,sans-Serif" font-size="10.00">ObjectReceivedMessage</text>
</a>
</g>
</g>
<!-- Node0&#45;&gt;Node1 -->
<g id="edge29_Node000000_Node000001" class="edge">
<title>Node0&#45;&gt;Node1</title>
<g id="a_edge29_Node000000_Node000001"><a xlink:title=" ">
<path fill="none" stroke="#63b8ff" d="M96.39,-46.83C108.32,-48.62 121.2,-50.54 133.76,-52.42"/>
<polygon fill="#63b8ff" stroke="#63b8ff" points="96.58,-43.32 86.17,-45.31 95.54,-50.25 96.58,-43.32"/>
</a>
</g>
</g>
<!-- Node2 -->
<g id="Node000002" class="node">
<title>Node2</title>
<g id="a_Node000002"><a xlink:href="classDeviceController_1_1StateChangeMessage.html" target="_top" xlink:title="Carries a State value across the thread boundary via JUCE&#39;s message queue.">
<polygon fill="white" stroke="#666666" points="289,-30 122,-30 122,0 289,0 289,-30"/>
<text text-anchor="start" x="130" y="-18" font-family="Helvetica,sans-Serif" font-size="10.00">DeviceController::StateChange</text>
<text text-anchor="middle" x="205.5" y="-7" font-family="Helvetica,sans-Serif" font-size="10.00">Message</text>
</a>
</g>
</g>
<!-- Node0&#45;&gt;Node2 -->
<g id="edge30_Node000000_Node000002" class="edge">
<title>Node0&#45;&gt;Node2</title>
<g id="a_edge30_Node000000_Node000002"><a xlink:title=" ">
<path fill="none" stroke="#63b8ff" d="M96.31,-31.18C104.54,-29.95 113.2,-28.65 121.91,-27.35"/>
<polygon fill="#63b8ff" stroke="#63b8ff" points="95.54,-27.75 86.17,-32.69 96.58,-34.68 95.54,-27.75"/>
</a>
</g>
</g>
</g>
</svg>
