<?xml version="1.0" encoding="UTF-8" standalone="no"?>
<!DOCTYPE svg PUBLIC "-//W3C//DTD SVG 1.1//EN"
 "http://www.w3.org/Graphics/SVG/1.1/DTD/svg11.dtd">
<!-- Generated by graphviz version 2.43.0 (0)
 -->
<!-- Title: Graphical Class Hierarchy Pages: 1 -->
<svg width="659pt" height="641pt"
 viewBox="0.00 0.00 659.00 640.50" xmlns="http://www.w3.org/2000/svg" xmlns:xlink="http://www.w3.org/1999/xlink">
<g id="graph0" class="graph" transform="scale(1 1) rotate(0) translate(4 636.5)">
<title>Graphical Class Hierarchy</title>
<!-- Node0 -->
<g id="Node000000" class="node">
<title>Node0</title>
<g id="a_Node000000"><a xlink:title=" ">
<polygon fill="#e0e0e0" stroke="#999999" points="145,-358 46,-358 46,-339 145,-339 145,-358"/>
<text text-anchor="middle" x="95.5" y="-346" font-family="Helvetica,sans-Serif" font-size="10.00">juce::Component</text>
</a>
</g>
</g>
<!-- Node1 -->
<g id="Node000001" class="node">
<title>Node1</title>
<g id="a_Node000001"><a xlink:href="classAboutComponent.html" target="_top" xlink:title="Small overlay panel showing the application icon, version info, and a link to the project repository.">
<polygon fill="white" stroke="#666666" points="374.5,-377 273.5,-377 273.5,-358 374.5,-358 374.5,-377"/>
<text text-anchor="middle" x="324" y="-365" font-family="Helvetica,sans-Serif" font-size="10.00">AboutComponent</text>
</a>
</g>
</g>
<!-- Node0&#45;&gt;Node1 -->
<g id="edge1_Node000000_Node000001" class="edge">
<title>Node0&#45;&gt;Node1</title>
<g id="a_edge1_Node000000_Node000001"><a xlink:title=" ">
<path fill="none" stroke="#63b8ff" d="M155.14,-353.42C191.8,-356.49 238.49,-360.41 273.32,-363.33"/>
<polygon fill="#63b8ff" stroke="#63b8ff" points="155.35,-349.92 145.09,-352.58 154.76,-356.9 155.35,-349.92"/>
</a>
</g>
</g>
<!-- Node2 -->
<g id="Node000002" class="node">
<title>Node2</title>
<g id="a_Node000002"><a xlink:href="classMainComponent.html" target="_top" xlink:title="Root JUCE component — the top&#45;level UI that wires together the device connection, the visualisation,...">
<polygon fill="white" stroke="#666666" points="372.5,-579 275.5,-579 275.5,-560 372.5,-560 372.5,-579"/>
<text text-anchor="middle" x="324" y="-567" font-family="Helvetica,sans-Serif" font-size="10.00">MainComponent</text>
</a>
</g>
</g>
<!-- Node0&#45;&gt;Node2 -->
<g id="edge2_Node000000_Node000002" class="edge">
<title>Node0&#45;&gt;Node2</title>
<g id="a_edge2_Node000000_Node000002"><a xlink:title=" ">
<path fill="none" stroke="#63b8ff" d="M107.97,-366.68C138.19,-414.47 218.27,-540.38 227,-546.5 241.03,-556.34 258.75,-562 275.13,-565.25"/>
<polygon fill="#63b8ff" stroke="#63b8ff" points="110.93,-364.81 102.63,-358.22 105.01,-368.55 110.93,-364.81"/>
</a>
</g>
</g>
<!-- Node5 -->
<g id="Node000005" class="node">
<title>Node5</title>
<g id="a_Node000005"><a xlink:href="classUmsciConnectingComponent.html" target="_top" xlink:title="Fullscreen progress overlay shown while the OCP.1 connection is being established,...">
<polygon fill="white" stroke="#666666" points="403,-340 245,-340 245,-321 403,-321 403,-340"/>
<text text-anchor="middle" x="324" y="-328" font-family="Helvetica,sans-Serif" font-size="10.00">UmsciConnectingComponent</text>
</a>
</g>
</g>
<!-- Node0&#45;&gt;Node5 -->
<g id="edge3_Node000000_Node000005" class="edge">
<title>Node0&#45;&gt;Node5</title>
<g id="a_edge3_Node000000_Node000005"><a xlink:title=" ">
<path fill="none" stroke="#63b8ff" d="M155.25,-343.83C182.51,-341.66 215.31,-339.06 244.65,-336.73"/>
<polygon fill="#63b8ff" stroke="#63b8ff" points="154.78,-340.36 145.09,-344.64 155.34,-347.34 154.78,-340.36"/>
</a>
</g>
</g>
<!-- Node6 -->
<g id="Node000006" class="node">
<title>Node6</title>
<g id="a_Node000006"><a xlink:href="classUmsciControlComponent.html" target="_top" xlink:title="The main visualisation and interaction surface for Umsci.">
<polygon fill="white" stroke="#666666" points="393.5,-537 254.5,-537 254.5,-518 393.5,-518 393.5,-537"/>
<text text-anchor="middle" x="324" y="-525" font-family="Helvetica,sans-Serif" font-size="10.00">UmsciControlComponent</text>
</a>
</g>
</g>
<!-- Node0&#45;&gt;Node6 -->
<g id="edge4_Node000000_Node000006" class="edge">
<title>Node0&#45;&gt;Node6</title>
<g id="a_edge4_Node000000_Node000006"><a xlink:title=" ">
<path fill="none" stroke="#63b8ff" d="M106.08,-367.32C124.49,-401.43 168.27,-473.22 227,-508.5 235.37,-513.53 244.83,-517.26 254.46,-520.02"/>
<polygon fill="#63b8ff" stroke="#63b8ff" points="109.13,-365.6 101.38,-358.39 102.94,-368.87 109.13,-365.6"/>
</a>
</g>
</g>
<!-- Node8 -->
<g id="Node000008" class="node">
<title>Node8</title>
<g id="a_Node000008"><a xlink:href="classUmsciDbprProjectComponent.html" target="_top" xlink:title="Floating side&#45;panel that shows a condensed summary of a loaded .dbpr project.">
<polygon fill="white" stroke="#666666" points="404.5,-132 243.5,-132 243.5,-113 404.5,-113 404.5,-132"/>
<text text-anchor="middle" x="324" y="-120" font-family="Helvetica,sans-Serif" font-size="10.00">UmsciDbprProjectComponent</text>
</a>
</g>
</g>
<!-- Node0&#45;&gt;Node8 -->
<g id="edge5_Node000000_Node000008" class="edge">
<title>Node0&#45;&gt;Node8</title>
<g id="a_edge5_Node000000_Node000008"><a xlink:title=" ">
<path fill="none" stroke="#63b8ff" d="M113.36,-331.35C133.86,-309.77 168.52,-270.85 191,-232.5 212.99,-194.98 193.59,-169.34 227,-141.5 231.83,-137.48 237.27,-134.22 243.04,-131.59"/>
<polygon fill="#63b8ff" stroke="#63b8ff" points="110.66,-329.11 106.25,-338.74 115.7,-333.96 110.66,-329.11"/>
</a>
</g>
</g>
<!-- Node17 -->
<g id="Node000017" class="node">
<title>Node17</title>
<g id="a_Node000017"><a xlink:href="classUmsciDiscoveringHintComponent.html" target="_top" xlink:title="Fullscreen overlay shown when no DS100 connection has been configured yet.">
<polygon fill="white" stroke="#666666" points="415,-303 233,-303 233,-284 415,-284 415,-303"/>
<text text-anchor="middle" x="324" y="-291" font-family="Helvetica,sans-Serif" font-size="10.00">UmsciDiscoveringHintComponent</text>
</a>
</g>
</g>
<!-- Node0&#45;&gt;Node17 -->
<g id="edge6_Node000000_Node000017" class="edge">
<title>Node0&#45;&gt;Node17</title>
<g id="a_edge6_Node000000_Node000017"><a xlink:title=" ">
<path fill="none" stroke="#63b8ff" d="M138.23,-336.14C163.74,-328.8 197.12,-319.57 227,-312.5 241.22,-309.14 256.72,-305.89 271.03,-303.06"/>
<polygon fill="#63b8ff" stroke="#63b8ff" points="137.14,-332.82 128.51,-338.96 139.09,-339.54 137.14,-332.82"/>
</a>
</g>
</g>
<!-- Node18 -->
<g id="Node000018" class="node">
<title>Node18</title>
<g id="a_Node000018"><a xlink:href="classUmsciExternalControlComponent.html" target="_top" xlink:title="Settings panel for MIDI&#45; and OSC&#45;based external control of the six upmix transform parameters (rotati...">
<polygon fill="white" stroke="#666666" points="413.5,-266 234.5,-266 234.5,-247 413.5,-247 413.5,-266"/>
<text text-anchor="middle" x="324" y="-254" font-family="Helvetica,sans-Serif" font-size="10.00">UmsciExternalControlComponent</text>
</a>
</g>
</g>
<!-- Node0&#45;&gt;Node18 -->
<g id="edge7_Node000000_Node000018" class="edge">
<title>Node0&#45;&gt;Node18</title>
<g id="a_edge7_Node000000_Node000018"><a xlink:title=" ">
<path fill="none" stroke="#63b8ff" d="M118.71,-333.19C143.87,-316.55 186.64,-290.36 227,-275.5 237.44,-271.66 248.83,-268.53 259.99,-266.02"/>
<polygon fill="#63b8ff" stroke="#63b8ff" points="116.63,-330.37 110.27,-338.85 120.53,-336.19 116.63,-330.37"/>
</a>
</g>
</g>
<!-- Node19 -->
<g id="Node000019" class="node">
<title>Node19</title>
<g id="a_Node000019"><a xlink:href="classUmsciExternalControlComponent_1_1MidiTab.html" target="_top" xlink:title=" ">
<polygon fill="white" stroke="#666666" points="413.5,-228.5 234.5,-228.5 234.5,-198.5 413.5,-198.5 413.5,-228.5"/>
<text text-anchor="start" x="242.5" y="-216.5" font-family="Helvetica,sans-Serif" font-size="10.00">UmsciExternalControlComponent</text>
<text text-anchor="middle" x="324" y="-205.5" font-family="Helvetica,sans-Serif" font-size="10.00">::MidiTab</text>
</a>
</g>
</g>
<!-- Node0&#45;&gt;Node19 -->
<g id="edge8_Node000000_Node000019" class="edge">
<title>Node0&#45;&gt;Node19</title>
<g id="a_edge8_Node000000_Node000019"><a xlink:title=" ">
<path fill="none" stroke="#63b8ff" d="M111.77,-331.53C134.51,-307.28 179.71,-262.97 227,-238.5 234.42,-234.66 242.47,-231.38 250.65,-228.58"/>
<polygon fill="#63b8ff" stroke="#63b8ff" points="109.16,-329.2 104.95,-338.92 114.3,-333.95 109.16,-329.2"/>
</a>
</g>
</g>
<!-- Node21 -->
<g id="Node000021" class="node">
<title>Node21</title>
<g id="a_Node000021"><a xlink:href="classUmsciExternalControlComponent_1_1OscTab.html" target="_top" xlink:title=" ">
<polygon fill="white" stroke="#666666" points="413.5,-499.5 234.5,-499.5 234.5,-469.5 413.5,-469.5 413.5,-499.5"/>
<text text-anchor="start" x="242.5" y="-487.5" font-family="Helvetica,sans-Serif" font-size="10.00">UmsciExternalControlComponent</text>
<text text-anchor="middle" x="324" y="-476.5" font-family="Helvetica,sans-Serif" font-size="10.00">::OscTab</text>
</a>
</g>
</g>
<!-- Node0&#45;&gt;Node21 -->
<g id="edge9_Node000000_Node000021" class="edge">
<title>Node0&#45;&gt;Node21</title>
<g id="a_edge9_Node000000_Node000021"><a xlink:title=" ">
<path fill="none" stroke="#63b8ff" d="M111.67,-365.86C134.29,-390.63 179.34,-435.86 227,-460.5 233.64,-463.93 240.79,-466.89 248.1,-469.44"/>
<polygon fill="#63b8ff" stroke="#63b8ff" points="114.17,-363.4 104.89,-358.3 108.96,-368.08 114.17,-363.4"/>
</a>
</g>
</g>
<!-- Node13 -->
<g id="Node000013" class="node">
<title>Node13</title>
<g id="a_Node000013"><a xlink:href="classUmsciPaintNControlComponentBase.html" target="_top" xlink:title="Abstract base class for all three overlaid visualisation layers in UmsciControlComponent.">
<polygon fill="white" stroke="#666666" points="421,-451 227,-451 227,-432 421,-432 421,-451"/>
<text text-anchor="middle" x="324" y="-439" font-family="Helvetica,sans-Serif" font-size="10.00">UmsciPaintNControlComponentBase</text>
</a>
</g>
</g>
<!-- Node0&#45;&gt;Node13 -->
<g id="edge10_Node000000_Node000013" class="edge">
<title>Node0&#45;&gt;Node13</title>
<g id="a_edge10_Node000000_Node000013"><a xlink:title=" ">
<path fill="none" stroke="#63b8ff" d="M118.21,-364.05C143.23,-381.23 186.17,-408.43 227,-423.5 236.23,-426.9 246.2,-429.69 256.11,-431.96"/>
<polygon fill="#63b8ff" stroke="#63b8ff" points="120.05,-361.07 109.84,-358.22 116.04,-366.81 120.05,-361.07"/>
</a>
</g>
</g>
<!-- Node22 -->
<g id="Node000022" class="node">
<title>Node22</title>
<g id="a_Node000022"><a xlink:href="classUmsciSnapshotComponent.html" target="_top" xlink:title="Floating side&#45;panel for storing and recalling a single upmix transform snapshot.">
<polygon fill="white" stroke="#666666" points="398.5,-414 249.5,-414 249.5,-395 398.5,-395 398.5,-414"/>
<text text-anchor="middle" x="324" y="-402" font-family="Helvetica,sans-Serif" font-size="10.00">UmsciSnapshotComponent</text>
</a>
</g>
</g>
<!-- Node0&#45;&gt;Node22 -->
<g id="edge14_Node000000_Node000022" class="edge">
<title>Node0&#45;&gt;Node22</title>
<g id="a_edge14_Node000000_Node000022"><a xlink:title=" ">
<path fill="none" stroke="#63b8ff" d="M135.85,-361.05C161.61,-369 196.1,-379.12 227,-386.5 239.95,-389.59 253.98,-392.48 267.22,-395"/>
<polygon fill="#63b8ff" stroke="#63b8ff" points="136.67,-357.64 126.08,-358.01 134.59,-364.33 136.67,-357.64"/>
</a>
</g>
</g>
<!-- Node23 -->
<g id="Node000023" class="node">
<title>Node23</title>
<g id="a_Node000023"><a xlink:href="classUmsciZeroconfDiscoverComboComponent.html" target="_top" xlink:title="A ComboBox that continuously scans the local network for DS100 devices announced via Zeroconf/mDNS an...">
<polygon fill="white" stroke="#666666" points="408,-180.5 240,-180.5 240,-150.5 408,-150.5 408,-180.5"/>
<text text-anchor="start" x="248" y="-168.5" font-family="Helvetica,sans-Serif" font-size="10.00">UmsciZeroconfDiscoverCombo</text>
<text text-anchor="middle" x="324" y="-157.5" font-family="Helvetica,sans-Serif" font-size="10.00">Component</text>
</a>
</g>
</g>
<!-- Node0&#45;&gt;Node23 -->
<g id="edge15_Node000000_Node000023" class="edge">
<title>Node0&#45;&gt;Node23</title>
<g id="a_edge15_Node000000_Node000023"><a xlink:title=" ">
<path fill="none" stroke="#63b8ff" d="M110.92,-330.78C144.48,-289.58 225.09,-190.71 227,-189.5 232.37,-186.1 238.2,-183.18 244.23,-180.68"/>
<polygon fill="#63b8ff" stroke="#63b8ff" points="108.12,-328.68 104.52,-338.64 113.55,-333.1 108.12,-328.68"/>
</a>
</g>
</g>
<!-- Node14 -->
<g id="Node000014" class="node">
<title>Node14</title>
<g id="a_Node000014"><a xlink:href="classUmsciLoudspeakersPaintComponent.html" target="_top" xlink:title="The bottom layer of the UmsciControlComponent stack — paints a speaker SVG icon at each loudspeaker&#39;s...">
<polygon fill="white" stroke="#666666" points="651,-432 457,-432 457,-413 651,-413 651,-432"/>
<text text-anchor="middle" x="554" y="-420" font-family="Helvetica,sans-Serif" font-size="10.00">UmsciLoudspeakersPaintComponent</text>
</a>
</g>
</g>
<!-- Node13&#45;&gt;Node14 -->
<g id="edge11_Node000013_Node000014" class="edge">
<title>Node13&#45;&gt;Node14</title>
<g id="a_edge11_Node000013_Node000014"><a xlink:title=" ">
<path fill="none" stroke="#63b8ff" d="M431.04,-432.66C439.6,-431.95 448.23,-431.23 456.71,-430.52"/>
<polygon fill="#63b8ff" stroke="#63b8ff" points="430.71,-429.18 421.03,-433.5 431.29,-436.15 430.71,-429.18"/>
</a>
</g>
</g>
<!-- Node15 -->
<g id="Node000015" class="node">
<title>Node15</title>
<g id="a_Node000015"><a xlink:href="classUmsciSoundobjectsPaintComponent.html" target="_top" xlink:title="The middle layer of the UmsciControlComponent stack — paints a filled circle for each sound object an...">
<polygon fill="white" stroke="#666666" points="650.5,-469 457.5,-469 457.5,-450 650.5,-450 650.5,-469"/>
<text text-anchor="middle" x="554" y="-457" font-family="Helvetica,sans-Serif" font-size="10.00">UmsciSoundobjectsPaintComponent</text>
</a>
</g>
</g>
<!-- Node13&#45;&gt;Node15 -->
<g id="edge12_Node000013_Node000015" class="edge">
<title>Node13&#45;&gt;Node15</title>
<g id="a_edge12_Node000013_Node000015"><a xlink:title=" ">
<path fill="none" stroke="#63b8ff" d="M431.25,-449.89C439.99,-450.58 448.79,-451.27 457.44,-451.96"/>
<polygon fill="#63b8ff" stroke="#63b8ff" points="431.28,-446.38 421.03,-449.08 430.73,-453.36 431.28,-446.38"/>
</a>
</g>
</g>
<!-- Node12 -->
<g id="Node000012" class="node">
<title>Node12</title>
<g id="a_Node000012"><a xlink:href="classUmsciUpmixIndicatorPaintNControlComponent.html" target="_top" xlink:title="The top layer of the UmsciControlComponent stack — renders an interactive upmix speaker ring and lets...">
<polygon fill="white" stroke="#666666" points="627,-100.5 481,-100.5 481,-70.5 627,-70.5 627,-100.5"/>
<text text-anchor="start" x="489" y="-88.5" font-family="Helvetica,sans-Serif" font-size="10.00">UmsciUpmixIndicatorPaint</text>
<text text-anchor="middle" x="554" y="-77.5" font-family="Helvetica,sans-Serif" font-size="10.00">NControlComponent</text>
</a>
</g>
</g>
<!-- Node13&#45;&gt;Node12 -->
<g id="edge13_Node000013_Node000012" class="edge">
<title>Node13&#45;&gt;Node12</title>
<g id="a_edge13_Node000013_Node000012"><a xlink:title=" ">
<path fill="none" stroke="#63b8ff" d="M416.82,-426.67C418.26,-425.67 419.65,-424.62 421,-423.5 526.26,-336.28 547.92,-154.07 552.07,-100.57"/>
<polygon fill="#63b8ff" stroke="#63b8ff" points="415.02,-423.67 408.2,-431.77 418.58,-429.69 415.02,-423.67"/>
</a>
</g>
</g>
<!-- Node3 -->
<g id="Node000003" class="node">
<title>Node3</title>
<g id="a_Node000003"><a xlink:title=" ">
<polygon fill="#e0e0e0" stroke="#999999" points="161,-632.5 30,-632.5 30,-602.5 161,-602.5 161,-632.5"/>
<text text-anchor="start" x="38" y="-620.5" font-family="Helvetica,sans-Serif" font-size="10.00">UmsciAppConfiguration</text>
<text text-anchor="middle" x="95.5" y="-609.5" font-family="Helvetica,sans-Serif" font-size="10.00">::Dumper</text>
</a>
</g>
</g>
<!-- Node3&#45;&gt;Node2 -->
<g id="edge16_Node000003_Node000002" class="edge">
<title>Node3&#45;&gt;Node2</title>
<g id="a_edge16_Node000003_Node000002"><a xlink:title=" ">
<path fill="none" stroke="#63b8ff" d="M170.92,-601.73C206.33,-594.22 247.51,-585.5 278.07,-579.02"/>
<polygon fill="#63b8ff" stroke="#63b8ff" points="170.16,-598.31 161.1,-603.81 171.61,-605.16 170.16,-598.31"/>
</a>
</g>
</g>
<!-- Node20 -->
<g id="Node000020" class="node">
<title>Node20</title>
<g id="a_Node000020"><a xlink:title=" ">
<polygon fill="#e0e0e0" stroke="#999999" points="166,-223 25,-223 25,-204 166,-204 166,-223"/>
<text text-anchor="middle" x="95.5" y="-211" font-family="Helvetica,sans-Serif" font-size="10.00">juce::ComboBox::Listener</text>
</a>
</g>
</g>
<!-- Node20&#45;&gt;Node19 -->
<g id="edge17_Node000020_Node000019" class="edge">
<title>Node20&#45;&gt;Node19</title>
<g id="a_edge17_Node000020_Node000019"><a xlink:title=" ">
<path fill="none" stroke="#63b8ff" d="M176.52,-213.5C195.19,-213.5 215.17,-213.5 234.19,-213.5"/>
<polygon fill="#63b8ff" stroke="#63b8ff" points="176.31,-210 166.31,-213.5 176.31,-217 176.31,-210"/>
</a>
</g>
</g>
<!-- Node11 -->
<g id="Node000011" class="node">
<title>Node11</title>
<g id="a_Node000011"><a xlink:title=" ">
<polygon fill="#e0e0e0" stroke="#999999" points="158,-19 33,-19 33,0 158,0 158,-19"/>
<text text-anchor="middle" x="95.5" y="-7" font-family="Helvetica,sans-Serif" font-size="10.00">juce::MessageListener</text>
</a>
</g>
</g>
<!-- Node10 -->
<g id="Node000010" class="node">
<title>Node10</title>
<g id="a_Node000010"><a xlink:href="classDeviceController.html" target="_top" xlink:title="Singleton that owns the OCP.1 (AES70) TCP connection to a d&amp;b audiotechnik DS100 device and exposes a...">
<polygon fill="white" stroke="#666666" points="373,-19 275,-19 275,0 373,0 373,-19"/>
<text text-anchor="middle" x="324" y="-7" font-family="Helvetica,sans-Serif" font-size="10.00">DeviceController</text>
</a>
</g>
</g>
<!-- Node11&#45;&gt;Node10 -->
<g id="edge18_Node000011_Node000010" class="edge">
<title>Node11&#45;&gt;Node10</title>
<g id="a_edge18_Node000011_Node000010"><a xlink:title=" ">
<path fill="none" stroke="#63b8ff" d="M168.19,-9.5C202.92,-9.5 243.71,-9.5 274.7,-9.5"/>
<polygon fill="#63b8ff" stroke="#63b8ff" points="168.09,-6 158.09,-9.5 168.09,-13 168.09,-6"/>
</a>
</g>
</g>
<!-- Node9 -->
<g id="Node000009" class="node">
<title>Node9</title>
<g id="a_Node000009"><a xlink:title=" ">
<polygon fill="#e0e0e0" stroke="#999999" points="131,-57 60,-57 60,-38 131,-38 131,-57"/>
<text text-anchor="middle" x="95.5" y="-45" font-family="Helvetica,sans-Serif" font-size="10.00">juce::Timer</text>
</a>
</g>
</g>
<!-- Node9&#45;&gt;Node8 -->
<g id="edge20_Node000009_Node000008" class="edge">
<title>Node9&#45;&gt;Node8</title>
<g id="a_edge20_Node000009_Node000008"><a xlink:title=" ">
<path fill="none" stroke="#8b1a1a" d="M124.72,-61.67C150.72,-74.22 190.66,-92.25 227,-103.5 239.01,-107.22 252.1,-110.38 264.64,-112.99"/>
<polygon fill="#8b1a1a" stroke="#8b1a1a" points="126,-58.39 115.48,-57.15 122.93,-64.68 126,-58.39"/>
</a>
</g>
</g>
<!-- Node9&#45;&gt;Node12 -->
<g id="edge21_Node000009_Node000012" class="edge">
<title>Node9&#45;&gt;Node12</title>
<g id="a_edge21_Node000009_Node000012"><a xlink:title=" ">
<path fill="none" stroke="#63b8ff" d="M141.48,-48.93C204.21,-51.2 321.48,-56.44 421,-66.5 440.47,-68.47 461.46,-71.21 480.86,-73.99"/>
<polygon fill="#63b8ff" stroke="#63b8ff" points="141.27,-45.42 131.15,-48.57 141.02,-52.42 141.27,-45.42"/>
</a>
</g>
</g>
<!-- Node9&#45;&gt;Node10 -->
<g id="edge19_Node000009_Node000010" class="edge">
<title>Node9&#45;&gt;Node10</title>
<g id="a_edge19_Node000009_Node000010"><a xlink:title=" ">
<path fill="none" stroke="#63b8ff" d="M141.28,-39.99C179.76,-33.53 235.12,-24.24 274.61,-17.62"/>
<polygon fill="#63b8ff" stroke="#63b8ff" points="140.68,-36.54 131.39,-41.65 141.84,-43.44 140.68,-36.54"/>
</a>
</g>
</g>
<!-- Node16 -->
<g id="Node000016" class="node">
<title>Node16</title>
<g id="a_Node000016"><a xlink:title=" ">
<polygon fill="#e0e0e0" stroke="#999999" points="409,-95 239,-95 239,-76 409,-76 409,-95"/>
<text text-anchor="middle" x="324" y="-83" font-family="Helvetica,sans-Serif" font-size="10.00">JUCEAppBasics::TwoDFieldBase</text>
</a>
</g>
</g>
<!-- Node16&#45;&gt;Node12 -->
<g id="edge22_Node000016_Node000012" class="edge">
<title>Node16&#45;&gt;Node12</title>
<g id="a_edge22_Node000016_Node000012"><a xlink:title=" ">
<path fill="none" stroke="#63b8ff" d="M419.53,-85.5C439.97,-85.5 461.28,-85.5 480.71,-85.5"/>
<polygon fill="#63b8ff" stroke="#63b8ff" points="419.25,-82 409.25,-85.5 419.25,-89 419.25,-82"/>
</a>
</g>
</g>
<!-- Node4 -->
<g id="Node000004" class="node">
<title>Node4</title>
<g id="a_Node000004"><a xlink:title=" ">
<polygon fill="#e0e0e0" stroke="#999999" points="161,-584.5 30,-584.5 30,-554.5 161,-554.5 161,-584.5"/>
<text text-anchor="start" x="38" y="-572.5" font-family="Helvetica,sans-Serif" font-size="10.00">UmsciAppConfiguration</text>
<text text-anchor="middle" x="95.5" y="-561.5" font-family="Helvetica,sans-Serif" font-size="10.00">::Watcher</text>
</a>
</g>
</g>
<!-- Node4&#45;&gt;Node2 -->
<g id="edge23_Node000004_Node000002" class="edge">
<title>Node4&#45;&gt;Node2</title>
<g id="a_edge23_Node000004_Node000002"><a xlink:title=" ">
<path fill="none" stroke="#63b8ff" d="M171.53,-569.5C205.72,-569.5 245.17,-569.5 275.24,-569.5"/>
<polygon fill="#63b8ff" stroke="#63b8ff" points="171.1,-566 161.1,-569.5 171.1,-573 171.1,-566"/>
</a>
</g>
</g>
<!-- Node7 -->
<g id="Node000007" class="node">
<title>Node7</title>
<g id="a_Node000007"><a xlink:title=" ">
<polygon fill="#e0e0e0" stroke="#999999" points="167.5,-536.5 23.5,-536.5 23.5,-506.5 167.5,-506.5 167.5,-536.5"/>
<text text-anchor="start" x="31.5" y="-524.5" font-family="Helvetica,sans-Serif" font-size="10.00">UmsciAppConfiguration</text>
<text text-anchor="middle" x="95.5" y="-513.5" font-family="Helvetica,sans-Serif" font-size="10.00">::XmlConfigurableElement</text>
</a>
</g>
</g>
<!-- Node7&#45;&gt;Node6 -->
<g id="edge24_Node000007_Node000006" class="edge">
<title>Node7&#45;&gt;Node6</title>
<g id="a_edge24_Node000007_Node000006"><a xlink:title=" ">
<path fill="none" stroke="#63b8ff" d="M177.74,-523.65C202.76,-524.31 230.05,-525.04 254.15,-525.68"/>
<polygon fill="#63b8ff" stroke="#63b8ff" points="177.63,-520.15 167.54,-523.38 177.45,-527.15 177.63,-520.15"/>
</a>
</g>
</g>
<!-- Node24 -->
<g id="Node000024" class="node">
<title>Node24</title>
<g id="a_Node000024"><a xlink:title=" ">
<polygon fill="#e0e0e0" stroke="#999999" points="191,-180.5 0,-180.5 0,-150.5 191,-150.5 191,-180.5"/>
<text text-anchor="start" x="8" y="-168.5" font-family="Helvetica,sans-Serif" font-size="10.00">ZeroconfSearcher::Zeroconf</text>
<text text-anchor="middle" x="95.5" y="-157.5" font-family="Helvetica,sans-Serif" font-size="10.00">Searcher::ZeroconfSearcherListener</text>
</a>
</g>
</g>
<!-- Node24&#45;&gt;Node23 -->
<g id="edge25_Node000024_Node000023" class="edge">
<title>Node24&#45;&gt;Node23</title>
<g id="a_edge25_Node000024_Node000023"><a xlink:title=" ">
<path fill="none" stroke="#63b8ff" d="M201.5,-165.5C214.35,-165.5 227.34,-165.5 239.8,-165.5"/>
<polygon fill="#63b8ff" stroke="#63b8ff" points="201.24,-162 191.24,-165.5 201.24,-169 201.24,-162"/>
</a>
</g>
</g>
</g>
</svg>
