<?xml version="1.0" encoding="UTF-8" standalone="no"?>
<!DOCTYPE svg PUBLIC "-//W3C//DTD SVG 1.1//EN"
 "http://www.w3.org/Graphics/SVG/1.1/DTD/svg11.dtd">
<!-- Generated by graphviz version 2.43.0 (0)
 -->
<!-- Title: Graphical Class Hierarchy Pages: 1 -->
<svg width="375pt" height="64pt"
 viewBox="0.00 0.00 375.00 64.00" xmlns="http://www.w3.org/2000/svg" xmlns:xlink="http://www.w3.org/1999/xlink">
<g id="graph0" class="graph" transform="scale(1 1) rotate(0) translate(4 60)">
<title>Graphical Class Hierarchy</title>
<!-- Node0 -->
<g id="Node000000" class="node">
<title>Node0</title>
<g id="a_Node000000"><a xlink:title=" ">
<polygon fill="#e0e0e0" stroke="#999999" points="167,-56 0,-56 0,-37 167,-37 167,-56"/>
<text text-anchor="middle" x="83.5" y="-44" font-family="Helvetica,sans-Serif" font-size="10.00">juce::DarkModeSettingListener</text>
</a>
</g>
</g>
<!-- Node1 -->
<g id="Node000001" class="node">
<title>Node1</title>
<g id="a_Node000001"><a xlink:href="classMainApplication_1_1MainWindow.html" target="_top" xlink:title=" ">
<polygon fill="white" stroke="#666666" points="367,-37 203,-37 203,-18 367,-18 367,-37"/>
<text text-anchor="middle" x="285" y="-25" font-family="Helvetica,sans-Serif" font-size="10.00">MainApplication::MainWindow</text>
</a>
</g>
</g>
<!-- Node0&#45;&gt;Node1 -->
<g id="edge23_Node000000_Node000001" class="edge">
<title>Node0&#45;&gt;Node1</title>
<g id="a_edge23_Node000000_Node000001"><a xlink:title=" ">
<path fill="none" stroke="#8b1a1a" d="M177.1,-37.68C185.67,-36.87 194.31,-36.04 202.76,-35.24"/>
<polygon fill="#8b1a1a" stroke="#8b1a1a" points="176.71,-34.2 167.08,-38.63 177.37,-41.17 176.71,-34.2"/>
</a>
</g>
</g>
<!-- Node2 -->
<g id="Node000002" class="node">
<title>Node2</title>
<g id="a_Node000002"><a xlink:title=" ">
<polygon fill="#e0e0e0" stroke="#999999" points="149.5,-19 17.5,-19 17.5,0 149.5,0 149.5,-19"/>
<text text-anchor="middle" x="83.5" y="-7" font-family="Helvetica,sans-Serif" font-size="10.00">juce::DocumentWindow</text>
</a>
</g>
</g>
<!-- Node2&#45;&gt;Node1 -->
<g id="edge24_Node000002_Node000001" class="edge">
<title>Node2&#45;&gt;Node1</title>
<g id="a_edge24_Node000002_Node000001"><a xlink:title=" ">
<path fill="none" stroke="#63b8ff" d="M159.7,-16.29C173.84,-17.56 188.68,-18.9 202.98,-20.19"/>
<polygon fill="#63b8ff" stroke="#63b8ff" points="159.82,-12.78 149.55,-15.37 159.19,-19.75 159.82,-12.78"/>
</a>
</g>
</g>
</g>
</svg>
