<?xml version="1.0" encoding="UTF-8" standalone="no"?>
<!DOCTYPE svg PUBLIC "-//W3C//DTD SVG 1.1//EN"
 "http://www.w3.org/Graphics/SVG/1.1/DTD/svg11.dtd">
<!-- Generated by graphviz version 2.43.0 (0)
 -->
<!-- Title: Graphical Class Hierarchy Pages: 1 -->
<svg width="659pt" height="715pt"
 viewBox="0.00 0.00 659.00 714.50" xmlns="http://www.w3.org/2000/svg" xmlns:xlink="http://www.w3.org/1999/xlink">
<g id="graph0" class="graph" transform="scale(1 1) rotate(0) translate(4 710.5)">
<title>Graphical Class Hierarchy</title>
<!-- Node0 -->
<g id="Node000000" class="node">
<title>Node0</title>
<g id="a_Node000000"><a xlink:title=" ">
<polygon fill="#e0e0e0" stroke="#999999" points="145,-407 46,-407 46,-388 145,-388 145,-407"/>
<text text-anchor="middle" x="95.5" y="-395" font-family="Helvetica,sans-Serif" font-size="10.00">juce::Component</text>
</a>
</g>
</g>
<!-- Node1 -->
<g id="Node000001" class="node">
<title>Node1</title>
<g id="a_Node000001"><a xlink:href="classAboutComponent.html" target="_top" xlink:title="Small overlay panel showing the application icon, version info, and a link to the project repository.">
<polygon fill="white" stroke="#666666" points="374.5,-500 273.5,-500 273.5,-481 374.5,-481 374.5,-500"/>
<text text-anchor="middle" x="324" y="-488" font-family="Helvetica,sans-Serif" font-size="10.00">AboutComponent</text>
</a>
</g>
</g>
<!-- Node0&#45;&gt;Node1 -->
<g id="edge1_Node000000_Node000001" class="edge">
<title>Node0&#45;&gt;Node1</title>
<g id="a_edge1_Node000000_Node000001"><a xlink:title=" ">
<path fill="none" stroke="#63b8ff" d="M118.21,-413.05C143.23,-430.23 186.17,-457.43 227,-472.5 241.64,-477.9 258.15,-481.74 273.3,-484.45"/>
<polygon fill="#63b8ff" stroke="#63b8ff" points="120.05,-410.07 109.84,-407.22 116.04,-415.81 120.05,-410.07"/>
</a>
</g>
</g>
<!-- Node2 -->
<g id="Node000002" class="node">
<title>Node2</title>
<g id="a_Node000002"><a xlink:href="classMainComponent.html" target="_top" xlink:title="Root JUCE component — the top&#45;level UI that wires together the device connection, the visualisation,...">
<polygon fill="white" stroke="#666666" points="372.5,-653 275.5,-653 275.5,-634 372.5,-634 372.5,-653"/>
<text text-anchor="middle" x="324" y="-641" font-family="Helvetica,sans-Serif" font-size="10.00">MainComponent</text>
</a>
</g>
</g>
<!-- Node0&#45;&gt;Node2 -->
<g id="edge2_Node000000_Node000002" class="edge">
<title>Node0&#45;&gt;Node2</title>
<g id="a_edge2_Node000000_Node000002"><a xlink:title=" ">
<path fill="none" stroke="#63b8ff" d="M106.34,-416.18C133.4,-467.28 208.21,-606.56 227,-620.5 240.9,-630.81 258.78,-636.57 275.33,-639.76"/>
<polygon fill="#63b8ff" stroke="#63b8ff" points="109.36,-414.4 101.59,-407.19 103.17,-417.67 109.36,-414.4"/>
</a>
</g>
</g>
<!-- Node5 -->
<g id="Node000005" class="node">
<title>Node5</title>
<g id="a_Node000005"><a xlink:href="classUmsciConnectingComponent.html" target="_top" xlink:title="Fullscreen progress overlay shown while the OCP.1 connection is being established,...">
<polygon fill="white" stroke="#666666" points="403,-463 245,-463 245,-444 403,-444 403,-463"/>
<text text-anchor="middle" x="324" y="-451" font-family="Helvetica,sans-Serif" font-size="10.00">UmsciConnectingComponent</text>
</a>
</g>
</g>
<!-- Node0&#45;&gt;Node5 -->
<g id="edge3_Node000000_Node000005" class="edge">
<title>Node0&#45;&gt;Node5</title>
<g id="a_edge3_Node000000_Node000005"><a xlink:title=" ">
<path fill="none" stroke="#63b8ff" d="M135.85,-410.05C161.61,-418 196.1,-428.12 227,-435.5 239.95,-438.59 253.98,-441.48 267.22,-444"/>
<polygon fill="#63b8ff" stroke="#63b8ff" points="136.67,-406.64 126.08,-407.01 134.59,-413.33 136.67,-406.64"/>
</a>
</g>
</g>
<!-- Node6 -->
<g id="Node000006" class="node">
<title>Node6</title>
<g id="a_Node000006"><a xlink:href="classUmsciControlComponent.html" target="_top" xlink:title="The main visualisation and interaction surface for Umsci.">
<polygon fill="white" stroke="#666666" points="393.5,-611 254.5,-611 254.5,-592 393.5,-592 393.5,-611"/>
<text text-anchor="middle" x="324" y="-599" font-family="Helvetica,sans-Serif" font-size="10.00">UmsciControlComponent</text>
</a>
</g>
</g>
<!-- Node0&#45;&gt;Node6 -->
<g id="edge4_Node000000_Node000006" class="edge">
<title>Node0&#45;&gt;Node6</title>
<g id="a_edge4_Node000000_Node000006"><a xlink:title=" ">
<path fill="none" stroke="#63b8ff" d="M104.03,-416.69C120.2,-455.19 162.13,-541.72 227,-583.5 235.27,-588.83 244.72,-592.66 254.39,-595.41"/>
<polygon fill="#63b8ff" stroke="#63b8ff" points="107.17,-415.12 100.15,-407.19 100.69,-417.77 107.17,-415.12"/>
</a>
</g>
</g>
<!-- Node8 -->
<g id="Node000008" class="node">
<title>Node8</title>
<g id="a_Node000008"><a xlink:href="classUmsciDbprProjectComponent.html" target="_top" xlink:title="Floating side&#45;panel that shows a condensed summary of a loaded .dbpr project.">
<polygon fill="white" stroke="#666666" points="404.5,-255 243.5,-255 243.5,-236 404.5,-236 404.5,-255"/>
<text text-anchor="middle" x="324" y="-243" font-family="Helvetica,sans-Serif" font-size="10.00">UmsciDbprProjectComponent</text>
</a>
</g>
</g>
<!-- Node0&#45;&gt;Node8 -->
<g id="edge5_Node000000_Node000008" class="edge">
<title>Node0&#45;&gt;Node8</title>
<g id="a_edge5_Node000000_Node000008"><a xlink:title=" ">
<path fill="none" stroke="#63b8ff" d="M114.94,-381.08C134.43,-363.47 165.77,-334.39 191,-307.5 208.05,-289.32 205.55,-277.2 227,-264.5 233.58,-260.6 240.81,-257.49 248.26,-255.01"/>
<polygon fill="#63b8ff" stroke="#63b8ff" points="112.46,-378.6 107.37,-387.89 117.14,-383.81 112.46,-378.6"/>
</a>
</g>
</g>
<!-- Node19 -->
<g id="Node000019" class="node">
<title>Node19</title>
<g id="a_Node000019"><a xlink:href="classUmsciDiscoveringHintComponent.html" target="_top" xlink:title="Fullscreen overlay shown when no DS100 connection has been configured yet.">
<polygon fill="white" stroke="#666666" points="415,-426 233,-426 233,-407 415,-407 415,-426"/>
<text text-anchor="middle" x="324" y="-414" font-family="Helvetica,sans-Serif" font-size="10.00">UmsciDiscoveringHintComponent</text>
</a>
</g>
</g>
<!-- Node0&#45;&gt;Node19 -->
<g id="edge6_Node000000_Node000019" class="edge">
<title>Node0&#45;&gt;Node19</title>
<g id="a_edge6_Node000000_Node000019"><a xlink:title=" ">
<path fill="none" stroke="#63b8ff" d="M155.3,-402.43C178.97,-404.42 206.8,-406.75 232.92,-408.94"/>
<polygon fill="#63b8ff" stroke="#63b8ff" points="155.35,-398.92 145.09,-401.58 154.76,-405.9 155.35,-398.92"/>
</a>
</g>
</g>
<!-- Node20 -->
<g id="Node000020" class="node">
<title>Node20</title>
<g id="a_Node000020"><a xlink:href="classUmsciExternalControlComponent.html" target="_top" xlink:title="Settings panel for MIDI&#45; and OSC&#45;based external control of the six upmix transform parameters (rotati...">
<polygon fill="white" stroke="#666666" points="413.5,-389 234.5,-389 234.5,-370 413.5,-370 413.5,-389"/>
<text text-anchor="middle" x="324" y="-377" font-family="Helvetica,sans-Serif" font-size="10.00">UmsciExternalControlComponent</text>
</a>
</g>
</g>
<!-- Node0&#45;&gt;Node20 -->
<g id="edge7_Node000000_Node000020" class="edge">
<title>Node0&#45;&gt;Node20</title>
<g id="a_edge7_Node000000_Node000020"><a xlink:title=" ">
<path fill="none" stroke="#63b8ff" d="M155.14,-392.84C179.26,-390.92 207.72,-388.66 234.28,-386.55"/>
<polygon fill="#63b8ff" stroke="#63b8ff" points="154.78,-389.36 145.09,-393.64 155.34,-396.34 154.78,-389.36"/>
</a>
</g>
</g>
<!-- Node21 -->
<g id="Node000021" class="node">
<title>Node21</title>
<g id="a_Node000021"><a xlink:href="classUmsciExternalControlComponent_1_1MidiTab.html" target="_top" xlink:title=" ">
<polygon fill="white" stroke="#666666" points="413.5,-303.5 234.5,-303.5 234.5,-273.5 413.5,-273.5 413.5,-303.5"/>
<text text-anchor="start" x="242.5" y="-291.5" font-family="Helvetica,sans-Serif" font-size="10.00">UmsciExternalControlComponent</text>
<text text-anchor="middle" x="324" y="-280.5" font-family="Helvetica,sans-Serif" font-size="10.00">::MidiTab</text>
</a>
</g>
</g>
<!-- Node0&#45;&gt;Node21 -->
<g id="edge8_Node000000_Node000021" class="edge">
<title>Node0&#45;&gt;Node21</title>
<g id="a_edge8_Node000000_Node000021"><a xlink:title=" ">
<path fill="none" stroke="#63b8ff" d="M116.47,-381.42C141.09,-362.37 184.84,-330.88 227,-312.5 234.8,-309.1 243.17,-306.12 251.6,-303.52"/>
<polygon fill="#63b8ff" stroke="#63b8ff" points="114.01,-378.91 108.31,-387.84 118.34,-384.41 114.01,-378.91"/>
</a>
</g>
</g>
<!-- Node23 -->
<g id="Node000023" class="node">
<title>Node23</title>
<g id="a_Node000023"><a xlink:href="classUmsciExternalControlComponent_1_1OscTab.html" target="_top" xlink:title=" ">
<polygon fill="white" stroke="#666666" points="413.5,-351.5 234.5,-351.5 234.5,-321.5 413.5,-321.5 413.5,-351.5"/>
<text text-anchor="start" x="242.5" y="-339.5" font-family="Helvetica,sans-Serif" font-size="10.00">UmsciExternalControlComponent</text>
<text text-anchor="middle" x="324" y="-328.5" font-family="Helvetica,sans-Serif" font-size="10.00">::OscTab</text>
</a>
</g>
</g>
<!-- Node0&#45;&gt;Node23 -->
<g id="edge9_Node000000_Node000023" class="edge">
<title>Node0&#45;&gt;Node23</title>
<g id="a_edge9_Node000000_Node000023"><a xlink:title=" ">
<path fill="none" stroke="#63b8ff" d="M140.22,-385.27C165.54,-378.23 198.04,-369.26 227,-361.5 239.23,-358.22 252.35,-354.77 264.84,-351.5"/>
<polygon fill="#63b8ff" stroke="#63b8ff" points="139.23,-381.91 130.54,-387.97 141.11,-388.66 139.23,-381.91"/>
</a>
</g>
</g>
<!-- Node12 -->
<g id="Node000012" class="node">
<title>Node12</title>
<g id="a_Node000012"><a xlink:href="classUmsciLevelMeterPaintComponent.html" target="_top" xlink:title="Transparent overlay component that paints circular radial level meters for the upmix channels,...">
<polygon fill="white" stroke="#666666" points="415,-218 233,-218 233,-199 415,-199 415,-218"/>
<text text-anchor="middle" x="324" y="-206" font-family="Helvetica,sans-Serif" font-size="10.00">UmsciLevelMeterPaintComponent</text>
</a>
</g>
</g>
<!-- Node0&#45;&gt;Node12 -->
<g id="edge10_Node000000_Node000012" class="edge">
<title>Node0&#45;&gt;Node12</title>
<g id="a_edge10_Node000000_Node000012"><a xlink:title=" ">
<path fill="none" stroke="#63b8ff" d="M117.23,-381.76C138.04,-365.13 169.94,-337.24 191,-307.5 213.54,-275.68 196.48,-251.76 227,-227.5 231.79,-223.69 237.13,-220.58 242.77,-218.05"/>
<polygon fill="#63b8ff" stroke="#63b8ff" points="115.03,-379.04 109.32,-387.97 119.35,-384.55 115.03,-379.04"/>
</a>
</g>
</g>
<!-- Node14 -->
<g id="Node000014" class="node">
<title>Node14</title>
<g id="a_Node000014"><a xlink:href="classUmsciPaintNControlComponentBase.html" target="_top" xlink:title="Abstract base class for all three overlaid visualisation layers in UmsciControlComponent.">
<polygon fill="white" stroke="#666666" points="421,-574 227,-574 227,-555 421,-555 421,-574"/>
<text text-anchor="middle" x="324" y="-562" font-family="Helvetica,sans-Serif" font-size="10.00">UmsciPaintNControlComponentBase</text>
</a>
</g>
</g>
<!-- Node0&#45;&gt;Node14 -->
<g id="edge11_Node000000_Node000014" class="edge">
<title>Node0&#45;&gt;Node14</title>
<g id="a_edge11_Node000000_Node000014"><a xlink:title=" ">
<path fill="none" stroke="#63b8ff" d="M106.91,-415.95C126.13,-448.15 170.43,-514.23 227,-546.5 232.89,-549.86 239.29,-552.61 245.88,-554.86"/>
<polygon fill="#63b8ff" stroke="#63b8ff" points="109.83,-414 101.77,-407.12 103.78,-417.52 109.83,-414"/>
</a>
</g>
</g>
<!-- Node24 -->
<g id="Node000024" class="node">
<title>Node24</title>
<g id="a_Node000024"><a xlink:href="classUmsciSnapshotComponent.html" target="_top" xlink:title="Floating side&#45;panel for storing and recalling a single upmix transform snapshot.">
<polygon fill="white" stroke="#666666" points="398.5,-537 249.5,-537 249.5,-518 398.5,-518 398.5,-537"/>
<text text-anchor="middle" x="324" y="-525" font-family="Helvetica,sans-Serif" font-size="10.00">UmsciSnapshotComponent</text>
</a>
</g>
</g>
<!-- Node0&#45;&gt;Node24 -->
<g id="edge15_Node000000_Node000024" class="edge">
<title>Node0&#45;&gt;Node24</title>
<g id="a_edge15_Node000000_Node000024"><a xlink:title=" ">
<path fill="none" stroke="#63b8ff" d="M111.15,-414.86C133.42,-440.03 178.39,-486.18 227,-509.5 234.19,-512.95 241.97,-515.74 249.89,-517.99"/>
<polygon fill="#63b8ff" stroke="#63b8ff" points="113.69,-412.45 104.49,-407.19 108.4,-417.04 113.69,-412.45"/>
</a>
</g>
</g>
<!-- Node18 -->
<g id="Node000018" class="node">
<title>Node18</title>
<g id="a_Node000018"><a xlink:href="classUmsciUpmixParamsComponent.html" target="_top" xlink:title="Floating left&#45;side panel for batch&#45;controlling Positioning_SourceSpread and Positioning_SourceDelayMo...">
<polygon fill="white" stroke="#666666" points="410,-181 238,-181 238,-162 410,-162 410,-181"/>
<text text-anchor="middle" x="324" y="-169" font-family="Helvetica,sans-Serif" font-size="10.00">UmsciUpmixParamsComponent</text>
</a>
</g>
</g>
<!-- Node0&#45;&gt;Node18 -->
<g id="edge16_Node000000_Node000018" class="edge">
<title>Node0&#45;&gt;Node18</title>
<g id="a_edge16_Node000000_Node000018"><a xlink:title=" ">
<path fill="none" stroke="#63b8ff" d="M118.74,-381.76C140.18,-365.48 172.07,-338.17 191,-307.5 219.8,-260.84 186.14,-226.07 227,-189.5 230.66,-186.22 234.73,-183.45 239.06,-181.12"/>
<polygon fill="#63b8ff" stroke="#63b8ff" points="116.48,-379.07 110.53,-387.84 120.65,-384.69 116.48,-379.07"/>
</a>
</g>
</g>
<!-- Node25 -->
<g id="Node000025" class="node">
<title>Node25</title>
<g id="a_Node000025"><a xlink:href="classUmsciZeroconfDiscoverComboComponent.html" target="_top" xlink:title="A ComboBox that continuously scans the local network for DS100 devices announced via Zeroconf/mDNS an...">
<polygon fill="white" stroke="#666666" points="408,-143.5 240,-143.5 240,-113.5 408,-113.5 408,-143.5"/>
<text text-anchor="start" x="248" y="-131.5" font-family="Helvetica,sans-Serif" font-size="10.00">UmsciZeroconfDiscoverCombo</text>
<text text-anchor="middle" x="324" y="-120.5" font-family="Helvetica,sans-Serif" font-size="10.00">Component</text>
</a>
</g>
</g>
<!-- Node0&#45;&gt;Node25 -->
<g id="edge17_Node000000_Node000025" class="edge">
<title>Node0&#45;&gt;Node25</title>
<g id="a_edge17_Node000000_Node000025"><a xlink:title=" ">
<path fill="none" stroke="#63b8ff" d="M119.55,-381.76C141.33,-365.65 173.22,-338.62 191,-307.5 226.08,-246.09 177.41,-202.93 227,-152.5 230.85,-148.58 235.25,-145.27 239.98,-142.47"/>
<polygon fill="#63b8ff" stroke="#63b8ff" points="117.26,-379.09 111.19,-387.78 121.35,-384.77 117.26,-379.09"/>
</a>
</g>
</g>
<!-- Node15 -->
<g id="Node000015" class="node">
<title>Node15</title>
<g id="a_Node000015"><a xlink:href="classUmsciLoudspeakersPaintComponent.html" target="_top" xlink:title="The bottom layer of the UmsciControlComponent stack — paints a speaker SVG icon at each loudspeaker&#39;s...">
<polygon fill="white" stroke="#666666" points="651,-555 457,-555 457,-536 651,-536 651,-555"/>
<text text-anchor="middle" x="554" y="-543" font-family="Helvetica,sans-Serif" font-size="10.00">UmsciLoudspeakersPaintComponent</text>
</a>
</g>
</g>
<!-- Node14&#45;&gt;Node15 -->
<g id="edge12_Node000014_Node000015" class="edge">
<title>Node14&#45;&gt;Node15</title>
<g id="a_edge12_Node000014_Node000015"><a xlink:title=" ">
<path fill="none" stroke="#63b8ff" d="M431.04,-555.66C439.6,-554.95 448.23,-554.23 456.71,-553.52"/>
<polygon fill="#63b8ff" stroke="#63b8ff" points="430.71,-552.18 421.03,-556.5 431.29,-559.15 430.71,-552.18"/>
</a>
</g>
</g>
<!-- Node16 -->
<g id="Node000016" class="node">
<title>Node16</title>
<g id="a_Node000016"><a xlink:href="classUmsciSoundobjectsPaintComponent.html" target="_top" xlink:title="The middle layer of the UmsciControlComponent stack — paints a filled circle for each sound object an...">
<polygon fill="white" stroke="#666666" points="650.5,-592 457.5,-592 457.5,-573 650.5,-573 650.5,-592"/>
<text text-anchor="middle" x="554" y="-580" font-family="Helvetica,sans-Serif" font-size="10.00">UmsciSoundobjectsPaintComponent</text>
</a>
</g>
</g>
<!-- Node14&#45;&gt;Node16 -->
<g id="edge13_Node000014_Node000016" class="edge">
<title>Node14&#45;&gt;Node16</title>
<g id="a_edge13_Node000014_Node000016"><a xlink:title=" ">
<path fill="none" stroke="#63b8ff" d="M431.25,-572.89C439.99,-573.58 448.79,-574.27 457.44,-574.96"/>
<polygon fill="#63b8ff" stroke="#63b8ff" points="431.28,-569.38 421.03,-572.08 430.73,-576.36 431.28,-569.38"/>
</a>
</g>
</g>
<!-- Node13 -->
<g id="Node000013" class="node">
<title>Node13</title>
<g id="a_Node000013"><a xlink:href="classUmsciUpmixIndicatorPaintNControlComponent.html" target="_top" xlink:title="The top layer of the UmsciControlComponent stack — renders an interactive upmix speaker ring and lets...">
<polygon fill="white" stroke="#666666" points="627,-100.5 481,-100.5 481,-70.5 627,-70.5 627,-100.5"/>
<text text-anchor="start" x="489" y="-88.5" font-family="Helvetica,sans-Serif" font-size="10.00">UmsciUpmixIndicatorPaint</text>
<text text-anchor="middle" x="554" y="-77.5" font-family="Helvetica,sans-Serif" font-size="10.00">NControlComponent</text>
</a>
</g>
</g>
<!-- Node14&#45;&gt;Node13 -->
<g id="edge14_Node000014_Node000013" class="edge">
<title>Node14&#45;&gt;Node13</title>
<g id="a_edge14_Node000014_Node000013"><a xlink:title=" ">
<path fill="none" stroke="#63b8ff" d="M417.48,-549.45C418.69,-548.52 419.86,-547.53 421,-546.5 490.4,-483.3 539.96,-173.75 550.78,-100.88"/>
<polygon fill="#63b8ff" stroke="#63b8ff" points="415.49,-546.57 409.01,-554.95 419.3,-552.44 415.49,-546.57"/>
</a>
</g>
</g>
<!-- Node3 -->
<g id="Node000003" class="node">
<title>Node3</title>
<g id="a_Node000003"><a xlink:title=" ">
<polygon fill="#e0e0e0" stroke="#999999" points="161,-706.5 30,-706.5 30,-676.5 161,-676.5 161,-706.5"/>
<text text-anchor="start" x="38" y="-694.5" font-family="Helvetica,sans-Serif" font-size="10.00">UmsciAppConfiguration</text>
<text text-anchor="middle" x="95.5" y="-683.5" font-family="Helvetica,sans-Serif" font-size="10.00">::Dumper</text>
</a>
</g>
</g>
<!-- Node3&#45;&gt;Node2 -->
<g id="edge18_Node000003_Node000002" class="edge">
<title>Node3&#45;&gt;Node2</title>
<g id="a_edge18_Node000003_Node000002"><a xlink:title=" ">
<path fill="none" stroke="#63b8ff" d="M170.92,-675.73C206.33,-668.22 247.51,-659.5 278.07,-653.02"/>
<polygon fill="#63b8ff" stroke="#63b8ff" points="170.16,-672.31 161.1,-677.81 171.61,-679.16 170.16,-672.31"/>
</a>
</g>
</g>
<!-- Node22 -->
<g id="Node000022" class="node">
<title>Node22</title>
<g id="a_Node000022"><a xlink:title=" ">
<polygon fill="#e0e0e0" stroke="#999999" points="166,-298 25,-298 25,-279 166,-279 166,-298"/>
<text text-anchor="middle" x="95.5" y="-286" font-family="Helvetica,sans-Serif" font-size="10.00">juce::ComboBox::Listener</text>
</a>
</g>
</g>
<!-- Node22&#45;&gt;Node21 -->
<g id="edge19_Node000022_Node000021" class="edge">
<title>Node22&#45;&gt;Node21</title>
<g id="a_edge19_Node000022_Node000021"><a xlink:title=" ">
<path fill="none" stroke="#63b8ff" d="M176.52,-288.5C195.19,-288.5 215.17,-288.5 234.19,-288.5"/>
<polygon fill="#63b8ff" stroke="#63b8ff" points="176.31,-285 166.31,-288.5 176.31,-292 176.31,-285"/>
</a>
</g>
</g>
<!-- Node11 -->
<g id="Node000011" class="node">
<title>Node11</title>
<g id="a_Node000011"><a xlink:title=" ">
<polygon fill="#e0e0e0" stroke="#999999" points="158,-19 33,-19 33,0 158,0 158,-19"/>
<text text-anchor="middle" x="95.5" y="-7" font-family="Helvetica,sans-Serif" font-size="10.00">juce::MessageListener</text>
</a>
</g>
</g>
<!-- Node10 -->
<g id="Node000010" class="node">
<title>Node10</title>
<g id="a_Node000010"><a xlink:href="classDeviceController.html" target="_top" xlink:title="Singleton that owns the OCP.1 (AES70) TCP connection to a d&amp;b audiotechnik DS100 device and exposes a...">
<polygon fill="white" stroke="#666666" points="373,-19 275,-19 275,0 373,0 373,-19"/>
<text text-anchor="middle" x="324" y="-7" font-family="Helvetica,sans-Serif" font-size="10.00">DeviceController</text>
</a>
</g>
</g>
<!-- Node11&#45;&gt;Node10 -->
<g id="edge20_Node000011_Node000010" class="edge">
<title>Node11&#45;&gt;Node10</title>
<g id="a_edge20_Node000011_Node000010"><a xlink:title=" ">
<path fill="none" stroke="#63b8ff" d="M168.19,-9.5C202.92,-9.5 243.71,-9.5 274.7,-9.5"/>
<polygon fill="#63b8ff" stroke="#63b8ff" points="168.09,-6 158.09,-9.5 168.09,-13 168.09,-6"/>
</a>
</g>
</g>
<!-- Node9 -->
<g id="Node000009" class="node">
<title>Node9</title>
<g id="a_Node000009"><a xlink:title=" ">
<polygon fill="#e0e0e0" stroke="#999999" points="131,-181 60,-181 60,-162 131,-162 131,-181"/>
<text text-anchor="middle" x="95.5" y="-169" font-family="Helvetica,sans-Serif" font-size="10.00">juce::Timer</text>
</a>
</g>
</g>
<!-- Node9&#45;&gt;Node8 -->
<g id="edge22_Node000009_Node000008" class="edge">
<title>Node9&#45;&gt;Node8</title>
<g id="a_edge22_Node000009_Node000008"><a xlink:title=" ">
<path fill="none" stroke="#8b1a1a" d="M124.7,-185.75C150.68,-198.36 190.61,-216.43 227,-227.5 237.87,-230.81 249.62,-233.62 261.06,-235.96"/>
<polygon fill="#8b1a1a" stroke="#8b1a1a" points="125.98,-182.48 115.46,-181.21 122.89,-188.76 125.98,-182.48"/>
</a>
</g>
</g>
<!-- Node9&#45;&gt;Node12 -->
<g id="edge23_Node000009_Node000012" class="edge">
<title>Node9&#45;&gt;Node12</title>
<g id="a_edge23_Node000009_Node000012"><a xlink:title=" ">
<path fill="none" stroke="#8b1a1a" d="M141.42,-178.84C176.77,-184.61 226.3,-192.7 264.71,-198.98"/>
<polygon fill="#8b1a1a" stroke="#8b1a1a" points="141.83,-175.36 131.39,-177.2 140.7,-182.27 141.83,-175.36"/>
</a>
</g>
</g>
<!-- Node9&#45;&gt;Node13 -->
<g id="edge24_Node000009_Node000013" class="edge">
<title>Node9&#45;&gt;Node13</title>
<g id="a_edge24_Node000009_Node000013"><a xlink:title=" ">
<path fill="none" stroke="#63b8ff" d="M141.68,-171.15C158.72,-168.93 177.28,-163.74 191,-152.5 223.05,-126.24 192.5,-89.46 227,-66.5 316.68,-6.82 452.81,-46.2 517.05,-70.46"/>
<polygon fill="#63b8ff" stroke="#63b8ff" points="140.93,-167.71 131.32,-172.18 141.62,-174.68 140.93,-167.71"/>
</a>
</g>
</g>
<!-- Node9&#45;&gt;Node18 -->
<g id="edge25_Node000009_Node000018" class="edge">
<title>Node9&#45;&gt;Node18</title>
<g id="a_edge25_Node000009_Node000018"><a xlink:title=" ">
<path fill="none" stroke="#63b8ff" d="M141.48,-171.5C168.94,-171.5 204.96,-171.5 237.66,-171.5"/>
<polygon fill="#63b8ff" stroke="#63b8ff" points="141.39,-168 131.39,-171.5 141.39,-175 141.39,-168"/>
</a>
</g>
</g>
<!-- Node9&#45;&gt;Node10 -->
<g id="edge21_Node000009_Node000010" class="edge">
<title>Node9&#45;&gt;Node10</title>
<g id="a_edge21_Node000009_Node000010"><a xlink:title=" ">
<path fill="none" stroke="#63b8ff" d="M141.4,-171.97C158.77,-169.92 177.65,-164.64 191,-152.5 231.89,-115.33 186.99,-71.61 227,-33.5 239.81,-21.3 257.86,-15.03 274.85,-11.89"/>
<polygon fill="#63b8ff" stroke="#63b8ff" points="141.06,-168.49 131.4,-172.83 141.66,-175.46 141.06,-168.49"/>
</a>
</g>
</g>
<!-- Node17 -->
<g id="Node000017" class="node">
<title>Node17</title>
<g id="a_Node000017"><a xlink:title=" ">
<polygon fill="#e0e0e0" stroke="#999999" points="409,-95 239,-95 239,-76 409,-76 409,-95"/>
<text text-anchor="middle" x="324" y="-83" font-family="Helvetica,sans-Serif" font-size="10.00">JUCEAppBasics::TwoDFieldBase</text>
</a>
</g>
</g>
<!-- Node17&#45;&gt;Node13 -->
<g id="edge26_Node000017_Node000013" class="edge">
<title>Node17&#45;&gt;Node13</title>
<g id="a_edge26_Node000017_Node000013"><a xlink:title=" ">
<path fill="none" stroke="#63b8ff" d="M419.53,-85.5C439.97,-85.5 461.28,-85.5 480.71,-85.5"/>
<polygon fill="#63b8ff" stroke="#63b8ff" points="419.25,-82 409.25,-85.5 419.25,-89 419.25,-82"/>
</a>
</g>
</g>
<!-- Node4 -->
<g id="Node000004" class="node">
<title>Node4</title>
<g id="a_Node000004"><a xlink:title=" ">
<polygon fill="#e0e0e0" stroke="#999999" points="161,-658.5 30,-658.5 30,-628.5 161,-628.5 161,-658.5"/>
<text text-anchor="start" x="38" y="-646.5" font-family="Helvetica,sans-Serif" font-size="10.00">UmsciAppConfiguration</text>
<text text-anchor="middle" x="95.5" y="-635.5" font-family="Helvetica,sans-Serif" font-size="10.00">::Watcher</text>
</a>
</g>
</g>
<!-- Node4&#45;&gt;Node2 -->
<g id="edge27_Node000004_Node000002" class="edge">
<title>Node4&#45;&gt;Node2</title>
<g id="a_edge27_Node000004_Node000002"><a xlink:title=" ">
<path fill="none" stroke="#63b8ff" d="M171.53,-643.5C205.72,-643.5 245.17,-643.5 275.24,-643.5"/>
<polygon fill="#63b8ff" stroke="#63b8ff" points="171.1,-640 161.1,-643.5 171.1,-647 171.1,-640"/>
</a>
</g>
</g>
<!-- Node7 -->
<g id="Node000007" class="node">
<title>Node7</title>
<g id="a_Node000007"><a xlink:title=" ">
<polygon fill="#e0e0e0" stroke="#999999" points="167.5,-610.5 23.5,-610.5 23.5,-580.5 167.5,-580.5 167.5,-610.5"/>
<text text-anchor="start" x="31.5" y="-598.5" font-family="Helvetica,sans-Serif" font-size="10.00">UmsciAppConfiguration</text>
<text text-anchor="middle" x="95.5" y="-587.5" font-family="Helvetica,sans-Serif" font-size="10.00">::XmlConfigurableElement</text>
</a>
</g>
</g>
<!-- Node7&#45;&gt;Node6 -->
<g id="edge28_Node000007_Node000006" class="edge">
<title>Node7&#45;&gt;Node6</title>
<g id="a_edge28_Node000007_Node000006"><a xlink:title=" ">
<path fill="none" stroke="#63b8ff" d="M177.74,-597.65C202.76,-598.31 230.05,-599.04 254.15,-599.68"/>
<polygon fill="#63b8ff" stroke="#63b8ff" points="177.63,-594.15 167.54,-597.38 177.45,-601.15 177.63,-594.15"/>
</a>
</g>
</g>
<!-- Node26 -->
<g id="Node000026" class="node">
<title>Node26</title>
<g id="a_Node000026"><a xlink:title=" ">
<polygon fill="#e0e0e0" stroke="#999999" points="191,-143.5 0,-143.5 0,-113.5 191,-113.5 191,-143.5"/>
<text text-anchor="start" x="8" y="-131.5" font-family="Helvetica,sans-Serif" font-size="10.00">ZeroconfSearcher::Zeroconf</text>
<text text-anchor="middle" x="95.5" y="-120.5" font-family="Helvetica,sans-Serif" font-size="10.00">Searcher::ZeroconfSearcherListener</text>
</a>
</g>
</g>
<!-- Node26&#45;&gt;Node25 -->
<g id="edge29_Node000026_Node000025" class="edge">
<title>Node26&#45;&gt;Node25</title>
<g id="a_edge29_Node000026_Node000025"><a xlink:title=" ">
<path fill="none" stroke="#63b8ff" d="M201.5,-128.5C214.35,-128.5 227.34,-128.5 239.8,-128.5"/>
<polygon fill="#63b8ff" stroke="#63b8ff" points="201.24,-125 191.24,-128.5 201.24,-132 201.24,-125"/>
</a>
</g>
</g>
</g>
</svg>
