<?xml version="1.0" encoding="UTF-8" standalone="no"?>
<!DOCTYPE svg PUBLIC "-//W3C//DTD SVG 1.1//EN"
 "http://www.w3.org/Graphics/SVG/1.1/DTD/svg11.dtd">
<!-- Generated by graphviz version 2.43.0 (0)
 -->
<!-- Title: Graphical Class Hierarchy Pages: 1 -->
<svg width="659pt" height="536pt"
 viewBox="0.00 0.00 659.00 536.00" xmlns="http://www.w3.org/2000/svg" xmlns:xlink="http://www.w3.org/1999/xlink">
<g id="graph0" class="graph" transform="scale(1 1) rotate(0) translate(4 532)">
<title>Graphical Class Hierarchy</title>
<!-- Node0 -->
<g id="Node000000" class="node">
<title>Node0</title>
<g id="a_Node000000"><a xlink:title=" ">
<polygon fill="#e0e0e0" stroke="#999999" points="145,-319.5 46,-319.5 46,-300.5 145,-300.5 145,-319.5"/>
<text text-anchor="middle" x="95.5" y="-307.5" font-family="Helvetica,sans-Serif" font-size="10.00">juce::Component</text>
</a>
</g>
</g>
<!-- Node1 -->
<g id="Node000001" class="node">
<title>Node1</title>
<g id="a_Node000001"><a xlink:href="classAboutComponent.html" target="_top" xlink:title="Small overlay panel showing the application icon, version info, and a link to the project repository.">
<polygon fill="white" stroke="#666666" points="374.5,-338.5 273.5,-338.5 273.5,-319.5 374.5,-319.5 374.5,-338.5"/>
<text text-anchor="middle" x="324" y="-326.5" font-family="Helvetica,sans-Serif" font-size="10.00">AboutComponent</text>
</a>
</g>
</g>
<!-- Node0&#45;&gt;Node1 -->
<g id="edge1_Node000000_Node000001" class="edge">
<title>Node0&#45;&gt;Node1</title>
<g id="a_edge1_Node000000_Node000001"><a xlink:title=" ">
<path fill="none" stroke="#63b8ff" d="M155.14,-314.92C191.8,-317.99 238.49,-321.91 273.32,-324.83"/>
<polygon fill="#63b8ff" stroke="#63b8ff" points="155.35,-311.42 145.09,-314.08 154.76,-318.4 155.35,-311.42"/>
</a>
</g>
</g>
<!-- Node2 -->
<g id="Node000002" class="node">
<title>Node2</title>
<g id="a_Node000002"><a xlink:href="classMainComponent.html" target="_top" xlink:title="Root JUCE component — the top&#45;level UI that wires together the device connection, the visualisation,...">
<polygon fill="white" stroke="#666666" points="372.5,-498.5 275.5,-498.5 275.5,-479.5 372.5,-479.5 372.5,-498.5"/>
<text text-anchor="middle" x="324" y="-486.5" font-family="Helvetica,sans-Serif" font-size="10.00">MainComponent</text>
</a>
</g>
</g>
<!-- Node0&#45;&gt;Node2 -->
<g id="edge2_Node000000_Node000002" class="edge">
<title>Node0&#45;&gt;Node2</title>
<g id="a_edge2_Node000000_Node000002"><a xlink:title=" ">
<path fill="none" stroke="#63b8ff" d="M108.77,-328.12C134.94,-366.25 196.37,-452.74 227,-471 241.42,-479.6 259.04,-484.23 275.24,-486.69"/>
<polygon fill="#63b8ff" stroke="#63b8ff" points="111.44,-325.83 102.91,-319.54 105.66,-329.78 111.44,-325.83"/>
</a>
</g>
</g>
<!-- Node5 -->
<g id="Node000005" class="node">
<title>Node5</title>
<g id="a_Node000005"><a xlink:href="classUmsciConnectingComponent.html" target="_top" xlink:title="Fullscreen progress overlay shown while the OCP.1 connection is being established,...">
<polygon fill="white" stroke="#666666" points="403,-301.5 245,-301.5 245,-282.5 403,-282.5 403,-301.5"/>
<text text-anchor="middle" x="324" y="-289.5" font-family="Helvetica,sans-Serif" font-size="10.00">UmsciConnectingComponent</text>
</a>
</g>
</g>
<!-- Node0&#45;&gt;Node5 -->
<g id="edge3_Node000000_Node000005" class="edge">
<title>Node0&#45;&gt;Node5</title>
<g id="a_edge3_Node000000_Node000005"><a xlink:title=" ">
<path fill="none" stroke="#63b8ff" d="M155.25,-305.33C182.51,-303.16 215.31,-300.56 244.65,-298.23"/>
<polygon fill="#63b8ff" stroke="#63b8ff" points="154.78,-301.86 145.09,-306.14 155.34,-308.84 154.78,-301.86"/>
</a>
</g>
</g>
<!-- Node6 -->
<g id="Node000006" class="node">
<title>Node6</title>
<g id="a_Node000006"><a xlink:href="classUmsciControlComponent.html" target="_top" xlink:title="The main visualisation and interaction surface for Umsci.">
<polygon fill="white" stroke="#666666" points="393.5,-227.5 254.5,-227.5 254.5,-208.5 393.5,-208.5 393.5,-227.5"/>
<text text-anchor="middle" x="324" y="-215.5" font-family="Helvetica,sans-Serif" font-size="10.00">UmsciControlComponent</text>
</a>
</g>
</g>
<!-- Node0&#45;&gt;Node6 -->
<g id="edge4_Node000000_Node000006" class="edge">
<title>Node0&#45;&gt;Node6</title>
<g id="a_edge4_Node000000_Node000006"><a xlink:title=" ">
<path fill="none" stroke="#63b8ff" d="M118.71,-294.69C143.87,-278.05 186.64,-251.86 227,-237 237.44,-233.16 248.83,-230.03 259.99,-227.52"/>
<polygon fill="#63b8ff" stroke="#63b8ff" points="116.63,-291.87 110.27,-300.35 120.53,-297.69 116.63,-291.87"/>
</a>
</g>
</g>
<!-- Node8 -->
<g id="Node000008" class="node">
<title>Node8</title>
<g id="a_Node000008"><a xlink:href="classUmsciDiscoveringHintComponent.html" target="_top" xlink:title="Fullscreen overlay shown when no DS100 connection has been configured yet.">
<polygon fill="white" stroke="#666666" points="415,-264.5 233,-264.5 233,-245.5 415,-245.5 415,-264.5"/>
<text text-anchor="middle" x="324" y="-252.5" font-family="Helvetica,sans-Serif" font-size="10.00">UmsciDiscoveringHintComponent</text>
</a>
</g>
</g>
<!-- Node0&#45;&gt;Node8 -->
<g id="edge5_Node000000_Node000008" class="edge">
<title>Node0&#45;&gt;Node8</title>
<g id="a_edge5_Node000000_Node000008"><a xlink:title=" ">
<path fill="none" stroke="#63b8ff" d="M138.23,-297.64C163.74,-290.3 197.12,-281.07 227,-274 241.22,-270.64 256.72,-267.39 271.03,-264.56"/>
<polygon fill="#63b8ff" stroke="#63b8ff" points="137.14,-294.32 128.51,-300.46 139.09,-301.04 137.14,-294.32"/>
</a>
</g>
</g>
<!-- Node9 -->
<g id="Node000009" class="node">
<title>Node9</title>
<g id="a_Node000009"><a xlink:href="classUmsciExternalControlComponent.html" target="_top" xlink:title="Settings panel for MIDI&#45; and OSC&#45;based external control of the six upmix transform parameters (rotati...">
<polygon fill="white" stroke="#666666" points="413.5,-461.5 234.5,-461.5 234.5,-442.5 413.5,-442.5 413.5,-461.5"/>
<text text-anchor="middle" x="324" y="-449.5" font-family="Helvetica,sans-Serif" font-size="10.00">UmsciExternalControlComponent</text>
</a>
</g>
</g>
<!-- Node0&#45;&gt;Node9 -->
<g id="edge6_Node000000_Node000009" class="edge">
<title>Node0&#45;&gt;Node9</title>
<g id="a_edge6_Node000000_Node000009"><a xlink:title=" ">
<path fill="none" stroke="#63b8ff" d="M109.83,-327.81C131.29,-355.11 176.27,-406.87 227,-433 234.55,-436.89 242.82,-439.98 251.23,-442.45"/>
<polygon fill="#63b8ff" stroke="#63b8ff" points="112.35,-325.35 103.48,-319.56 106.8,-329.62 112.35,-325.35"/>
</a>
</g>
</g>
<!-- Node10 -->
<g id="Node000010" class="node">
<title>Node10</title>
<g id="a_Node000010"><a xlink:href="classUmsciExternalControlComponent_1_1MidiTab.html" target="_top" xlink:title=" ">
<polygon fill="white" stroke="#666666" points="413.5,-190 234.5,-190 234.5,-160 413.5,-160 413.5,-190"/>
<text text-anchor="start" x="242.5" y="-178" font-family="Helvetica,sans-Serif" font-size="10.00">UmsciExternalControlComponent</text>
<text text-anchor="middle" x="324" y="-167" font-family="Helvetica,sans-Serif" font-size="10.00">::MidiTab</text>
</a>
</g>
</g>
<!-- Node0&#45;&gt;Node10 -->
<g id="edge7_Node000000_Node000010" class="edge">
<title>Node0&#45;&gt;Node10</title>
<g id="a_edge7_Node000000_Node000010"><a xlink:title=" ">
<path fill="none" stroke="#63b8ff" d="M120.54,-295.01C140.39,-282.11 168.8,-262.39 191,-242 209.11,-225.37 206.15,-213.03 227,-200 233.13,-196.17 239.84,-192.92 246.76,-190.17"/>
<polygon fill="#63b8ff" stroke="#63b8ff" points="118.61,-292.09 112.08,-300.44 122.38,-297.99 118.61,-292.09"/>
</a>
</g>
</g>
<!-- Node12 -->
<g id="Node000012" class="node">
<title>Node12</title>
<g id="a_Node000012"><a xlink:href="classUmsciExternalControlComponent_1_1OscTab.html" target="_top" xlink:title=" ">
<polygon fill="white" stroke="#666666" points="413.5,-424 234.5,-424 234.5,-394 413.5,-394 413.5,-424"/>
<text text-anchor="start" x="242.5" y="-412" font-family="Helvetica,sans-Serif" font-size="10.00">UmsciExternalControlComponent</text>
<text text-anchor="middle" x="324" y="-401" font-family="Helvetica,sans-Serif" font-size="10.00">::OscTab</text>
</a>
</g>
</g>
<!-- Node0&#45;&gt;Node12 -->
<g id="edge8_Node000000_Node000012" class="edge">
<title>Node0&#45;&gt;Node12</title>
<g id="a_edge8_Node000000_Node000012"><a xlink:title=" ">
<path fill="none" stroke="#63b8ff" d="M118.79,-325.38C144.02,-342.17 186.85,-368.81 227,-385 235.29,-388.34 244.17,-391.31 253.06,-393.93"/>
<polygon fill="#63b8ff" stroke="#63b8ff" points="120.57,-322.36 110.32,-319.68 116.66,-328.17 120.57,-322.36"/>
</a>
</g>
</g>
<!-- Node13 -->
<g id="Node000013" class="node">
<title>Node13</title>
<g id="a_Node000013"><a xlink:href="classUmsciPaintNControlComponentBase.html" target="_top" xlink:title="Abstract base class for all three overlaid visualisation layers in UmsciControlComponent.">
<polygon fill="white" stroke="#666666" points="421,-375.5 227,-375.5 227,-356.5 421,-356.5 421,-375.5"/>
<text text-anchor="middle" x="324" y="-363.5" font-family="Helvetica,sans-Serif" font-size="10.00">UmsciPaintNControlComponentBase</text>
</a>
</g>
</g>
<!-- Node0&#45;&gt;Node13 -->
<g id="edge9_Node000000_Node000013" class="edge">
<title>Node0&#45;&gt;Node13</title>
<g id="a_edge9_Node000000_Node000013"><a xlink:title=" ">
<path fill="none" stroke="#63b8ff" d="M135.85,-322.55C161.61,-330.5 196.1,-340.62 227,-348 239.95,-351.09 253.98,-353.98 267.22,-356.5"/>
<polygon fill="#63b8ff" stroke="#63b8ff" points="136.67,-319.14 126.08,-319.51 134.59,-325.83 136.67,-319.14"/>
</a>
</g>
</g>
<!-- Node21 -->
<g id="Node000021" class="node">
<title>Node21</title>
<g id="a_Node000021"><a xlink:href="classUmsciZeroconfDiscoverComboComponent.html" target="_top" xlink:title="A ComboBox that continuously scans the local network for DS100 devices announced via Zeroconf/mDNS an...">
<polygon fill="white" stroke="#666666" points="408,-30 240,-30 240,0 408,0 408,-30"/>
<text text-anchor="start" x="248" y="-18" font-family="Helvetica,sans-Serif" font-size="10.00">UmsciZeroconfDiscoverCombo</text>
<text text-anchor="middle" x="324" y="-7" font-family="Helvetica,sans-Serif" font-size="10.00">Component</text>
</a>
</g>
</g>
<!-- Node0&#45;&gt;Node21 -->
<g id="edge13_Node000000_Node000021" class="edge">
<title>Node0&#45;&gt;Node21</title>
<g id="a_edge13_Node000000_Node000021"><a xlink:title=" ">
<path fill="none" stroke="#63b8ff" d="M127.34,-295.8C148.66,-284.34 175.82,-266.15 191,-242 239.77,-164.43 164.5,-106 227,-39 230.75,-34.98 235.06,-31.59 239.74,-28.74"/>
<polygon fill="#63b8ff" stroke="#63b8ff" points="125.61,-292.75 118.32,-300.44 128.81,-298.98 125.61,-292.75"/>
</a>
</g>
</g>
<!-- Node14 -->
<g id="Node000014" class="node">
<title>Node14</title>
<g id="a_Node000014"><a xlink:href="classUmsciLoudspeakersPaintComponent.html" target="_top" xlink:title="The bottom layer of the UmsciControlComponent stack — paints a speaker SVG icon at each loudspeaker&#39;s...">
<polygon fill="white" stroke="#666666" points="651,-393.5 457,-393.5 457,-374.5 651,-374.5 651,-393.5"/>
<text text-anchor="middle" x="554" y="-381.5" font-family="Helvetica,sans-Serif" font-size="10.00">UmsciLoudspeakersPaintComponent</text>
</a>
</g>
</g>
<!-- Node13&#45;&gt;Node14 -->
<g id="edge10_Node000013_Node000014" class="edge">
<title>Node13&#45;&gt;Node14</title>
<g id="a_edge10_Node000013_Node000014"><a xlink:title=" ">
<path fill="none" stroke="#63b8ff" d="M431.04,-374.37C439.6,-375.05 448.23,-375.73 456.71,-376.4"/>
<polygon fill="#63b8ff" stroke="#63b8ff" points="431.28,-370.88 421.03,-373.58 430.73,-377.86 431.28,-370.88"/>
</a>
</g>
</g>
<!-- Node15 -->
<g id="Node000015" class="node">
<title>Node15</title>
<g id="a_Node000015"><a xlink:href="classUmsciSoundobjectsPaintComponent.html" target="_top" xlink:title="The middle layer of the UmsciControlComponent stack — paints a filled circle for each sound object an...">
<polygon fill="white" stroke="#666666" points="650.5,-356.5 457.5,-356.5 457.5,-337.5 650.5,-337.5 650.5,-356.5"/>
<text text-anchor="middle" x="554" y="-344.5" font-family="Helvetica,sans-Serif" font-size="10.00">UmsciSoundobjectsPaintComponent</text>
</a>
</g>
</g>
<!-- Node13&#45;&gt;Node15 -->
<g id="edge11_Node000013_Node000015" class="edge">
<title>Node13&#45;&gt;Node15</title>
<g id="a_edge11_Node000013_Node000015"><a xlink:title=" ">
<path fill="none" stroke="#63b8ff" d="M431.25,-357.15C439.99,-356.42 448.79,-355.68 457.44,-354.96"/>
<polygon fill="#63b8ff" stroke="#63b8ff" points="430.71,-353.68 421.03,-358 431.29,-360.65 430.71,-353.68"/>
</a>
</g>
</g>
<!-- Node16 -->
<g id="Node000016" class="node">
<title>Node16</title>
<g id="a_Node000016"><a xlink:href="classUmsciUpmixIndicatorPaintNControlComponent.html" target="_top" xlink:title="The top layer of the UmsciControlComponent stack — renders an interactive upmix speaker ring and lets...">
<polygon fill="white" stroke="#666666" points="627,-147 481,-147 481,-117 627,-117 627,-147"/>
<text text-anchor="start" x="489" y="-135" font-family="Helvetica,sans-Serif" font-size="10.00">UmsciUpmixIndicatorPaint</text>
<text text-anchor="middle" x="554" y="-124" font-family="Helvetica,sans-Serif" font-size="10.00">NControlComponent</text>
</a>
</g>
</g>
<!-- Node13&#45;&gt;Node16 -->
<g id="edge12_Node000013_Node000016" class="edge">
<title>Node13&#45;&gt;Node16</title>
<g id="a_edge12_Node000013_Node000016"><a xlink:title=" ">
<path fill="none" stroke="#63b8ff" d="M414.34,-352.09C416.64,-350.84 418.86,-349.47 421,-348 495.89,-296.35 535.97,-187 548.57,-147.03"/>
<polygon fill="#63b8ff" stroke="#63b8ff" points="412.71,-349 405.18,-356.45 415.72,-355.32 412.71,-349"/>
</a>
</g>
</g>
<!-- Node3 -->
<g id="Node000003" class="node">
<title>Node3</title>
<g id="a_Node000003"><a xlink:title=" ">
<polygon fill="#e0e0e0" stroke="#999999" points="161,-528 30,-528 30,-498 161,-498 161,-528"/>
<text text-anchor="start" x="38" y="-516" font-family="Helvetica,sans-Serif" font-size="10.00">UmsciAppConfiguration</text>
<text text-anchor="middle" x="95.5" y="-505" font-family="Helvetica,sans-Serif" font-size="10.00">::Dumper</text>
</a>
</g>
</g>
<!-- Node3&#45;&gt;Node2 -->
<g id="edge14_Node000003_Node000002" class="edge">
<title>Node3&#45;&gt;Node2</title>
<g id="a_edge14_Node000003_Node000002"><a xlink:title=" ">
<path fill="none" stroke="#63b8ff" d="M171.09,-505.1C205.38,-501.46 245.04,-497.26 275.24,-494.06"/>
<polygon fill="#63b8ff" stroke="#63b8ff" points="170.68,-501.62 161.1,-506.15 171.42,-508.58 170.68,-501.62"/>
</a>
</g>
</g>
<!-- Node11 -->
<g id="Node000011" class="node">
<title>Node11</title>
<g id="a_Node000011"><a xlink:title=" ">
<polygon fill="#e0e0e0" stroke="#999999" points="166,-184.5 25,-184.5 25,-165.5 166,-165.5 166,-184.5"/>
<text text-anchor="middle" x="95.5" y="-172.5" font-family="Helvetica,sans-Serif" font-size="10.00">juce::ComboBox::Listener</text>
</a>
</g>
</g>
<!-- Node11&#45;&gt;Node10 -->
<g id="edge15_Node000011_Node000010" class="edge">
<title>Node11&#45;&gt;Node10</title>
<g id="a_edge15_Node000011_Node000010"><a xlink:title=" ">
<path fill="none" stroke="#63b8ff" d="M176.52,-175C195.19,-175 215.17,-175 234.19,-175"/>
<polygon fill="#63b8ff" stroke="#63b8ff" points="176.31,-171.5 166.31,-175 176.31,-178.5 176.31,-171.5"/>
</a>
</g>
</g>
<!-- Node19 -->
<g id="Node000019" class="node">
<title>Node19</title>
<g id="a_Node000019"><a xlink:title=" ">
<polygon fill="#e0e0e0" stroke="#999999" points="386.5,-67.5 261.5,-67.5 261.5,-48.5 386.5,-48.5 386.5,-67.5"/>
<text text-anchor="middle" x="324" y="-55.5" font-family="Helvetica,sans-Serif" font-size="10.00">juce::MessageListener</text>
</a>
</g>
</g>
<!-- Node18 -->
<g id="Node000018" class="node">
<title>Node18</title>
<g id="a_Node000018"><a xlink:href="classDeviceController.html" target="_top" xlink:title="Singleton that owns the OCP.1 (AES70) TCP connection to a d&amp;b audiotechnik DS100 device and exposes a...">
<polygon fill="white" stroke="#666666" points="603,-83.5 505,-83.5 505,-64.5 603,-64.5 603,-83.5"/>
<text text-anchor="middle" x="554" y="-71.5" font-family="Helvetica,sans-Serif" font-size="10.00">DeviceController</text>
</a>
</g>
</g>
<!-- Node19&#45;&gt;Node18 -->
<g id="edge16_Node000019_Node000018" class="edge">
<title>Node19&#45;&gt;Node18</title>
<g id="a_edge16_Node000019_Node000018"><a xlink:title=" ">
<path fill="none" stroke="#63b8ff" d="M396.94,-63.05C432.18,-65.52 473.66,-68.43 504.99,-70.63"/>
<polygon fill="#63b8ff" stroke="#63b8ff" points="396.92,-59.54 386.7,-62.33 396.43,-66.52 396.92,-59.54"/>
</a>
</g>
</g>
<!-- Node17 -->
<g id="Node000017" class="node">
<title>Node17</title>
<g id="a_Node000017"><a xlink:title=" ">
<polygon fill="#e0e0e0" stroke="#999999" points="359.5,-104.5 288.5,-104.5 288.5,-85.5 359.5,-85.5 359.5,-104.5"/>
<text text-anchor="middle" x="324" y="-92.5" font-family="Helvetica,sans-Serif" font-size="10.00">juce::Timer</text>
</a>
</g>
</g>
<!-- Node17&#45;&gt;Node16 -->
<g id="edge18_Node000017_Node000016" class="edge">
<title>Node17&#45;&gt;Node16</title>
<g id="a_edge18_Node000017_Node000016"><a xlink:title=" ">
<path fill="none" stroke="#63b8ff" d="M369.87,-102.28C401.43,-107.4 444.35,-114.37 480.71,-120.27"/>
<polygon fill="#63b8ff" stroke="#63b8ff" points="370.06,-98.77 359.63,-100.62 368.94,-105.68 370.06,-98.77"/>
</a>
</g>
</g>
<!-- Node17&#45;&gt;Node18 -->
<g id="edge17_Node000017_Node000018" class="edge">
<title>Node17&#45;&gt;Node18</title>
<g id="a_edge17_Node000017_Node000018"><a xlink:title=" ">
<path fill="none" stroke="#63b8ff" d="M369.63,-90.89C408.58,-87.3 464.96,-82.11 504.91,-78.43"/>
<polygon fill="#63b8ff" stroke="#63b8ff" points="369.27,-87.41 359.63,-91.81 369.91,-94.38 369.27,-87.41"/>
</a>
</g>
</g>
<!-- Node20 -->
<g id="Node000020" class="node">
<title>Node20</title>
<g id="a_Node000020"><a xlink:title=" ">
<polygon fill="#e0e0e0" stroke="#999999" points="409,-141.5 239,-141.5 239,-122.5 409,-122.5 409,-141.5"/>
<text text-anchor="middle" x="324" y="-129.5" font-family="Helvetica,sans-Serif" font-size="10.00">JUCEAppBasics::TwoDFieldBase</text>
</a>
</g>
</g>
<!-- Node20&#45;&gt;Node16 -->
<g id="edge19_Node000020_Node000016" class="edge">
<title>Node20&#45;&gt;Node16</title>
<g id="a_edge19_Node000020_Node000016"><a xlink:title=" ">
<path fill="none" stroke="#63b8ff" d="M419.53,-132C439.97,-132 461.28,-132 480.71,-132"/>
<polygon fill="#63b8ff" stroke="#63b8ff" points="419.25,-128.5 409.25,-132 419.25,-135.5 419.25,-128.5"/>
</a>
</g>
</g>
<!-- Node4 -->
<g id="Node000004" class="node">
<title>Node4</title>
<g id="a_Node000004"><a xlink:title=" ">
<polygon fill="#e0e0e0" stroke="#999999" points="161,-480 30,-480 30,-450 161,-450 161,-480"/>
<text text-anchor="start" x="38" y="-468" font-family="Helvetica,sans-Serif" font-size="10.00">UmsciAppConfiguration</text>
<text text-anchor="middle" x="95.5" y="-457" font-family="Helvetica,sans-Serif" font-size="10.00">::Watcher</text>
</a>
</g>
</g>
<!-- Node4&#45;&gt;Node2 -->
<g id="edge20_Node000004_Node000002" class="edge">
<title>Node4&#45;&gt;Node2</title>
<g id="a_edge20_Node000004_Node000002"><a xlink:title=" ">
<path fill="none" stroke="#63b8ff" d="M171.09,-472.9C205.38,-476.54 245.04,-480.74 275.24,-483.94"/>
<polygon fill="#63b8ff" stroke="#63b8ff" points="171.42,-469.42 161.1,-471.85 170.68,-476.38 171.42,-469.42"/>
</a>
</g>
</g>
<!-- Node7 -->
<g id="Node000007" class="node">
<title>Node7</title>
<g id="a_Node000007"><a xlink:title=" ">
<polygon fill="#e0e0e0" stroke="#999999" points="167.5,-233 23.5,-233 23.5,-203 167.5,-203 167.5,-233"/>
<text text-anchor="start" x="31.5" y="-221" font-family="Helvetica,sans-Serif" font-size="10.00">UmsciAppConfiguration</text>
<text text-anchor="middle" x="95.5" y="-210" font-family="Helvetica,sans-Serif" font-size="10.00">::XmlConfigurableElement</text>
</a>
</g>
</g>
<!-- Node7&#45;&gt;Node6 -->
<g id="edge21_Node000007_Node000006" class="edge">
<title>Node7&#45;&gt;Node6</title>
<g id="a_edge21_Node000007_Node000006"><a xlink:title=" ">
<path fill="none" stroke="#63b8ff" d="M177.74,-218C202.76,-218 230.05,-218 254.15,-218"/>
<polygon fill="#63b8ff" stroke="#63b8ff" points="177.54,-214.5 167.54,-218 177.54,-221.5 177.54,-214.5"/>
</a>
</g>
</g>
<!-- Node22 -->
<g id="Node000022" class="node">
<title>Node22</title>
<g id="a_Node000022"><a xlink:title=" ">
<polygon fill="#e0e0e0" stroke="#999999" points="191,-30 0,-30 0,0 191,0 191,-30"/>
<text text-anchor="start" x="8" y="-18" font-family="Helvetica,sans-Serif" font-size="10.00">ZeroconfSearcher::Zeroconf</text>
<text text-anchor="middle" x="95.5" y="-7" font-family="Helvetica,sans-Serif" font-size="10.00">Searcher::ZeroconfSearcherListener</text>
</a>
</g>
</g>
<!-- Node22&#45;&gt;Node21 -->
<g id="edge22_Node000022_Node000021" class="edge">
<title>Node22&#45;&gt;Node21</title>
<g id="a_edge22_Node000022_Node000021"><a xlink:title=" ">
<path fill="none" stroke="#63b8ff" d="M201.5,-15C214.35,-15 227.34,-15 239.8,-15"/>
<polygon fill="#63b8ff" stroke="#63b8ff" points="201.24,-11.5 191.24,-15 201.24,-18.5 201.24,-11.5"/>
</a>
</g>
</g>
</g>
</svg>
