<?xml version="1.0" encoding="UTF-8" standalone="no"?>
<!DOCTYPE svg PUBLIC "-//W3C//DTD SVG 1.1//EN"
 "http://www.w3.org/Graphics/SVG/1.1/DTD/svg11.dtd">
<!-- Generated by graphviz version 2.43.0 (0)
 -->
<!-- Title: Source/MainComponent.cpp Pages: 1 -->
<!--zoomable 280 -->

<svg id="main" version="1.1" xmlns="http://www.w3.org/2000/svg" xmlns:xlink="http://www.w3.org/1999/xlink" xml:space="preserve" onload="init(evt)">
<style type="text/css"><![CDATA[
.node, .edge {opacity: 0.7;}
.node.selected, .edge.selected {opacity: 1;}
.edge:hover path { stroke: red; }
.edge:hover polygon { stroke: red; fill: red; }
]]></style>

<defs>
  <circle id="rim" cx="0" cy="0" r="7"/>
  <circle id="rim2" cx="0" cy="0" r="3.5"/>
  <g id="zoomPlus">
    <use xlink:href="#rim" fill="#404040"><set attributeName="fill" to="#808080" begin="zoomplus.mouseover" end="zoomplus.mouseout"/></use>
    <path d="M-4,0h8M0,-4v8" fill="none" stroke="white" stroke-width="1.5" pointer-events="none"/>
  </g>
  <g id="zoomMin">
    <use xlink:href="#rim" fill="#404040"><set attributeName="fill" to="#808080" begin="zoomminus.mouseover" end="zoomminus.mouseout"/></use>
    <path d="M-4,0h8" fill="none" stroke="white" stroke-width="1.5" pointer-events="none"/>
  </g>
  <g id="arrowUp" transform="translate(30 24)">
    <use xlink:href="#rim"/>
    <path pointer-events="none" fill="none" stroke="white" stroke-width="1.5" d="M0,-3.0v7 M-2.5,-0.5L0,-3.0L2.5,-0.5"/>
  </g>
  <g id="arrowRight" transform="rotate(90) translate(36 -43)">
    <use xlink:href="#rim"/>
    <path pointer-events="none" fill="none" stroke="white" stroke-width="1.5" d="M0,-3.0v7 M-2.5,-0.5L0,-3.0L2.5,-0.5"/>
  </g>
  <g id="arrowDown" transform="rotate(180) translate(-30 -48)">
    <use xlink:href="#rim"/>
    <path pointer-events="none" fill="none" stroke="white" stroke-width="1.5" d="M0,-3.0v7 M-2.5,-0.5L0,-3.0L2.5,-0.5"/>
  </g>
  <g id="arrowLeft" transform="rotate(270) translate(-36 17)">
    <use xlink:href="#rim"/>
    <path pointer-events="none" fill="none" stroke="white" stroke-width="1.5" d="M0,-3.0v7 M-2.5,-0.5L0,-3.0L2.5,-0.5"/>
  </g>
  <g id="resetDef">
    <use xlink:href="#rim2" fill="#404040"><set attributeName="fill" to="#808080" begin="reset.mouseover" end="reset.mouseout"/></use>
  </g>
</defs>
<script type="application/ecmascript">
var viewWidth = 1891;
var viewHeight = 280;
var sectionId = 'dynsection-0';
</script>
<script type="application/ecmascript" xlink:href="svg.min.js"/>
<svg id="graph" class="graph">
<g id="viewport">
<title>Source/MainComponent.cpp</title>
<!-- Node1 -->
<g id="Node000001" class="node">
<title>Node1</title>
<g id="a_Node000001"><a xlink:title=" ">
<polygon fill="#999999" stroke="#666666" points="1258,-272 1105,-272 1105,-253 1258,-253 1258,-272"/>
<text text-anchor="middle" x="1181.5" y="-260" font-family="Helvetica,sans-Serif" font-size="10.00">Source/MainComponent.cpp</text>
</a>
</g>
</g>
<!-- Node2 -->
<g id="Node000002" class="node">
<title>Node2</title>
<g id="a_Node000002"><a xlink:href="MainComponent_8h.html" target="_top" xlink:title=" ">
<polygon fill="white" stroke="#666666" points="742.5,-217 636.5,-217 636.5,-198 742.5,-198 742.5,-217"/>
<text text-anchor="middle" x="689.5" y="-205" font-family="Helvetica,sans-Serif" font-size="10.00">MainComponent.h</text>
</a>
</g>
</g>
<!-- Node1&#45;&gt;Node2 -->
<g id="edge1_Node000001_Node000002" class="edge">
<title>Node1&#45;&gt;Node2</title>
<g id="a_edge1_Node000001_Node000002"><a xlink:title=" ">
<path fill="none" stroke="#63b8ff" d="M1104.9,-253.25C1008.02,-242.81 843.02,-225.04 752.88,-215.33"/>
<polygon fill="#63b8ff" stroke="#63b8ff" points="753.12,-211.83 742.8,-214.24 752.37,-218.79 753.12,-211.83"/>
</a>
</g>
</g>
<!-- Node6 -->
<g id="Node000006" class="node">
<title>Node6</title>
<g id="a_Node000006"><a xlink:href="UmsciExternalControlComponent_8h.html" target="_top" xlink:title=" ">
<polygon fill="white" stroke="#666666" points="435.5,-79.5 247.5,-79.5 247.5,-60.5 435.5,-60.5 435.5,-79.5"/>
<text text-anchor="middle" x="341.5" y="-67.5" font-family="Helvetica,sans-Serif" font-size="10.00">UmsciExternalControlComponent.h</text>
</a>
</g>
</g>
<!-- Node1&#45;&gt;Node6 -->
<g id="edge43_Node000001_Node000006" class="edge">
<title>Node1&#45;&gt;Node6</title>
<g id="a_edge43_Node000001_Node000006"><a xlink:title=" ">
<path fill="none" stroke="#63b8ff" d="M1104.75,-258.12C907.7,-248.65 395.92,-218.78 346.5,-162 329.23,-142.16 332.28,-109.72 336.54,-89.41"/>
<polygon fill="#63b8ff" stroke="#63b8ff" points="339.98,-90.07 338.91,-79.53 333.18,-88.43 339.98,-90.07"/>
</a>
</g>
</g>
<!-- Node13 -->
<g id="Node000013" class="node">
<title>Node13</title>
<g id="a_Node000013"><a xlink:href="DeviceController_8h.html" target="_top" xlink:title=" ">
<polygon fill="white" stroke="#666666" points="1636,-151 1529,-151 1529,-132 1636,-132 1636,-151"/>
<text text-anchor="middle" x="1582.5" y="-139" font-family="Helvetica,sans-Serif" font-size="10.00">DeviceController.h</text>
</a>
</g>
</g>
<!-- Node1&#45;&gt;Node13 -->
<g id="edge20_Node000001_Node000013" class="edge">
<title>Node1&#45;&gt;Node13</title>
<g id="a_edge20_Node000001_Node000013"><a xlink:title=" ">
<path fill="none" stroke="#63b8ff" d="M1197.47,-252.78C1226.13,-237.23 1285.39,-205.65 1307.5,-198 1346.3,-184.58 1453.27,-164.76 1521.79,-152.8"/>
<polygon fill="#63b8ff" stroke="#63b8ff" points="1522.77,-156.18 1532.02,-151.02 1521.57,-149.28 1522.77,-156.18"/>
</a>
</g>
</g>
<!-- Node17 -->
<g id="Node000017" class="node">
<title>Node17</title>
<g id="a_Node000017"><a xlink:href="CustomPopupMenuComponent_8h.html" target="_top" xlink:title=" ">
<polygon fill="white" stroke="#666666" points="1882.5,-151 1706.5,-151 1706.5,-132 1882.5,-132 1882.5,-151"/>
<text text-anchor="middle" x="1794.5" y="-139" font-family="Helvetica,sans-Serif" font-size="10.00">CustomPopupMenuComponent.h</text>
</a>
</g>
</g>
<!-- Node1&#45;&gt;Node17 -->
<g id="edge25_Node000001_Node000017" class="edge">
<title>Node1&#45;&gt;Node17</title>
<g id="a_edge25_Node000001_Node000017"><a xlink:title=" ">
<path fill="none" stroke="#63b8ff" d="M1206.6,-253C1231.08,-244.52 1269.22,-230.81 1301.5,-217 1319.23,-209.42 1322,-203.43 1340.5,-198 1471.47,-159.57 1510.05,-178.86 1645.5,-162 1669.97,-158.96 1696.67,-155.5 1720.63,-152.36"/>
<polygon fill="#63b8ff" stroke="#63b8ff" points="1721.26,-155.8 1730.72,-151.03 1720.35,-148.86 1721.26,-155.8"/>
</a>
</g>
</g>
<!-- Node18 -->
<g id="Node000018" class="node">
<title>Node18</title>
<g id="a_Node000018"><a xlink:href="UmsciControlComponent_8h.html" target="_top" xlink:title=" ">
<polygon fill="white" stroke="#666666" points="1255.5,-217 1107.5,-217 1107.5,-198 1255.5,-198 1255.5,-217"/>
<text text-anchor="middle" x="1181.5" y="-205" font-family="Helvetica,sans-Serif" font-size="10.00">UmsciControlComponent.h</text>
</a>
</g>
</g>
<!-- Node1&#45;&gt;Node18 -->
<g id="edge27_Node000001_Node000018" class="edge">
<title>Node1&#45;&gt;Node18</title>
<g id="a_edge27_Node000001_Node000018"><a xlink:title=" ">
<path fill="none" stroke="#63b8ff" d="M1181.5,-252.75C1181.5,-245.8 1181.5,-235.85 1181.5,-227.13"/>
<polygon fill="#63b8ff" stroke="#63b8ff" points="1185,-227.09 1181.5,-217.09 1178,-227.09 1185,-227.09"/>
</a>
</g>
</g>
<!-- Node22 -->
<g id="Node000022" class="node">
<title>Node22</title>
<g id="a_Node000022"><a xlink:href="UmsciDiscoveringHintComponent_8h.html" target="_top" xlink:title=" ">
<polygon fill="white" stroke="#666666" points="191,-151 0,-151 0,-132 191,-132 191,-151"/>
<text text-anchor="middle" x="95.5" y="-139" font-family="Helvetica,sans-Serif" font-size="10.00">UmsciDiscoveringHintComponent.h</text>
</a>
</g>
</g>
<!-- Node1&#45;&gt;Node22 -->
<g id="edge37_Node000001_Node000022" class="edge">
<title>Node1&#45;&gt;Node22</title>
<g id="a_edge37_Node000001_Node000022"><a xlink:title=" ">
<path fill="none" stroke="#63b8ff" d="M1104.88,-260.81C866.52,-258.35 151.7,-248.38 113.5,-217 97.31,-203.7 94.22,-178.56 94.25,-161.19"/>
<polygon fill="#63b8ff" stroke="#63b8ff" points="97.75,-161.22 94.61,-151.1 90.76,-160.97 97.75,-161.22"/>
</a>
</g>
</g>
<!-- Node23 -->
<g id="Node000023" class="node">
<title>Node23</title>
<g id="a_Node000023"><a xlink:href="UmsciConnectingComponent_8h.html" target="_top" xlink:title=" ">
<polygon fill="white" stroke="#666666" points="290,-217 123,-217 123,-198 290,-198 290,-217"/>
<text text-anchor="middle" x="206.5" y="-205" font-family="Helvetica,sans-Serif" font-size="10.00">UmsciConnectingComponent.h</text>
</a>
</g>
</g>
<!-- Node1&#45;&gt;Node23 -->
<g id="edge39_Node000001_Node000023" class="edge">
<title>Node1&#45;&gt;Node23</title>
<g id="a_edge39_Node000001_Node000023"><a xlink:title=" ">
<path fill="none" stroke="#63b8ff" d="M1104.81,-258.56C952.16,-252.5 599.46,-237.46 303.5,-217 302.4,-216.92 301.3,-216.85 300.19,-216.77"/>
<polygon fill="#63b8ff" stroke="#63b8ff" points="300.31,-213.27 290.08,-216.02 299.8,-220.25 300.31,-213.27"/>
</a>
</g>
</g>
<!-- Node24 -->
<g id="Node000024" class="node">
<title>Node24</title>
<g id="a_Node000024"><a xlink:href="AboutComponent_8h.html" target="_top" xlink:title=" ">
<polygon fill="white" stroke="#666666" points="1085.5,-217 975.5,-217 975.5,-198 1085.5,-198 1085.5,-217"/>
<text text-anchor="middle" x="1030.5" y="-205" font-family="Helvetica,sans-Serif" font-size="10.00">AboutComponent.h</text>
</a>
</g>
</g>
<!-- Node1&#45;&gt;Node24 -->
<g id="edge41_Node000001_Node000024" class="edge">
<title>Node1&#45;&gt;Node24</title>
<g id="a_edge41_Node000001_Node000024"><a xlink:title=" ">
<path fill="none" stroke="#63b8ff" d="M1157.24,-252.98C1132.18,-244.19 1092.87,-230.39 1064.67,-220.49"/>
<polygon fill="#63b8ff" stroke="#63b8ff" points="1065.8,-217.18 1055.2,-217.17 1063.48,-223.78 1065.8,-217.18"/>
</a>
</g>
</g>
<!-- Node25 -->
<g id="Node000025" class="node">
<title>Node25</title>
<g id="a_Node000025"><a xlink:title=" ">
<polygon fill="#e0e0e0" stroke="#999999" points="1475,-217 1350,-217 1350,-198 1475,-198 1475,-217"/>
<text text-anchor="middle" x="1412.5" y="-205" font-family="Helvetica,sans-Serif" font-size="10.00">CustomLookAndFeel.h</text>
</a>
</g>
</g>
<!-- Node1&#45;&gt;Node25 -->
<g id="edge44_Node000001_Node000025" class="edge">
<title>Node1&#45;&gt;Node25</title>
<g id="a_edge44_Node000001_Node000025"><a xlink:title=" ">
<path fill="none" stroke="#63b8ff" d="M1218.61,-252.98C1258.49,-243.84 1321.96,-229.27 1365.34,-219.32"/>
<polygon fill="#63b8ff" stroke="#63b8ff" points="1366.13,-222.73 1375.09,-217.08 1364.57,-215.91 1366.13,-222.73"/>
</a>
</g>
</g>
<!-- Node26 -->
<g id="Node000026" class="node">
<title>Node26</title>
<g id="a_Node000026"><a xlink:title=" ">
<polygon fill="#e0e0e0" stroke="#999999" points="1616,-217 1493,-217 1493,-198 1616,-198 1616,-217"/>
<text text-anchor="middle" x="1554.5" y="-205" font-family="Helvetica,sans-Serif" font-size="10.00">WebUpdateDetector.h</text>
</a>
</g>
</g>
<!-- Node1&#45;&gt;Node26 -->
<g id="edge45_Node000001_Node000026" class="edge">
<title>Node1&#45;&gt;Node26</title>
<g id="a_edge45_Node000001_Node000026"><a xlink:title=" ">
<path fill="none" stroke="#63b8ff" d="M1241.43,-252.98C1307.67,-243.57 1414.26,-228.43 1484.34,-218.47"/>
<polygon fill="#63b8ff" stroke="#63b8ff" points="1485,-221.91 1494.41,-217.04 1484.02,-214.98 1485,-221.91"/>
</a>
</g>
</g>
<!-- Node27 -->
<g id="Node000027" class="node">
<title>Node27</title>
<g id="a_Node000027"><a xlink:title=" ">
<polygon fill="#e0e0e0" stroke="#999999" points="1702.5,-217 1634.5,-217 1634.5,-198 1702.5,-198 1702.5,-217"/>
<text text-anchor="middle" x="1668.5" y="-205" font-family="Helvetica,sans-Serif" font-size="10.00">iOS_utils.h</text>
</a>
</g>
</g>
<!-- Node1&#45;&gt;Node27 -->
<g id="edge46_Node000001_Node000027" class="edge">
<title>Node1&#45;&gt;Node27</title>
<g id="a_edge46_Node000001_Node000027"><a xlink:title=" ">
<path fill="none" stroke="#63b8ff" d="M1258.38,-256.03C1344.96,-249.37 1490.04,-236.68 1624.23,-217.06"/>
<polygon fill="#63b8ff" stroke="#63b8ff" points="1624.9,-220.49 1634.28,-215.57 1623.88,-213.57 1624.9,-220.49"/>
</a>
</g>
</g>
<!-- Node3 -->
<g id="Node000003" class="node">
<title>Node3</title>
<g id="a_Node000003"><a xlink:title=" ">
<polygon fill="#e0e0e0" stroke="#999999" points="936.5,-19 856.5,-19 856.5,0 936.5,0 936.5,-19"/>
<text text-anchor="middle" x="896.5" y="-7" font-family="Helvetica,sans-Serif" font-size="10.00">JuceHeader.h</text>
</a>
</g>
</g>
<!-- Node2&#45;&gt;Node3 -->
<g id="edge2_Node000002_Node000003" class="edge">
<title>Node2&#45;&gt;Node3</title>
<g id="a_edge2_Node000002_Node000003"><a xlink:title=" ">
<path fill="none" stroke="#63b8ff" d="M721.8,-197.96C741.73,-191.18 766.45,-179.83 782.5,-162 816.26,-124.49 788.33,-93.88 820.5,-55 831.93,-41.18 848.85,-30.68 863.82,-23.36"/>
<polygon fill="#63b8ff" stroke="#63b8ff" points="865.67,-26.36 873.3,-19.01 862.75,-20 865.67,-26.36"/>
</a>
</g>
</g>
<!-- Node4 -->
<g id="Node000004" class="node">
<title>Node4</title>
<g id="a_Node000004"><a xlink:href="UmsciAppConfiguration_8h.html" target="_top" xlink:title=" ">
<polygon fill="white" stroke="#666666" points="985.5,-151 845.5,-151 845.5,-132 985.5,-132 985.5,-151"/>
<text text-anchor="middle" x="915.5" y="-139" font-family="Helvetica,sans-Serif" font-size="10.00">UmsciAppConfiguration.h</text>
</a>
</g>
</g>
<!-- Node2&#45;&gt;Node4 -->
<g id="edge3_Node000002_Node000004" class="edge">
<title>Node2&#45;&gt;Node4</title>
<g id="a_edge3_Node000002_Node000004"><a xlink:title=" ">
<path fill="none" stroke="#63b8ff" d="M719.98,-197.87C760.11,-186.5 830.76,-166.5 875.25,-153.9"/>
<polygon fill="#63b8ff" stroke="#63b8ff" points="876.48,-157.19 885.14,-151.1 874.57,-150.45 876.48,-157.19"/>
</a>
</g>
</g>
<!-- Node2&#45;&gt;Node6 -->
<g id="edge6_Node000002_Node000006" class="edge">
<title>Node2&#45;&gt;Node6</title>
<g id="a_edge6_Node000002_Node000006"><a xlink:title=" ">
<path fill="none" stroke="#63b8ff" d="M636.19,-205.45C557.06,-202.85 413.64,-193.75 374.5,-162 352.7,-144.31 345.3,-110.95 342.79,-89.91"/>
<polygon fill="#63b8ff" stroke="#63b8ff" points="346.25,-89.3 341.84,-79.67 339.28,-89.95 346.25,-89.3"/>
</a>
</g>
</g>
<!-- Node9 -->
<g id="Node000009" class="node">
<title>Node9</title>
<g id="a_Node000009"><a xlink:href="UmsciZeroconfDiscoverComboComponent_8h.html" target="_top" xlink:title=" ">
<polygon fill="white" stroke="#666666" points="773.5,-156.5 605.5,-156.5 605.5,-126.5 773.5,-126.5 773.5,-156.5"/>
<text text-anchor="start" x="613.5" y="-144.5" font-family="Helvetica,sans-Serif" font-size="10.00">UmsciZeroconfDiscoverCombo</text>
<text text-anchor="middle" x="689.5" y="-133.5" font-family="Helvetica,sans-Serif" font-size="10.00">Component.h</text>
</a>
</g>
</g>
<!-- Node2&#45;&gt;Node9 -->
<g id="edge10_Node000002_Node000009" class="edge">
<title>Node2&#45;&gt;Node9</title>
<g id="a_edge10_Node000002_Node000009"><a xlink:title=" ">
<path fill="none" stroke="#63b8ff" d="M689.5,-197.87C689.5,-189.99 689.5,-177.95 689.5,-167.1"/>
<polygon fill="#63b8ff" stroke="#63b8ff" points="693,-166.86 689.5,-156.86 686,-166.86 693,-166.86"/>
</a>
</g>
</g>
<!-- Node11 -->
<g id="Node000011" class="node">
<title>Node11</title>
<g id="a_Node000011"><a xlink:href="MidiController_8h.html" target="_top" xlink:title=" ">
<polygon fill="white" stroke="#666666" points="477.5,-151 383.5,-151 383.5,-132 477.5,-132 477.5,-151"/>
<text text-anchor="middle" x="430.5" y="-139" font-family="Helvetica,sans-Serif" font-size="10.00">MidiController.h</text>
</a>
</g>
</g>
<!-- Node2&#45;&gt;Node11 -->
<g id="edge13_Node000002_Node000011" class="edge">
<title>Node2&#45;&gt;Node11</title>
<g id="a_edge13_Node000002_Node000011"><a xlink:title=" ">
<path fill="none" stroke="#63b8ff" d="M643.16,-197.98C601.76,-189.98 539.62,-177.01 486.5,-162 478.7,-159.8 470.4,-157.1 462.64,-154.43"/>
<polygon fill="#63b8ff" stroke="#63b8ff" points="463.79,-151.12 453.19,-151.09 461.46,-157.72 463.79,-151.12"/>
</a>
</g>
</g>
<!-- Node12 -->
<g id="Node000012" class="node">
<title>Node12</title>
<g id="a_Node000012"><a xlink:href="OscController_8h.html" target="_top" xlink:title=" ">
<polygon fill="white" stroke="#666666" points="587,-151 496,-151 496,-132 587,-132 587,-151"/>
<text text-anchor="middle" x="541.5" y="-139" font-family="Helvetica,sans-Serif" font-size="10.00">OscController.h</text>
</a>
</g>
</g>
<!-- Node2&#45;&gt;Node12 -->
<g id="edge17_Node000002_Node000012" class="edge">
<title>Node2&#45;&gt;Node12</title>
<g id="a_edge17_Node000002_Node000012"><a xlink:title=" ">
<path fill="none" stroke="#63b8ff" d="M669.54,-197.87C644.16,-186.89 600.14,-167.86 570.91,-155.22"/>
<polygon fill="#63b8ff" stroke="#63b8ff" points="572.18,-151.96 561.62,-151.2 569.41,-158.38 572.18,-151.96"/>
</a>
</g>
</g>
<!-- Node4&#45;&gt;Node3 -->
<g id="edge4_Node000004_Node000003" class="edge">
<title>Node4&#45;&gt;Node3</title>
<g id="a_edge4_Node000004_Node000003"><a xlink:title=" ">
<path fill="none" stroke="#63b8ff" d="M928.96,-131.77C950.62,-116.57 989.18,-84.1 972.5,-55 964.14,-40.42 948.95,-30.16 934.33,-23.19"/>
<polygon fill="#63b8ff" stroke="#63b8ff" points="935.45,-19.86 924.89,-19.08 932.66,-26.28 935.45,-19.86"/>
</a>
</g>
</g>
<!-- Node5 -->
<g id="Node000005" class="node">
<title>Node5</title>
<g id="a_Node000005"><a xlink:title=" ">
<polygon fill="#e0e0e0" stroke="#999999" points="963.5,-79.5 829.5,-79.5 829.5,-60.5 963.5,-60.5 963.5,-79.5"/>
<text text-anchor="middle" x="896.5" y="-67.5" font-family="Helvetica,sans-Serif" font-size="10.00">AppConfigurationBase.h</text>
</a>
</g>
</g>
<!-- Node4&#45;&gt;Node5 -->
<g id="edge5_Node000004_Node000005" class="edge">
<title>Node4&#45;&gt;Node5</title>
<g id="a_edge5_Node000004_Node000005"><a xlink:title=" ">
<path fill="none" stroke="#63b8ff" d="M913.17,-131.98C910.29,-121.45 905.32,-103.25 901.55,-89.47"/>
<polygon fill="#63b8ff" stroke="#63b8ff" points="904.86,-88.31 898.85,-79.59 898.11,-90.16 904.86,-88.31"/>
</a>
</g>
</g>
<!-- Node6&#45;&gt;Node3 -->
<g id="edge7_Node000006_Node000003" class="edge">
<title>Node6&#45;&gt;Node3</title>
<g id="a_edge7_Node000006_Node000003"><a xlink:title=" ">
<path fill="none" stroke="#63b8ff" d="M422.2,-60.49C538.52,-48.23 749.88,-25.95 846.22,-15.8"/>
<polygon fill="#63b8ff" stroke="#63b8ff" points="846.71,-19.27 856.29,-14.74 845.98,-12.31 846.71,-19.27"/>
</a>
</g>
</g>
<!-- Node7 -->
<g id="Node000007" class="node">
<title>Node7</title>
<g id="a_Node000007"><a xlink:title=" ">
<polygon fill="#e0e0e0" stroke="#999999" points="556,-19 371,-19 371,0 556,0 556,-19"/>
<text text-anchor="middle" x="463.5" y="-7" font-family="Helvetica,sans-Serif" font-size="10.00">MidiCommandRangeAssignment.h</text>
</a>
</g>
</g>
<!-- Node6&#45;&gt;Node7 -->
<g id="edge8_Node000006_Node000007" class="edge">
<title>Node6&#45;&gt;Node7</title>
<g id="a_edge8_Node000006_Node000007"><a xlink:title=" ">
<path fill="none" stroke="#63b8ff" d="M359.24,-60.49C379.57,-50.75 413.11,-34.66 436.64,-23.38"/>
<polygon fill="#63b8ff" stroke="#63b8ff" points="438.24,-26.5 445.74,-19.02 435.21,-20.18 438.24,-26.5"/>
</a>
</g>
</g>
<!-- Node8 -->
<g id="Node000008" class="node">
<title>Node8</title>
<g id="a_Node000008"><a xlink:title=" ">
<polygon fill="#e0e0e0" stroke="#999999" points="352.5,-19 212.5,-19 212.5,0 352.5,0 352.5,-19"/>
<text text-anchor="middle" x="282.5" y="-7" font-family="Helvetica,sans-Serif" font-size="10.00">MidiLearnerComponent.h</text>
</a>
</g>
</g>
<!-- Node6&#45;&gt;Node8 -->
<g id="edge9_Node000006_Node000008" class="edge">
<title>Node6&#45;&gt;Node8</title>
<g id="a_edge9_Node000006_Node000008"><a xlink:title=" ">
<path fill="none" stroke="#63b8ff" d="M332.79,-60.37C323.82,-51.47 309.62,-37.39 298.59,-26.45"/>
<polygon fill="#63b8ff" stroke="#63b8ff" points="300.81,-23.72 291.24,-19.17 295.88,-28.69 300.81,-23.72"/>
</a>
</g>
</g>
<!-- Node9&#45;&gt;Node3 -->
<g id="edge11_Node000009_Node000003" class="edge">
<title>Node9&#45;&gt;Node3</title>
<g id="a_edge11_Node000009_Node000003"><a xlink:title=" ">
<path fill="none" stroke="#63b8ff" d="M654.28,-126.45C618.88,-110.33 572.72,-82.57 596.5,-55 628.12,-18.35 769.05,-11.39 845.98,-10.38"/>
<polygon fill="#63b8ff" stroke="#63b8ff" points="846.43,-13.87 856.39,-10.27 846.36,-6.87 846.43,-13.87"/>
</a>
</g>
</g>
<!-- Node10 -->
<g id="Node000010" class="node">
<title>Node10</title>
<g id="a_Node000010"><a xlink:title=" ">
<polygon fill="#e0e0e0" stroke="#999999" points="773.5,-79.5 605.5,-79.5 605.5,-60.5 773.5,-60.5 773.5,-79.5"/>
<text text-anchor="middle" x="689.5" y="-67.5" font-family="Helvetica,sans-Serif" font-size="10.00">ZeroconfDiscoverComponent.h</text>
</a>
</g>
</g>
<!-- Node9&#45;&gt;Node10 -->
<g id="edge12_Node000009_Node000010" class="edge">
<title>Node9&#45;&gt;Node10</title>
<g id="a_edge12_Node000009_Node000010"><a xlink:title=" ">
<path fill="none" stroke="#63b8ff" d="M689.5,-126.44C689.5,-115.96 689.5,-101.55 689.5,-90.05"/>
<polygon fill="#63b8ff" stroke="#63b8ff" points="693,-89.77 689.5,-79.77 686,-89.77 693,-89.77"/>
</a>
</g>
</g>
<!-- Node11&#45;&gt;Node3 -->
<g id="edge14_Node000011_Node000003" class="edge">
<title>Node11&#45;&gt;Node3</title>
<g id="a_edge14_Node000011_Node000003"><a xlink:title=" ">
<path fill="none" stroke="#63b8ff" d="M439.82,-131.92C459.72,-114.17 508.52,-73.52 557.5,-55 655,-18.13 778.25,-10.9 846.05,-10"/>
<polygon fill="#63b8ff" stroke="#63b8ff" points="846.47,-13.5 856.44,-9.91 846.41,-6.5 846.47,-13.5"/>
</a>
</g>
</g>
<!-- Node11&#45;&gt;Node6 -->
<g id="edge16_Node000011_Node000006" class="edge">
<title>Node11&#45;&gt;Node6</title>
<g id="a_edge16_Node000011_Node000006"><a xlink:title=" ">
<path fill="none" stroke="#63b8ff" d="M419.59,-131.98C404.91,-120.51 378.57,-99.95 360.58,-85.9"/>
<polygon fill="#63b8ff" stroke="#63b8ff" points="362.54,-82.99 352.5,-79.59 358.23,-88.51 362.54,-82.99"/>
</a>
</g>
</g>
<!-- Node11&#45;&gt;Node7 -->
<g id="edge15_Node000011_Node000007" class="edge">
<title>Node11&#45;&gt;Node7</title>
<g id="a_edge15_Node000011_Node000007"><a xlink:title=" ">
<path fill="none" stroke="#63b8ff" d="M432.67,-131.97C437.93,-111.23 451.51,-57.74 458.76,-29.16"/>
<polygon fill="#63b8ff" stroke="#63b8ff" points="462.22,-29.79 461.28,-19.23 455.43,-28.06 462.22,-29.79"/>
</a>
</g>
</g>
<!-- Node12&#45;&gt;Node3 -->
<g id="edge18_Node000012_Node000003" class="edge">
<title>Node12&#45;&gt;Node3</title>
<g id="a_edge18_Node000012_Node000003"><a xlink:title=" ">
<path fill="none" stroke="#63b8ff" d="M543.33,-131.74C547.53,-114 559.64,-73.95 586.5,-55 627.29,-26.22 769.04,-15.83 845.94,-12.26"/>
<polygon fill="#63b8ff" stroke="#63b8ff" points="846.51,-15.74 856.35,-11.8 846.2,-8.74 846.51,-15.74"/>
</a>
</g>
</g>
<!-- Node12&#45;&gt;Node6 -->
<g id="edge19_Node000012_Node000006" class="edge">
<title>Node12&#45;&gt;Node6</title>
<g id="a_edge19_Node000012_Node000006"><a xlink:title=" ">
<path fill="none" stroke="#63b8ff" d="M517.42,-131.91C507.81,-128.5 496.64,-124.54 486.5,-121 448.84,-107.83 405.59,-92.95 376.2,-82.87"/>
<polygon fill="#63b8ff" stroke="#63b8ff" points="377.01,-79.45 366.41,-79.52 374.74,-86.07 377.01,-79.45"/>
</a>
</g>
</g>
<!-- Node13&#45;&gt;Node3 -->
<g id="edge21_Node000013_Node000003" class="edge">
<title>Node13&#45;&gt;Node3</title>
<g id="a_edge21_Node000013_Node000003"><a xlink:title=" ">
<path fill="none" stroke="#63b8ff" d="M1625.35,-131.96C1683.22,-119.99 1780.34,-98.23 1790.5,-85 1798.62,-74.43 1799.69,-64.66 1790.5,-55 1761.26,-24.27 1131.32,-13.58 946.84,-11.11"/>
<polygon fill="#63b8ff" stroke="#63b8ff" points="946.65,-7.61 936.6,-10.97 946.56,-14.61 946.65,-7.61"/>
</a>
</g>
</g>
<!-- Node14 -->
<g id="Node000014" class="node">
<title>Node14</title>
<g id="a_Node000014"><a xlink:title=" ">
<polygon fill="#e0e0e0" stroke="#999999" points="1551.5,-79.5 1475.5,-79.5 1475.5,-60.5 1551.5,-60.5 1551.5,-79.5"/>
<text text-anchor="middle" x="1513.5" y="-67.5" font-family="Helvetica,sans-Serif" font-size="10.00">NanoOcp1.h</text>
</a>
</g>
</g>
<!-- Node13&#45;&gt;Node14 -->
<g id="edge22_Node000013_Node000014" class="edge">
<title>Node13&#45;&gt;Node14</title>
<g id="a_edge22_Node000013_Node000014"><a xlink:title=" ">
<path fill="none" stroke="#63b8ff" d="M1574.04,-131.98C1562.97,-120.83 1543.35,-101.06 1529.45,-87.06"/>
<polygon fill="#63b8ff" stroke="#63b8ff" points="1531.56,-84.22 1522.03,-79.59 1526.59,-89.15 1531.56,-84.22"/>
</a>
</g>
</g>
<!-- Node15 -->
<g id="Node000015" class="node">
<title>Node15</title>
<g id="a_Node000015"><a xlink:title=" ">
<polygon fill="#e0e0e0" stroke="#999999" points="1703.5,-79.5 1569.5,-79.5 1569.5,-60.5 1703.5,-60.5 1703.5,-79.5"/>
<text text-anchor="middle" x="1636.5" y="-67.5" font-family="Helvetica,sans-Serif" font-size="10.00">Ocp1ObjectDefinitions.h</text>
</a>
</g>
</g>
<!-- Node13&#45;&gt;Node15 -->
<g id="edge23_Node000013_Node000015" class="edge">
<title>Node13&#45;&gt;Node15</title>
<g id="a_edge23_Node000013_Node000015"><a xlink:title=" ">
<path fill="none" stroke="#63b8ff" d="M1589.12,-131.98C1597.62,-121.04 1612.57,-101.8 1623.41,-87.85"/>
<polygon fill="#63b8ff" stroke="#63b8ff" points="1626.45,-89.64 1629.82,-79.59 1620.93,-85.34 1626.45,-89.64"/>
</a>
</g>
</g>
<!-- Node16 -->
<g id="Node000016" class="node">
<title>Node16</title>
<g id="a_Node000016"><a xlink:title=" ">
<polygon fill="#e0e0e0" stroke="#999999" points="1781.5,-79.5 1721.5,-79.5 1721.5,-60.5 1781.5,-60.5 1781.5,-79.5"/>
<text text-anchor="middle" x="1751.5" y="-67.5" font-family="Helvetica,sans-Serif" font-size="10.00">Variant.h</text>
</a>
</g>
</g>
<!-- Node13&#45;&gt;Node16 -->
<g id="edge24_Node000013_Node000016" class="edge">
<title>Node13&#45;&gt;Node16</title>
<g id="a_edge24_Node000013_Node000016"><a xlink:title=" ">
<path fill="none" stroke="#63b8ff" d="M1603.22,-131.98C1632.74,-119.84 1687.1,-97.49 1721.16,-83.48"/>
<polygon fill="#63b8ff" stroke="#63b8ff" points="1722.69,-86.63 1730.61,-79.59 1720.03,-80.16 1722.69,-86.63"/>
</a>
</g>
</g>
<!-- Node17&#45;&gt;Node3 -->
<g id="edge26_Node000017_Node000003" class="edge">
<title>Node17&#45;&gt;Node3</title>
<g id="a_edge26_Node000017_Node000003"><a xlink:title=" ">
<path fill="none" stroke="#63b8ff" d="M1799.8,-131.86C1809.58,-114.71 1827.69,-76.2 1807.5,-55 1777.64,-23.65 1133.7,-13.38 946.88,-11.06"/>
<polygon fill="#63b8ff" stroke="#63b8ff" points="946.83,-7.56 936.78,-10.94 946.74,-14.56 946.83,-7.56"/>
</a>
</g>
</g>
<!-- Node18&#45;&gt;Node3 -->
<g id="edge28_Node000018_Node000003" class="edge">
<title>Node18&#45;&gt;Node3</title>
<g id="a_edge28_Node000018_Node000003"><a xlink:title=" ">
<path fill="none" stroke="#63b8ff" d="M1224.17,-197.98C1311.3,-178.85 1495.93,-128.31 1428.5,-55 1396.27,-19.96 1073.05,-12.5 946.72,-10.92"/>
<polygon fill="#63b8ff" stroke="#63b8ff" points="946.59,-7.42 936.55,-10.8 946.51,-14.42 946.59,-7.42"/>
</a>
</g>
</g>
<!-- Node18&#45;&gt;Node4 -->
<g id="edge29_Node000018_Node000004" class="edge">
<title>Node18&#45;&gt;Node4</title>
<g id="a_edge29_Node000018_Node000004"><a xlink:title=" ">
<path fill="none" stroke="#63b8ff" d="M1145.9,-197.94C1098.12,-186.44 1013.22,-166.01 960.9,-153.42"/>
<polygon fill="#63b8ff" stroke="#63b8ff" points="961.43,-149.95 950.89,-151.01 959.79,-156.76 961.43,-149.95"/>
</a>
</g>
</g>
<!-- Node18&#45;&gt;Node13 -->
<g id="edge30_Node000018_Node000013" class="edge">
<title>Node18&#45;&gt;Node13</title>
<g id="a_edge30_Node000018_Node000013"><a xlink:title=" ">
<path fill="none" stroke="#63b8ff" d="M1235.44,-197.96C1291.83,-189.03 1382.89,-174.58 1461.5,-162 1480.47,-158.96 1501.1,-155.64 1519.87,-152.62"/>
<polygon fill="#63b8ff" stroke="#63b8ff" points="1520.48,-156.07 1529.79,-151.02 1519.36,-149.16 1520.48,-156.07"/>
</a>
</g>
</g>
<!-- Node19 -->
<g id="Node000019" class="node">
<title>Node19</title>
<g id="a_Node000019"><a xlink:href="UmsciPaintNControlComponentBase_8h.html" target="_top" xlink:title=" ">
<polygon fill="white" stroke="#666666" points="1419.5,-85 1213.5,-85 1213.5,-55 1419.5,-55 1419.5,-85"/>
<text text-anchor="start" x="1221.5" y="-73" font-family="Helvetica,sans-Serif" font-size="10.00">UmsciPaintNControlComponents</text>
<text text-anchor="middle" x="1316.5" y="-62" font-family="Helvetica,sans-Serif" font-size="10.00">/UmsciPaintNControlComponentBase.h</text>
</a>
</g>
</g>
<!-- Node18&#45;&gt;Node19 -->
<g id="edge31_Node000018_Node000019" class="edge">
<title>Node18&#45;&gt;Node19</title>
<g id="a_edge31_Node000018_Node000019"><a xlink:title=" ">
<path fill="none" stroke="#63b8ff" d="M1224.13,-197.93C1246.09,-191.48 1271.72,-180.46 1288.5,-162 1305.27,-143.54 1312,-115.23 1314.7,-95.09"/>
<polygon fill="#63b8ff" stroke="#63b8ff" points="1318.18,-95.45 1315.8,-85.13 1311.22,-94.69 1318.18,-95.45"/>
</a>
</g>
</g>
<!-- Node20 -->
<g id="Node000020" class="node">
<title>Node20</title>
<g id="a_Node000020"><a xlink:href="UmsciUpmixIndicatorPaintNControlComponent_8h.html" target="_top" xlink:title=" ">
<polygon fill="white" stroke="#666666" points="1279.5,-162 1087.5,-162 1087.5,-121 1279.5,-121 1279.5,-162"/>
<text text-anchor="start" x="1095.5" y="-150" font-family="Helvetica,sans-Serif" font-size="10.00">UmsciPaintNControlComponents</text>
<text text-anchor="start" x="1095.5" y="-139" font-family="Helvetica,sans-Serif" font-size="10.00">/UmsciUpmixIndicatorPaintNControl</text>
<text text-anchor="middle" x="1183.5" y="-128" font-family="Helvetica,sans-Serif" font-size="10.00">Component.h</text>
</a>
</g>
</g>
<!-- Node18&#45;&gt;Node20 -->
<g id="edge33_Node000018_Node000020" class="edge">
<title>Node18&#45;&gt;Node20</title>
<g id="a_edge33_Node000018_Node000020"><a xlink:title=" ">
<path fill="none" stroke="#63b8ff" d="M1181.77,-197.87C1181.98,-191.22 1182.28,-181.63 1182.57,-172.28"/>
<polygon fill="#63b8ff" stroke="#63b8ff" points="1186.08,-172.11 1182.89,-162.01 1179.08,-171.89 1186.08,-172.11"/>
</a>
</g>
</g>
<!-- Node19&#45;&gt;Node3 -->
<g id="edge32_Node000019_Node000003" class="edge">
<title>Node19&#45;&gt;Node3</title>
<g id="a_edge32_Node000019_Node000003"><a xlink:title=" ">
<path fill="none" stroke="#63b8ff" d="M1215.9,-54.99C1131.01,-43.16 1013.04,-26.73 946.8,-17.51"/>
<polygon fill="#63b8ff" stroke="#63b8ff" points="947.02,-14 936.63,-16.09 946.05,-20.94 947.02,-14"/>
</a>
</g>
</g>
<!-- Node20&#45;&gt;Node3 -->
<g id="edge34_Node000020_Node000003" class="edge">
<title>Node20&#45;&gt;Node3</title>
<g id="a_edge34_Node000020_Node000003"><a xlink:title=" ">
<path fill="none" stroke="#63b8ff" d="M1185.19,-120.89C1185.71,-101.35 1183.14,-71.89 1165.5,-55 1134.93,-25.73 1015.81,-15.64 946.77,-12.21"/>
<polygon fill="#63b8ff" stroke="#63b8ff" points="946.71,-8.71 936.55,-11.74 946.38,-15.7 946.71,-8.71"/>
</a>
</g>
</g>
<!-- Node20&#45;&gt;Node19 -->
<g id="edge35_Node000020_Node000019" class="edge">
<title>Node20&#45;&gt;Node19</title>
<g id="a_edge35_Node000020_Node000019"><a xlink:title=" ">
<path fill="none" stroke="#63b8ff" d="M1220.9,-120.96C1239.57,-111.2 1262.05,-99.46 1280.51,-89.81"/>
<polygon fill="#63b8ff" stroke="#63b8ff" points="1282.25,-92.85 1289.49,-85.11 1279.01,-86.64 1282.25,-92.85"/>
</a>
</g>
</g>
<!-- Node21 -->
<g id="Node000021" class="node">
<title>Node21</title>
<g id="a_Node000021"><a xlink:title=" ">
<polygon fill="#e0e0e0" stroke="#999999" points="1157,-79.5 1058,-79.5 1058,-60.5 1157,-60.5 1157,-79.5"/>
<text text-anchor="middle" x="1107.5" y="-67.5" font-family="Helvetica,sans-Serif" font-size="10.00">TwoDFieldBase.h</text>
</a>
</g>
</g>
<!-- Node20&#45;&gt;Node21 -->
<g id="edge36_Node000020_Node000021" class="edge">
<title>Node20&#45;&gt;Node21</title>
<g id="a_edge36_Node000020_Node000021"><a xlink:title=" ">
<path fill="none" stroke="#63b8ff" d="M1161.92,-120.77C1150.17,-110.02 1135.83,-96.91 1124.82,-86.84"/>
<polygon fill="#63b8ff" stroke="#63b8ff" points="1126.89,-83.99 1117.14,-79.82 1122.16,-89.15 1126.89,-83.99"/>
</a>
</g>
</g>
<!-- Node22&#45;&gt;Node3 -->
<g id="edge38_Node000022_Node000003" class="edge">
<title>Node22&#45;&gt;Node3</title>
<g id="a_edge38_Node000022_Node000003"><a xlink:title=" ">
<path fill="none" stroke="#63b8ff" d="M102.99,-131.94C119.41,-113.84 160.72,-71.98 205.5,-55 264.84,-32.49 696.51,-16.84 845.83,-12.04"/>
<polygon fill="#63b8ff" stroke="#63b8ff" points="846.21,-15.53 856.09,-11.72 845.98,-8.54 846.21,-15.53"/>
</a>
</g>
</g>
<!-- Node23&#45;&gt;Node3 -->
<g id="edge40_Node000023_Node000003" class="edge">
<title>Node23&#45;&gt;Node3</title>
<g id="a_edge40_Node000023_Node000003"><a xlink:title=" ">
<path fill="none" stroke="#63b8ff" d="M205.2,-197.92C201.76,-171.74 195.47,-92.37 238.5,-55 261.37,-35.14 696.27,-17.7 846.2,-12.25"/>
<polygon fill="#63b8ff" stroke="#63b8ff" points="846.62,-15.74 856.49,-11.88 846.37,-8.75 846.62,-15.74"/>
</a>
</g>
</g>
<!-- Node24&#45;&gt;Node3 -->
<g id="edge42_Node000024_Node000003" class="edge">
<title>Node24&#45;&gt;Node3</title>
<g id="a_edge42_Node000024_Node000003"><a xlink:title=" ">
<path fill="none" stroke="#63b8ff" d="M1030.55,-197.84C1030.25,-172.75 1026.12,-98.97 989.5,-55 976.84,-39.8 957.77,-29.43 940.2,-22.55"/>
<polygon fill="#63b8ff" stroke="#63b8ff" points="941.23,-19.2 930.63,-19.08 938.84,-25.78 941.23,-19.2"/>
</a>
</g>
</g>
</g>
</svg>

<g id="navigator" transform="translate(0 0)" fill="#404254">
  <rect fill="#f2f5e9" fill-opacity="0.5" stroke="#606060" stroke-width=".5" x="0" y="0" width="60" height="60"/>
  <use id="zoomplus" xlink:href="#zoomPlus" x="17" y="9" onmousedown="handleZoom(evt,'in')"/>
  <use id="zoomminus" xlink:href="#zoomMin" x="42" y="9" onmousedown="handleZoom(evt,'out')"/>
  <use id="reset" xlink:href="#resetDef" x="30" y="36" onmousedown="handleReset()"/>
   <use id="arrowup" xlink:href="#arrowUp" x="0" y="0" onmousedown="handlePan(0,-1)"/>
  <use id="arrowright" xlink:href="#arrowRight" x="0" y="0" onmousedown="handlePan(1,0)"/>
  <use id="arrowdown" xlink:href="#arrowDown" x="0" y="0" onmousedown="handlePan(0,1)"/>
  <use id="arrowleft" xlink:href="#arrowLeft" x="0" y="0" onmousedown="handlePan(-1,0)"/>
</g>
<svg viewBox="0 0 15 15" width="100%" height="30px" preserveAspectRatio="xMaxYMin meet">
 <g id="arrow_out" transform="scale(0.3 0.3)">
  <a xlink:href="MainComponent_8cpp__incl_org.svg" target="_base">
   <rect id="button" ry="5" rx="5" y="6" x="6" height="38" width="38"
        fill="#f2f5e9" fill-opacity="0.5" stroke="#606060" stroke-width="1.0"/>
   <path id="arrow"
     d="M 11.500037,31.436501 C 11.940474,20.09759 22.043105,11.32322 32.158766,21.979434 L 37.068811,17.246167 C 37.068811,17.246167 37.088388,32 37.088388,32 L 22.160133,31.978069 C 22.160133,31.978069 26.997745,27.140456 26.997745,27.140456 C 18.528582,18.264221 13.291696,25.230495 11.500037,31.436501 z"
     style="fill:#404040;"/>
  </a>
 </g>
</svg>

<style type='text/css'>
<![CDATA[
[data-mouse-over-selected='false'] { opacity: 0.7; }
[data-mouse-over-selected='true']  { opacity: 1.0; }
]]>
</style>
<script type="application/ecmascript"><![CDATA[
document.addEventListener('DOMContentLoaded', (event) => {
  highlightEdges();
  highlightAdjacentNodes();
});
]]></script>
</svg>
