<?xml version="1.0" encoding="UTF-8" standalone="no"?>
<!DOCTYPE svg PUBLIC "-//W3C//DTD SVG 1.1//EN"
 "http://www.w3.org/Graphics/SVG/1.1/DTD/svg11.dtd">
<!-- Generated by graphviz version 2.43.0 (0)
 -->
<!-- Title: Source/Main.cpp Pages: 1 -->
<svg width="1839pt" height="269pt"
 viewBox="0.00 0.00 1838.50 269.00" xmlns="http://www.w3.org/2000/svg" xmlns:xlink="http://www.w3.org/1999/xlink">
<g id="graph0" class="graph" transform="scale(1 1) rotate(0) translate(4 265)">
<title>Source/Main.cpp</title>
<!-- Node1 -->
<g id="Node000001" class="node">
<title>Node1</title>
<g id="a_Node000001"><a xlink:title=" ">
<polygon fill="#999999" stroke="#666666" points="1548,-261 1451,-261 1451,-242 1548,-242 1548,-261"/>
<text text-anchor="middle" x="1499.5" y="-249" font-family="Helvetica,sans-Serif" font-size="10.00">Source/Main.cpp</text>
</a>
</g>
</g>
<!-- Node2 -->
<g id="Node000002" class="node">
<title>Node2</title>
<g id="a_Node000002"><a xlink:title=" ">
<polygon fill="#e0e0e0" stroke="#999999" points="708.5,-19 628.5,-19 628.5,0 708.5,0 708.5,-19"/>
<text text-anchor="middle" x="668.5" y="-7" font-family="Helvetica,sans-Serif" font-size="10.00">JuceHeader.h</text>
</a>
</g>
</g>
<!-- Node1&#45;&gt;Node2 -->
<g id="edge1_Node000001_Node000002" class="edge">
<title>Node1&#45;&gt;Node2</title>
<g id="a_edge1_Node000001_Node000002"><a xlink:title=" ">
<path fill="none" stroke="#63b8ff" d="M1499.97,-241.58C1501.08,-209.96 1500.11,-102.56 1439.5,-55 1382.99,-10.66 880.83,-9.37 718.72,-10.13"/>
<polygon fill="#63b8ff" stroke="#63b8ff" points="718.52,-6.63 708.54,-10.18 718.56,-13.63 718.52,-6.63"/>
</a>
</g>
</g>
<!-- Node3 -->
<g id="Node000003" class="node">
<title>Node3</title>
<g id="a_Node000003"><a xlink:href="MainComponent_8h.html" target="_top" xlink:title=" ">
<polygon fill="white" stroke="#666666" points="741.5,-206 635.5,-206 635.5,-187 741.5,-187 741.5,-206"/>
<text text-anchor="middle" x="688.5" y="-194" font-family="Helvetica,sans-Serif" font-size="10.00">MainComponent.h</text>
</a>
</g>
</g>
<!-- Node1&#45;&gt;Node3 -->
<g id="edge2_Node000001_Node000003" class="edge">
<title>Node1&#45;&gt;Node3</title>
<g id="a_edge2_Node000001_Node000003"><a xlink:title=" ">
<path fill="none" stroke="#63b8ff" d="M1450.9,-247.32C1311.26,-238.2 908.92,-211.9 752.13,-201.66"/>
<polygon fill="#63b8ff" stroke="#63b8ff" points="751.92,-198.14 741.71,-200.98 751.46,-205.12 751.92,-198.14"/>
</a>
</g>
</g>
<!-- Node18 -->
<g id="Node000018" class="node">
<title>Node18</title>
<g id="a_Node000018"><a xlink:href="DeviceController_8h.html" target="_top" xlink:title=" ">
<polygon fill="white" stroke="#666666" points="1619,-206 1512,-206 1512,-187 1619,-187 1619,-206"/>
<text text-anchor="middle" x="1565.5" y="-194" font-family="Helvetica,sans-Serif" font-size="10.00">DeviceController.h</text>
</a>
</g>
</g>
<!-- Node1&#45;&gt;Node18 -->
<g id="edge31_Node000001_Node000018" class="edge">
<title>Node1&#45;&gt;Node18</title>
<g id="a_edge31_Node000001_Node000018"><a xlink:title=" ">
<path fill="none" stroke="#63b8ff" d="M1510.1,-241.98C1519.96,-234.07 1534.85,-222.11 1546.72,-212.58"/>
<polygon fill="#63b8ff" stroke="#63b8ff" points="1549.1,-215.16 1554.7,-206.17 1544.71,-209.7 1549.1,-215.16"/>
</a>
</g>
</g>
<!-- Node22 -->
<g id="Node000022" class="node">
<title>Node22</title>
<g id="a_Node000022"><a xlink:title=" ">
<polygon fill="#e0e0e0" stroke="#999999" points="1762,-206 1637,-206 1637,-187 1762,-187 1762,-206"/>
<text text-anchor="middle" x="1699.5" y="-194" font-family="Helvetica,sans-Serif" font-size="10.00">CustomLookAndFeel.h</text>
</a>
</g>
</g>
<!-- Node1&#45;&gt;Node22 -->
<g id="edge36_Node000001_Node000022" class="edge">
<title>Node1&#45;&gt;Node22</title>
<g id="a_edge36_Node000001_Node000022"><a xlink:title=" ">
<path fill="none" stroke="#63b8ff" d="M1531.63,-241.98C1565.65,-232.97 1619.5,-218.7 1657,-208.76"/>
<polygon fill="#63b8ff" stroke="#63b8ff" points="1658.34,-212.03 1667.11,-206.08 1656.55,-205.26 1658.34,-212.03"/>
</a>
</g>
</g>
<!-- Node3&#45;&gt;Node2 -->
<g id="edge3_Node000003_Node000002" class="edge">
<title>Node3&#45;&gt;Node2</title>
<g id="a_edge3_Node000003_Node000002"><a xlink:title=" ">
<path fill="none" stroke="#63b8ff" d="M687.9,-186.6C686.56,-171.95 682.35,-142.25 669.5,-121 657.12,-100.53 639.23,-106.85 629.5,-85 624.08,-72.82 624.81,-67.48 629.5,-55 633.68,-43.89 642.02,-33.75 649.93,-25.96"/>
<polygon fill="#63b8ff" stroke="#63b8ff" points="652.51,-28.35 657.51,-19.01 647.78,-23.19 652.51,-28.35"/>
</a>
</g>
</g>
<!-- Node4 -->
<g id="Node000004" class="node">
<title>Node4</title>
<g id="a_Node000004"><a xlink:href="UmsciAppConfiguration_8h.html" target="_top" xlink:title=" ">
<polygon fill="white" stroke="#666666" points="1147.5,-145.5 1007.5,-145.5 1007.5,-126.5 1147.5,-126.5 1147.5,-145.5"/>
<text text-anchor="middle" x="1077.5" y="-133.5" font-family="Helvetica,sans-Serif" font-size="10.00">UmsciAppConfiguration.h</text>
</a>
</g>
</g>
<!-- Node3&#45;&gt;Node4 -->
<g id="edge4_Node000003_Node000004" class="edge">
<title>Node3&#45;&gt;Node4</title>
<g id="a_edge4_Node000003_Node000004"><a xlink:title=" ">
<path fill="none" stroke="#63b8ff" d="M741.51,-188.43C803.3,-180.06 908.44,-165.44 998.5,-151 1005.69,-149.85 1013.23,-148.58 1020.69,-147.3"/>
<polygon fill="#63b8ff" stroke="#63b8ff" points="1021.51,-150.71 1030.76,-145.55 1020.3,-143.81 1021.51,-150.71"/>
</a>
</g>
</g>
<!-- Node6 -->
<g id="Node000006" class="node">
<title>Node6</title>
<g id="a_Node000006"><a xlink:href="UmsciExternalControlComponent_8h.html" target="_top" xlink:title=" ">
<polygon fill="white" stroke="#666666" points="346.5,-79.5 158.5,-79.5 158.5,-60.5 346.5,-60.5 346.5,-79.5"/>
<text text-anchor="middle" x="252.5" y="-67.5" font-family="Helvetica,sans-Serif" font-size="10.00">UmsciExternalControlComponent.h</text>
</a>
</g>
</g>
<!-- Node3&#45;&gt;Node6 -->
<g id="edge7_Node000003_Node000006" class="edge">
<title>Node3&#45;&gt;Node6</title>
<g id="a_edge7_Node000003_Node000006"><a xlink:title=" ">
<path fill="none" stroke="#63b8ff" d="M635.27,-194C524.38,-190.31 276.8,-179.01 251.5,-151 236.63,-134.53 240.7,-107.47 245.87,-89.44"/>
<polygon fill="#63b8ff" stroke="#63b8ff" points="249.25,-90.38 248.99,-79.79 242.59,-88.23 249.25,-90.38"/>
</a>
</g>
</g>
<!-- Node9 -->
<g id="Node000009" class="node">
<title>Node9</title>
<g id="a_Node000009"><a xlink:href="UmsciZeroconfDiscoverComboComponent_8h.html" target="_top" xlink:title=" ">
<polygon fill="white" stroke="#666666" points="989.5,-151 821.5,-151 821.5,-121 989.5,-121 989.5,-151"/>
<text text-anchor="start" x="829.5" y="-139" font-family="Helvetica,sans-Serif" font-size="10.00">UmsciZeroconfDiscoverCombo</text>
<text text-anchor="middle" x="905.5" y="-128" font-family="Helvetica,sans-Serif" font-size="10.00">Component.h</text>
</a>
</g>
</g>
<!-- Node3&#45;&gt;Node9 -->
<g id="edge11_Node000003_Node000009" class="edge">
<title>Node3&#45;&gt;Node9</title>
<g id="a_edge11_Node000003_Node000009"><a xlink:title=" ">
<path fill="none" stroke="#63b8ff" d="M720.05,-186.99C752.31,-178.3 803.25,-164.57 843.58,-153.69"/>
<polygon fill="#63b8ff" stroke="#63b8ff" points="844.59,-157.05 853.33,-151.06 842.76,-150.29 844.59,-157.05"/>
</a>
</g>
</g>
<!-- Node11 -->
<g id="Node000011" class="node">
<title>Node11</title>
<g id="a_Node000011"><a xlink:href="MidiController_8h.html" target="_top" xlink:title=" ">
<polygon fill="white" stroke="#666666" points="191.5,-145.5 97.5,-145.5 97.5,-126.5 191.5,-126.5 191.5,-145.5"/>
<text text-anchor="middle" x="144.5" y="-133.5" font-family="Helvetica,sans-Serif" font-size="10.00">MidiController.h</text>
</a>
</g>
</g>
<!-- Node3&#45;&gt;Node11 -->
<g id="edge14_Node000003_Node000011" class="edge">
<title>Node3&#45;&gt;Node11</title>
<g id="a_edge14_Node000003_Node000011"><a xlink:title=" ">
<path fill="none" stroke="#63b8ff" d="M635.45,-192.08C548.19,-186.11 369.04,-172.32 218.5,-151 211.12,-149.95 203.35,-148.68 195.74,-147.33"/>
<polygon fill="#63b8ff" stroke="#63b8ff" points="196.34,-143.88 185.87,-145.53 195.08,-150.77 196.34,-143.88"/>
</a>
</g>
</g>
<!-- Node12 -->
<g id="Node000012" class="node">
<title>Node12</title>
<g id="a_Node000012"><a xlink:href="OscController_8h.html" target="_top" xlink:title=" ">
<polygon fill="white" stroke="#666666" points="352,-145.5 261,-145.5 261,-126.5 352,-126.5 352,-145.5"/>
<text text-anchor="middle" x="306.5" y="-133.5" font-family="Helvetica,sans-Serif" font-size="10.00">OscController.h</text>
</a>
</g>
</g>
<!-- Node3&#45;&gt;Node12 -->
<g id="edge18_Node000003_Node000012" class="edge">
<title>Node3&#45;&gt;Node12</title>
<g id="a_edge18_Node000003_Node000012"><a xlink:title=" ">
<path fill="none" stroke="#63b8ff" d="M635.24,-190.14C570.27,-183.17 457.25,-169.64 361.5,-151 356.85,-150.09 352,-149.04 347.2,-147.91"/>
<polygon fill="#63b8ff" stroke="#63b8ff" points="348.03,-144.51 337.48,-145.54 346.37,-151.31 348.03,-144.51"/>
</a>
</g>
</g>
<!-- Node13 -->
<g id="Node000013" class="node">
<title>Node13</title>
<g id="a_Node000013"><a xlink:href="DbprController_8h.html" target="_top" xlink:title=" ">
<polygon fill="white" stroke="#666666" points="466.5,-145.5 370.5,-145.5 370.5,-126.5 466.5,-126.5 466.5,-145.5"/>
<text text-anchor="middle" x="418.5" y="-133.5" font-family="Helvetica,sans-Serif" font-size="10.00">DbprController.h</text>
</a>
</g>
</g>
<!-- Node3&#45;&gt;Node13 -->
<g id="edge21_Node000003_Node000013" class="edge">
<title>Node3&#45;&gt;Node13</title>
<g id="a_edge21_Node000003_Node000013"><a xlink:title=" ">
<path fill="none" stroke="#63b8ff" d="M645.57,-186.99C602.48,-178.34 534.26,-164.35 475.5,-151 471.31,-150.05 466.95,-149.03 462.59,-147.99"/>
<polygon fill="#63b8ff" stroke="#63b8ff" points="463.06,-144.5 452.51,-145.56 461.41,-151.31 463.06,-144.5"/>
</a>
</g>
</g>
<!-- Node15 -->
<g id="Node000015" class="node">
<title>Node15</title>
<g id="a_Node000015"><a xlink:href="UmsciDbprProjectComponent_8h.html" target="_top" xlink:title=" ">
<polygon fill="white" stroke="#666666" points="660.5,-151 484.5,-151 484.5,-121 660.5,-121 660.5,-151"/>
<text text-anchor="start" x="492.5" y="-139" font-family="Helvetica,sans-Serif" font-size="10.00">UmsciPaintNControlComponents</text>
<text text-anchor="middle" x="572.5" y="-128" font-family="Helvetica,sans-Serif" font-size="10.00">/UmsciDbprProjectComponent.h</text>
</a>
</g>
</g>
<!-- Node3&#45;&gt;Node15 -->
<g id="edge24_Node000003_Node000015" class="edge">
<title>Node3&#45;&gt;Node15</title>
<g id="a_edge24_Node000003_Node000015"><a xlink:title=" ">
<path fill="none" stroke="#63b8ff" d="M671.38,-186.87C655.21,-178.71 630.4,-166.2 609.68,-155.75"/>
<polygon fill="#63b8ff" stroke="#63b8ff" points="610.99,-152.49 600.49,-151.11 607.84,-158.74 610.99,-152.49"/>
</a>
</g>
</g>
<!-- Node16 -->
<g id="Node000016" class="node">
<title>Node16</title>
<g id="a_Node000016"><a xlink:href="UmsciSnapshotComponent_8h.html" target="_top" xlink:title=" ">
<polygon fill="white" stroke="#666666" points="814.5,-85 638.5,-85 638.5,-55 814.5,-55 814.5,-85"/>
<text text-anchor="start" x="646.5" y="-73" font-family="Helvetica,sans-Serif" font-size="10.00">UmsciPaintNControlComponents</text>
<text text-anchor="middle" x="726.5" y="-62" font-family="Helvetica,sans-Serif" font-size="10.00">/UmsciSnapshotComponent.h</text>
</a>
</g>
</g>
<!-- Node3&#45;&gt;Node16 -->
<g id="edge27_Node000003_Node000016" class="edge">
<title>Node3&#45;&gt;Node16</title>
<g id="a_edge27_Node000003_Node000016"><a xlink:title=" ">
<path fill="none" stroke="#63b8ff" d="M691.22,-186.98C694.06,-178.03 698.65,-163.54 702.5,-151 708.3,-132.13 714.72,-110.7 719.46,-94.77"/>
<polygon fill="#63b8ff" stroke="#63b8ff" points="722.82,-95.76 722.31,-85.18 716.11,-93.77 722.82,-95.76"/>
</a>
</g>
</g>
<!-- Node17 -->
<g id="Node000017" class="node">
<title>Node17</title>
<g id="a_Node000017"><a xlink:href="UmsciUpmixParamsComponent_8h.html" target="_top" xlink:title=" ">
<polygon fill="white" stroke="#666666" points="1430.5,-85 1246.5,-85 1246.5,-55 1430.5,-55 1430.5,-85"/>
<text text-anchor="start" x="1254.5" y="-73" font-family="Helvetica,sans-Serif" font-size="10.00">UmsciPaintNControlComponents</text>
<text text-anchor="middle" x="1338.5" y="-62" font-family="Helvetica,sans-Serif" font-size="10.00">/UmsciUpmixParamsComponent.h</text>
</a>
</g>
</g>
<!-- Node3&#45;&gt;Node17 -->
<g id="edge29_Node000003_Node000017" class="edge">
<title>Node3&#45;&gt;Node17</title>
<g id="a_edge29_Node000003_Node000017"><a xlink:title=" ">
<path fill="none" stroke="#63b8ff" d="M741.74,-195.91C829.59,-195.37 1009.78,-189.16 1156.5,-151 1210.47,-136.96 1268.81,-108.78 1304.5,-89.9"/>
<polygon fill="#63b8ff" stroke="#63b8ff" points="1306.35,-92.88 1313.51,-85.07 1303.04,-86.71 1306.35,-92.88"/>
</a>
</g>
</g>
<!-- Node4&#45;&gt;Node2 -->
<g id="edge5_Node000004_Node000002" class="edge">
<title>Node4&#45;&gt;Node2</title>
<g id="a_edge5_Node000004_Node000002"><a xlink:title=" ">
<path fill="none" stroke="#63b8ff" d="M1074.92,-126.46C1069.34,-109.6 1054.43,-72.17 1027.5,-55 977.38,-23.03 805.08,-14.01 718.7,-11.48"/>
<polygon fill="#63b8ff" stroke="#63b8ff" points="718.7,-7.98 708.61,-11.2 718.51,-14.97 718.7,-7.98"/>
</a>
</g>
</g>
<!-- Node5 -->
<g id="Node000005" class="node">
<title>Node5</title>
<g id="a_Node000005"><a xlink:title=" ">
<polygon fill="#e0e0e0" stroke="#999999" points="1228.5,-79.5 1094.5,-79.5 1094.5,-60.5 1228.5,-60.5 1228.5,-79.5"/>
<text text-anchor="middle" x="1161.5" y="-67.5" font-family="Helvetica,sans-Serif" font-size="10.00">AppConfigurationBase.h</text>
</a>
</g>
</g>
<!-- Node4&#45;&gt;Node5 -->
<g id="edge6_Node000004_Node000005" class="edge">
<title>Node4&#45;&gt;Node5</title>
<g id="a_edge6_Node000004_Node000005"><a xlink:title=" ">
<path fill="none" stroke="#63b8ff" d="M1088.83,-126.37C1102.36,-116.06 1125.22,-98.65 1141.69,-86.09"/>
<polygon fill="#63b8ff" stroke="#63b8ff" points="1144.25,-88.54 1150.08,-79.7 1140.01,-82.98 1144.25,-88.54"/>
</a>
</g>
</g>
<!-- Node6&#45;&gt;Node2 -->
<g id="edge8_Node000006_Node000002" class="edge">
<title>Node6&#45;&gt;Node2</title>
<g id="a_edge8_Node000006_Node000002"><a xlink:title=" ">
<path fill="none" stroke="#63b8ff" d="M312.99,-60.49C395.31,-48.92 541.15,-28.41 617.95,-17.61"/>
<polygon fill="#63b8ff" stroke="#63b8ff" points="618.9,-21.01 628.32,-16.15 617.93,-14.08 618.9,-21.01"/>
</a>
</g>
</g>
<!-- Node7 -->
<g id="Node000007" class="node">
<title>Node7</title>
<g id="a_Node000007"><a xlink:title=" ">
<polygon fill="#e0e0e0" stroke="#999999" points="185,-19 0,-19 0,0 185,0 185,-19"/>
<text text-anchor="middle" x="92.5" y="-7" font-family="Helvetica,sans-Serif" font-size="10.00">MidiCommandRangeAssignment.h</text>
</a>
</g>
</g>
<!-- Node6&#45;&gt;Node7 -->
<g id="edge9_Node000006_Node000007" class="edge">
<title>Node6&#45;&gt;Node7</title>
<g id="a_edge9_Node000006_Node000007"><a xlink:title=" ">
<path fill="none" stroke="#63b8ff" d="M229.23,-60.49C201.86,-50.49 156.23,-33.8 125.28,-22.49"/>
<polygon fill="#63b8ff" stroke="#63b8ff" points="126.39,-19.16 115.79,-19.02 123.98,-25.74 126.39,-19.16"/>
</a>
</g>
</g>
<!-- Node8 -->
<g id="Node000008" class="node">
<title>Node8</title>
<g id="a_Node000008"><a xlink:title=" ">
<polygon fill="#e0e0e0" stroke="#999999" points="343.5,-19 203.5,-19 203.5,0 343.5,0 343.5,-19"/>
<text text-anchor="middle" x="273.5" y="-7" font-family="Helvetica,sans-Serif" font-size="10.00">MidiLearnerComponent.h</text>
</a>
</g>
</g>
<!-- Node6&#45;&gt;Node8 -->
<g id="edge10_Node000006_Node000008" class="edge">
<title>Node6&#45;&gt;Node8</title>
<g id="a_edge10_Node000006_Node000008"><a xlink:title=" ">
<path fill="none" stroke="#63b8ff" d="M255.6,-60.37C258.58,-52.07 263.17,-39.28 266.96,-28.72"/>
<polygon fill="#63b8ff" stroke="#63b8ff" points="270.3,-29.76 270.39,-19.17 263.72,-27.4 270.3,-29.76"/>
</a>
</g>
</g>
<!-- Node9&#45;&gt;Node2 -->
<g id="edge12_Node000009_Node000002" class="edge">
<title>Node9&#45;&gt;Node2</title>
<g id="a_edge12_Node000009_Node000002"><a xlink:title=" ">
<path fill="none" stroke="#63b8ff" d="M949.27,-120.97C987.49,-106.49 1033.4,-82.22 1009.5,-55 990.63,-33.51 808.96,-19.26 718.78,-13.45"/>
<polygon fill="#63b8ff" stroke="#63b8ff" points="718.97,-9.96 708.77,-12.82 718.53,-16.94 718.97,-9.96"/>
</a>
</g>
</g>
<!-- Node10 -->
<g id="Node000010" class="node">
<title>Node10</title>
<g id="a_Node000010"><a xlink:title=" ">
<polygon fill="#e0e0e0" stroke="#999999" points="1000.5,-79.5 832.5,-79.5 832.5,-60.5 1000.5,-60.5 1000.5,-79.5"/>
<text text-anchor="middle" x="916.5" y="-67.5" font-family="Helvetica,sans-Serif" font-size="10.00">ZeroconfDiscoverComponent.h</text>
</a>
</g>
</g>
<!-- Node9&#45;&gt;Node10 -->
<g id="edge13_Node000009_Node000010" class="edge">
<title>Node9&#45;&gt;Node10</title>
<g id="a_edge13_Node000009_Node000010"><a xlink:title=" ">
<path fill="none" stroke="#63b8ff" d="M907.94,-120.8C909.5,-111.7 911.55,-99.79 913.25,-89.9"/>
<polygon fill="#63b8ff" stroke="#63b8ff" points="916.74,-90.29 914.98,-79.84 909.84,-89.11 916.74,-90.29"/>
</a>
</g>
</g>
<!-- Node11&#45;&gt;Node2 -->
<g id="edge15_Node000011_Node000002" class="edge">
<title>Node11&#45;&gt;Node2</title>
<g id="a_edge15_Node000011_Node000002"><a xlink:title=" ">
<path fill="none" stroke="#63b8ff" d="M141.78,-126.08C137.35,-109.56 130.83,-74.11 149.5,-55 181.82,-21.93 493.81,-13.3 617.93,-11.16"/>
<polygon fill="#63b8ff" stroke="#63b8ff" points="618.35,-14.66 628.3,-10.99 618.24,-7.66 618.35,-14.66"/>
</a>
</g>
</g>
<!-- Node11&#45;&gt;Node6 -->
<g id="edge17_Node000011_Node000006" class="edge">
<title>Node11&#45;&gt;Node6</title>
<g id="a_edge17_Node000011_Node000006"><a xlink:title=" ">
<path fill="none" stroke="#63b8ff" d="M159.07,-126.37C177.02,-115.73 207.77,-97.51 229.06,-84.89"/>
<polygon fill="#63b8ff" stroke="#63b8ff" points="231,-87.81 237.82,-79.7 227.43,-81.79 231,-87.81"/>
</a>
</g>
</g>
<!-- Node11&#45;&gt;Node7 -->
<g id="edge16_Node000011_Node000007" class="edge">
<title>Node11&#45;&gt;Node7</title>
<g id="a_edge16_Node000011_Node000007"><a xlink:title=" ">
<path fill="none" stroke="#63b8ff" d="M139,-126.42C132.91,-116.67 123.1,-100.14 116.5,-85 108.46,-66.56 101.69,-44.53 97.41,-29.23"/>
<polygon fill="#63b8ff" stroke="#63b8ff" points="100.75,-28.16 94.76,-19.43 94,-29.99 100.75,-28.16"/>
</a>
</g>
</g>
<!-- Node12&#45;&gt;Node2 -->
<g id="edge19_Node000012_Node000002" class="edge">
<title>Node12&#45;&gt;Node2</title>
<g id="a_edge19_Node000012_Node000002"><a xlink:title=" ">
<path fill="none" stroke="#63b8ff" d="M315.12,-126.34C332.33,-109.59 372.9,-72.86 414.5,-55 481.22,-26.36 565.35,-16.15 618.05,-12.51"/>
<polygon fill="#63b8ff" stroke="#63b8ff" points="618.4,-15.99 628.16,-11.87 617.95,-9.01 618.4,-15.99"/>
</a>
</g>
</g>
<!-- Node12&#45;&gt;Node6 -->
<g id="edge20_Node000012_Node000006" class="edge">
<title>Node12&#45;&gt;Node6</title>
<g id="a_edge20_Node000012_Node000006"><a xlink:title=" ">
<path fill="none" stroke="#63b8ff" d="M299.22,-126.37C290.89,-116.5 277.06,-100.11 266.61,-87.72"/>
<polygon fill="#63b8ff" stroke="#63b8ff" points="269.14,-85.29 260.01,-79.91 263.79,-89.81 269.14,-85.29"/>
</a>
</g>
</g>
<!-- Node13&#45;&gt;Node2 -->
<g id="edge22_Node000013_Node000002" class="edge">
<title>Node13&#45;&gt;Node2</title>
<g id="a_edge22_Node000013_Node000002"><a xlink:title=" ">
<path fill="none" stroke="#63b8ff" d="M416.99,-126.13C414.75,-109.67 412.63,-74.34 431.5,-55 456.79,-29.08 556.12,-17.87 617.88,-13.33"/>
<polygon fill="#63b8ff" stroke="#63b8ff" points="618.47,-16.79 628.2,-12.6 617.98,-9.81 618.47,-16.79"/>
</a>
</g>
</g>
<!-- Node14 -->
<g id="Node000014" class="node">
<title>Node14</title>
<g id="a_Node000014"><a xlink:href="dbprProjectUtils_8h.html" target="_top" xlink:title=" ">
<polygon fill="white" stroke="#666666" points="544.5,-79.5 440.5,-79.5 440.5,-60.5 544.5,-60.5 544.5,-79.5"/>
<text text-anchor="middle" x="492.5" y="-67.5" font-family="Helvetica,sans-Serif" font-size="10.00">dbprProjectUtils.h</text>
</a>
</g>
</g>
<!-- Node13&#45;&gt;Node14 -->
<g id="edge23_Node000013_Node000014" class="edge">
<title>Node13&#45;&gt;Node14</title>
<g id="a_edge23_Node000013_Node000014"><a xlink:title=" ">
<path fill="none" stroke="#63b8ff" d="M428.48,-126.37C440.22,-116.21 459.94,-99.16 474.4,-86.65"/>
<polygon fill="#63b8ff" stroke="#63b8ff" points="476.93,-89.09 482.2,-79.91 472.35,-83.8 476.93,-89.09"/>
</a>
</g>
</g>
<!-- Node15&#45;&gt;Node2 -->
<g id="edge25_Node000015_Node000002" class="edge">
<title>Node15&#45;&gt;Node2</title>
<g id="a_edge25_Node000015_Node000002"><a xlink:title=" ">
<path fill="none" stroke="#63b8ff" d="M573.69,-120.9C575.77,-103.76 581.41,-74.67 596.5,-55 606.99,-41.32 622.99,-30.84 637.24,-23.49"/>
<polygon fill="#63b8ff" stroke="#63b8ff" points="638.8,-26.62 646.27,-19.11 635.75,-20.32 638.8,-26.62"/>
</a>
</g>
</g>
<!-- Node15&#45;&gt;Node14 -->
<g id="edge26_Node000015_Node000014" class="edge">
<title>Node15&#45;&gt;Node14</title>
<g id="a_edge26_Node000015_Node000014"><a xlink:title=" ">
<path fill="none" stroke="#63b8ff" d="M554.75,-120.8C541.91,-110.53 524.58,-96.67 511.47,-86.18"/>
<polygon fill="#63b8ff" stroke="#63b8ff" points="513.55,-83.36 503.56,-79.84 509.18,-88.82 513.55,-83.36"/>
</a>
</g>
</g>
<!-- Node16&#45;&gt;Node2 -->
<g id="edge28_Node000016_Node000002" class="edge">
<title>Node16&#45;&gt;Node2</title>
<g id="a_edge28_Node000016_Node000002"><a xlink:title=" ">
<path fill="none" stroke="#63b8ff" d="M712.46,-54.84C703.95,-46.26 693.09,-35.3 684.28,-26.42"/>
<polygon fill="#63b8ff" stroke="#63b8ff" points="686.72,-23.9 677.19,-19.27 681.75,-28.83 686.72,-23.9"/>
</a>
</g>
</g>
<!-- Node17&#45;&gt;Node2 -->
<g id="edge30_Node000017_Node000002" class="edge">
<title>Node17&#45;&gt;Node2</title>
<g id="a_edge30_Node000017_Node000002"><a xlink:title=" ">
<path fill="none" stroke="#63b8ff" d="M1246.33,-55.99C1243.35,-55.65 1240.4,-55.31 1237.5,-55 1046.26,-34.29 817.86,-19.4 718.63,-13.41"/>
<polygon fill="#63b8ff" stroke="#63b8ff" points="718.78,-9.91 708.59,-12.81 718.36,-16.9 718.78,-9.91"/>
</a>
</g>
</g>
<!-- Node18&#45;&gt;Node2 -->
<g id="edge32_Node000018_Node000002" class="edge">
<title>Node18&#45;&gt;Node2</title>
<g id="a_edge32_Node000018_Node000002"><a xlink:title=" ">
<path fill="none" stroke="#63b8ff" d="M1553.05,-186.81C1542.02,-178.61 1526.08,-165.44 1515.5,-151 1487.87,-113.29 1511.02,-81.49 1472.5,-55 1410.62,-12.44 886.03,-9.98 719.22,-10.28"/>
<polygon fill="#63b8ff" stroke="#63b8ff" points="718.75,-6.78 708.75,-10.31 718.76,-13.78 718.75,-6.78"/>
</a>
</g>
</g>
<!-- Node19 -->
<g id="Node000019" class="node">
<title>Node19</title>
<g id="a_Node000019"><a xlink:title=" ">
<polygon fill="#e0e0e0" stroke="#999999" points="1830.5,-145.5 1754.5,-145.5 1754.5,-126.5 1830.5,-126.5 1830.5,-145.5"/>
<text text-anchor="middle" x="1792.5" y="-133.5" font-family="Helvetica,sans-Serif" font-size="10.00">NanoOcp1.h</text>
</a>
</g>
</g>
<!-- Node18&#45;&gt;Node19 -->
<g id="edge33_Node000018_Node000019" class="edge">
<title>Node18&#45;&gt;Node19</title>
<g id="a_edge33_Node000018_Node000019"><a xlink:title=" ">
<path fill="none" stroke="#63b8ff" d="M1602.17,-186.97C1638.64,-178.36 1696.12,-164.45 1745.5,-151 1748.62,-150.15 1751.85,-149.24 1755.09,-148.32"/>
<polygon fill="#63b8ff" stroke="#63b8ff" points="1756.11,-151.67 1764.73,-145.51 1754.15,-144.95 1756.11,-151.67"/>
</a>
</g>
</g>
<!-- Node20 -->
<g id="Node000020" class="node">
<title>Node20</title>
<g id="a_Node000020"><a xlink:title=" ">
<polygon fill="#e0e0e0" stroke="#999999" points="1658.5,-145.5 1524.5,-145.5 1524.5,-126.5 1658.5,-126.5 1658.5,-145.5"/>
<text text-anchor="middle" x="1591.5" y="-133.5" font-family="Helvetica,sans-Serif" font-size="10.00">Ocp1ObjectDefinitions.h</text>
</a>
</g>
</g>
<!-- Node18&#45;&gt;Node20 -->
<g id="edge34_Node000018_Node000020" class="edge">
<title>Node18&#45;&gt;Node20</title>
<g id="a_edge34_Node000018_Node000020"><a xlink:title=" ">
<path fill="none" stroke="#63b8ff" d="M1569.34,-186.87C1573.06,-178.49 1578.83,-165.51 1583.55,-154.89"/>
<polygon fill="#63b8ff" stroke="#63b8ff" points="1586.78,-156.23 1587.65,-145.67 1580.39,-153.38 1586.78,-156.23"/>
</a>
</g>
</g>
<!-- Node21 -->
<g id="Node000021" class="node">
<title>Node21</title>
<g id="a_Node000021"><a xlink:title=" ">
<polygon fill="#e0e0e0" stroke="#999999" points="1736.5,-145.5 1676.5,-145.5 1676.5,-126.5 1736.5,-126.5 1736.5,-145.5"/>
<text text-anchor="middle" x="1706.5" y="-133.5" font-family="Helvetica,sans-Serif" font-size="10.00">Variant.h</text>
</a>
</g>
</g>
<!-- Node18&#45;&gt;Node21 -->
<g id="edge35_Node000018_Node000021" class="edge">
<title>Node18&#45;&gt;Node21</title>
<g id="a_edge35_Node000018_Node000021"><a xlink:title=" ">
<path fill="none" stroke="#63b8ff" d="M1586,-186.99C1609.81,-177.12 1649.29,-160.73 1676.54,-149.43"/>
<polygon fill="#63b8ff" stroke="#63b8ff" points="1678.08,-152.58 1685.97,-145.52 1675.39,-146.12 1678.08,-152.58"/>
</a>
</g>
</g>
</g>
</svg>
