<?xml version="1.0" encoding="UTF-8" standalone="no"?>
<!DOCTYPE svg PUBLIC "-//W3C//DTD SVG 1.1//EN"
 "http://www.w3.org/Graphics/SVG/1.1/DTD/svg11.dtd">
<!-- Generated by graphviz version 2.43.0 (0)
 -->
<!-- Title: Source/MainComponent.cpp Pages: 1 -->
<svg width="2389pt" height="280pt"
 viewBox="0.00 0.00 2389.00 280.00" xmlns="http://www.w3.org/2000/svg" xmlns:xlink="http://www.w3.org/1999/xlink">
<g id="graph0" class="graph" transform="scale(1 1) rotate(0) translate(4 276)">
<title>Source/MainComponent.cpp</title>
<!-- Node1 -->
<g id="Node000001" class="node">
<title>Node1</title>
<g id="a_Node000001"><a xlink:title=" ">
<polygon fill="#999999" stroke="#666666" points="1306.5,-272 1153.5,-272 1153.5,-253 1306.5,-253 1306.5,-272"/>
<text text-anchor="middle" x="1230" y="-260" font-family="Helvetica,sans-Serif" font-size="10.00">Source/MainComponent.cpp</text>
</a>
</g>
</g>
<!-- Node2 -->
<g id="Node000002" class="node">
<title>Node2</title>
<g id="a_Node000002"><a xlink:href="MainComponent_8h.html" target="_top" xlink:title=" ">
<polygon fill="white" stroke="#666666" points="1654,-217 1548,-217 1548,-198 1654,-198 1654,-217"/>
<text text-anchor="middle" x="1601" y="-205" font-family="Helvetica,sans-Serif" font-size="10.00">MainComponent.h</text>
</a>
</g>
</g>
<!-- Node1&#45;&gt;Node2 -->
<g id="edge1_Node000001_Node000002" class="edge">
<title>Node1&#45;&gt;Node2</title>
<g id="a_edge1_Node000001_Node000002"><a xlink:title=" ">
<path fill="none" stroke="#63b8ff" d="M1289.61,-252.98C1357.64,-243.27 1468.46,-227.43 1537.92,-217.51"/>
<polygon fill="#63b8ff" stroke="#63b8ff" points="1538.45,-220.97 1547.86,-216.09 1537.46,-214.04 1538.45,-220.97"/>
</a>
</g>
</g>
<!-- Node6 -->
<g id="Node000006" class="node">
<title>Node6</title>
<g id="a_Node000006"><a xlink:href="UmsciExternalControlComponent_8h.html" target="_top" xlink:title=" ">
<polygon fill="white" stroke="#666666" points="2253,-79.5 2065,-79.5 2065,-60.5 2253,-60.5 2253,-79.5"/>
<text text-anchor="middle" x="2159" y="-67.5" font-family="Helvetica,sans-Serif" font-size="10.00">UmsciExternalControlComponent.h</text>
</a>
</g>
</g>
<!-- Node1&#45;&gt;Node6 -->
<g id="edge53_Node000001_Node000006" class="edge">
<title>Node1&#45;&gt;Node6</title>
<g id="a_edge53_Node000001_Node000006"><a xlink:title=" ">
<path fill="none" stroke="#63b8ff" d="M1306.67,-256.19C1526.03,-240.65 2142.31,-194.26 2171,-162 2188.85,-141.93 2178,-108.85 2168.5,-88.58"/>
<polygon fill="#63b8ff" stroke="#63b8ff" points="2171.56,-86.89 2163.94,-79.53 2165.31,-90.04 2171.56,-86.89"/>
</a>
</g>
</g>
<!-- Node15 -->
<g id="Node000015" class="node">
<title>Node15</title>
<g id="a_Node000015"><a xlink:href="UmsciDbprProjectComponent_8h.html" target="_top" xlink:title=" ">
<polygon fill="white" stroke="#666666" points="1919,-156.5 1743,-156.5 1743,-126.5 1919,-126.5 1919,-156.5"/>
<text text-anchor="start" x="1751" y="-144.5" font-family="Helvetica,sans-Serif" font-size="10.00">UmsciPaintNControlComponents</text>
<text text-anchor="middle" x="1831" y="-133.5" font-family="Helvetica,sans-Serif" font-size="10.00">/UmsciDbprProjectComponent.h</text>
</a>
</g>
</g>
<!-- Node1&#45;&gt;Node15 -->
<g id="edge54_Node000001_Node000015" class="edge">
<title>Node1&#45;&gt;Node15</title>
<g id="a_edge54_Node000001_Node000015"><a xlink:title=" ">
<path fill="none" stroke="#63b8ff" d="M1306.79,-260.85C1394.37,-258.46 1541.22,-249.38 1663,-217 1711.41,-204.13 1763.63,-179.02 1796.78,-161.53"/>
<polygon fill="#63b8ff" stroke="#63b8ff" points="1798.85,-164.39 1806.02,-156.59 1795.55,-158.22 1798.85,-164.39"/>
</a>
</g>
</g>
<!-- Node18 -->
<g id="Node000018" class="node">
<title>Node18</title>
<g id="a_Node000018"><a xlink:href="DeviceController_8h.html" target="_top" xlink:title=" ">
<polygon fill="white" stroke="#666666" points="483.5,-151 376.5,-151 376.5,-132 483.5,-132 483.5,-151"/>
<text text-anchor="middle" x="430" y="-139" font-family="Helvetica,sans-Serif" font-size="10.00">DeviceController.h</text>
</a>
</g>
</g>
<!-- Node1&#45;&gt;Node18 -->
<g id="edge30_Node000001_Node000018" class="edge">
<title>Node1&#45;&gt;Node18</title>
<g id="a_edge30_Node000001_Node000018"><a xlink:title=" ">
<path fill="none" stroke="#63b8ff" d="M1153.19,-261.76C968.95,-261.73 513.04,-257.51 458,-217 440.47,-204.1 433.91,-178.87 431.46,-161.37"/>
<polygon fill="#63b8ff" stroke="#63b8ff" points="434.92,-160.76 430.37,-151.19 427.96,-161.51 434.92,-160.76"/>
</a>
</g>
</g>
<!-- Node22 -->
<g id="Node000022" class="node">
<title>Node22</title>
<g id="a_Node000022"><a xlink:href="CustomPopupMenuComponent_8h.html" target="_top" xlink:title=" ">
<polygon fill="white" stroke="#666666" points="176,-217 0,-217 0,-198 176,-198 176,-217"/>
<text text-anchor="middle" x="88" y="-205" font-family="Helvetica,sans-Serif" font-size="10.00">CustomPopupMenuComponent.h</text>
</a>
</g>
</g>
<!-- Node1&#45;&gt;Node22 -->
<g id="edge35_Node000001_Node000022" class="edge">
<title>Node1&#45;&gt;Node22</title>
<g id="a_edge35_Node000001_Node000022"><a xlink:title=" ">
<path fill="none" stroke="#63b8ff" d="M1153.32,-259.06C982.08,-253.43 555.56,-238.34 199,-217 194.82,-216.75 190.56,-216.48 186.25,-216.2"/>
<polygon fill="#63b8ff" stroke="#63b8ff" points="186.35,-212.7 176.14,-215.52 185.88,-219.68 186.35,-212.7"/>
</a>
</g>
</g>
<!-- Node23 -->
<g id="Node000023" class="node">
<title>Node23</title>
<g id="a_Node000023"><a xlink:href="UmsciControlComponent_8h.html" target="_top" xlink:title=" ">
<polygon fill="white" stroke="#666666" points="931,-217 783,-217 783,-198 931,-198 931,-217"/>
<text text-anchor="middle" x="857" y="-205" font-family="Helvetica,sans-Serif" font-size="10.00">UmsciControlComponent.h</text>
</a>
</g>
</g>
<!-- Node1&#45;&gt;Node23 -->
<g id="edge37_Node000001_Node000023" class="edge">
<title>Node1&#45;&gt;Node23</title>
<g id="a_edge37_Node000001_Node000023"><a xlink:title=" ">
<path fill="none" stroke="#63b8ff" d="M1170.07,-252.98C1103.83,-243.57 997.24,-228.43 927.16,-218.47"/>
<polygon fill="#63b8ff" stroke="#63b8ff" points="927.48,-214.98 917.09,-217.04 926.5,-221.91 927.48,-214.98"/>
</a>
</g>
</g>
<!-- Node27 -->
<g id="Node000027" class="node">
<title>Node27</title>
<g id="a_Node000027"><a xlink:href="UmsciDiscoveringHintComponent_8h.html" target="_top" xlink:title=" ">
<polygon fill="white" stroke="#666666" points="399.5,-217 208.5,-217 208.5,-198 399.5,-198 399.5,-217"/>
<text text-anchor="middle" x="304" y="-205" font-family="Helvetica,sans-Serif" font-size="10.00">UmsciDiscoveringHintComponent.h</text>
</a>
</g>
</g>
<!-- Node1&#45;&gt;Node27 -->
<g id="edge47_Node000001_Node000027" class="edge">
<title>Node1&#45;&gt;Node27</title>
<g id="a_edge47_Node000001_Node000027"><a xlink:title=" ">
<path fill="none" stroke="#63b8ff" d="M1153.29,-257.73C1009.57,-250.57 690,-234.17 421,-217 417.33,-216.77 413.59,-216.52 409.82,-216.27"/>
<polygon fill="#63b8ff" stroke="#63b8ff" points="409.98,-212.77 399.77,-215.6 409.51,-219.76 409.98,-212.77"/>
</a>
</g>
</g>
<!-- Node28 -->
<g id="Node000028" class="node">
<title>Node28</title>
<g id="a_Node000028"><a xlink:href="UmsciConnectingComponent_8h.html" target="_top" xlink:title=" ">
<polygon fill="white" stroke="#666666" points="633.5,-217 466.5,-217 466.5,-198 633.5,-198 633.5,-217"/>
<text text-anchor="middle" x="550" y="-205" font-family="Helvetica,sans-Serif" font-size="10.00">UmsciConnectingComponent.h</text>
</a>
</g>
</g>
<!-- Node1&#45;&gt;Node28 -->
<g id="edge49_Node000001_Node000028" class="edge">
<title>Node1&#45;&gt;Node28</title>
<g id="a_edge49_Node000001_Node000028"><a xlink:title=" ">
<path fill="none" stroke="#63b8ff" d="M1153.32,-255.99C1041.51,-247.89 827.21,-232.08 645,-217 644.65,-216.97 644.3,-216.94 643.95,-216.91"/>
<polygon fill="#63b8ff" stroke="#63b8ff" points="643.92,-213.4 633.66,-216.05 643.33,-220.37 643.92,-213.4"/>
</a>
</g>
</g>
<!-- Node29 -->
<g id="Node000029" class="node">
<title>Node29</title>
<g id="a_Node000029"><a xlink:href="AboutComponent_8h.html" target="_top" xlink:title=" ">
<polygon fill="white" stroke="#666666" points="764,-217 654,-217 654,-198 764,-198 764,-217"/>
<text text-anchor="middle" x="709" y="-205" font-family="Helvetica,sans-Serif" font-size="10.00">AboutComponent.h</text>
</a>
</g>
</g>
<!-- Node1&#45;&gt;Node29 -->
<g id="edge51_Node000001_Node000029" class="edge">
<title>Node1&#45;&gt;Node29</title>
<g id="a_edge51_Node000001_Node000029"><a xlink:title=" ">
<path fill="none" stroke="#63b8ff" d="M1153.27,-254.79C1064.71,-246.86 914.41,-232.88 774.37,-217"/>
<polygon fill="#63b8ff" stroke="#63b8ff" points="774.64,-213.51 764.3,-215.86 773.84,-220.47 774.64,-213.51"/>
</a>
</g>
</g>
<!-- Node30 -->
<g id="Node000030" class="node">
<title>Node30</title>
<g id="a_Node000030"><a xlink:title=" ">
<polygon fill="#e0e0e0" stroke="#999999" points="2153.5,-217 2028.5,-217 2028.5,-198 2153.5,-198 2153.5,-217"/>
<text text-anchor="middle" x="2091" y="-205" font-family="Helvetica,sans-Serif" font-size="10.00">CustomLookAndFeel.h</text>
</a>
</g>
</g>
<!-- Node1&#45;&gt;Node30 -->
<g id="edge55_Node000001_Node000030" class="edge">
<title>Node1&#45;&gt;Node30</title>
<g id="a_edge55_Node000001_Node000030"><a xlink:title=" ">
<path fill="none" stroke="#63b8ff" d="M1306.6,-258.51C1447.02,-252.72 1755.02,-238.63 2014,-217 2015.47,-216.88 2016.95,-216.75 2018.44,-216.62"/>
<polygon fill="#63b8ff" stroke="#63b8ff" points="2018.78,-220.1 2028.41,-215.69 2018.13,-213.13 2018.78,-220.1"/>
</a>
</g>
</g>
<!-- Node31 -->
<g id="Node000031" class="node">
<title>Node31</title>
<g id="a_Node000031"><a xlink:title=" ">
<polygon fill="#e0e0e0" stroke="#999999" points="2294.5,-217 2171.5,-217 2171.5,-198 2294.5,-198 2294.5,-217"/>
<text text-anchor="middle" x="2233" y="-205" font-family="Helvetica,sans-Serif" font-size="10.00">WebUpdateDetector.h</text>
</a>
</g>
</g>
<!-- Node1&#45;&gt;Node31 -->
<g id="edge56_Node000001_Node000031" class="edge">
<title>Node1&#45;&gt;Node31</title>
<g id="a_edge56_Node000001_Node000031"><a xlink:title=" ">
<path fill="none" stroke="#63b8ff" d="M1306.62,-259.74C1464.55,-255.71 1837.92,-244.04 2161.16,-217.1"/>
<polygon fill="#63b8ff" stroke="#63b8ff" points="2161.52,-220.58 2171.19,-216.25 2160.93,-213.6 2161.52,-220.58"/>
</a>
</g>
</g>
<!-- Node32 -->
<g id="Node000032" class="node">
<title>Node32</title>
<g id="a_Node000032"><a xlink:title=" ">
<polygon fill="#e0e0e0" stroke="#999999" points="2381,-217 2313,-217 2313,-198 2381,-198 2381,-217"/>
<text text-anchor="middle" x="2347" y="-205" font-family="Helvetica,sans-Serif" font-size="10.00">iOS_utils.h</text>
</a>
</g>
</g>
<!-- Node1&#45;&gt;Node32 -->
<g id="edge57_Node000001_Node000032" class="edge">
<title>Node1&#45;&gt;Node32</title>
<g id="a_edge57_Node000001_Node000032"><a xlink:title=" ">
<path fill="none" stroke="#63b8ff" d="M1306.87,-259.85C1515.76,-255.13 2091.73,-240.46 2302.74,-216.92"/>
<polygon fill="#63b8ff" stroke="#63b8ff" points="2303.28,-220.38 2312.81,-215.75 2302.47,-213.42 2303.28,-220.38"/>
</a>
</g>
</g>
<!-- Node3 -->
<g id="Node000003" class="node">
<title>Node3</title>
<g id="a_Node000003"><a xlink:title=" ">
<polygon fill="#e0e0e0" stroke="#999999" points="1265,-19 1185,-19 1185,0 1265,0 1265,-19"/>
<text text-anchor="middle" x="1225" y="-7" font-family="Helvetica,sans-Serif" font-size="10.00">JuceHeader.h</text>
</a>
</g>
</g>
<!-- Node2&#45;&gt;Node3 -->
<g id="edge2_Node000002_Node000003" class="edge">
<title>Node2&#45;&gt;Node3</title>
<g id="a_edge2_Node000002_Node000003"><a xlink:title=" ">
<path fill="none" stroke="#63b8ff" d="M1602.92,-197.77C1609.55,-167.13 1630.59,-65.73 1621,-55 1598.32,-29.63 1376.61,-16.97 1275.18,-12.47"/>
<polygon fill="#63b8ff" stroke="#63b8ff" points="1275.32,-8.97 1265.17,-12.04 1275.01,-15.97 1275.32,-8.97"/>
</a>
</g>
</g>
<!-- Node4 -->
<g id="Node000004" class="node">
<title>Node4</title>
<g id="a_Node000004"><a xlink:href="UmsciAppConfiguration_8h.html" target="_top" xlink:title=" ">
<polygon fill="white" stroke="#666666" points="1146,-151 1006,-151 1006,-132 1146,-132 1146,-151"/>
<text text-anchor="middle" x="1076" y="-139" font-family="Helvetica,sans-Serif" font-size="10.00">UmsciAppConfiguration.h</text>
</a>
</g>
</g>
<!-- Node2&#45;&gt;Node4 -->
<g id="edge3_Node000002_Node000004" class="edge">
<title>Node2&#45;&gt;Node4</title>
<g id="a_edge3_Node000002_Node000004"><a xlink:title=" ">
<path fill="none" stroke="#63b8ff" d="M1547.89,-203.28C1464.91,-197.76 1299.64,-184.82 1161,-162 1147.19,-159.73 1132.27,-156.55 1118.84,-153.42"/>
<polygon fill="#63b8ff" stroke="#63b8ff" points="1119.45,-149.97 1108.91,-151.06 1117.83,-156.78 1119.45,-149.97"/>
</a>
</g>
</g>
<!-- Node2&#45;&gt;Node6 -->
<g id="edge6_Node000002_Node000006" class="edge">
<title>Node2&#45;&gt;Node6</title>
<g id="a_edge6_Node000002_Node000006"><a xlink:title=" ">
<path fill="none" stroke="#63b8ff" d="M1654,-205.99C1784.83,-204.2 2115.08,-196.3 2150,-162 2169.01,-143.33 2166.96,-110.02 2163.3,-89.3"/>
<polygon fill="#63b8ff" stroke="#63b8ff" points="2166.72,-88.59 2161.28,-79.5 2159.87,-90.01 2166.72,-88.59"/>
</a>
</g>
</g>
<!-- Node9 -->
<g id="Node000009" class="node">
<title>Node9</title>
<g id="a_Node000009"><a xlink:href="UmsciZeroconfDiscoverComboComponent_8h.html" target="_top" xlink:title=" ">
<polygon fill="white" stroke="#666666" points="1573,-156.5 1405,-156.5 1405,-126.5 1573,-126.5 1573,-156.5"/>
<text text-anchor="start" x="1413" y="-144.5" font-family="Helvetica,sans-Serif" font-size="10.00">UmsciZeroconfDiscoverCombo</text>
<text text-anchor="middle" x="1489" y="-133.5" font-family="Helvetica,sans-Serif" font-size="10.00">Component.h</text>
</a>
</g>
</g>
<!-- Node2&#45;&gt;Node9 -->
<g id="edge10_Node000002_Node000009" class="edge">
<title>Node2&#45;&gt;Node9</title>
<g id="a_edge10_Node000002_Node000009"><a xlink:title=" ">
<path fill="none" stroke="#63b8ff" d="M1585.9,-197.87C1569.77,-188.66 1543.7,-173.76 1522.66,-161.74"/>
<polygon fill="#63b8ff" stroke="#63b8ff" points="1524.12,-158.54 1513.7,-156.62 1520.65,-164.62 1524.12,-158.54"/>
</a>
</g>
</g>
<!-- Node11 -->
<g id="Node000011" class="node">
<title>Node11</title>
<g id="a_Node000011"><a xlink:href="MidiController_8h.html" target="_top" xlink:title=" ">
<polygon fill="white" stroke="#666666" points="2141,-151 2047,-151 2047,-132 2141,-132 2141,-151"/>
<text text-anchor="middle" x="2094" y="-139" font-family="Helvetica,sans-Serif" font-size="10.00">MidiController.h</text>
</a>
</g>
</g>
<!-- Node2&#45;&gt;Node11 -->
<g id="edge13_Node000002_Node000011" class="edge">
<title>Node2&#45;&gt;Node11</title>
<g id="a_edge13_Node000002_Node000011"><a xlink:title=" ">
<path fill="none" stroke="#63b8ff" d="M1654.1,-205.08C1736.99,-201.98 1901.76,-192.22 2038,-162 2046.43,-160.13 2055.35,-157.39 2063.53,-154.55"/>
<polygon fill="#63b8ff" stroke="#63b8ff" points="2064.86,-157.8 2073.06,-151.1 2062.47,-151.22 2064.86,-157.8"/>
</a>
</g>
</g>
<!-- Node12 -->
<g id="Node000012" class="node">
<title>Node12</title>
<g id="a_Node000012"><a xlink:href="OscController_8h.html" target="_top" xlink:title=" ">
<polygon fill="white" stroke="#666666" points="2028.5,-151 1937.5,-151 1937.5,-132 2028.5,-132 2028.5,-151"/>
<text text-anchor="middle" x="1983" y="-139" font-family="Helvetica,sans-Serif" font-size="10.00">OscController.h</text>
</a>
</g>
</g>
<!-- Node2&#45;&gt;Node12 -->
<g id="edge17_Node000002_Node000012" class="edge">
<title>Node2&#45;&gt;Node12</title>
<g id="a_edge17_Node000002_Node000012"><a xlink:title=" ">
<path fill="none" stroke="#63b8ff" d="M1654.01,-202.65C1719.21,-197.16 1832.93,-185.06 1928,-162 1936.1,-160.04 1944.67,-157.32 1952.58,-154.54"/>
<polygon fill="#63b8ff" stroke="#63b8ff" points="1953.97,-157.76 1962.15,-151.03 1951.56,-151.19 1953.97,-157.76"/>
</a>
</g>
</g>
<!-- Node13 -->
<g id="Node000013" class="node">
<title>Node13</title>
<g id="a_Node000013"><a xlink:href="DbprController_8h.html" target="_top" xlink:title=" ">
<polygon fill="white" stroke="#666666" points="1725,-151 1629,-151 1629,-132 1725,-132 1725,-151"/>
<text text-anchor="middle" x="1677" y="-139" font-family="Helvetica,sans-Serif" font-size="10.00">DbprController.h</text>
</a>
</g>
</g>
<!-- Node2&#45;&gt;Node13 -->
<g id="edge20_Node000002_Node000013" class="edge">
<title>Node2&#45;&gt;Node13</title>
<g id="a_edge20_Node000002_Node000013"><a xlink:title=" ">
<path fill="none" stroke="#63b8ff" d="M1611.25,-197.87C1623.31,-187.71 1643.56,-170.66 1658.41,-158.15"/>
<polygon fill="#63b8ff" stroke="#63b8ff" points="1661.03,-160.52 1666.43,-151.41 1656.52,-155.17 1661.03,-160.52"/>
</a>
</g>
</g>
<!-- Node2&#45;&gt;Node15 -->
<g id="edge23_Node000002_Node000015" class="edge">
<title>Node2&#45;&gt;Node15</title>
<g id="a_edge23_Node000002_Node000015"><a xlink:title=" ">
<path fill="none" stroke="#63b8ff" d="M1632.02,-197.87C1667.36,-188.04 1725.96,-171.73 1770.44,-159.35"/>
<polygon fill="#63b8ff" stroke="#63b8ff" points="1771.58,-162.67 1780.27,-156.62 1769.7,-155.92 1771.58,-162.67"/>
</a>
</g>
</g>
<!-- Node16 -->
<g id="Node000016" class="node">
<title>Node16</title>
<g id="a_Node000016"><a xlink:href="UmsciSnapshotComponent_8h.html" target="_top" xlink:title=" ">
<polygon fill="white" stroke="#666666" points="1371,-85 1195,-85 1195,-55 1371,-55 1371,-85"/>
<text text-anchor="start" x="1203" y="-73" font-family="Helvetica,sans-Serif" font-size="10.00">UmsciPaintNControlComponents</text>
<text text-anchor="middle" x="1283" y="-62" font-family="Helvetica,sans-Serif" font-size="10.00">/UmsciSnapshotComponent.h</text>
</a>
</g>
</g>
<!-- Node2&#45;&gt;Node16 -->
<g id="edge26_Node000002_Node000016" class="edge">
<title>Node2&#45;&gt;Node16</title>
<g id="a_edge26_Node000002_Node000016"><a xlink:title=" ">
<path fill="none" stroke="#63b8ff" d="M1547.84,-204.57C1442.9,-200.21 1217.22,-187.9 1194,-162 1181.84,-148.43 1184.8,-136.73 1194,-121 1202,-107.32 1215.27,-97.1 1229.16,-89.59"/>
<polygon fill="#63b8ff" stroke="#63b8ff" points="1230.92,-92.62 1238.32,-85.03 1227.8,-86.35 1230.92,-92.62"/>
</a>
</g>
</g>
<!-- Node17 -->
<g id="Node000017" class="node">
<title>Node17</title>
<g id="a_Node000017"><a xlink:href="UmsciUpmixParamsComponent_8h.html" target="_top" xlink:title=" ">
<polygon fill="white" stroke="#666666" points="1387,-156.5 1203,-156.5 1203,-126.5 1387,-126.5 1387,-156.5"/>
<text text-anchor="start" x="1211" y="-144.5" font-family="Helvetica,sans-Serif" font-size="10.00">UmsciPaintNControlComponents</text>
<text text-anchor="middle" x="1295" y="-133.5" font-family="Helvetica,sans-Serif" font-size="10.00">/UmsciUpmixParamsComponent.h</text>
</a>
</g>
</g>
<!-- Node2&#45;&gt;Node17 -->
<g id="edge28_Node000002_Node000017" class="edge">
<title>Node2&#45;&gt;Node17</title>
<g id="a_edge28_Node000002_Node000017"><a xlink:title=" ">
<path fill="none" stroke="#63b8ff" d="M1560.05,-197.94C1512.17,-187.92 1431.89,-171.13 1372.2,-158.65"/>
<polygon fill="#63b8ff" stroke="#63b8ff" points="1372.56,-155.15 1362.06,-156.52 1371.13,-162 1372.56,-155.15"/>
</a>
</g>
</g>
<!-- Node4&#45;&gt;Node3 -->
<g id="edge4_Node000004_Node000003" class="edge">
<title>Node4&#45;&gt;Node3</title>
<g id="a_edge4_Node000004_Node000003"><a xlink:title=" ">
<path fill="none" stroke="#63b8ff" d="M1088.04,-131.86C1102.61,-121.26 1127.7,-102.55 1148,-85 1170.29,-65.73 1194.47,-41.79 1209.67,-26.33"/>
<polygon fill="#63b8ff" stroke="#63b8ff" points="1212.26,-28.69 1216.75,-19.09 1207.26,-23.8 1212.26,-28.69"/>
</a>
</g>
</g>
<!-- Node5 -->
<g id="Node000005" class="node">
<title>Node5</title>
<g id="a_Node000005"><a xlink:title=" ">
<polygon fill="#e0e0e0" stroke="#999999" points="1139,-79.5 1005,-79.5 1005,-60.5 1139,-60.5 1139,-79.5"/>
<text text-anchor="middle" x="1072" y="-67.5" font-family="Helvetica,sans-Serif" font-size="10.00">AppConfigurationBase.h</text>
</a>
</g>
</g>
<!-- Node4&#45;&gt;Node5 -->
<g id="edge5_Node000004_Node000005" class="edge">
<title>Node4&#45;&gt;Node5</title>
<g id="a_edge5_Node000004_Node000005"><a xlink:title=" ">
<path fill="none" stroke="#63b8ff" d="M1075.51,-131.98C1074.91,-121.56 1073.88,-103.61 1073.09,-89.88"/>
<polygon fill="#63b8ff" stroke="#63b8ff" points="1076.56,-89.37 1072.49,-79.59 1069.57,-89.78 1076.56,-89.37"/>
</a>
</g>
</g>
<!-- Node6&#45;&gt;Node3 -->
<g id="edge7_Node000006_Node000003" class="edge">
<title>Node6&#45;&gt;Node3</title>
<g id="a_edge7_Node000006_Node000003"><a xlink:title=" ">
<path fill="none" stroke="#63b8ff" d="M2070.52,-60.5C2048.78,-58.55 2025.56,-56.59 2004,-55 1729.32,-34.75 1399.56,-18.6 1275.48,-12.81"/>
<polygon fill="#63b8ff" stroke="#63b8ff" points="1275.32,-9.29 1265.17,-12.33 1274.99,-16.29 1275.32,-9.29"/>
</a>
</g>
</g>
<!-- Node7 -->
<g id="Node000007" class="node">
<title>Node7</title>
<g id="a_Node000007"><a xlink:title=" ">
<polygon fill="#e0e0e0" stroke="#999999" points="2129.5,-19 1944.5,-19 1944.5,0 2129.5,0 2129.5,-19"/>
<text text-anchor="middle" x="2037" y="-7" font-family="Helvetica,sans-Serif" font-size="10.00">MidiCommandRangeAssignment.h</text>
</a>
</g>
</g>
<!-- Node6&#45;&gt;Node7 -->
<g id="edge8_Node000006_Node000007" class="edge">
<title>Node6&#45;&gt;Node7</title>
<g id="a_edge8_Node000006_Node000007"><a xlink:title=" ">
<path fill="none" stroke="#63b8ff" d="M2141.26,-60.49C2120.93,-50.75 2087.39,-34.66 2063.86,-23.38"/>
<polygon fill="#63b8ff" stroke="#63b8ff" points="2065.29,-20.18 2054.76,-19.02 2062.26,-26.5 2065.29,-20.18"/>
</a>
</g>
</g>
<!-- Node8 -->
<g id="Node000008" class="node">
<title>Node8</title>
<g id="a_Node000008"><a xlink:title=" ">
<polygon fill="#e0e0e0" stroke="#999999" points="2288,-19 2148,-19 2148,0 2288,0 2288,-19"/>
<text text-anchor="middle" x="2218" y="-7" font-family="Helvetica,sans-Serif" font-size="10.00">MidiLearnerComponent.h</text>
</a>
</g>
</g>
<!-- Node6&#45;&gt;Node8 -->
<g id="edge9_Node000006_Node000008" class="edge">
<title>Node6&#45;&gt;Node8</title>
<g id="a_edge9_Node000006_Node000008"><a xlink:title=" ">
<path fill="none" stroke="#63b8ff" d="M2167.71,-60.37C2176.68,-51.47 2190.88,-37.39 2201.91,-26.45"/>
<polygon fill="#63b8ff" stroke="#63b8ff" points="2204.62,-28.69 2209.26,-19.17 2199.69,-23.72 2204.62,-28.69"/>
</a>
</g>
</g>
<!-- Node9&#45;&gt;Node3 -->
<g id="edge11_Node000009_Node000003" class="edge">
<title>Node9&#45;&gt;Node3</title>
<g id="a_edge11_Node000009_Node000003"><a xlink:title=" ">
<path fill="none" stroke="#63b8ff" d="M1535.36,-126.42C1577.95,-111.19 1630.7,-85.02 1604,-55 1582.52,-30.85 1373.57,-17.66 1275.43,-12.75"/>
<polygon fill="#63b8ff" stroke="#63b8ff" points="1275.32,-9.25 1265.16,-12.25 1274.98,-16.24 1275.32,-9.25"/>
</a>
</g>
</g>
<!-- Node10 -->
<g id="Node000010" class="node">
<title>Node10</title>
<g id="a_Node000010"><a xlink:title=" ">
<polygon fill="#e0e0e0" stroke="#999999" points="1595,-79.5 1427,-79.5 1427,-60.5 1595,-60.5 1595,-79.5"/>
<text text-anchor="middle" x="1511" y="-67.5" font-family="Helvetica,sans-Serif" font-size="10.00">ZeroconfDiscoverComponent.h</text>
</a>
</g>
</g>
<!-- Node9&#45;&gt;Node10 -->
<g id="edge12_Node000009_Node000010" class="edge">
<title>Node9&#45;&gt;Node10</title>
<g id="a_edge12_Node000009_Node000010"><a xlink:title=" ">
<path fill="none" stroke="#63b8ff" d="M1493.45,-126.44C1496.84,-115.75 1501.52,-100.95 1505.2,-89.33"/>
<polygon fill="#63b8ff" stroke="#63b8ff" points="1508.54,-90.36 1508.22,-79.77 1501.87,-88.24 1508.54,-90.36"/>
</a>
</g>
</g>
<!-- Node11&#45;&gt;Node3 -->
<g id="edge14_Node000011_Node000003" class="edge">
<title>Node11&#45;&gt;Node3</title>
<g id="a_edge14_Node000011_Node000003"><a xlink:title=" ">
<path fill="none" stroke="#63b8ff" d="M2079.46,-132C2047.87,-114.02 1970.1,-72.37 1899,-55 1780.76,-26.12 1411.08,-14.82 1275.5,-11.57"/>
<polygon fill="#63b8ff" stroke="#63b8ff" points="1275.47,-8.07 1265.39,-11.34 1275.31,-15.07 1275.47,-8.07"/>
</a>
</g>
</g>
<!-- Node11&#45;&gt;Node6 -->
<g id="edge16_Node000011_Node000006" class="edge">
<title>Node11&#45;&gt;Node6</title>
<g id="a_edge16_Node000011_Node000006"><a xlink:title=" ">
<path fill="none" stroke="#63b8ff" d="M2101.97,-131.98C2112.4,-120.83 2130.88,-101.06 2143.98,-87.06"/>
<polygon fill="#63b8ff" stroke="#63b8ff" points="2146.69,-89.29 2150.96,-79.59 2141.58,-84.5 2146.69,-89.29"/>
</a>
</g>
</g>
<!-- Node11&#45;&gt;Node7 -->
<g id="edge15_Node000011_Node000007" class="edge">
<title>Node11&#45;&gt;Node7</title>
<g id="a_edge15_Node000011_Node000007"><a xlink:title=" ">
<path fill="none" stroke="#63b8ff" d="M2086.48,-131.67C2077.93,-121.19 2064.09,-102.87 2056,-85 2047.76,-66.8 2042.66,-44.42 2039.85,-28.96"/>
<polygon fill="#63b8ff" stroke="#63b8ff" points="2043.3,-28.37 2038.19,-19.09 2036.39,-29.53 2043.3,-28.37"/>
</a>
</g>
</g>
<!-- Node12&#45;&gt;Node3 -->
<g id="edge18_Node000012_Node000003" class="edge">
<title>Node12&#45;&gt;Node3</title>
<g id="a_edge18_Node000012_Node000003"><a xlink:title=" ">
<path fill="none" stroke="#63b8ff" d="M1974.23,-131.96C1955.05,-113.9 1907.16,-72.12 1858,-55 1750.75,-17.66 1405.7,-11.6 1275.43,-10.66"/>
<polygon fill="#63b8ff" stroke="#63b8ff" points="1275.35,-7.16 1265.33,-10.59 1275.3,-14.16 1275.35,-7.16"/>
</a>
</g>
</g>
<!-- Node12&#45;&gt;Node6 -->
<g id="edge19_Node000012_Node000006" class="edge">
<title>Node12&#45;&gt;Node6</title>
<g id="a_edge19_Node000012_Node000006"><a xlink:title=" ">
<path fill="none" stroke="#63b8ff" d="M2004.58,-131.98C2035.46,-119.79 2092.41,-97.29 2127.86,-83.3"/>
<polygon fill="#63b8ff" stroke="#63b8ff" points="2129.23,-86.52 2137.24,-79.59 2126.66,-80.01 2129.23,-86.52"/>
</a>
</g>
</g>
<!-- Node13&#45;&gt;Node3 -->
<g id="edge21_Node000013_Node000003" class="edge">
<title>Node13&#45;&gt;Node3</title>
<g id="a_edge21_Node000013_Node000003"><a xlink:title=" ">
<path fill="none" stroke="#63b8ff" d="M1680.07,-131.87C1685.54,-114.72 1694.69,-76.23 1675,-55 1648.21,-26.11 1386.76,-15.17 1275.12,-11.79"/>
<polygon fill="#63b8ff" stroke="#63b8ff" points="1275.21,-8.29 1265.11,-11.49 1275,-15.29 1275.21,-8.29"/>
</a>
</g>
</g>
<!-- Node14 -->
<g id="Node000014" class="node">
<title>Node14</title>
<g id="a_Node000014"><a xlink:href="dbprProjectUtils_8h.html" target="_top" xlink:title=" ">
<polygon fill="white" stroke="#666666" points="1831,-79.5 1727,-79.5 1727,-60.5 1831,-60.5 1831,-79.5"/>
<text text-anchor="middle" x="1779" y="-67.5" font-family="Helvetica,sans-Serif" font-size="10.00">dbprProjectUtils.h</text>
</a>
</g>
</g>
<!-- Node13&#45;&gt;Node14 -->
<g id="edge22_Node000013_Node000014" class="edge">
<title>Node13&#45;&gt;Node14</title>
<g id="a_edge22_Node000013_Node000014"><a xlink:title=" ">
<path fill="none" stroke="#63b8ff" d="M1689.51,-131.98C1706.56,-120.36 1737.34,-99.39 1757.97,-85.33"/>
<polygon fill="#63b8ff" stroke="#63b8ff" points="1760.1,-88.12 1766.39,-79.59 1756.16,-82.33 1760.1,-88.12"/>
</a>
</g>
</g>
<!-- Node15&#45;&gt;Node3 -->
<g id="edge24_Node000015_Node000003" class="edge">
<title>Node15&#45;&gt;Node3</title>
<g id="a_edge24_Node000015_Node000003"><a xlink:title=" ">
<path fill="none" stroke="#63b8ff" d="M1838.33,-126.3C1846.93,-107.43 1857.89,-74.23 1840,-55 1801.85,-14 1415.13,-10.29 1275.2,-10.31"/>
<polygon fill="#63b8ff" stroke="#63b8ff" points="1275.16,-6.81 1265.16,-10.32 1275.17,-13.81 1275.16,-6.81"/>
</a>
</g>
</g>
<!-- Node15&#45;&gt;Node14 -->
<g id="edge25_Node000015_Node000014" class="edge">
<title>Node15&#45;&gt;Node14</title>
<g id="a_edge25_Node000015_Node000014"><a xlink:title=" ">
<path fill="none" stroke="#63b8ff" d="M1820.48,-126.44C1812.15,-115.31 1800.5,-99.74 1791.67,-87.93"/>
<polygon fill="#63b8ff" stroke="#63b8ff" points="1794.35,-85.68 1785.56,-79.77 1788.75,-89.87 1794.35,-85.68"/>
</a>
</g>
</g>
<!-- Node16&#45;&gt;Node3 -->
<g id="edge27_Node000016_Node000003" class="edge">
<title>Node16&#45;&gt;Node3</title>
<g id="a_edge27_Node000016_Node000003"><a xlink:title=" ">
<path fill="none" stroke="#63b8ff" d="M1268.96,-54.84C1260.45,-46.26 1249.59,-35.3 1240.78,-26.42"/>
<polygon fill="#63b8ff" stroke="#63b8ff" points="1243.22,-23.9 1233.69,-19.27 1238.25,-28.83 1243.22,-23.9"/>
</a>
</g>
</g>
<!-- Node17&#45;&gt;Node3 -->
<g id="edge29_Node000017_Node000003" class="edge">
<title>Node17&#45;&gt;Node3</title>
<g id="a_edge29_Node000017_Node000003"><a xlink:title=" ">
<path fill="none" stroke="#63b8ff" d="M1327.17,-126.37C1359.21,-110.3 1400.84,-82.67 1380,-55 1367.27,-38.1 1315.51,-25.64 1275.27,-18.27"/>
<polygon fill="#63b8ff" stroke="#63b8ff" points="1275.77,-14.8 1265.31,-16.51 1274.55,-21.7 1275.77,-14.8"/>
</a>
</g>
</g>
<!-- Node18&#45;&gt;Node3 -->
<g id="edge31_Node000018_Node000003" class="edge">
<title>Node18&#45;&gt;Node3</title>
<g id="a_edge31_Node000018_Node000003"><a xlink:title=" ">
<path fill="none" stroke="#63b8ff" d="M434.58,-131.97C444.8,-113.94 471.38,-72.2 507,-55 566.71,-26.17 1021.47,-14.55 1174.75,-11.42"/>
<polygon fill="#63b8ff" stroke="#63b8ff" points="1174.9,-14.92 1184.83,-11.22 1174.76,-7.92 1174.9,-14.92"/>
</a>
</g>
</g>
<!-- Node19 -->
<g id="Node000019" class="node">
<title>Node19</title>
<g id="a_Node000019"><a xlink:title=" ">
<polygon fill="#e0e0e0" stroke="#999999" points="225,-79.5 149,-79.5 149,-60.5 225,-60.5 225,-79.5"/>
<text text-anchor="middle" x="187" y="-67.5" font-family="Helvetica,sans-Serif" font-size="10.00">NanoOcp1.h</text>
</a>
</g>
</g>
<!-- Node18&#45;&gt;Node19 -->
<g id="edge32_Node000018_Node000019" class="edge">
<title>Node18&#45;&gt;Node19</title>
<g id="a_edge32_Node000018_Node000019"><a xlink:title=" ">
<path fill="none" stroke="#63b8ff" d="M399.41,-131.98C360.81,-121.19 292.41,-101.97 234,-85 231.07,-84.15 228.04,-83.26 224.99,-82.36"/>
<polygon fill="#63b8ff" stroke="#63b8ff" points="225.9,-78.98 215.31,-79.5 223.91,-85.69 225.9,-78.98"/>
</a>
</g>
</g>
<!-- Node20 -->
<g id="Node000020" class="node">
<title>Node20</title>
<g id="a_Node000020"><a xlink:title=" ">
<polygon fill="#e0e0e0" stroke="#999999" points="377,-79.5 243,-79.5 243,-60.5 377,-60.5 377,-79.5"/>
<text text-anchor="middle" x="310" y="-67.5" font-family="Helvetica,sans-Serif" font-size="10.00">Ocp1ObjectDefinitions.h</text>
</a>
</g>
</g>
<!-- Node18&#45;&gt;Node20 -->
<g id="edge33_Node000018_Node000020" class="edge">
<title>Node18&#45;&gt;Node20</title>
<g id="a_edge33_Node000018_Node000020"><a xlink:title=" ">
<path fill="none" stroke="#63b8ff" d="M415.29,-131.98C394.95,-120.2 358.03,-98.82 333.76,-84.76"/>
<polygon fill="#63b8ff" stroke="#63b8ff" points="335.24,-81.57 324.83,-79.59 331.73,-87.63 335.24,-81.57"/>
</a>
</g>
</g>
<!-- Node21 -->
<g id="Node000021" class="node">
<title>Node21</title>
<g id="a_Node000021"><a xlink:title=" ">
<polygon fill="#e0e0e0" stroke="#999999" points="455,-79.5 395,-79.5 395,-60.5 455,-60.5 455,-79.5"/>
<text text-anchor="middle" x="425" y="-67.5" font-family="Helvetica,sans-Serif" font-size="10.00">Variant.h</text>
</a>
</g>
</g>
<!-- Node18&#45;&gt;Node21 -->
<g id="edge34_Node000018_Node000021" class="edge">
<title>Node18&#45;&gt;Node21</title>
<g id="a_edge34_Node000018_Node000021"><a xlink:title=" ">
<path fill="none" stroke="#63b8ff" d="M429.39,-131.98C428.64,-121.56 427.35,-103.61 426.36,-89.88"/>
<polygon fill="#63b8ff" stroke="#63b8ff" points="429.83,-89.31 425.62,-79.59 422.84,-89.82 429.83,-89.31"/>
</a>
</g>
</g>
<!-- Node22&#45;&gt;Node3 -->
<g id="edge36_Node000022_Node000003" class="edge">
<title>Node22&#45;&gt;Node3</title>
<g id="a_edge36_Node000022_Node000003"><a xlink:title=" ">
<path fill="none" stroke="#63b8ff" d="M86.9,-197.84C84.1,-171.42 79.76,-91.44 124,-55 165.02,-21.21 964.64,-12.55 1174.77,-10.85"/>
<polygon fill="#63b8ff" stroke="#63b8ff" points="1174.93,-14.35 1184.9,-10.77 1174.88,-7.35 1174.93,-14.35"/>
</a>
</g>
</g>
<!-- Node23&#45;&gt;Node3 -->
<g id="edge38_Node000023_Node000003" class="edge">
<title>Node23&#45;&gt;Node3</title>
<g id="a_edge38_Node000023_Node000003"><a xlink:title=" ">
<path fill="none" stroke="#63b8ff" d="M894.49,-197.88C915.66,-191.27 941.18,-180.11 958,-162 992.34,-125.02 957.75,-87.92 996,-55 1022.21,-32.44 1115.33,-20.18 1174.45,-14.51"/>
<polygon fill="#63b8ff" stroke="#63b8ff" points="1175.07,-17.97 1184.7,-13.56 1174.42,-11 1175.07,-17.97"/>
</a>
</g>
</g>
<!-- Node23&#45;&gt;Node4 -->
<g id="edge39_Node000023_Node000004" class="edge">
<title>Node23&#45;&gt;Node4</title>
<g id="a_edge39_Node000023_Node000004"><a xlink:title=" ">
<path fill="none" stroke="#63b8ff" d="M886.54,-197.87C925.34,-186.53 993.6,-166.58 1036.72,-153.98"/>
<polygon fill="#63b8ff" stroke="#63b8ff" points="1037.97,-157.26 1046.58,-151.1 1036,-150.54 1037.97,-157.26"/>
</a>
</g>
</g>
<!-- Node23&#45;&gt;Node18 -->
<g id="edge40_Node000023_Node000018" class="edge">
<title>Node23&#45;&gt;Node18</title>
<g id="a_edge40_Node000023_Node000018"><a xlink:title=" ">
<path fill="none" stroke="#63b8ff" d="M799.86,-197.94C720.34,-186.02 576.77,-164.5 493.83,-152.07"/>
<polygon fill="#63b8ff" stroke="#63b8ff" points="494.19,-148.58 483.78,-150.56 493.15,-155.5 494.19,-148.58"/>
</a>
</g>
</g>
<!-- Node24 -->
<g id="Node000024" class="node">
<title>Node24</title>
<g id="a_Node000024"><a xlink:href="UmsciPaintNControlComponentBase_8h.html" target="_top" xlink:title=" ">
<polygon fill="white" stroke="#666666" points="793,-85 587,-85 587,-55 793,-55 793,-85"/>
<text text-anchor="start" x="595" y="-73" font-family="Helvetica,sans-Serif" font-size="10.00">UmsciPaintNControlComponents</text>
<text text-anchor="middle" x="690" y="-62" font-family="Helvetica,sans-Serif" font-size="10.00">/UmsciPaintNControlComponentBase.h</text>
</a>
</g>
</g>
<!-- Node23&#45;&gt;Node24 -->
<g id="edge41_Node000023_Node000024" class="edge">
<title>Node23&#45;&gt;Node24</title>
<g id="a_edge41_Node000023_Node000024"><a xlink:title=" ">
<path fill="none" stroke="#63b8ff" d="M821.42,-198C798.55,-191.17 769.26,-179.75 748,-162 726,-143.64 709.58,-114.73 699.93,-94.43"/>
<polygon fill="#63b8ff" stroke="#63b8ff" points="703.07,-92.89 695.74,-85.24 696.71,-95.8 703.07,-92.89"/>
</a>
</g>
</g>
<!-- Node25 -->
<g id="Node000025" class="node">
<title>Node25</title>
<g id="a_Node000025"><a xlink:href="UmsciUpmixIndicatorPaintNControlComponent_8h.html" target="_top" xlink:title=" ">
<polygon fill="white" stroke="#666666" points="949,-162 757,-162 757,-121 949,-121 949,-162"/>
<text text-anchor="start" x="765" y="-150" font-family="Helvetica,sans-Serif" font-size="10.00">UmsciPaintNControlComponents</text>
<text text-anchor="start" x="765" y="-139" font-family="Helvetica,sans-Serif" font-size="10.00">/UmsciUpmixIndicatorPaintNControl</text>
<text text-anchor="middle" x="853" y="-128" font-family="Helvetica,sans-Serif" font-size="10.00">Component.h</text>
</a>
</g>
</g>
<!-- Node23&#45;&gt;Node25 -->
<g id="edge43_Node000023_Node000025" class="edge">
<title>Node23&#45;&gt;Node25</title>
<g id="a_edge43_Node000023_Node000025"><a xlink:title=" ">
<path fill="none" stroke="#63b8ff" d="M856.46,-197.87C856.05,-191.22 855.45,-181.63 854.86,-172.28"/>
<polygon fill="#63b8ff" stroke="#63b8ff" points="858.34,-171.77 854.22,-162.01 851.35,-172.21 858.34,-171.77"/>
</a>
</g>
</g>
<!-- Node24&#45;&gt;Node3 -->
<g id="edge42_Node000024_Node000003" class="edge">
<title>Node24&#45;&gt;Node3</title>
<g id="a_edge42_Node000024_Node000003"><a xlink:title=" ">
<path fill="none" stroke="#63b8ff" d="M793.14,-56.14C796.47,-55.75 799.76,-55.37 803,-55 937.14,-39.62 1095.5,-23.45 1174.65,-15.51"/>
<polygon fill="#63b8ff" stroke="#63b8ff" points="1175.22,-18.97 1184.83,-14.49 1174.53,-12.01 1175.22,-18.97"/>
</a>
</g>
</g>
<!-- Node25&#45;&gt;Node3 -->
<g id="edge44_Node000025_Node000003" class="edge">
<title>Node25&#45;&gt;Node3</title>
<g id="a_edge44_Node000025_Node000003"><a xlink:title=" ">
<path fill="none" stroke="#63b8ff" d="M876.92,-120.9C906.28,-97 953.4,-59.23 963,-55 1032.23,-24.54 1120.23,-14.84 1174.58,-11.81"/>
<polygon fill="#63b8ff" stroke="#63b8ff" points="1174.84,-15.3 1184.65,-11.3 1174.49,-8.31 1174.84,-15.3"/>
</a>
</g>
</g>
<!-- Node25&#45;&gt;Node24 -->
<g id="edge45_Node000025_Node000024" class="edge">
<title>Node25&#45;&gt;Node24</title>
<g id="a_edge45_Node000025_Node000024"><a xlink:title=" ">
<path fill="none" stroke="#63b8ff" d="M807.16,-120.96C783.68,-110.94 755.28,-98.83 732.32,-89.04"/>
<polygon fill="#63b8ff" stroke="#63b8ff" points="733.42,-85.71 722.84,-85 730.67,-92.15 733.42,-85.71"/>
</a>
</g>
</g>
<!-- Node26 -->
<g id="Node000026" class="node">
<title>Node26</title>
<g id="a_Node000026"><a xlink:title=" ">
<polygon fill="#e0e0e0" stroke="#999999" points="910.5,-79.5 811.5,-79.5 811.5,-60.5 910.5,-60.5 910.5,-79.5"/>
<text text-anchor="middle" x="861" y="-67.5" font-family="Helvetica,sans-Serif" font-size="10.00">TwoDFieldBase.h</text>
</a>
</g>
</g>
<!-- Node25&#45;&gt;Node26 -->
<g id="edge46_Node000025_Node000026" class="edge">
<title>Node25&#45;&gt;Node26</title>
<g id="a_edge46_Node000025_Node000026"><a xlink:title=" ">
<path fill="none" stroke="#63b8ff" d="M855.27,-120.77C856.39,-111.08 857.72,-99.46 858.83,-89.88"/>
<polygon fill="#63b8ff" stroke="#63b8ff" points="862.32,-90.15 859.98,-79.82 855.36,-89.35 862.32,-90.15"/>
</a>
</g>
</g>
<!-- Node27&#45;&gt;Node3 -->
<g id="edge48_Node000027_Node000003" class="edge">
<title>Node27&#45;&gt;Node3</title>
<g id="a_edge48_Node000027_Node000003"><a xlink:title=" ">
<path fill="none" stroke="#63b8ff" d="M280.93,-197.85C223.92,-175.3 84.84,-112.47 140,-55 176.25,-17.24 966.45,-11.5 1174.94,-10.65"/>
<polygon fill="#63b8ff" stroke="#63b8ff" points="1175.01,-14.15 1184.99,-10.61 1174.98,-7.15 1175.01,-14.15"/>
</a>
</g>
</g>
<!-- Node28&#45;&gt;Node3 -->
<g id="edge50_Node000028_Node000003" class="edge">
<title>Node28&#45;&gt;Node3</title>
<g id="a_edge50_Node000028_Node000003"><a xlink:title=" ">
<path fill="none" stroke="#63b8ff" d="M547.31,-197.73C539.93,-171.68 522.4,-94.13 562,-55 605.28,-12.24 1027.37,-9.73 1174.63,-10.18"/>
<polygon fill="#63b8ff" stroke="#63b8ff" points="1174.73,-13.68 1184.74,-10.21 1174.76,-6.68 1174.73,-13.68"/>
</a>
</g>
</g>
<!-- Node29&#45;&gt;Node3 -->
<g id="edge52_Node000029_Node000003" class="edge">
<title>Node29&#45;&gt;Node3</title>
<g id="a_edge52_Node000029_Node000003"><a xlink:title=" ">
<path fill="none" stroke="#63b8ff" d="M691.37,-197.93C645.41,-174.52 528.76,-107.74 578,-55 618.38,-11.74 1028.8,-9.52 1174.24,-10.11"/>
<polygon fill="#63b8ff" stroke="#63b8ff" points="1174.64,-13.61 1184.65,-10.16 1174.67,-6.61 1174.64,-13.61"/>
</a>
</g>
</g>
</g>
</svg>
