<?xml version="1.0" encoding="UTF-8" standalone="no"?>
<!DOCTYPE svg PUBLIC "-//W3C//DTD SVG 1.1//EN"
 "http://www.w3.org/Graphics/SVG/1.1/DTD/svg11.dtd">
<!-- Generated by graphviz version 2.43.0 (0)
 -->
<!-- Title: Source/MainComponent.h Pages: 1 -->
<!--zoomable 203 -->

<svg id="main" version="1.1" xmlns="http://www.w3.org/2000/svg" xmlns:xlink="http://www.w3.org/1999/xlink" xml:space="preserve" onload="init(evt)">
<style type="text/css"><![CDATA[
.node, .edge {opacity: 0.7;}
.node.selected, .edge.selected {opacity: 1;}
.edge:hover path { stroke: red; }
.edge:hover polygon { stroke: red; fill: red; }
]]></style>

<defs>
  <circle id="rim" cx="0" cy="0" r="7"/>
  <circle id="rim2" cx="0" cy="0" r="3.5"/>
  <g id="zoomPlus">
    <use xlink:href="#rim" fill="#404040"><set attributeName="fill" to="#808080" begin="zoomplus.mouseover" end="zoomplus.mouseout"/></use>
    <path d="M-4,0h8M0,-4v8" fill="none" stroke="white" stroke-width="1.5" pointer-events="none"/>
  </g>
  <g id="zoomMin">
    <use xlink:href="#rim" fill="#404040"><set attributeName="fill" to="#808080" begin="zoomminus.mouseover" end="zoomminus.mouseout"/></use>
    <path d="M-4,0h8" fill="none" stroke="white" stroke-width="1.5" pointer-events="none"/>
  </g>
  <g id="arrowUp" transform="translate(30 24)">
    <use xlink:href="#rim"/>
    <path pointer-events="none" fill="none" stroke="white" stroke-width="1.5" d="M0,-3.0v7 M-2.5,-0.5L0,-3.0L2.5,-0.5"/>
  </g>
  <g id="arrowRight" transform="rotate(90) translate(36 -43)">
    <use xlink:href="#rim"/>
    <path pointer-events="none" fill="none" stroke="white" stroke-width="1.5" d="M0,-3.0v7 M-2.5,-0.5L0,-3.0L2.5,-0.5"/>
  </g>
  <g id="arrowDown" transform="rotate(180) translate(-30 -48)">
    <use xlink:href="#rim"/>
    <path pointer-events="none" fill="none" stroke="white" stroke-width="1.5" d="M0,-3.0v7 M-2.5,-0.5L0,-3.0L2.5,-0.5"/>
  </g>
  <g id="arrowLeft" transform="rotate(270) translate(-36 17)">
    <use xlink:href="#rim"/>
    <path pointer-events="none" fill="none" stroke="white" stroke-width="1.5" d="M0,-3.0v7 M-2.5,-0.5L0,-3.0L2.5,-0.5"/>
  </g>
  <g id="resetDef">
    <use xlink:href="#rim2" fill="#404040"><set attributeName="fill" to="#808080" begin="reset.mouseover" end="reset.mouseout"/></use>
  </g>
</defs>
<script type="application/ecmascript">
var viewWidth = 845;
var viewHeight = 203;
var sectionId = 'dynsection-0';
</script>
<script type="application/ecmascript" xlink:href="svg.min.js"/>
<svg id="graph" class="graph">
<g id="viewport">
<title>Source/MainComponent.h</title>
<!-- Node1 -->
<g id="Node000001" class="node">
<title>Node1</title>
<g id="a_Node000001"><a xlink:title=" ">
<polygon fill="#999999" stroke="#666666" points="532,-195 390,-195 390,-176 532,-176 532,-195"/>
<text text-anchor="middle" x="461" y="-183" font-family="Helvetica,sans-Serif" font-size="10.00">Source/MainComponent.h</text>
</a>
</g>
</g>
<!-- Node2 -->
<g id="Node000002" class="node">
<title>Node2</title>
<g id="a_Node000002"><a xlink:title=" ">
<polygon fill="#e0e0e0" stroke="#999999" points="470,-19 390,-19 390,0 470,0 470,-19"/>
<text text-anchor="middle" x="430" y="-7" font-family="Helvetica,sans-Serif" font-size="10.00">JuceHeader.h</text>
</a>
</g>
</g>
<!-- Node1&#45;&gt;Node2 -->
<g id="edge1_Node000001_Node000002" class="edge">
<title>Node1&#45;&gt;Node2</title>
<g id="a_edge1_Node000001_Node000002"><a xlink:title=" ">
<path fill="none" stroke="#63b8ff" d="M456.93,-175.85C452.96,-167.03 447.1,-152.86 444,-140 434.68,-101.3 431.56,-54.59 430.52,-29.18"/>
<polygon fill="#63b8ff" stroke="#63b8ff" points="434.01,-28.99 430.17,-19.11 427.02,-29.23 434.01,-28.99"/>
</a>
</g>
</g>
<!-- Node3 -->
<g id="Node000003" class="node">
<title>Node3</title>
<g id="a_Node000003"><a xlink:href="UmsciAppConfiguration_8h.html" target="_top" xlink:title=" ">
<polygon fill="white" stroke="#666666" points="210,-134.5 70,-134.5 70,-115.5 210,-115.5 210,-134.5"/>
<text text-anchor="middle" x="140" y="-122.5" font-family="Helvetica,sans-Serif" font-size="10.00">UmsciAppConfiguration.h</text>
</a>
</g>
</g>
<!-- Node1&#45;&gt;Node3 -->
<g id="edge2_Node000001_Node000003" class="edge">
<title>Node1&#45;&gt;Node3</title>
<g id="a_edge2_Node000001_Node000003"><a xlink:title=" ">
<path fill="none" stroke="#63b8ff" d="M414.32,-175.99C356.67,-165.49 258.66,-147.62 196.73,-136.34"/>
<polygon fill="#63b8ff" stroke="#63b8ff" points="197.2,-132.87 186.73,-134.52 195.94,-139.75 197.2,-132.87"/>
</a>
</g>
</g>
<!-- Node5 -->
<g id="Node000005" class="node">
<title>Node5</title>
<g id="a_Node000005"><a xlink:href="UmsciExternalControlComponent_8h.html" target="_top" xlink:title=" ">
<polygon fill="white" stroke="#666666" points="716,-74 528,-74 528,-55 716,-55 716,-74"/>
<text text-anchor="middle" x="622" y="-62" font-family="Helvetica,sans-Serif" font-size="10.00">UmsciExternalControlComponent.h</text>
</a>
</g>
</g>
<!-- Node1&#45;&gt;Node5 -->
<g id="edge5_Node000001_Node000005" class="edge">
<title>Node1&#45;&gt;Node5</title>
<g id="a_edge5_Node000001_Node000005"><a xlink:title=" ">
<path fill="none" stroke="#63b8ff" d="M532.17,-178.36C584.16,-172.22 648.37,-160.64 665,-140 680.19,-121.14 658.88,-96.28 641.22,-80.59"/>
<polygon fill="#63b8ff" stroke="#63b8ff" points="643.4,-77.85 633.51,-74.08 638.89,-83.2 643.4,-77.85"/>
</a>
</g>
</g>
<!-- Node8 -->
<g id="Node000008" class="node">
<title>Node8</title>
<g id="a_Node000008"><a xlink:href="UmsciZeroconfDiscoverComboComponent_8h.html" target="_top" xlink:title=" ">
<polygon fill="white" stroke="#666666" points="396,-140 228,-140 228,-110 396,-110 396,-140"/>
<text text-anchor="start" x="236" y="-128" font-family="Helvetica,sans-Serif" font-size="10.00">UmsciZeroconfDiscoverCombo</text>
<text text-anchor="middle" x="312" y="-117" font-family="Helvetica,sans-Serif" font-size="10.00">Component.h</text>
</a>
</g>
</g>
<!-- Node1&#45;&gt;Node8 -->
<g id="edge9_Node000001_Node000008" class="edge">
<title>Node1&#45;&gt;Node8</title>
<g id="a_edge9_Node000001_Node000008"><a xlink:title=" ">
<path fill="none" stroke="#63b8ff" d="M439.33,-175.99C417.89,-167.57 384.42,-154.43 357.17,-143.73"/>
<polygon fill="#63b8ff" stroke="#63b8ff" points="358.41,-140.46 347.82,-140.06 355.85,-146.98 358.41,-140.46"/>
</a>
</g>
</g>
<!-- Node10 -->
<g id="Node000010" class="node">
<title>Node10</title>
<g id="a_Node000010"><a xlink:href="MidiController_8h.html" target="_top" xlink:title=" ">
<polygon fill="white" stroke="#666666" points="656,-134.5 562,-134.5 562,-115.5 656,-115.5 656,-134.5"/>
<text text-anchor="middle" x="609" y="-122.5" font-family="Helvetica,sans-Serif" font-size="10.00">MidiController.h</text>
</a>
</g>
</g>
<!-- Node1&#45;&gt;Node10 -->
<g id="edge12_Node000001_Node000010" class="edge">
<title>Node1&#45;&gt;Node10</title>
<g id="a_edge12_Node000001_Node000010"><a xlink:title=" ">
<path fill="none" stroke="#63b8ff" d="M482.52,-175.99C507.62,-166.07 549.32,-149.59 577.93,-138.28"/>
<polygon fill="#63b8ff" stroke="#63b8ff" points="579.44,-141.45 587.45,-134.52 576.87,-134.94 579.44,-141.45"/>
</a>
</g>
</g>
<!-- Node11 -->
<g id="Node000011" class="node">
<title>Node11</title>
<g id="a_Node000011"><a xlink:href="OscController_8h.html" target="_top" xlink:title=" ">
<polygon fill="white" stroke="#666666" points="543.5,-134.5 452.5,-134.5 452.5,-115.5 543.5,-115.5 543.5,-134.5"/>
<text text-anchor="middle" x="498" y="-122.5" font-family="Helvetica,sans-Serif" font-size="10.00">OscController.h</text>
</a>
</g>
</g>
<!-- Node1&#45;&gt;Node11 -->
<g id="edge16_Node000001_Node000011" class="edge">
<title>Node1&#45;&gt;Node11</title>
<g id="a_edge16_Node000001_Node000011"><a xlink:title=" ">
<path fill="none" stroke="#63b8ff" d="M466.46,-175.87C471.87,-167.31 480.31,-153.97 487.1,-143.24"/>
<polygon fill="#63b8ff" stroke="#63b8ff" points="490.13,-144.99 492.52,-134.67 484.21,-141.25 490.13,-144.99"/>
</a>
</g>
</g>
<!-- Node3&#45;&gt;Node2 -->
<g id="edge3_Node000003_Node000002" class="edge">
<title>Node3&#45;&gt;Node2</title>
<g id="a_edge3_Node000003_Node000002"><a xlink:title=" ">
<path fill="none" stroke="#63b8ff" d="M142.58,-115.14C147.45,-100.14 159.46,-69.92 181,-55 212.46,-33.21 316.51,-20.46 379.71,-14.55"/>
<polygon fill="#63b8ff" stroke="#63b8ff" points="380.23,-18.01 389.87,-13.62 379.6,-11.04 380.23,-18.01"/>
</a>
</g>
</g>
<!-- Node4 -->
<g id="Node000004" class="node">
<title>Node4</title>
<g id="a_Node000004"><a xlink:title=" ">
<polygon fill="#e0e0e0" stroke="#999999" points="134,-74 0,-74 0,-55 134,-55 134,-74"/>
<text text-anchor="middle" x="67" y="-62" font-family="Helvetica,sans-Serif" font-size="10.00">AppConfigurationBase.h</text>
</a>
</g>
</g>
<!-- Node3&#45;&gt;Node4 -->
<g id="edge4_Node000003_Node000004" class="edge">
<title>Node3&#45;&gt;Node4</title>
<g id="a_edge4_Node000003_Node000004"><a xlink:title=" ">
<path fill="none" stroke="#63b8ff" d="M129.23,-115.37C117.8,-106.21 99.52,-91.56 85.72,-80.51"/>
<polygon fill="#63b8ff" stroke="#63b8ff" points="87.81,-77.69 77.82,-74.17 83.43,-83.15 87.81,-77.69"/>
</a>
</g>
</g>
<!-- Node5&#45;&gt;Node2 -->
<g id="edge6_Node000005_Node000002" class="edge">
<title>Node5&#45;&gt;Node2</title>
<g id="a_edge6_Node000005_Node000002"><a xlink:title=" ">
<path fill="none" stroke="#63b8ff" d="M591.15,-54.98C558.5,-45.97 506.8,-31.7 470.8,-21.76"/>
<polygon fill="#63b8ff" stroke="#63b8ff" points="471.66,-18.37 461.09,-19.08 469.8,-25.12 471.66,-18.37"/>
</a>
</g>
</g>
<!-- Node6 -->
<g id="Node000006" class="node">
<title>Node6</title>
<g id="a_Node000006"><a xlink:title=" ">
<polygon fill="#e0e0e0" stroke="#999999" points="836.5,-19 651.5,-19 651.5,0 836.5,0 836.5,-19"/>
<text text-anchor="middle" x="744" y="-7" font-family="Helvetica,sans-Serif" font-size="10.00">MidiCommandRangeAssignment.h</text>
</a>
</g>
</g>
<!-- Node5&#45;&gt;Node6 -->
<g id="edge7_Node000005_Node000006" class="edge">
<title>Node5&#45;&gt;Node6</title>
<g id="a_edge7_Node000005_Node000006"><a xlink:title=" ">
<path fill="none" stroke="#63b8ff" d="M641.6,-54.98C661.32,-46.42 691.95,-33.11 714.58,-23.28"/>
<polygon fill="#63b8ff" stroke="#63b8ff" points="716.26,-26.37 724.04,-19.17 713.48,-19.94 716.26,-26.37"/>
</a>
</g>
</g>
<!-- Node7 -->
<g id="Node000007" class="node">
<title>Node7</title>
<g id="a_Node000007"><a xlink:title=" ">
<polygon fill="#e0e0e0" stroke="#999999" points="633,-19 493,-19 493,0 633,0 633,-19"/>
<text text-anchor="middle" x="563" y="-7" font-family="Helvetica,sans-Serif" font-size="10.00">MidiLearnerComponent.h</text>
</a>
</g>
</g>
<!-- Node5&#45;&gt;Node7 -->
<g id="edge8_Node000005_Node000007" class="edge">
<title>Node5&#45;&gt;Node7</title>
<g id="a_edge8_Node000005_Node000007"><a xlink:title=" ">
<path fill="none" stroke="#63b8ff" d="M612.52,-54.98C603.8,-47.15 590.66,-35.34 580.1,-25.86"/>
<polygon fill="#63b8ff" stroke="#63b8ff" points="582.43,-23.25 572.65,-19.17 577.75,-28.46 582.43,-23.25"/>
</a>
</g>
</g>
<!-- Node8&#45;&gt;Node2 -->
<g id="edge10_Node000008_Node000002" class="edge">
<title>Node8&#45;&gt;Node2</title>
<g id="a_edge10_Node000008_Node000002"><a xlink:title=" ">
<path fill="none" stroke="#63b8ff" d="M328.08,-109.77C339.16,-99.88 354.14,-86.31 367,-74 383.54,-58.17 401.92,-39.52 414.54,-26.54"/>
<polygon fill="#63b8ff" stroke="#63b8ff" points="417.13,-28.89 421.58,-19.27 412.11,-24.02 417.13,-28.89"/>
</a>
</g>
</g>
<!-- Node9 -->
<g id="Node000009" class="node">
<title>Node9</title>
<g id="a_Node000009"><a xlink:title=" ">
<polygon fill="#e0e0e0" stroke="#999999" points="358,-74 190,-74 190,-55 358,-55 358,-74"/>
<text text-anchor="middle" x="274" y="-62" font-family="Helvetica,sans-Serif" font-size="10.00">ZeroconfDiscoverComponent.h</text>
</a>
</g>
</g>
<!-- Node8&#45;&gt;Node9 -->
<g id="edge11_Node000008_Node000009" class="edge">
<title>Node8&#45;&gt;Node9</title>
<g id="a_edge11_Node000008_Node000009"><a xlink:title=" ">
<path fill="none" stroke="#63b8ff" d="M302.8,-109.84C297.51,-101.69 290.82,-91.4 285.22,-82.78"/>
<polygon fill="#63b8ff" stroke="#63b8ff" points="288.08,-80.75 279.69,-74.27 282.21,-84.56 288.08,-80.75"/>
</a>
</g>
</g>
<!-- Node10&#45;&gt;Node2 -->
<g id="edge13_Node000010_Node000002" class="edge">
<title>Node10&#45;&gt;Node2</title>
<g id="a_edge13_Node000010_Node000002"><a xlink:title=" ">
<path fill="none" stroke="#63b8ff" d="M592.09,-115.33C573.75,-105.77 543.78,-89.66 519,-74 494.4,-58.46 467.35,-38.77 449.61,-25.46"/>
<polygon fill="#63b8ff" stroke="#63b8ff" points="451.33,-22.37 441.24,-19.14 447.11,-27.96 451.33,-22.37"/>
</a>
</g>
</g>
<!-- Node10&#45;&gt;Node5 -->
<g id="edge15_Node000010_Node000005" class="edge">
<title>Node10&#45;&gt;Node5</title>
<g id="a_edge15_Node000010_Node000005"><a xlink:title=" ">
<path fill="none" stroke="#63b8ff" d="M610.92,-115.37C612.74,-107.16 615.55,-94.54 617.88,-84.05"/>
<polygon fill="#63b8ff" stroke="#63b8ff" points="621.32,-84.69 620.07,-74.17 614.49,-83.17 621.32,-84.69"/>
</a>
</g>
</g>
<!-- Node10&#45;&gt;Node6 -->
<g id="edge14_Node000010_Node000006" class="edge">
<title>Node10&#45;&gt;Node6</title>
<g id="a_edge14_Node000010_Node000006"><a xlink:title=" ">
<path fill="none" stroke="#63b8ff" d="M650.45,-115.47C675.29,-108.34 705.68,-95.71 725,-74 735.88,-61.78 740.53,-43.54 742.52,-29.75"/>
<polygon fill="#63b8ff" stroke="#63b8ff" points="746.04,-29.75 743.65,-19.43 739.08,-28.99 746.04,-29.75"/>
</a>
</g>
</g>
<!-- Node11&#45;&gt;Node2 -->
<g id="edge17_Node000011_Node000002" class="edge">
<title>Node11&#45;&gt;Node2</title>
<g id="a_edge17_Node000011_Node000002"><a xlink:title=" ">
<path fill="none" stroke="#63b8ff" d="M492.89,-115.47C481.76,-96.9 455.17,-52.51 440.37,-27.82"/>
<polygon fill="#63b8ff" stroke="#63b8ff" points="443.31,-25.91 435.17,-19.13 437.31,-29.51 443.31,-25.91"/>
</a>
</g>
</g>
<!-- Node11&#45;&gt;Node5 -->
<g id="edge18_Node000011_Node000005" class="edge">
<title>Node11&#45;&gt;Node5</title>
<g id="a_edge18_Node000011_Node000005"><a xlink:title=" ">
<path fill="none" stroke="#63b8ff" d="M516.03,-115.49C536.69,-105.75 570.78,-89.66 594.7,-78.38"/>
<polygon fill="#63b8ff" stroke="#63b8ff" points="596.4,-81.45 603.95,-74.02 593.41,-75.12 596.4,-81.45"/>
</a>
</g>
</g>
</g>
</svg>

<g id="navigator" transform="translate(0 0)" fill="#404254">
  <rect fill="#f2f5e9" fill-opacity="0.5" stroke="#606060" stroke-width=".5" x="0" y="0" width="60" height="60"/>
  <use id="zoomplus" xlink:href="#zoomPlus" x="17" y="9" onmousedown="handleZoom(evt,'in')"/>
  <use id="zoomminus" xlink:href="#zoomMin" x="42" y="9" onmousedown="handleZoom(evt,'out')"/>
  <use id="reset" xlink:href="#resetDef" x="30" y="36" onmousedown="handleReset()"/>
   <use id="arrowup" xlink:href="#arrowUp" x="0" y="0" onmousedown="handlePan(0,-1)"/>
  <use id="arrowright" xlink:href="#arrowRight" x="0" y="0" onmousedown="handlePan(1,0)"/>
  <use id="arrowdown" xlink:href="#arrowDown" x="0" y="0" onmousedown="handlePan(0,1)"/>
  <use id="arrowleft" xlink:href="#arrowLeft" x="0" y="0" onmousedown="handlePan(-1,0)"/>
</g>
<svg viewBox="0 0 15 15" width="100%" height="30px" preserveAspectRatio="xMaxYMin meet">
 <g id="arrow_out" transform="scale(0.3 0.3)">
  <a xlink:href="MainComponent_8h__incl_org.svg" target="_base">
   <rect id="button" ry="5" rx="5" y="6" x="6" height="38" width="38"
        fill="#f2f5e9" fill-opacity="0.5" stroke="#606060" stroke-width="1.0"/>
   <path id="arrow"
     d="M 11.500037,31.436501 C 11.940474,20.09759 22.043105,11.32322 32.158766,21.979434 L 37.068811,17.246167 C 37.068811,17.246167 37.088388,32 37.088388,32 L 22.160133,31.978069 C 22.160133,31.978069 26.997745,27.140456 26.997745,27.140456 C 18.528582,18.264221 13.291696,25.230495 11.500037,31.436501 z"
     style="fill:#404040;"/>
  </a>
 </g>
</svg>

<style type='text/css'>
<![CDATA[
[data-mouse-over-selected='false'] { opacity: 0.7; }
[data-mouse-over-selected='true']  { opacity: 1.0; }
]]>
</style>
<script type="application/ecmascript"><![CDATA[
document.addEventListener('DOMContentLoaded', (event) => {
  highlightEdges();
  highlightAdjacentNodes();
});
]]></script>
</svg>
