<?xml version="1.0" encoding="UTF-8" standalone="no"?>
<!DOCTYPE svg PUBLIC "-//W3C//DTD SVG 1.1//EN"
 "http://www.w3.org/Graphics/SVG/1.1/DTD/svg11.dtd">
<!-- Generated by graphviz version 2.43.0 (0)
 -->
<!-- Title: Source/Main.cpp Pages: 1 -->
<!--zoomable 258 -->

<svg id="main" version="1.1" xmlns="http://www.w3.org/2000/svg" xmlns:xlink="http://www.w3.org/1999/xlink" xml:space="preserve" onload="init(evt)">
<style type="text/css"><![CDATA[
.node, .edge {opacity: 0.7;}
.node.selected, .edge.selected {opacity: 1;}
.edge:hover path { stroke: red; }
.edge:hover polygon { stroke: red; fill: red; }
]]></style>

<defs>
  <circle id="rim" cx="0" cy="0" r="7"/>
  <circle id="rim2" cx="0" cy="0" r="3.5"/>
  <g id="zoomPlus">
    <use xlink:href="#rim" fill="#404040"><set attributeName="fill" to="#808080" begin="zoomplus.mouseover" end="zoomplus.mouseout"/></use>
    <path d="M-4,0h8M0,-4v8" fill="none" stroke="white" stroke-width="1.5" pointer-events="none"/>
  </g>
  <g id="zoomMin">
    <use xlink:href="#rim" fill="#404040"><set attributeName="fill" to="#808080" begin="zoomminus.mouseover" end="zoomminus.mouseout"/></use>
    <path d="M-4,0h8" fill="none" stroke="white" stroke-width="1.5" pointer-events="none"/>
  </g>
  <g id="arrowUp" transform="translate(30 24)">
    <use xlink:href="#rim"/>
    <path pointer-events="none" fill="none" stroke="white" stroke-width="1.5" d="M0,-3.0v7 M-2.5,-0.5L0,-3.0L2.5,-0.5"/>
  </g>
  <g id="arrowRight" transform="rotate(90) translate(36 -43)">
    <use xlink:href="#rim"/>
    <path pointer-events="none" fill="none" stroke="white" stroke-width="1.5" d="M0,-3.0v7 M-2.5,-0.5L0,-3.0L2.5,-0.5"/>
  </g>
  <g id="arrowDown" transform="rotate(180) translate(-30 -48)">
    <use xlink:href="#rim"/>
    <path pointer-events="none" fill="none" stroke="white" stroke-width="1.5" d="M0,-3.0v7 M-2.5,-0.5L0,-3.0L2.5,-0.5"/>
  </g>
  <g id="arrowLeft" transform="rotate(270) translate(-36 17)">
    <use xlink:href="#rim"/>
    <path pointer-events="none" fill="none" stroke="white" stroke-width="1.5" d="M0,-3.0v7 M-2.5,-0.5L0,-3.0L2.5,-0.5"/>
  </g>
  <g id="resetDef">
    <use xlink:href="#rim2" fill="#404040"><set attributeName="fill" to="#808080" begin="reset.mouseover" end="reset.mouseout"/></use>
  </g>
</defs>
<script type="application/ecmascript">
var viewWidth = 1099;
var viewHeight = 258;
var sectionId = 'dynsection-0';
</script>
<script type="application/ecmascript" xlink:href="svg.min.js"/>
<svg id="graph" class="graph">
<g id="viewport">
<title>Source/Main.cpp</title>
<!-- Node1 -->
<g id="Node000001" class="node">
<title>Node1</title>
<g id="a_Node000001"><a xlink:title=" ">
<polygon fill="#999999" stroke="#666666" points="682.17,-250 585.17,-250 585.17,-231 682.17,-231 682.17,-250"/>
<text text-anchor="middle" x="633.67" y="-238" font-family="Helvetica,sans-Serif" font-size="10.00">Source/Main.cpp</text>
</a>
</g>
</g>
<!-- Node2 -->
<g id="Node000002" class="node">
<title>Node2</title>
<g id="a_Node000002"><a xlink:title=" ">
<polygon fill="#e0e0e0" stroke="#999999" points="495.67,-19 415.67,-19 415.67,0 495.67,0 495.67,-19"/>
<text text-anchor="middle" x="455.67" y="-7" font-family="Helvetica,sans-Serif" font-size="10.00">JuceHeader.h</text>
</a>
</g>
</g>
<!-- Node1&#45;&gt;Node2 -->
<g id="edge1_Node000001_Node000002" class="edge">
<title>Node1&#45;&gt;Node2</title>
<g id="a_edge1_Node000001_Node000002"><a xlink:title=" ">
<path fill="none" stroke="#63b8ff" d="M585.07,-240C484.19,-239.14 247.02,-227.17 73.67,-140 35.47,-120.79 20.61,-113.26 3.67,-74 0.33,-66.25 -2,-61.26 3.67,-55 30.25,-25.68 293.05,-14.98 405.29,-11.73"/>
<polygon fill="#63b8ff" stroke="#63b8ff" points="405.45,-15.22 415.34,-11.44 405.25,-8.23 405.45,-15.22"/>
</a>
</g>
</g>
<!-- Node3 -->
<g id="Node000003" class="node">
<title>Node3</title>
<g id="a_Node000003"><a xlink:href="MainComponent_8h.html" target="_top" xlink:title=" ">
<polygon fill="white" stroke="#666666" points="563.67,-195 457.67,-195 457.67,-176 563.67,-176 563.67,-195"/>
<text text-anchor="middle" x="510.67" y="-183" font-family="Helvetica,sans-Serif" font-size="10.00">MainComponent.h</text>
</a>
</g>
</g>
<!-- Node1&#45;&gt;Node3 -->
<g id="edge2_Node000001_Node000003" class="edge">
<title>Node1&#45;&gt;Node3</title>
<g id="a_edge2_Node000001_Node000003"><a xlink:title=" ">
<path fill="none" stroke="#63b8ff" d="M613.91,-230.98C593.94,-222.38 562.87,-208.99 540.02,-199.15"/>
<polygon fill="#63b8ff" stroke="#63b8ff" points="541.36,-195.91 530.79,-195.17 538.59,-202.34 541.36,-195.91"/>
</a>
</g>
</g>
<!-- Node13 -->
<g id="Node000013" class="node">
<title>Node13</title>
<g id="a_Node000013"><a xlink:href="DeviceController_8h.html" target="_top" xlink:title=" ">
<polygon fill="white" stroke="#666666" points="843.17,-195 736.17,-195 736.17,-176 843.17,-176 843.17,-195"/>
<text text-anchor="middle" x="789.67" y="-183" font-family="Helvetica,sans-Serif" font-size="10.00">DeviceController.h</text>
</a>
</g>
</g>
<!-- Node1&#45;&gt;Node13 -->
<g id="edge21_Node000001_Node000013" class="edge">
<title>Node1&#45;&gt;Node13</title>
<g id="a_edge21_Node000001_Node000013"><a xlink:title=" ">
<path fill="none" stroke="#63b8ff" d="M658.74,-230.98C684.7,-222.16 725.48,-208.31 754.63,-198.41"/>
<polygon fill="#63b8ff" stroke="#63b8ff" points="756.07,-201.61 764.41,-195.08 753.82,-194.99 756.07,-201.61"/>
</a>
</g>
</g>
<!-- Node17 -->
<g id="Node000017" class="node">
<title>Node17</title>
<g id="a_Node000017"><a xlink:title=" ">
<polygon fill="#e0e0e0" stroke="#999999" points="986.17,-195 861.17,-195 861.17,-176 986.17,-176 986.17,-195"/>
<text text-anchor="middle" x="923.67" y="-183" font-family="Helvetica,sans-Serif" font-size="10.00">CustomLookAndFeel.h</text>
</a>
</g>
</g>
<!-- Node1&#45;&gt;Node17 -->
<g id="edge26_Node000001_Node000017" class="edge">
<title>Node1&#45;&gt;Node17</title>
<g id="a_edge26_Node000001_Node000017"><a xlink:title=" ">
<path fill="none" stroke="#63b8ff" d="M680.27,-230.98C731.06,-221.7 812.36,-206.84 866.86,-196.88"/>
<polygon fill="#63b8ff" stroke="#63b8ff" points="867.51,-200.32 876.71,-195.08 866.25,-193.44 867.51,-200.32"/>
</a>
</g>
</g>
<!-- Node3&#45;&gt;Node2 -->
<g id="edge3_Node000003_Node000002" class="edge">
<title>Node3&#45;&gt;Node2</title>
<g id="a_edge3_Node000003_Node000002"><a xlink:title=" ">
<path fill="none" stroke="#63b8ff" d="M493.21,-175.88C480.2,-168.38 463.4,-156.18 455.67,-140 438.46,-103.94 445.15,-55.54 450.84,-29.31"/>
<polygon fill="#63b8ff" stroke="#63b8ff" points="454.33,-29.77 453.23,-19.24 447.52,-28.16 454.33,-29.77"/>
</a>
</g>
</g>
<!-- Node4 -->
<g id="Node000004" class="node">
<title>Node4</title>
<g id="a_Node000004"><a xlink:href="UmsciAppConfiguration_8h.html" target="_top" xlink:title=" ">
<polygon fill="white" stroke="#666666" points="408.67,-134.5 268.67,-134.5 268.67,-115.5 408.67,-115.5 408.67,-134.5"/>
<text text-anchor="middle" x="338.67" y="-122.5" font-family="Helvetica,sans-Serif" font-size="10.00">UmsciAppConfiguration.h</text>
</a>
</g>
</g>
<!-- Node3&#45;&gt;Node4 -->
<g id="edge4_Node000003_Node000004" class="edge">
<title>Node3&#45;&gt;Node4</title>
<g id="a_edge4_Node000003_Node000004"><a xlink:title=" ">
<path fill="none" stroke="#63b8ff" d="M485.66,-175.99C456.11,-165.94 406.76,-149.16 373.48,-137.84"/>
<polygon fill="#63b8ff" stroke="#63b8ff" points="374.31,-134.42 363.71,-134.52 372.05,-141.05 374.31,-134.42"/>
</a>
</g>
</g>
<!-- Node6 -->
<g id="Node000006" class="node">
<title>Node6</title>
<g id="a_Node000006"><a xlink:href="UmsciExternalControlComponent_8h.html" target="_top" xlink:title=" ">
<polygon fill="white" stroke="#666666" points="728.67,-74 540.67,-74 540.67,-55 728.67,-55 728.67,-74"/>
<text text-anchor="middle" x="634.67" y="-62" font-family="Helvetica,sans-Serif" font-size="10.00">UmsciExternalControlComponent.h</text>
</a>
</g>
</g>
<!-- Node3&#45;&gt;Node6 -->
<g id="edge7_Node000003_Node000006" class="edge">
<title>Node3&#45;&gt;Node6</title>
<g id="a_edge7_Node000003_Node000006"><a xlink:title=" ">
<path fill="none" stroke="#63b8ff" d="M564.08,-177.39C607.51,-170.38 663.78,-158.08 677.67,-140 692.35,-120.9 671.46,-96.29 654,-80.7"/>
<polygon fill="#63b8ff" stroke="#63b8ff" points="656.25,-78.02 646.36,-74.22 651.72,-83.36 656.25,-78.02"/>
</a>
</g>
</g>
<!-- Node9 -->
<g id="Node000009" class="node">
<title>Node9</title>
<g id="a_Node000009"><a xlink:href="UmsciZeroconfDiscoverComboComponent_8h.html" target="_top" xlink:title=" ">
<polygon fill="white" stroke="#666666" points="250.67,-140 82.67,-140 82.67,-110 250.67,-110 250.67,-140"/>
<text text-anchor="start" x="90.67" y="-128" font-family="Helvetica,sans-Serif" font-size="10.00">UmsciZeroconfDiscoverCombo</text>
<text text-anchor="middle" x="166.67" y="-117" font-family="Helvetica,sans-Serif" font-size="10.00">Component.h</text>
</a>
</g>
</g>
<!-- Node3&#45;&gt;Node9 -->
<g id="edge11_Node000003_Node000009" class="edge">
<title>Node3&#45;&gt;Node9</title>
<g id="a_edge11_Node000003_Node000009"><a xlink:title=" ">
<path fill="none" stroke="#63b8ff" d="M460.65,-175.99C408.03,-167.04 324.02,-152.76 259.26,-141.75"/>
<polygon fill="#63b8ff" stroke="#63b8ff" points="259.49,-138.23 249.04,-140.01 258.31,-145.13 259.49,-138.23"/>
</a>
</g>
</g>
<!-- Node11 -->
<g id="Node000011" class="node">
<title>Node11</title>
<g id="a_Node000011"><a xlink:href="MidiController_8h.html" target="_top" xlink:title=" ">
<polygon fill="white" stroke="#666666" points="668.67,-134.5 574.67,-134.5 574.67,-115.5 668.67,-115.5 668.67,-134.5"/>
<text text-anchor="middle" x="621.67" y="-122.5" font-family="Helvetica,sans-Serif" font-size="10.00">MidiController.h</text>
</a>
</g>
</g>
<!-- Node3&#45;&gt;Node11 -->
<g id="edge14_Node000003_Node000011" class="edge">
<title>Node3&#45;&gt;Node11</title>
<g id="a_edge14_Node000003_Node000011"><a xlink:title=" ">
<path fill="none" stroke="#63b8ff" d="M527.05,-175.87C545.25,-166.28 574.87,-150.67 596.12,-139.47"/>
<polygon fill="#63b8ff" stroke="#63b8ff" points="598.01,-142.43 605.23,-134.67 594.75,-136.23 598.01,-142.43"/>
</a>
</g>
</g>
<!-- Node12 -->
<g id="Node000012" class="node">
<title>Node12</title>
<g id="a_Node000012"><a xlink:href="OscController_8h.html" target="_top" xlink:title=" ">
<polygon fill="white" stroke="#666666" points="556.17,-134.5 465.17,-134.5 465.17,-115.5 556.17,-115.5 556.17,-134.5"/>
<text text-anchor="middle" x="510.67" y="-122.5" font-family="Helvetica,sans-Serif" font-size="10.00">OscController.h</text>
</a>
</g>
</g>
<!-- Node3&#45;&gt;Node12 -->
<g id="edge18_Node000003_Node000012" class="edge">
<title>Node3&#45;&gt;Node12</title>
<g id="a_edge18_Node000003_Node000012"><a xlink:title=" ">
<path fill="none" stroke="#63b8ff" d="M510.67,-175.87C510.67,-167.75 510.67,-155.31 510.67,-144.89"/>
<polygon fill="#63b8ff" stroke="#63b8ff" points="514.17,-144.67 510.67,-134.67 507.17,-144.67 514.17,-144.67"/>
</a>
</g>
</g>
<!-- Node4&#45;&gt;Node2 -->
<g id="edge5_Node000004_Node000002" class="edge">
<title>Node4&#45;&gt;Node2</title>
<g id="a_edge5_Node000004_Node000002"><a xlink:title=" ">
<path fill="none" stroke="#63b8ff" d="M347.47,-115.47C367.03,-96.49 414.41,-50.53 439.48,-26.21"/>
<polygon fill="#63b8ff" stroke="#63b8ff" points="442.04,-28.61 446.78,-19.13 437.16,-23.58 442.04,-28.61"/>
</a>
</g>
</g>
<!-- Node5 -->
<g id="Node000005" class="node">
<title>Node5</title>
<g id="a_Node000005"><a xlink:title=" ">
<polygon fill="#e0e0e0" stroke="#999999" points="370.67,-74 236.67,-74 236.67,-55 370.67,-55 370.67,-74"/>
<text text-anchor="middle" x="303.67" y="-62" font-family="Helvetica,sans-Serif" font-size="10.00">AppConfigurationBase.h</text>
</a>
</g>
</g>
<!-- Node4&#45;&gt;Node5 -->
<g id="edge6_Node000004_Node000005" class="edge">
<title>Node4&#45;&gt;Node5</title>
<g id="a_edge6_Node000004_Node000005"><a xlink:title=" ">
<path fill="none" stroke="#63b8ff" d="M333.51,-115.37C328.44,-106.9 320.57,-93.74 314.18,-83.07"/>
<polygon fill="#63b8ff" stroke="#63b8ff" points="317,-80.95 308.86,-74.17 310.99,-84.55 317,-80.95"/>
</a>
</g>
</g>
<!-- Node6&#45;&gt;Node2 -->
<g id="edge8_Node000006_Node000002" class="edge">
<title>Node6&#45;&gt;Node2</title>
<g id="a_edge8_Node000006_Node000002"><a xlink:title=" ">
<path fill="none" stroke="#63b8ff" d="M605.91,-54.98C575.73,-46.05 528.1,-31.94 494.57,-22.02"/>
<polygon fill="#63b8ff" stroke="#63b8ff" points="495.24,-18.57 484.66,-19.08 493.25,-25.28 495.24,-18.57"/>
</a>
</g>
</g>
<!-- Node7 -->
<g id="Node000007" class="node">
<title>Node7</title>
<g id="a_Node000007"><a xlink:title=" ">
<polygon fill="#e0e0e0" stroke="#999999" points="887.17,-19 702.17,-19 702.17,0 887.17,0 887.17,-19"/>
<text text-anchor="middle" x="794.67" y="-7" font-family="Helvetica,sans-Serif" font-size="10.00">MidiCommandRangeAssignment.h</text>
</a>
</g>
</g>
<!-- Node6&#45;&gt;Node7 -->
<g id="edge9_Node000006_Node000007" class="edge">
<title>Node6&#45;&gt;Node7</title>
<g id="a_edge9_Node000006_Node000007"><a xlink:title=" ">
<path fill="none" stroke="#63b8ff" d="M660.38,-54.98C687.12,-46.13 729.2,-32.19 759.12,-22.28"/>
<polygon fill="#63b8ff" stroke="#63b8ff" points="760.37,-25.55 768.76,-19.08 758.17,-18.9 760.37,-25.55"/>
</a>
</g>
</g>
<!-- Node8 -->
<g id="Node000008" class="node">
<title>Node8</title>
<g id="a_Node000008"><a xlink:title=" ">
<polygon fill="#e0e0e0" stroke="#999999" points="683.67,-19 543.67,-19 543.67,0 683.67,0 683.67,-19"/>
<text text-anchor="middle" x="613.67" y="-7" font-family="Helvetica,sans-Serif" font-size="10.00">MidiLearnerComponent.h</text>
</a>
</g>
</g>
<!-- Node6&#45;&gt;Node8 -->
<g id="edge10_Node000006_Node000008" class="edge">
<title>Node6&#45;&gt;Node8</title>
<g id="a_edge10_Node000006_Node000008"><a xlink:title=" ">
<path fill="none" stroke="#63b8ff" d="M631.2,-54.75C628.39,-47.65 624.33,-37.4 620.83,-28.56"/>
<polygon fill="#63b8ff" stroke="#63b8ff" points="624.01,-27.1 617.08,-19.09 617.51,-29.68 624.01,-27.1"/>
</a>
</g>
</g>
<!-- Node9&#45;&gt;Node2 -->
<g id="edge12_Node000009_Node000002" class="edge">
<title>Node9&#45;&gt;Node2</title>
<g id="a_edge12_Node000009_Node000002"><a xlink:title=" ">
<path fill="none" stroke="#63b8ff" d="M175.08,-109.88C185.37,-93.89 204.36,-68.34 227.67,-55 282.95,-23.37 356.78,-13.83 405.25,-11.16"/>
<polygon fill="#63b8ff" stroke="#63b8ff" points="405.67,-14.64 415.49,-10.68 405.34,-7.65 405.67,-14.64"/>
</a>
</g>
</g>
<!-- Node10 -->
<g id="Node000010" class="node">
<title>Node10</title>
<g id="a_Node000010"><a xlink:title=" ">
<polygon fill="#e0e0e0" stroke="#999999" points="180.67,-74 12.67,-74 12.67,-55 180.67,-55 180.67,-74"/>
<text text-anchor="middle" x="96.67" y="-62" font-family="Helvetica,sans-Serif" font-size="10.00">ZeroconfDiscoverComponent.h</text>
</a>
</g>
</g>
<!-- Node9&#45;&gt;Node10 -->
<g id="edge13_Node000009_Node000010" class="edge">
<title>Node9&#45;&gt;Node10</title>
<g id="a_edge13_Node000009_Node000010"><a xlink:title=" ">
<path fill="none" stroke="#63b8ff" d="M149.73,-109.84C139.25,-101.09 125.81,-89.85 115.08,-80.88"/>
<polygon fill="#63b8ff" stroke="#63b8ff" points="117.08,-77.99 107.16,-74.27 112.59,-83.36 117.08,-77.99"/>
</a>
</g>
</g>
<!-- Node11&#45;&gt;Node2 -->
<g id="edge15_Node000011_Node000002" class="edge">
<title>Node11&#45;&gt;Node2</title>
<g id="a_edge15_Node000011_Node000002"><a xlink:title=" ">
<path fill="none" stroke="#63b8ff" d="M603.84,-115.36C585.24,-106.06 555.55,-90.39 531.67,-74 510.14,-59.22 487.41,-39.63 472.48,-26.14"/>
<polygon fill="#63b8ff" stroke="#63b8ff" points="474.78,-23.5 465.04,-19.34 470.06,-28.67 474.78,-23.5"/>
</a>
</g>
</g>
<!-- Node11&#45;&gt;Node6 -->
<g id="edge17_Node000011_Node000006" class="edge">
<title>Node11&#45;&gt;Node6</title>
<g id="a_edge17_Node000011_Node000006"><a xlink:title=" ">
<path fill="none" stroke="#63b8ff" d="M623.59,-115.37C625.41,-107.16 628.22,-94.54 630.55,-84.05"/>
<polygon fill="#63b8ff" stroke="#63b8ff" points="633.99,-84.69 632.75,-74.17 627.16,-83.17 633.99,-84.69"/>
</a>
</g>
</g>
<!-- Node11&#45;&gt;Node7 -->
<g id="edge16_Node000011_Node000007" class="edge">
<title>Node11&#45;&gt;Node7</title>
<g id="a_edge16_Node000011_Node000007"><a xlink:title=" ">
<path fill="none" stroke="#63b8ff" d="M650.64,-115.42C675.25,-107.25 710.78,-93.32 737.67,-74 755.63,-61.09 772.03,-41.64 782.58,-27.67"/>
<polygon fill="#63b8ff" stroke="#63b8ff" points="785.55,-29.54 788.63,-19.41 779.9,-25.41 785.55,-29.54"/>
</a>
</g>
</g>
<!-- Node12&#45;&gt;Node2 -->
<g id="edge19_Node000012_Node000002" class="edge">
<title>Node12&#45;&gt;Node2</title>
<g id="a_edge19_Node000012_Node000002"><a xlink:title=" ">
<path fill="none" stroke="#63b8ff" d="M506.54,-115.47C497.58,-96.98 476.22,-52.9 464.22,-28.14"/>
<polygon fill="#63b8ff" stroke="#63b8ff" points="467.36,-26.6 459.85,-19.13 461.07,-29.66 467.36,-26.6"/>
</a>
</g>
</g>
<!-- Node12&#45;&gt;Node6 -->
<g id="edge20_Node000012_Node000006" class="edge">
<title>Node12&#45;&gt;Node6</title>
<g id="a_edge20_Node000012_Node000006"><a xlink:title=" ">
<path fill="none" stroke="#63b8ff" d="M528.7,-115.49C549.37,-105.75 583.45,-89.66 607.37,-78.38"/>
<polygon fill="#63b8ff" stroke="#63b8ff" points="609.07,-81.45 616.62,-74.02 606.08,-75.12 609.07,-81.45"/>
</a>
</g>
</g>
<!-- Node13&#45;&gt;Node2 -->
<g id="edge22_Node000013_Node000002" class="edge">
<title>Node13&#45;&gt;Node2</title>
<g id="a_edge22_Node000013_Node000002"><a xlink:title=" ">
<path fill="none" stroke="#63b8ff" d="M786.75,-175.84C777.34,-148.14 747.81,-63.08 737.67,-55 728.69,-47.84 584.77,-27.71 506.1,-17.15"/>
<polygon fill="#63b8ff" stroke="#63b8ff" points="506.3,-13.64 495.92,-15.79 505.37,-20.58 506.3,-13.64"/>
</a>
</g>
</g>
<!-- Node14 -->
<g id="Node000014" class="node">
<title>Node14</title>
<g id="a_Node000014"><a xlink:title=" ">
<polygon fill="#e0e0e0" stroke="#999999" points="860.67,-134.5 784.67,-134.5 784.67,-115.5 860.67,-115.5 860.67,-134.5"/>
<text text-anchor="middle" x="822.67" y="-122.5" font-family="Helvetica,sans-Serif" font-size="10.00">NanoOcp1.h</text>
</a>
</g>
</g>
<!-- Node13&#45;&gt;Node14 -->
<g id="edge23_Node000013_Node000014" class="edge">
<title>Node13&#45;&gt;Node14</title>
<g id="a_edge23_Node000013_Node000014"><a xlink:title=" ">
<path fill="none" stroke="#63b8ff" d="M794.54,-175.87C799.32,-167.4 806.74,-154.24 812.76,-143.57"/>
<polygon fill="#63b8ff" stroke="#63b8ff" points="815.92,-145.1 817.78,-134.67 809.82,-141.66 815.92,-145.1"/>
</a>
</g>
</g>
<!-- Node15 -->
<g id="Node000015" class="node">
<title>Node15</title>
<g id="a_Node000015"><a xlink:title=" ">
<polygon fill="#e0e0e0" stroke="#999999" points="1012.67,-134.5 878.67,-134.5 878.67,-115.5 1012.67,-115.5 1012.67,-134.5"/>
<text text-anchor="middle" x="945.67" y="-122.5" font-family="Helvetica,sans-Serif" font-size="10.00">Ocp1ObjectDefinitions.h</text>
</a>
</g>
</g>
<!-- Node13&#45;&gt;Node15 -->
<g id="edge24_Node000013_Node000015" class="edge">
<title>Node13&#45;&gt;Node15</title>
<g id="a_edge24_Node000013_Node000015"><a xlink:title=" ">
<path fill="none" stroke="#63b8ff" d="M812.36,-175.99C838.93,-166.03 883.15,-149.45 913.31,-138.13"/>
<polygon fill="#63b8ff" stroke="#63b8ff" points="914.83,-141.31 922.96,-134.52 912.37,-134.75 914.83,-141.31"/>
</a>
</g>
</g>
<!-- Node16 -->
<g id="Node000016" class="node">
<title>Node16</title>
<g id="a_Node000016"><a xlink:title=" ">
<polygon fill="#e0e0e0" stroke="#999999" points="1090.67,-134.5 1030.67,-134.5 1030.67,-115.5 1090.67,-115.5 1090.67,-134.5"/>
<text text-anchor="middle" x="1060.67" y="-122.5" font-family="Helvetica,sans-Serif" font-size="10.00">Variant.h</text>
</a>
</g>
</g>
<!-- Node13&#45;&gt;Node16 -->
<g id="edge25_Node000013_Node000016" class="edge">
<title>Node13&#45;&gt;Node16</title>
<g id="a_edge25_Node000013_Node000016"><a xlink:title=" ">
<path fill="none" stroke="#63b8ff" d="M843.19,-176.65C890.56,-169.14 961.35,-156.51 1021.67,-140 1024.1,-139.34 1026.59,-138.59 1029.09,-137.8"/>
<polygon fill="#63b8ff" stroke="#63b8ff" points="1030.23,-141.11 1038.59,-134.6 1027.99,-134.48 1030.23,-141.11"/>
</a>
</g>
</g>
</g>
</svg>

<g id="navigator" transform="translate(0 0)" fill="#404254">
  <rect fill="#f2f5e9" fill-opacity="0.5" stroke="#606060" stroke-width=".5" x="0" y="0" width="60" height="60"/>
  <use id="zoomplus" xlink:href="#zoomPlus" x="17" y="9" onmousedown="handleZoom(evt,'in')"/>
  <use id="zoomminus" xlink:href="#zoomMin" x="42" y="9" onmousedown="handleZoom(evt,'out')"/>
  <use id="reset" xlink:href="#resetDef" x="30" y="36" onmousedown="handleReset()"/>
   <use id="arrowup" xlink:href="#arrowUp" x="0" y="0" onmousedown="handlePan(0,-1)"/>
  <use id="arrowright" xlink:href="#arrowRight" x="0" y="0" onmousedown="handlePan(1,0)"/>
  <use id="arrowdown" xlink:href="#arrowDown" x="0" y="0" onmousedown="handlePan(0,1)"/>
  <use id="arrowleft" xlink:href="#arrowLeft" x="0" y="0" onmousedown="handlePan(-1,0)"/>
</g>
<svg viewBox="0 0 15 15" width="100%" height="30px" preserveAspectRatio="xMaxYMin meet">
 <g id="arrow_out" transform="scale(0.3 0.3)">
  <a xlink:href="Main_8cpp__incl_org.svg" target="_base">
   <rect id="button" ry="5" rx="5" y="6" x="6" height="38" width="38"
        fill="#f2f5e9" fill-opacity="0.5" stroke="#606060" stroke-width="1.0"/>
   <path id="arrow"
     d="M 11.500037,31.436501 C 11.940474,20.09759 22.043105,11.32322 32.158766,21.979434 L 37.068811,17.246167 C 37.068811,17.246167 37.088388,32 37.088388,32 L 22.160133,31.978069 C 22.160133,31.978069 26.997745,27.140456 26.997745,27.140456 C 18.528582,18.264221 13.291696,25.230495 11.500037,31.436501 z"
     style="fill:#404040;"/>
  </a>
 </g>
</svg>

<style type='text/css'>
<![CDATA[
[data-mouse-over-selected='false'] { opacity: 0.7; }
[data-mouse-over-selected='true']  { opacity: 1.0; }
]]>
</style>
<script type="application/ecmascript"><![CDATA[
document.addEventListener('DOMContentLoaded', (event) => {
  highlightEdges();
  highlightAdjacentNodes();
});
]]></script>
</svg>
