<?xml version="1.0" encoding="UTF-8" standalone="no"?>
<!DOCTYPE svg PUBLIC "-//W3C//DTD SVG 1.1//EN"
 "http://www.w3.org/Graphics/SVG/1.1/DTD/svg11.dtd">
<!-- Generated by graphviz version 2.43.0 (0)
 -->
<!-- Title: Source/MainComponent.cpp Pages: 1 -->
<svg width="1483pt" height="280pt"
 viewBox="0.00 0.00 1483.00 280.00" xmlns="http://www.w3.org/2000/svg" xmlns:xlink="http://www.w3.org/1999/xlink">
<g id="graph0" class="graph" transform="scale(1 1) rotate(0) translate(4 276)">
<title>Source/MainComponent.cpp</title>
<!-- Node1 -->
<g id="Node000001" class="node">
<title>Node1</title>
<g id="a_Node000001"><a xlink:title=" ">
<polygon fill="#999999" stroke="#666666" points="1023.5,-272 870.5,-272 870.5,-253 1023.5,-253 1023.5,-272"/>
<text text-anchor="middle" x="947" y="-260" font-family="Helvetica,sans-Serif" font-size="10.00">Source/MainComponent.cpp</text>
</a>
</g>
</g>
<!-- Node2 -->
<g id="Node000002" class="node">
<title>Node2</title>
<g id="a_Node000002"><a xlink:href="MainComponent_8h.html" target="_top" xlink:title=" ">
<polygon fill="white" stroke="#666666" points="270,-151 164,-151 164,-132 270,-132 270,-151"/>
<text text-anchor="middle" x="217" y="-139" font-family="Helvetica,sans-Serif" font-size="10.00">MainComponent.h</text>
</a>
</g>
</g>
<!-- Node1&#45;&gt;Node2 -->
<g id="edge1_Node000001_Node000002" class="edge">
<title>Node1&#45;&gt;Node2</title>
<g id="a_edge1_Node000001_Node000002"><a xlink:title=" ">
<path fill="none" stroke="#63b8ff" d="M870.24,-253.95C795.25,-246.17 677.97,-232.97 577,-217 451.73,-197.19 420.86,-189.25 297,-162 285.23,-159.41 272.54,-156.41 260.8,-153.55"/>
<polygon fill="#63b8ff" stroke="#63b8ff" points="261.33,-150.08 250.79,-151.09 259.66,-156.88 261.33,-150.08"/>
</a>
</g>
</g>
<!-- Node8 -->
<g id="Node000008" class="node">
<title>Node8</title>
<g id="a_Node000008"><a xlink:href="DeviceController_8h.html" target="_top" xlink:title=" ">
<polygon fill="white" stroke="#666666" points="943.5,-151 836.5,-151 836.5,-132 943.5,-132 943.5,-151"/>
<text text-anchor="middle" x="890" y="-139" font-family="Helvetica,sans-Serif" font-size="10.00">DeviceController.h</text>
</a>
</g>
</g>
<!-- Node1&#45;&gt;Node8 -->
<g id="edge9_Node000001_Node000008" class="edge">
<title>Node1&#45;&gt;Node8</title>
<g id="a_edge9_Node000001_Node000008"><a xlink:title=" ">
<path fill="none" stroke="#63b8ff" d="M939.25,-252.87C931.89,-244.3 920.95,-230.52 914,-217 904.7,-198.91 898.07,-176.51 894.17,-161.02"/>
<polygon fill="#63b8ff" stroke="#63b8ff" points="897.53,-160.04 891.81,-151.12 890.72,-161.66 897.53,-160.04"/>
</a>
</g>
</g>
<!-- Node12 -->
<g id="Node000012" class="node">
<title>Node12</title>
<g id="a_Node000012"><a xlink:href="CustomPopupMenuComponent_8h.html" target="_top" xlink:title=" ">
<polygon fill="white" stroke="#666666" points="482,-151 306,-151 306,-132 482,-132 482,-151"/>
<text text-anchor="middle" x="394" y="-139" font-family="Helvetica,sans-Serif" font-size="10.00">CustomPopupMenuComponent.h</text>
</a>
</g>
</g>
<!-- Node1&#45;&gt;Node12 -->
<g id="edge14_Node000001_Node000012" class="edge">
<title>Node1&#45;&gt;Node12</title>
<g id="a_edge14_Node000001_Node000012"><a xlink:title=" ">
<path fill="none" stroke="#63b8ff" d="M872.25,-252.98C812.31,-245.49 726.25,-233.25 652,-217 571.04,-199.29 478.12,-170.25 428.88,-154.16"/>
<polygon fill="#63b8ff" stroke="#63b8ff" points="429.94,-150.82 419.35,-151.03 427.76,-157.47 429.94,-150.82"/>
</a>
</g>
</g>
<!-- Node13 -->
<g id="Node000013" class="node">
<title>Node13</title>
<g id="a_Node000013"><a xlink:href="UmsciControlComponent_8h.html" target="_top" xlink:title=" ">
<polygon fill="white" stroke="#666666" points="809,-217 661,-217 661,-198 809,-198 809,-217"/>
<text text-anchor="middle" x="735" y="-205" font-family="Helvetica,sans-Serif" font-size="10.00">UmsciControlComponent.h</text>
</a>
</g>
</g>
<!-- Node1&#45;&gt;Node13 -->
<g id="edge16_Node000001_Node000013" class="edge">
<title>Node1&#45;&gt;Node13</title>
<g id="a_edge16_Node000001_Node000013"><a xlink:title=" ">
<path fill="none" stroke="#63b8ff" d="M912.94,-252.98C876.58,-243.89 818.83,-229.46 779.03,-219.51"/>
<polygon fill="#63b8ff" stroke="#63b8ff" points="779.88,-216.11 769.33,-217.08 778.18,-222.9 779.88,-216.11"/>
</a>
</g>
</g>
<!-- Node17 -->
<g id="Node000017" class="node">
<title>Node17</title>
<g id="a_Node000017"><a xlink:href="UmsciDiscoveringHintComponent_8h.html" target="_top" xlink:title=" ">
<polygon fill="white" stroke="#666666" points="1152.5,-151 961.5,-151 961.5,-132 1152.5,-132 1152.5,-151"/>
<text text-anchor="middle" x="1057" y="-139" font-family="Helvetica,sans-Serif" font-size="10.00">UmsciDiscoveringHintComponent.h</text>
</a>
</g>
</g>
<!-- Node1&#45;&gt;Node17 -->
<g id="edge26_Node000001_Node000017" class="edge">
<title>Node1&#45;&gt;Node17</title>
<g id="a_edge26_Node000001_Node000017"><a xlink:title=" ">
<path fill="none" stroke="#63b8ff" d="M945.24,-252.87C943.08,-239.82 940.94,-214.82 952,-198 966.06,-176.61 991.17,-162.92 1013.31,-154.48"/>
<polygon fill="#63b8ff" stroke="#63b8ff" points="1014.65,-157.72 1022.9,-151.08 1012.31,-151.13 1014.65,-157.72"/>
</a>
</g>
</g>
<!-- Node18 -->
<g id="Node000018" class="node">
<title>Node18</title>
<g id="a_Node000018"><a xlink:href="UmsciConnectingComponent_8h.html" target="_top" xlink:title=" ">
<polygon fill="white" stroke="#666666" points="1337.5,-151 1170.5,-151 1170.5,-132 1337.5,-132 1337.5,-151"/>
<text text-anchor="middle" x="1254" y="-139" font-family="Helvetica,sans-Serif" font-size="10.00">UmsciConnectingComponent.h</text>
</a>
</g>
</g>
<!-- Node1&#45;&gt;Node18 -->
<g id="edge28_Node000001_Node000018" class="edge">
<title>Node1&#45;&gt;Node18</title>
<g id="a_edge28_Node000001_Node000018"><a xlink:title=" ">
<path fill="none" stroke="#63b8ff" d="M949.6,-252.95C954.28,-239.08 965.5,-211.82 985,-198 1050.14,-151.83 1082.82,-178.19 1161,-162 1174.78,-159.15 1189.7,-156.03 1203.47,-153.14"/>
<polygon fill="#63b8ff" stroke="#63b8ff" points="1204.2,-156.57 1213.27,-151.09 1202.76,-149.71 1204.2,-156.57"/>
</a>
</g>
</g>
<!-- Node19 -->
<g id="Node000019" class="node">
<title>Node19</title>
<g id="a_Node000019"><a xlink:href="AboutComponent_8h.html" target="_top" xlink:title=" ">
<polygon fill="white" stroke="#666666" points="1104,-217 994,-217 994,-198 1104,-198 1104,-217"/>
<text text-anchor="middle" x="1049" y="-205" font-family="Helvetica,sans-Serif" font-size="10.00">AboutComponent.h</text>
</a>
</g>
</g>
<!-- Node1&#45;&gt;Node19 -->
<g id="edge30_Node000001_Node000019" class="edge">
<title>Node1&#45;&gt;Node19</title>
<g id="a_edge30_Node000001_Node000019"><a xlink:title=" ">
<path fill="none" stroke="#63b8ff" d="M963.39,-252.98C979.57,-244.57 1004.57,-231.59 1023.38,-221.81"/>
<polygon fill="#63b8ff" stroke="#63b8ff" points="1025.05,-224.89 1032.31,-217.17 1021.83,-218.68 1025.05,-224.89"/>
</a>
</g>
</g>
<!-- Node20 -->
<g id="Node000020" class="node">
<title>Node20</title>
<g id="a_Node000020"><a xlink:title=" ">
<polygon fill="#e0e0e0" stroke="#999999" points="1247.5,-217 1122.5,-217 1122.5,-198 1247.5,-198 1247.5,-217"/>
<text text-anchor="middle" x="1185" y="-205" font-family="Helvetica,sans-Serif" font-size="10.00">CustomLookAndFeel.h</text>
</a>
</g>
</g>
<!-- Node1&#45;&gt;Node20 -->
<g id="edge32_Node000001_Node000020" class="edge">
<title>Node1&#45;&gt;Node20</title>
<g id="a_edge32_Node000001_Node000020"><a xlink:title=" ">
<path fill="none" stroke="#63b8ff" d="M985.24,-252.98C1026.41,-243.82 1091.99,-229.21 1136.7,-219.26"/>
<polygon fill="#63b8ff" stroke="#63b8ff" points="1137.46,-222.67 1146.46,-217.08 1135.94,-215.84 1137.46,-222.67"/>
</a>
</g>
</g>
<!-- Node21 -->
<g id="Node000021" class="node">
<title>Node21</title>
<g id="a_Node000021"><a xlink:title=" ">
<polygon fill="#e0e0e0" stroke="#999999" points="1388.5,-217 1265.5,-217 1265.5,-198 1388.5,-198 1388.5,-217"/>
<text text-anchor="middle" x="1327" y="-205" font-family="Helvetica,sans-Serif" font-size="10.00">WebUpdateDetector.h</text>
</a>
</g>
</g>
<!-- Node1&#45;&gt;Node21 -->
<g id="edge33_Node000001_Node000021" class="edge">
<title>Node1&#45;&gt;Node21</title>
<g id="a_edge33_Node000001_Node000021"><a xlink:title=" ">
<path fill="none" stroke="#63b8ff" d="M1008.05,-252.98C1075.54,-243.57 1184.13,-228.43 1255.53,-218.47"/>
<polygon fill="#63b8ff" stroke="#63b8ff" points="1256.36,-221.89 1265.78,-217.04 1255.4,-214.95 1256.36,-221.89"/>
</a>
</g>
</g>
<!-- Node22 -->
<g id="Node000022" class="node">
<title>Node22</title>
<g id="a_Node000022"><a xlink:title=" ">
<polygon fill="#e0e0e0" stroke="#999999" points="1475,-217 1407,-217 1407,-198 1475,-198 1475,-217"/>
<text text-anchor="middle" x="1441" y="-205" font-family="Helvetica,sans-Serif" font-size="10.00">iOS_utils.h</text>
</a>
</g>
</g>
<!-- Node1&#45;&gt;Node22 -->
<g id="edge34_Node000001_Node000022" class="edge">
<title>Node1&#45;&gt;Node22</title>
<g id="a_edge34_Node000001_Node000022"><a xlink:title=" ">
<path fill="none" stroke="#63b8ff" d="M1023.7,-256.08C1113.47,-249.24 1266.49,-236.02 1397,-217 1397.1,-216.99 1397.2,-216.97 1397.3,-216.96"/>
<polygon fill="#63b8ff" stroke="#63b8ff" points="1397.63,-220.45 1406.94,-215.4 1396.51,-213.54 1397.63,-220.45"/>
</a>
</g>
</g>
<!-- Node3 -->
<g id="Node000003" class="node">
<title>Node3</title>
<g id="a_Node000003"><a xlink:title=" ">
<polygon fill="#e0e0e0" stroke="#999999" points="694,-19 614,-19 614,0 694,0 694,-19"/>
<text text-anchor="middle" x="654" y="-7" font-family="Helvetica,sans-Serif" font-size="10.00">JuceHeader.h</text>
</a>
</g>
</g>
<!-- Node2&#45;&gt;Node3 -->
<g id="edge2_Node000002_Node000003" class="edge">
<title>Node2&#45;&gt;Node3</title>
<g id="a_edge2_Node000002_Node000003"><a xlink:title=" ">
<path fill="none" stroke="#63b8ff" d="M213.41,-131.91C206.91,-114.85 195.59,-76.48 215,-55 240.66,-26.61 493.69,-15.43 603.54,-11.89"/>
<polygon fill="#63b8ff" stroke="#63b8ff" points="603.82,-15.38 613.71,-11.57 603.6,-8.38 603.82,-15.38"/>
</a>
</g>
</g>
<!-- Node4 -->
<g id="Node000004" class="node">
<title>Node4</title>
<g id="a_Node000004"><a xlink:href="UmsciAppConfiguration_8h.html" target="_top" xlink:title=" ">
<polygon fill="white" stroke="#666666" points="364,-79.5 224,-79.5 224,-60.5 364,-60.5 364,-79.5"/>
<text text-anchor="middle" x="294" y="-67.5" font-family="Helvetica,sans-Serif" font-size="10.00">UmsciAppConfiguration.h</text>
</a>
</g>
</g>
<!-- Node2&#45;&gt;Node4 -->
<g id="edge3_Node000002_Node000004" class="edge">
<title>Node2&#45;&gt;Node4</title>
<g id="a_edge3_Node000002_Node000004"><a xlink:title=" ">
<path fill="none" stroke="#63b8ff" d="M226.44,-131.98C238.91,-120.72 261.1,-100.69 276.64,-86.67"/>
<polygon fill="#63b8ff" stroke="#63b8ff" points="279.4,-88.89 284.48,-79.59 274.71,-83.69 279.4,-88.89"/>
</a>
</g>
</g>
<!-- Node6 -->
<g id="Node000006" class="node">
<title>Node6</title>
<g id="a_Node000006"><a xlink:href="UmsciZeroconfDiscoverComboComponent_8h.html" target="_top" xlink:title=" ">
<polygon fill="white" stroke="#666666" points="168,-85 0,-85 0,-55 168,-55 168,-85"/>
<text text-anchor="start" x="8" y="-73" font-family="Helvetica,sans-Serif" font-size="10.00">UmsciZeroconfDiscoverCombo</text>
<text text-anchor="middle" x="84" y="-62" font-family="Helvetica,sans-Serif" font-size="10.00">Component.h</text>
</a>
</g>
</g>
<!-- Node2&#45;&gt;Node6 -->
<g id="edge6_Node000002_Node000006" class="edge">
<title>Node2&#45;&gt;Node6</title>
<g id="a_edge6_Node000002_Node000006"><a xlink:title=" ">
<path fill="none" stroke="#63b8ff" d="M200.69,-131.98C180.71,-121.54 146.28,-103.54 119.98,-89.8"/>
<polygon fill="#63b8ff" stroke="#63b8ff" points="121.54,-86.67 111.05,-85.14 118.3,-92.87 121.54,-86.67"/>
</a>
</g>
</g>
<!-- Node4&#45;&gt;Node3 -->
<g id="edge4_Node000004_Node000003" class="edge">
<title>Node4&#45;&gt;Node3</title>
<g id="a_edge4_Node000004_Node000003"><a xlink:title=" ">
<path fill="none" stroke="#63b8ff" d="M345.08,-60.44C355.94,-58.63 367.35,-56.75 378,-55 456.91,-42.06 548.56,-27.35 603.87,-18.5"/>
<polygon fill="#63b8ff" stroke="#63b8ff" points="604.44,-21.95 613.77,-16.92 603.34,-15.04 604.44,-21.95"/>
</a>
</g>
</g>
<!-- Node5 -->
<g id="Node000005" class="node">
<title>Node5</title>
<g id="a_Node000005"><a xlink:title=" ">
<polygon fill="#e0e0e0" stroke="#999999" points="361,-19 227,-19 227,0 361,0 361,-19"/>
<text text-anchor="middle" x="294" y="-7" font-family="Helvetica,sans-Serif" font-size="10.00">AppConfigurationBase.h</text>
</a>
</g>
</g>
<!-- Node4&#45;&gt;Node5 -->
<g id="edge5_Node000004_Node000005" class="edge">
<title>Node4&#45;&gt;Node5</title>
<g id="a_edge5_Node000004_Node000005"><a xlink:title=" ">
<path fill="none" stroke="#63b8ff" d="M294,-60.37C294,-52.25 294,-39.81 294,-29.39"/>
<polygon fill="#63b8ff" stroke="#63b8ff" points="297.5,-29.17 294,-19.17 290.5,-29.17 297.5,-29.17"/>
</a>
</g>
</g>
<!-- Node6&#45;&gt;Node3 -->
<g id="edge7_Node000006_Node000003" class="edge">
<title>Node6&#45;&gt;Node3</title>
<g id="a_edge7_Node000006_Node000003"><a xlink:title=" ">
<path fill="none" stroke="#63b8ff" d="M168.16,-56.71C172.84,-56.11 177.48,-55.54 182,-55 335.36,-36.83 517.45,-21.39 603.79,-14.44"/>
<polygon fill="#63b8ff" stroke="#63b8ff" points="604.15,-17.92 613.84,-13.63 603.59,-10.94 604.15,-17.92"/>
</a>
</g>
</g>
<!-- Node7 -->
<g id="Node000007" class="node">
<title>Node7</title>
<g id="a_Node000007"><a xlink:title=" ">
<polygon fill="#e0e0e0" stroke="#999999" points="168,-19 0,-19 0,0 168,0 168,-19"/>
<text text-anchor="middle" x="84" y="-7" font-family="Helvetica,sans-Serif" font-size="10.00">ZeroconfDiscoverComponent.h</text>
</a>
</g>
</g>
<!-- Node6&#45;&gt;Node7 -->
<g id="edge8_Node000006_Node000007" class="edge">
<title>Node6&#45;&gt;Node7</title>
<g id="a_edge8_Node000006_Node000007"><a xlink:title=" ">
<path fill="none" stroke="#63b8ff" d="M84,-54.84C84,-47.21 84,-37.7 84,-29.45"/>
<polygon fill="#63b8ff" stroke="#63b8ff" points="87.5,-29.27 84,-19.27 80.5,-29.27 87.5,-29.27"/>
</a>
</g>
</g>
<!-- Node8&#45;&gt;Node3 -->
<g id="edge10_Node000008_Node000003" class="edge">
<title>Node8&#45;&gt;Node3</title>
<g id="a_edge10_Node000008_Node000003"><a xlink:title=" ">
<path fill="none" stroke="#63b8ff" d="M895.83,-131.84C906.38,-114.99 925.88,-77.49 907,-55 881.65,-24.81 770.65,-15.09 704.39,-11.97"/>
<polygon fill="#63b8ff" stroke="#63b8ff" points="704.31,-8.47 694.16,-11.53 704,-15.46 704.31,-8.47"/>
</a>
</g>
</g>
<!-- Node9 -->
<g id="Node000009" class="node">
<title>Node9</title>
<g id="a_Node000009"><a xlink:title=" ">
<polygon fill="#e0e0e0" stroke="#999999" points="1030,-79.5 954,-79.5 954,-60.5 1030,-60.5 1030,-79.5"/>
<text text-anchor="middle" x="992" y="-67.5" font-family="Helvetica,sans-Serif" font-size="10.00">NanoOcp1.h</text>
</a>
</g>
</g>
<!-- Node8&#45;&gt;Node9 -->
<g id="edge11_Node000008_Node000009" class="edge">
<title>Node8&#45;&gt;Node9</title>
<g id="a_edge11_Node000008_Node000009"><a xlink:title=" ">
<path fill="none" stroke="#63b8ff" d="M902.51,-131.98C919.56,-120.36 950.34,-99.39 970.97,-85.33"/>
<polygon fill="#63b8ff" stroke="#63b8ff" points="973.1,-88.12 979.39,-79.59 969.16,-82.33 973.1,-88.12"/>
</a>
</g>
</g>
<!-- Node10 -->
<g id="Node000010" class="node">
<title>Node10</title>
<g id="a_Node000010"><a xlink:title=" ">
<polygon fill="#e0e0e0" stroke="#999999" points="1182,-79.5 1048,-79.5 1048,-60.5 1182,-60.5 1182,-79.5"/>
<text text-anchor="middle" x="1115" y="-67.5" font-family="Helvetica,sans-Serif" font-size="10.00">Ocp1ObjectDefinitions.h</text>
</a>
</g>
</g>
<!-- Node8&#45;&gt;Node10 -->
<g id="edge12_Node000008_Node000010" class="edge">
<title>Node8&#45;&gt;Node10</title>
<g id="a_edge12_Node000008_Node000010"><a xlink:title=" ">
<path fill="none" stroke="#63b8ff" d="M917.15,-131.92C927.98,-128.5 940.58,-124.55 952,-121 994.91,-107.67 1044.24,-92.57 1077.29,-82.48"/>
<polygon fill="#63b8ff" stroke="#63b8ff" points="1078.46,-85.79 1087,-79.52 1076.42,-79.09 1078.46,-85.79"/>
</a>
</g>
</g>
<!-- Node11 -->
<g id="Node000011" class="node">
<title>Node11</title>
<g id="a_Node000011"><a xlink:title=" ">
<polygon fill="#e0e0e0" stroke="#999999" points="898,-79.5 838,-79.5 838,-60.5 898,-60.5 898,-79.5"/>
<text text-anchor="middle" x="868" y="-67.5" font-family="Helvetica,sans-Serif" font-size="10.00">Variant.h</text>
</a>
</g>
</g>
<!-- Node8&#45;&gt;Node11 -->
<g id="edge13_Node000008_Node000011" class="edge">
<title>Node8&#45;&gt;Node11</title>
<g id="a_edge13_Node000008_Node000011"><a xlink:title=" ">
<path fill="none" stroke="#63b8ff" d="M887.3,-131.98C883.97,-121.45 878.21,-103.25 873.85,-89.47"/>
<polygon fill="#63b8ff" stroke="#63b8ff" points="877.07,-88.07 870.72,-79.59 870.4,-90.18 877.07,-88.07"/>
</a>
</g>
</g>
<!-- Node12&#45;&gt;Node3 -->
<g id="edge15_Node000012_Node000003" class="edge">
<title>Node12&#45;&gt;Node3</title>
<g id="a_edge15_Node000012_Node000003"><a xlink:title=" ">
<path fill="none" stroke="#63b8ff" d="M392.85,-131.78C391.12,-114.48 389.97,-75.71 411,-55 437.63,-28.77 540.64,-17.63 603.68,-13.19"/>
<polygon fill="#63b8ff" stroke="#63b8ff" points="604.08,-16.67 613.82,-12.51 603.61,-9.69 604.08,-16.67"/>
</a>
</g>
</g>
<!-- Node13&#45;&gt;Node3 -->
<g id="edge17_Node000013_Node000003" class="edge">
<title>Node13&#45;&gt;Node3</title>
<g id="a_edge17_Node000013_Node000003"><a xlink:title=" ">
<path fill="none" stroke="#63b8ff" d="M751.22,-197.97C763.77,-190.39 780.28,-178.02 788,-162 808.65,-119.15 817.92,-93.51 790,-55 770.48,-28.07 734.19,-17.14 704,-12.84"/>
<polygon fill="#63b8ff" stroke="#63b8ff" points="704.38,-9.36 694.03,-11.62 703.53,-16.3 704.38,-9.36"/>
</a>
</g>
</g>
<!-- Node13&#45;&gt;Node4 -->
<g id="edge18_Node000013_Node000004" class="edge">
<title>Node13&#45;&gt;Node4</title>
<g id="a_edge18_Node000013_Node000004"><a xlink:title=" ">
<path fill="none" stroke="#63b8ff" d="M664.12,-197.98C626.46,-191.55 580.2,-180.54 542,-162 515.84,-149.3 517.02,-133.99 491,-121 451.58,-101.33 403.76,-88.95 365.1,-81.44"/>
<polygon fill="#63b8ff" stroke="#63b8ff" points="365.45,-77.94 354.97,-79.54 364.16,-84.82 365.45,-77.94"/>
</a>
</g>
</g>
<!-- Node13&#45;&gt;Node8 -->
<g id="edge19_Node000013_Node000008" class="edge">
<title>Node13&#45;&gt;Node8</title>
<g id="a_edge19_Node000013_Node000008"><a xlink:title=" ">
<path fill="none" stroke="#63b8ff" d="M755.9,-197.87C782.6,-186.85 828.99,-167.69 859.59,-155.05"/>
<polygon fill="#63b8ff" stroke="#63b8ff" points="861.02,-158.25 868.93,-151.2 858.35,-151.78 861.02,-158.25"/>
</a>
</g>
</g>
<!-- Node14 -->
<g id="Node000014" class="node">
<title>Node14</title>
<g id="a_Node000014"><a xlink:href="UmsciPaintNControlComponentBase_8h.html" target="_top" xlink:title=" ">
<polygon fill="white" stroke="#666666" points="626,-85 420,-85 420,-55 626,-55 626,-85"/>
<text text-anchor="start" x="428" y="-73" font-family="Helvetica,sans-Serif" font-size="10.00">UmsciPaintNControlComponents</text>
<text text-anchor="middle" x="523" y="-62" font-family="Helvetica,sans-Serif" font-size="10.00">/UmsciPaintNControlComponentBase.h</text>
</a>
</g>
</g>
<!-- Node13&#45;&gt;Node14 -->
<g id="edge20_Node000013_Node000014" class="edge">
<title>Node13&#45;&gt;Node14</title>
<g id="a_edge20_Node000013_Node000014"><a xlink:title=" ">
<path fill="none" stroke="#63b8ff" d="M663.83,-197.95C634.95,-191.68 602.66,-180.82 578,-162 555.42,-144.78 540.12,-115.39 531.5,-94.68"/>
<polygon fill="#63b8ff" stroke="#63b8ff" points="534.73,-93.33 527.8,-85.31 528.21,-95.89 534.73,-93.33"/>
</a>
</g>
</g>
<!-- Node15 -->
<g id="Node000015" class="node">
<title>Node15</title>
<g id="a_Node000015"><a xlink:href="UmsciUpmixIndicatorPaintNControlComponent_8h.html" target="_top" xlink:title=" ">
<polygon fill="white" stroke="#666666" points="779,-162 587,-162 587,-121 779,-121 779,-162"/>
<text text-anchor="start" x="595" y="-150" font-family="Helvetica,sans-Serif" font-size="10.00">UmsciPaintNControlComponents</text>
<text text-anchor="start" x="595" y="-139" font-family="Helvetica,sans-Serif" font-size="10.00">/UmsciUpmixIndicatorPaintNControl</text>
<text text-anchor="middle" x="683" y="-128" font-family="Helvetica,sans-Serif" font-size="10.00">Component.h</text>
</a>
</g>
</g>
<!-- Node13&#45;&gt;Node15 -->
<g id="edge22_Node000013_Node000015" class="edge">
<title>Node13&#45;&gt;Node15</title>
<g id="a_edge22_Node000013_Node000015"><a xlink:title=" ">
<path fill="none" stroke="#63b8ff" d="M727.99,-197.87C722.12,-190.65 713.43,-179.95 705.24,-169.88"/>
<polygon fill="#63b8ff" stroke="#63b8ff" points="707.87,-167.56 698.85,-162.01 702.44,-171.98 707.87,-167.56"/>
</a>
</g>
</g>
<!-- Node14&#45;&gt;Node3 -->
<g id="edge21_Node000014_Node000003" class="edge">
<title>Node14&#45;&gt;Node3</title>
<g id="a_edge21_Node000014_Node000003"><a xlink:title=" ">
<path fill="none" stroke="#63b8ff" d="M554.38,-54.99C575.94,-45.36 604.35,-32.67 625.31,-23.31"/>
<polygon fill="#63b8ff" stroke="#63b8ff" points="626.95,-26.41 634.65,-19.14 624.1,-20.02 626.95,-26.41"/>
</a>
</g>
</g>
<!-- Node15&#45;&gt;Node3 -->
<g id="edge23_Node000015_Node000003" class="edge">
<title>Node15&#45;&gt;Node3</title>
<g id="a_edge23_Node000015_Node000003"><a xlink:title=" ">
<path fill="none" stroke="#63b8ff" d="M678.6,-120.76C673.04,-95.86 663.57,-53.38 658.14,-29.06"/>
<polygon fill="#63b8ff" stroke="#63b8ff" points="661.49,-28.01 655.9,-19.01 654.66,-29.53 661.49,-28.01"/>
</a>
</g>
</g>
<!-- Node15&#45;&gt;Node14 -->
<g id="edge24_Node000015_Node000014" class="edge">
<title>Node15&#45;&gt;Node14</title>
<g id="a_edge24_Node000015_Node000014"><a xlink:title=" ">
<path fill="none" stroke="#63b8ff" d="M638.01,-120.96C614.96,-110.94 587.08,-98.83 564.54,-89.04"/>
<polygon fill="#63b8ff" stroke="#63b8ff" points="565.81,-85.78 555.24,-85 563.02,-92.2 565.81,-85.78"/>
</a>
</g>
</g>
<!-- Node16 -->
<g id="Node000016" class="node">
<title>Node16</title>
<g id="a_Node000016"><a xlink:title=" ">
<polygon fill="#e0e0e0" stroke="#999999" points="781.5,-79.5 682.5,-79.5 682.5,-60.5 781.5,-60.5 781.5,-79.5"/>
<text text-anchor="middle" x="732" y="-67.5" font-family="Helvetica,sans-Serif" font-size="10.00">TwoDFieldBase.h</text>
</a>
</g>
</g>
<!-- Node15&#45;&gt;Node16 -->
<g id="edge25_Node000015_Node000016" class="edge">
<title>Node15&#45;&gt;Node16</title>
<g id="a_edge25_Node000015_Node000016"><a xlink:title=" ">
<path fill="none" stroke="#63b8ff" d="M696.91,-120.77C704.19,-110.45 713.01,-97.93 719.99,-88.04"/>
<polygon fill="#63b8ff" stroke="#63b8ff" points="722.88,-90.01 725.78,-79.82 717.16,-85.98 722.88,-90.01"/>
</a>
</g>
</g>
<!-- Node17&#45;&gt;Node3 -->
<g id="edge27_Node000017_Node000003" class="edge">
<title>Node17&#45;&gt;Node3</title>
<g id="a_edge27_Node000017_Node000003"><a xlink:title=" ">
<path fill="none" stroke="#63b8ff" d="M1094.73,-131.92C1145.17,-118.82 1224.55,-91.44 1191,-55 1158.42,-19.6 831.44,-12.36 704.24,-10.88"/>
<polygon fill="#63b8ff" stroke="#63b8ff" points="704.04,-7.38 694,-10.77 703.96,-14.38 704.04,-7.38"/>
</a>
</g>
</g>
<!-- Node18&#45;&gt;Node3 -->
<g id="edge29_Node000018_Node000003" class="edge">
<title>Node18&#45;&gt;Node3</title>
<g id="a_edge29_Node000018_Node000003"><a xlink:title=" ">
<path fill="none" stroke="#63b8ff" d="M1252.43,-131.87C1248.67,-114.04 1237.37,-73.23 1210,-55 1168.46,-27.33 833.22,-15.36 704.28,-11.76"/>
<polygon fill="#63b8ff" stroke="#63b8ff" points="704.36,-8.26 694.27,-11.48 704.17,-15.25 704.36,-8.26"/>
</a>
</g>
</g>
<!-- Node19&#45;&gt;Node3 -->
<g id="edge31_Node000019_Node000003" class="edge">
<title>Node19&#45;&gt;Node3</title>
<g id="a_edge31_Node000019_Node000003"><a xlink:title=" ">
<path fill="none" stroke="#63b8ff" d="M1104.3,-199.14C1189.13,-187.72 1342.07,-166.56 1346,-162 1357.89,-148.19 1354.95,-136.88 1346,-121 1318.2,-71.66 1290.93,-72.29 1237,-55 1138.5,-23.41 827.32,-13.92 704.53,-11.36"/>
<polygon fill="#63b8ff" stroke="#63b8ff" points="704.35,-7.85 694.28,-11.15 704.21,-14.85 704.35,-7.85"/>
</a>
</g>
</g>
</g>
</svg>
