<?xml version="1.0" encoding="UTF-8" standalone="no"?>
<!DOCTYPE svg PUBLIC "-//W3C//DTD SVG 1.1//EN"
 "http://www.w3.org/Graphics/SVG/1.1/DTD/svg11.dtd">
<!-- Generated by graphviz version 2.43.0 (0)
 -->
<!-- Title: Source/MainComponent.cpp Pages: 1 -->
<svg width="2292pt" height="280pt"
 viewBox="0.00 0.00 2292.00 280.00" xmlns="http://www.w3.org/2000/svg" xmlns:xlink="http://www.w3.org/1999/xlink">
<g id="graph0" class="graph" transform="scale(1 1) rotate(0) translate(4 276)">
<title>Source/MainComponent.cpp</title>
<!-- Node1 -->
<g id="Node000001" class="node">
<title>Node1</title>
<g id="a_Node000001"><a xlink:title=" ">
<polygon fill="#999999" stroke="#666666" points="1097.5,-272 944.5,-272 944.5,-253 1097.5,-253 1097.5,-272"/>
<text text-anchor="middle" x="1021" y="-260" font-family="Helvetica,sans-Serif" font-size="10.00">Source/MainComponent.cpp</text>
</a>
</g>
</g>
<!-- Node2 -->
<g id="Node000002" class="node">
<title>Node2</title>
<g id="a_Node000002"><a xlink:href="MainComponent_8h.html" target="_top" xlink:title=" ">
<polygon fill="white" stroke="#666666" points="1614,-217 1508,-217 1508,-198 1614,-198 1614,-217"/>
<text text-anchor="middle" x="1561" y="-205" font-family="Helvetica,sans-Serif" font-size="10.00">MainComponent.h</text>
</a>
</g>
</g>
<!-- Node1&#45;&gt;Node2 -->
<g id="edge1_Node000001_Node000002" class="edge">
<title>Node1&#45;&gt;Node2</title>
<g id="a_edge1_Node000001_Node000002"><a xlink:title=" ">
<path fill="none" stroke="#63b8ff" d="M1097.51,-253.99C1204.71,-243.47 1397.66,-224.53 1497.42,-214.74"/>
<polygon fill="#63b8ff" stroke="#63b8ff" points="1498.04,-218.2 1507.65,-213.74 1497.36,-211.23 1498.04,-218.2"/>
</a>
</g>
</g>
<!-- Node6 -->
<g id="Node000006" class="node">
<title>Node6</title>
<g id="a_Node000006"><a xlink:href="UmsciExternalControlComponent_8h.html" target="_top" xlink:title=" ">
<polygon fill="white" stroke="#666666" points="2127,-79.5 1939,-79.5 1939,-60.5 2127,-60.5 2127,-79.5"/>
<text text-anchor="middle" x="2033" y="-67.5" font-family="Helvetica,sans-Serif" font-size="10.00">UmsciExternalControlComponent.h</text>
</a>
</g>
</g>
<!-- Node1&#45;&gt;Node6 -->
<g id="edge51_Node000001_Node000006" class="edge">
<title>Node1&#45;&gt;Node6</title>
<g id="a_edge51_Node000001_Node000006"><a xlink:title=" ">
<path fill="none" stroke="#63b8ff" d="M1097.53,-257.08C1333.79,-243.09 2037.75,-198.46 2070,-162 2089.38,-140.09 2066.19,-106.7 2048.77,-87.04"/>
<polygon fill="#63b8ff" stroke="#63b8ff" points="2051.16,-84.47 2041.79,-79.53 2046.03,-89.24 2051.16,-84.47"/>
</a>
</g>
</g>
<!-- Node15 -->
<g id="Node000015" class="node">
<title>Node15</title>
<g id="a_Node000015"><a xlink:href="UmsciDbprProjectComponent_8h.html" target="_top" xlink:title=" ">
<polygon fill="white" stroke="#666666" points="1289,-156.5 1113,-156.5 1113,-126.5 1289,-126.5 1289,-156.5"/>
<text text-anchor="start" x="1121" y="-144.5" font-family="Helvetica,sans-Serif" font-size="10.00">UmsciPaintNControlComponents</text>
<text text-anchor="middle" x="1201" y="-133.5" font-family="Helvetica,sans-Serif" font-size="10.00">/UmsciDbprProjectComponent.h</text>
</a>
</g>
</g>
<!-- Node1&#45;&gt;Node15 -->
<g id="edge52_Node000001_Node000015" class="edge">
<title>Node1&#45;&gt;Node15</title>
<g id="a_edge52_Node000001_Node000015"><a xlink:title=" ">
<path fill="none" stroke="#63b8ff" d="M1033.95,-252.94C1062.5,-234.07 1131.5,-188.45 1171.32,-162.12"/>
<polygon fill="#63b8ff" stroke="#63b8ff" points="1173.41,-164.94 1179.82,-156.5 1169.55,-159.1 1173.41,-164.94"/>
</a>
</g>
</g>
<!-- Node17 -->
<g id="Node000017" class="node">
<title>Node17</title>
<g id="a_Node000017"><a xlink:href="DeviceController_8h.html" target="_top" xlink:title=" ">
<polygon fill="white" stroke="#666666" points="479.5,-151 372.5,-151 372.5,-132 479.5,-132 479.5,-151"/>
<text text-anchor="middle" x="426" y="-139" font-family="Helvetica,sans-Serif" font-size="10.00">DeviceController.h</text>
</a>
</g>
</g>
<!-- Node1&#45;&gt;Node17 -->
<g id="edge28_Node000001_Node000017" class="edge">
<title>Node1&#45;&gt;Node17</title>
<g id="a_edge28_Node000001_Node000017"><a xlink:title=" ">
<path fill="none" stroke="#63b8ff" d="M944.28,-260.47C796.23,-257.79 482.38,-248.42 445,-217 428.91,-203.47 425.43,-178.39 425.13,-161.09"/>
<polygon fill="#63b8ff" stroke="#63b8ff" points="428.63,-161.1 425.29,-151.05 421.63,-160.99 428.63,-161.1"/>
</a>
</g>
</g>
<!-- Node21 -->
<g id="Node000021" class="node">
<title>Node21</title>
<g id="a_Node000021"><a xlink:href="CustomPopupMenuComponent_8h.html" target="_top" xlink:title=" ">
<polygon fill="white" stroke="#666666" points="176,-217 0,-217 0,-198 176,-198 176,-217"/>
<text text-anchor="middle" x="88" y="-205" font-family="Helvetica,sans-Serif" font-size="10.00">CustomPopupMenuComponent.h</text>
</a>
</g>
</g>
<!-- Node1&#45;&gt;Node21 -->
<g id="edge33_Node000001_Node000021" class="edge">
<title>Node1&#45;&gt;Node21</title>
<g id="a_edge33_Node000001_Node000021"><a xlink:title=" ">
<path fill="none" stroke="#63b8ff" d="M944.47,-258.08C798.34,-251.4 469.49,-235.62 193,-217 190.78,-216.85 188.53,-216.7 186.26,-216.54"/>
<polygon fill="#63b8ff" stroke="#63b8ff" points="186.44,-213.04 176.21,-215.82 185.94,-220.02 186.44,-213.04"/>
</a>
</g>
</g>
<!-- Node22 -->
<g id="Node000022" class="node">
<title>Node22</title>
<g id="a_Node000022"><a xlink:href="UmsciControlComponent_8h.html" target="_top" xlink:title=" ">
<polygon fill="white" stroke="#666666" points="915,-217 767,-217 767,-198 915,-198 915,-217"/>
<text text-anchor="middle" x="841" y="-205" font-family="Helvetica,sans-Serif" font-size="10.00">UmsciControlComponent.h</text>
</a>
</g>
</g>
<!-- Node1&#45;&gt;Node22 -->
<g id="edge35_Node000001_Node000022" class="edge">
<title>Node1&#45;&gt;Node22</title>
<g id="a_edge35_Node000001_Node000022"><a xlink:title=" ">
<path fill="none" stroke="#63b8ff" d="M992.08,-252.98C961.73,-244.05 913.83,-229.94 880.12,-220.02"/>
<polygon fill="#63b8ff" stroke="#63b8ff" points="880.73,-216.55 870.15,-217.08 878.75,-223.26 880.73,-216.55"/>
</a>
</g>
</g>
<!-- Node26 -->
<g id="Node000026" class="node">
<title>Node26</title>
<g id="a_Node000026"><a xlink:href="UmsciDiscoveringHintComponent_8h.html" target="_top" xlink:title=" ">
<polygon fill="white" stroke="#666666" points="393.5,-217 202.5,-217 202.5,-198 393.5,-198 393.5,-217"/>
<text text-anchor="middle" x="298" y="-205" font-family="Helvetica,sans-Serif" font-size="10.00">UmsciDiscoveringHintComponent.h</text>
</a>
</g>
</g>
<!-- Node1&#45;&gt;Node26 -->
<g id="edge45_Node000001_Node000026" class="edge">
<title>Node1&#45;&gt;Node26</title>
<g id="a_edge45_Node000001_Node000026"><a xlink:title=" ">
<path fill="none" stroke="#63b8ff" d="M944.09,-255.92C828.56,-247.52 603.36,-231.13 412,-217 409.31,-216.8 406.58,-216.6 403.83,-216.4"/>
<polygon fill="#63b8ff" stroke="#63b8ff" points="404.02,-212.9 393.79,-215.65 403.5,-219.88 404.02,-212.9"/>
</a>
</g>
</g>
<!-- Node27 -->
<g id="Node000027" class="node">
<title>Node27</title>
<g id="a_Node000027"><a xlink:href="UmsciConnectingComponent_8h.html" target="_top" xlink:title=" ">
<polygon fill="white" stroke="#666666" points="620.5,-217 453.5,-217 453.5,-198 620.5,-198 620.5,-217"/>
<text text-anchor="middle" x="537" y="-205" font-family="Helvetica,sans-Serif" font-size="10.00">UmsciConnectingComponent.h</text>
</a>
</g>
</g>
<!-- Node1&#45;&gt;Node27 -->
<g id="edge47_Node000001_Node000027" class="edge">
<title>Node1&#45;&gt;Node27</title>
<g id="a_edge47_Node000001_Node000027"><a xlink:title=" ">
<path fill="none" stroke="#63b8ff" d="M944.31,-253.1C857.47,-243.59 716.23,-228.13 624.98,-218.13"/>
<polygon fill="#63b8ff" stroke="#63b8ff" points="625.26,-214.64 614.94,-217.03 624.49,-221.6 625.26,-214.64"/>
</a>
</g>
</g>
<!-- Node28 -->
<g id="Node000028" class="node">
<title>Node28</title>
<g id="a_Node000028"><a xlink:href="AboutComponent_8h.html" target="_top" xlink:title=" ">
<polygon fill="white" stroke="#666666" points="749,-217 639,-217 639,-198 749,-198 749,-217"/>
<text text-anchor="middle" x="694" y="-205" font-family="Helvetica,sans-Serif" font-size="10.00">AboutComponent.h</text>
</a>
</g>
</g>
<!-- Node1&#45;&gt;Node28 -->
<g id="edge49_Node000001_Node000028" class="edge">
<title>Node1&#45;&gt;Node28</title>
<g id="a_edge49_Node000001_Node000028"><a xlink:title=" ">
<path fill="none" stroke="#63b8ff" d="M968.46,-252.98C910.74,-243.63 818.09,-228.61 756.64,-218.65"/>
<polygon fill="#63b8ff" stroke="#63b8ff" points="757.11,-215.18 746.68,-217.04 755.99,-222.09 757.11,-215.18"/>
</a>
</g>
</g>
<!-- Node29 -->
<g id="Node000029" class="node">
<title>Node29</title>
<g id="a_Node000029"><a xlink:title=" ">
<polygon fill="#e0e0e0" stroke="#999999" points="2056.5,-217 1931.5,-217 1931.5,-198 2056.5,-198 2056.5,-217"/>
<text text-anchor="middle" x="1994" y="-205" font-family="Helvetica,sans-Serif" font-size="10.00">CustomLookAndFeel.h</text>
</a>
</g>
</g>
<!-- Node1&#45;&gt;Node29 -->
<g id="edge53_Node000001_Node000029" class="edge">
<title>Node1&#45;&gt;Node29</title>
<g id="a_edge53_Node000001_Node000029"><a xlink:title=" ">
<path fill="none" stroke="#63b8ff" d="M1097.51,-259.26C1252.39,-254.37 1614.06,-241.22 1917,-217 1918.47,-216.88 1919.95,-216.76 1921.44,-216.63"/>
<polygon fill="#63b8ff" stroke="#63b8ff" points="1921.77,-220.12 1931.42,-215.73 1921.14,-213.15 1921.77,-220.12"/>
</a>
</g>
</g>
<!-- Node30 -->
<g id="Node000030" class="node">
<title>Node30</title>
<g id="a_Node000030"><a xlink:title=" ">
<polygon fill="#e0e0e0" stroke="#999999" points="2197.5,-217 2074.5,-217 2074.5,-198 2197.5,-198 2197.5,-217"/>
<text text-anchor="middle" x="2136" y="-205" font-family="Helvetica,sans-Serif" font-size="10.00">WebUpdateDetector.h</text>
</a>
</g>
</g>
<!-- Node1&#45;&gt;Node30 -->
<g id="edge54_Node000001_Node000030" class="edge">
<title>Node1&#45;&gt;Node30</title>
<g id="a_edge54_Node000001_Node000030"><a xlink:title=" ">
<path fill="none" stroke="#63b8ff" d="M1097.82,-260.29C1269.34,-257.13 1696.68,-246.79 2064.16,-217.09"/>
<polygon fill="#63b8ff" stroke="#63b8ff" points="2064.51,-220.57 2074.19,-216.27 2063.94,-213.59 2064.51,-220.57"/>
</a>
</g>
</g>
<!-- Node31 -->
<g id="Node000031" class="node">
<title>Node31</title>
<g id="a_Node000031"><a xlink:title=" ">
<polygon fill="#e0e0e0" stroke="#999999" points="2284,-217 2216,-217 2216,-198 2284,-198 2284,-217"/>
<text text-anchor="middle" x="2250" y="-205" font-family="Helvetica,sans-Serif" font-size="10.00">iOS_utils.h</text>
</a>
</g>
</g>
<!-- Node1&#45;&gt;Node31 -->
<g id="edge55_Node000001_Node000031" class="edge">
<title>Node1&#45;&gt;Node31</title>
<g id="a_edge55_Node000001_Node000031"><a xlink:title=" ">
<path fill="none" stroke="#63b8ff" d="M1097.64,-260.2C1321.29,-256.18 1971.53,-242.65 2205.65,-216.92"/>
<polygon fill="#63b8ff" stroke="#63b8ff" points="2206.27,-220.37 2215.81,-215.76 2205.48,-213.42 2206.27,-220.37"/>
</a>
</g>
</g>
<!-- Node3 -->
<g id="Node000003" class="node">
<title>Node3</title>
<g id="a_Node000003"><a xlink:title=" ">
<polygon fill="#e0e0e0" stroke="#999999" points="1208,-19 1128,-19 1128,0 1208,0 1208,-19"/>
<text text-anchor="middle" x="1168" y="-7" font-family="Helvetica,sans-Serif" font-size="10.00">JuceHeader.h</text>
</a>
</g>
</g>
<!-- Node2&#45;&gt;Node3 -->
<g id="edge2_Node000002_Node000003" class="edge">
<title>Node2&#45;&gt;Node3</title>
<g id="a_edge2_Node000002_Node000003"><a xlink:title=" ">
<path fill="none" stroke="#63b8ff" d="M1570.62,-197.99C1579.29,-189.72 1591.64,-176.33 1598,-162 1617.4,-118.31 1641.06,-90.46 1609,-55 1583.19,-26.45 1328.43,-15.35 1218.29,-11.86"/>
<polygon fill="#63b8ff" stroke="#63b8ff" points="1218.2,-8.35 1208.1,-11.54 1217.99,-15.35 1218.2,-8.35"/>
</a>
</g>
</g>
<!-- Node4 -->
<g id="Node000004" class="node">
<title>Node4</title>
<g id="a_Node000004"><a xlink:href="UmsciAppConfiguration_8h.html" target="_top" xlink:title=" ">
<polygon fill="white" stroke="#666666" points="1095,-151 955,-151 955,-132 1095,-132 1095,-151"/>
<text text-anchor="middle" x="1025" y="-139" font-family="Helvetica,sans-Serif" font-size="10.00">UmsciAppConfiguration.h</text>
</a>
</g>
</g>
<!-- Node2&#45;&gt;Node4 -->
<g id="edge3_Node000002_Node000004" class="edge">
<title>Node2&#45;&gt;Node4</title>
<g id="a_edge3_Node000002_Node000004"><a xlink:title=" ">
<path fill="none" stroke="#63b8ff" d="M1507.89,-203.83C1422.35,-198.98 1248.97,-186.81 1104,-162 1091.27,-159.82 1077.56,-156.71 1065.19,-153.62"/>
<polygon fill="#63b8ff" stroke="#63b8ff" points="1065.73,-150.14 1055.17,-151.04 1063.98,-156.92 1065.73,-150.14"/>
</a>
</g>
</g>
<!-- Node2&#45;&gt;Node6 -->
<g id="edge6_Node000002_Node000006" class="edge">
<title>Node2&#45;&gt;Node6</title>
<g id="a_edge6_Node000002_Node000006"><a xlink:title=" ">
<path fill="none" stroke="#63b8ff" d="M1614.33,-205.64C1735.42,-203.12 2022.92,-193.83 2052,-162 2070.43,-141.83 2056.17,-108.54 2044.4,-88.3"/>
<polygon fill="#63b8ff" stroke="#63b8ff" points="2047.22,-86.2 2038.98,-79.53 2041.26,-89.88 2047.22,-86.2"/>
</a>
</g>
</g>
<!-- Node9 -->
<g id="Node000009" class="node">
<title>Node9</title>
<g id="a_Node000009"><a xlink:href="UmsciZeroconfDiscoverComboComponent_8h.html" target="_top" xlink:title=" ">
<polygon fill="white" stroke="#666666" points="1589,-156.5 1421,-156.5 1421,-126.5 1589,-126.5 1589,-156.5"/>
<text text-anchor="start" x="1429" y="-144.5" font-family="Helvetica,sans-Serif" font-size="10.00">UmsciZeroconfDiscoverCombo</text>
<text text-anchor="middle" x="1505" y="-133.5" font-family="Helvetica,sans-Serif" font-size="10.00">Component.h</text>
</a>
</g>
</g>
<!-- Node2&#45;&gt;Node9 -->
<g id="edge10_Node000002_Node000009" class="edge">
<title>Node2&#45;&gt;Node9</title>
<g id="a_edge10_Node000002_Node000009"><a xlink:title=" ">
<path fill="none" stroke="#63b8ff" d="M1553.45,-197.87C1545.98,-189.33 1534.23,-175.91 1524.18,-164.42"/>
<polygon fill="#63b8ff" stroke="#63b8ff" points="1526.78,-162.08 1517.57,-156.86 1521.52,-166.69 1526.78,-162.08"/>
</a>
</g>
</g>
<!-- Node11 -->
<g id="Node000011" class="node">
<title>Node11</title>
<g id="a_Node000011"><a xlink:href="MidiController_8h.html" target="_top" xlink:title=" ">
<polygon fill="white" stroke="#666666" points="2043,-151 1949,-151 1949,-132 2043,-132 2043,-151"/>
<text text-anchor="middle" x="1996" y="-139" font-family="Helvetica,sans-Serif" font-size="10.00">MidiController.h</text>
</a>
</g>
</g>
<!-- Node2&#45;&gt;Node11 -->
<g id="edge13_Node000002_Node000011" class="edge">
<title>Node2&#45;&gt;Node11</title>
<g id="a_edge13_Node000002_Node000011"><a xlink:title=" ">
<path fill="none" stroke="#63b8ff" d="M1614.04,-203.93C1687.9,-199.52 1825.56,-188.31 1940,-162 1948.42,-160.06 1957.33,-157.3 1965.51,-154.47"/>
<polygon fill="#63b8ff" stroke="#63b8ff" points="1966.83,-157.71 1975.05,-151.02 1964.45,-151.13 1966.83,-157.71"/>
</a>
</g>
</g>
<!-- Node12 -->
<g id="Node000012" class="node">
<title>Node12</title>
<g id="a_Node000012"><a xlink:href="OscController_8h.html" target="_top" xlink:title=" ">
<polygon fill="white" stroke="#666666" points="1930.5,-151 1839.5,-151 1839.5,-132 1930.5,-132 1930.5,-151"/>
<text text-anchor="middle" x="1885" y="-139" font-family="Helvetica,sans-Serif" font-size="10.00">OscController.h</text>
</a>
</g>
</g>
<!-- Node2&#45;&gt;Node12 -->
<g id="edge17_Node000002_Node000012" class="edge">
<title>Node2&#45;&gt;Node12</title>
<g id="a_edge17_Node000002_Node000012"><a xlink:title=" ">
<path fill="none" stroke="#63b8ff" d="M1614.15,-200.52C1668.83,-193.72 1756.2,-181.03 1830,-162 1837.93,-159.95 1846.34,-157.26 1854.13,-154.52"/>
<polygon fill="#63b8ff" stroke="#63b8ff" points="1855.39,-157.79 1863.59,-151.08 1853,-151.21 1855.39,-157.79"/>
</a>
</g>
</g>
<!-- Node13 -->
<g id="Node000013" class="node">
<title>Node13</title>
<g id="a_Node000013"><a xlink:href="DbprController_8h.html" target="_top" xlink:title=" ">
<polygon fill="white" stroke="#666666" points="1403,-151 1307,-151 1307,-132 1403,-132 1403,-151"/>
<text text-anchor="middle" x="1355" y="-139" font-family="Helvetica,sans-Serif" font-size="10.00">DbprController.h</text>
</a>
</g>
</g>
<!-- Node2&#45;&gt;Node13 -->
<g id="edge20_Node000002_Node000013" class="edge">
<title>Node2&#45;&gt;Node13</title>
<g id="a_edge20_Node000002_Node000013"><a xlink:title=" ">
<path fill="none" stroke="#63b8ff" d="M1531.21,-197.98C1501.06,-189.26 1453.14,-175.17 1412,-162 1404.52,-159.6 1396.52,-156.94 1388.96,-154.36"/>
<polygon fill="#63b8ff" stroke="#63b8ff" points="1389.93,-151 1379.34,-151.06 1387.66,-157.62 1389.93,-151"/>
</a>
</g>
</g>
<!-- Node2&#45;&gt;Node15 -->
<g id="edge23_Node000002_Node000015" class="edge">
<title>Node2&#45;&gt;Node15</title>
<g id="a_edge23_Node000002_Node000015"><a xlink:title=" ">
<path fill="none" stroke="#63b8ff" d="M1507.77,-197.99C1454.58,-189.36 1370.52,-175.42 1298,-162 1291.9,-160.87 1285.6,-159.67 1279.26,-158.45"/>
<polygon fill="#63b8ff" stroke="#63b8ff" points="1279.8,-154.99 1269.31,-156.51 1278.46,-161.86 1279.8,-154.99"/>
</a>
</g>
</g>
<!-- Node16 -->
<g id="Node000016" class="node">
<title>Node16</title>
<g id="a_Node000016"><a xlink:href="UmsciSnapshotComponent_8h.html" target="_top" xlink:title=" ">
<polygon fill="white" stroke="#666666" points="1821,-156.5 1645,-156.5 1645,-126.5 1821,-126.5 1821,-156.5"/>
<text text-anchor="start" x="1653" y="-144.5" font-family="Helvetica,sans-Serif" font-size="10.00">UmsciPaintNControlComponents</text>
<text text-anchor="middle" x="1733" y="-133.5" font-family="Helvetica,sans-Serif" font-size="10.00">/UmsciSnapshotComponent.h</text>
</a>
</g>
</g>
<!-- Node2&#45;&gt;Node16 -->
<g id="edge26_Node000002_Node000016" class="edge">
<title>Node2&#45;&gt;Node16</title>
<g id="a_edge26_Node000002_Node000016"><a xlink:title=" ">
<path fill="none" stroke="#63b8ff" d="M1584.2,-197.87C1610.07,-188.24 1652.61,-172.41 1685.6,-160.14"/>
<polygon fill="#63b8ff" stroke="#63b8ff" points="1686.91,-163.38 1695.06,-156.62 1684.47,-156.82 1686.91,-163.38"/>
</a>
</g>
</g>
<!-- Node4&#45;&gt;Node3 -->
<g id="edge4_Node000004_Node000003" class="edge">
<title>Node4&#45;&gt;Node3</title>
<g id="a_edge4_Node000004_Node000003"><a xlink:title=" ">
<path fill="none" stroke="#63b8ff" d="M1066.09,-131.95C1093.39,-124.18 1127.96,-109.99 1149,-85 1162.13,-69.4 1166.36,-45.9 1167.63,-29.47"/>
<polygon fill="#63b8ff" stroke="#63b8ff" points="1171.13,-29.57 1168.11,-19.41 1164.14,-29.23 1171.13,-29.57"/>
</a>
</g>
</g>
<!-- Node5 -->
<g id="Node000005" class="node">
<title>Node5</title>
<g id="a_Node000005"><a xlink:title=" ">
<polygon fill="#e0e0e0" stroke="#999999" points="1140,-79.5 1006,-79.5 1006,-60.5 1140,-60.5 1140,-79.5"/>
<text text-anchor="middle" x="1073" y="-67.5" font-family="Helvetica,sans-Serif" font-size="10.00">AppConfigurationBase.h</text>
</a>
</g>
</g>
<!-- Node4&#45;&gt;Node5 -->
<g id="edge5_Node000004_Node000005" class="edge">
<title>Node4&#45;&gt;Node5</title>
<g id="a_edge5_Node000004_Node000005"><a xlink:title=" ">
<path fill="none" stroke="#63b8ff" d="M1030.89,-131.98C1038.44,-121.04 1051.73,-101.8 1061.36,-87.85"/>
<polygon fill="#63b8ff" stroke="#63b8ff" points="1064.26,-89.81 1067.07,-79.59 1058.5,-85.83 1064.26,-89.81"/>
</a>
</g>
</g>
<!-- Node6&#45;&gt;Node3 -->
<g id="edge7_Node000006_Node000003" class="edge">
<title>Node6&#45;&gt;Node3</title>
<g id="a_edge7_Node000006_Node000003"><a xlink:title=" ">
<path fill="none" stroke="#63b8ff" d="M1938.8,-60.49C1916.57,-58.59 1892.96,-56.64 1871,-55 1626.5,-36.7 1333.78,-19.77 1218.34,-13.29"/>
<polygon fill="#63b8ff" stroke="#63b8ff" points="1218.23,-9.78 1208.05,-12.71 1217.84,-16.77 1218.23,-9.78"/>
</a>
</g>
</g>
<!-- Node7 -->
<g id="Node000007" class="node">
<title>Node7</title>
<g id="a_Node000007"><a xlink:title=" ">
<polygon fill="#e0e0e0" stroke="#999999" points="2003.5,-19 1818.5,-19 1818.5,0 2003.5,0 2003.5,-19"/>
<text text-anchor="middle" x="1911" y="-7" font-family="Helvetica,sans-Serif" font-size="10.00">MidiCommandRangeAssignment.h</text>
</a>
</g>
</g>
<!-- Node6&#45;&gt;Node7 -->
<g id="edge8_Node000006_Node000007" class="edge">
<title>Node6&#45;&gt;Node7</title>
<g id="a_edge8_Node000006_Node000007"><a xlink:title=" ">
<path fill="none" stroke="#63b8ff" d="M2015.26,-60.49C1994.93,-50.75 1961.39,-34.66 1937.86,-23.38"/>
<polygon fill="#63b8ff" stroke="#63b8ff" points="1939.29,-20.18 1928.76,-19.02 1936.26,-26.5 1939.29,-20.18"/>
</a>
</g>
</g>
<!-- Node8 -->
<g id="Node000008" class="node">
<title>Node8</title>
<g id="a_Node000008"><a xlink:title=" ">
<polygon fill="#e0e0e0" stroke="#999999" points="2162,-19 2022,-19 2022,0 2162,0 2162,-19"/>
<text text-anchor="middle" x="2092" y="-7" font-family="Helvetica,sans-Serif" font-size="10.00">MidiLearnerComponent.h</text>
</a>
</g>
</g>
<!-- Node6&#45;&gt;Node8 -->
<g id="edge9_Node000006_Node000008" class="edge">
<title>Node6&#45;&gt;Node8</title>
<g id="a_edge9_Node000006_Node000008"><a xlink:title=" ">
<path fill="none" stroke="#63b8ff" d="M2041.71,-60.37C2050.68,-51.47 2064.88,-37.39 2075.91,-26.45"/>
<polygon fill="#63b8ff" stroke="#63b8ff" points="2078.62,-28.69 2083.26,-19.17 2073.69,-23.72 2078.62,-28.69"/>
</a>
</g>
</g>
<!-- Node9&#45;&gt;Node3 -->
<g id="edge11_Node000009_Node000003" class="edge">
<title>Node9&#45;&gt;Node3</title>
<g id="a_edge11_Node000009_Node000003"><a xlink:title=" ">
<path fill="none" stroke="#63b8ff" d="M1484.09,-126.34C1451.8,-104.68 1391.01,-64.79 1367,-55 1318.35,-35.15 1259.22,-23.36 1218.12,-16.96"/>
<polygon fill="#63b8ff" stroke="#63b8ff" points="1218.48,-13.47 1208.07,-15.44 1217.44,-20.39 1218.48,-13.47"/>
</a>
</g>
</g>
<!-- Node10 -->
<g id="Node000010" class="node">
<title>Node10</title>
<g id="a_Node000010"><a xlink:title=" ">
<polygon fill="#e0e0e0" stroke="#999999" points="1600,-79.5 1432,-79.5 1432,-60.5 1600,-60.5 1600,-79.5"/>
<text text-anchor="middle" x="1516" y="-67.5" font-family="Helvetica,sans-Serif" font-size="10.00">ZeroconfDiscoverComponent.h</text>
</a>
</g>
</g>
<!-- Node9&#45;&gt;Node10 -->
<g id="edge12_Node000009_Node000010" class="edge">
<title>Node9&#45;&gt;Node10</title>
<g id="a_edge12_Node000009_Node000010"><a xlink:title=" ">
<path fill="none" stroke="#63b8ff" d="M1507.23,-126.44C1508.9,-115.86 1511.21,-101.25 1513.04,-89.69"/>
<polygon fill="#63b8ff" stroke="#63b8ff" points="1516.51,-90.19 1514.61,-79.77 1509.59,-89.1 1516.51,-90.19"/>
</a>
</g>
</g>
<!-- Node11&#45;&gt;Node3 -->
<g id="edge14_Node000011_Node000003" class="edge">
<title>Node11&#45;&gt;Node3</title>
<g id="a_edge14_Node000011_Node000003"><a xlink:title=" ">
<path fill="none" stroke="#63b8ff" d="M1975.4,-131.87C1931.78,-114.02 1826.49,-73.2 1734,-55 1546.25,-18.06 1317.77,-11.56 1218.3,-10.57"/>
<polygon fill="#63b8ff" stroke="#63b8ff" points="1218.26,-7.07 1208.23,-10.48 1218.2,-14.07 1218.26,-7.07"/>
</a>
</g>
</g>
<!-- Node11&#45;&gt;Node6 -->
<g id="edge16_Node000011_Node000006" class="edge">
<title>Node11&#45;&gt;Node6</title>
<g id="a_edge16_Node000011_Node000006"><a xlink:title=" ">
<path fill="none" stroke="#63b8ff" d="M2000.54,-131.98C2006.25,-121.24 2016.21,-102.53 2023.6,-88.66"/>
<polygon fill="#63b8ff" stroke="#63b8ff" points="2026.82,-90.06 2028.43,-79.59 2020.64,-86.77 2026.82,-90.06"/>
</a>
</g>
</g>
<!-- Node11&#45;&gt;Node7 -->
<g id="edge15_Node000011_Node000007" class="edge">
<title>Node11&#45;&gt;Node7</title>
<g id="a_edge15_Node000011_Node000007"><a xlink:title=" ">
<path fill="none" stroke="#63b8ff" d="M1981.06,-131.85C1965.9,-122.31 1942.9,-105.54 1930,-85 1919.38,-68.08 1914.68,-45.48 1912.61,-29.62"/>
<polygon fill="#63b8ff" stroke="#63b8ff" points="1916.07,-29.02 1911.52,-19.45 1909.11,-29.76 1916.07,-29.02"/>
</a>
</g>
</g>
<!-- Node12&#45;&gt;Node3 -->
<g id="edge18_Node000012_Node000003" class="edge">
<title>Node12&#45;&gt;Node3</title>
<g id="a_edge18_Node000012_Node000003"><a xlink:title=" ">
<path fill="none" stroke="#63b8ff" d="M1868.77,-131.87C1834.36,-114.02 1751.06,-73.2 1676,-55 1511.96,-15.23 1310.5,-10.02 1218.34,-9.94"/>
<polygon fill="#63b8ff" stroke="#63b8ff" points="1218.17,-6.44 1208.18,-9.96 1218.18,-13.44 1218.17,-6.44"/>
</a>
</g>
</g>
<!-- Node12&#45;&gt;Node6 -->
<g id="edge19_Node000012_Node000006" class="edge">
<title>Node12&#45;&gt;Node6</title>
<g id="a_edge19_Node000012_Node000006"><a xlink:title=" ">
<path fill="none" stroke="#63b8ff" d="M1903.15,-131.98C1928.67,-119.99 1975.38,-98.06 2005.27,-84.02"/>
<polygon fill="#63b8ff" stroke="#63b8ff" points="2007.14,-87.01 2014.7,-79.59 2004.16,-80.67 2007.14,-87.01"/>
</a>
</g>
</g>
<!-- Node13&#45;&gt;Node3 -->
<g id="edge21_Node000013_Node000003" class="edge">
<title>Node13&#45;&gt;Node3</title>
<g id="a_edge21_Node000013_Node000003"><a xlink:title=" ">
<path fill="none" stroke="#63b8ff" d="M1357.14,-131.74C1360.73,-114.72 1365.86,-76.93 1347,-55 1330.37,-35.66 1265.12,-23.16 1218.2,-16.47"/>
<polygon fill="#63b8ff" stroke="#63b8ff" points="1218.58,-12.99 1208.19,-15.09 1217.62,-19.93 1218.58,-12.99"/>
</a>
</g>
</g>
<!-- Node14 -->
<g id="Node000014" class="node">
<title>Node14</title>
<g id="a_Node000014"><a xlink:href="dbprProjectUtils_8h.html" target="_top" xlink:title=" ">
<polygon fill="white" stroke="#666666" points="1338,-79.5 1234,-79.5 1234,-60.5 1338,-60.5 1338,-79.5"/>
<text text-anchor="middle" x="1286" y="-67.5" font-family="Helvetica,sans-Serif" font-size="10.00">dbprProjectUtils.h</text>
</a>
</g>
</g>
<!-- Node13&#45;&gt;Node14 -->
<g id="edge22_Node000013_Node000014" class="edge">
<title>Node13&#45;&gt;Node14</title>
<g id="a_edge22_Node000013_Node000014"><a xlink:title=" ">
<path fill="none" stroke="#63b8ff" d="M1346.54,-131.98C1335.47,-120.83 1315.85,-101.06 1301.95,-87.06"/>
<polygon fill="#63b8ff" stroke="#63b8ff" points="1304.06,-84.22 1294.53,-79.59 1299.09,-89.15 1304.06,-84.22"/>
</a>
</g>
</g>
<!-- Node15&#45;&gt;Node3 -->
<g id="edge24_Node000015_Node000003" class="edge">
<title>Node15&#45;&gt;Node3</title>
<g id="a_edge24_Node000015_Node000003"><a xlink:title=" ">
<path fill="none" stroke="#63b8ff" d="M1198.27,-126.49C1194.87,-109.48 1188.69,-79.97 1182,-55 1179.69,-46.39 1176.79,-36.97 1174.22,-29.02"/>
<polygon fill="#63b8ff" stroke="#63b8ff" points="1177.47,-27.7 1171.02,-19.3 1170.82,-29.89 1177.47,-27.7"/>
</a>
</g>
</g>
<!-- Node15&#45;&gt;Node14 -->
<g id="edge25_Node000015_Node000014" class="edge">
<title>Node15&#45;&gt;Node14</title>
<g id="a_edge25_Node000015_Node000014"><a xlink:title=" ">
<path fill="none" stroke="#63b8ff" d="M1218.2,-126.44C1232.48,-114.76 1252.74,-98.2 1267.39,-86.22"/>
<polygon fill="#63b8ff" stroke="#63b8ff" points="1269.75,-88.81 1275.28,-79.77 1265.32,-83.39 1269.75,-88.81"/>
</a>
</g>
</g>
<!-- Node16&#45;&gt;Node3 -->
<g id="edge27_Node000016_Node000003" class="edge">
<title>Node16&#45;&gt;Node3</title>
<g id="a_edge27_Node000016_Node000003"><a xlink:title=" ">
<path fill="none" stroke="#63b8ff" d="M1722.85,-126.28C1707.77,-106.4 1677.37,-70.96 1642,-55 1567.36,-21.32 1324.28,-13.12 1218.24,-11.13"/>
<polygon fill="#63b8ff" stroke="#63b8ff" points="1218.17,-7.63 1208.11,-10.95 1218.05,-14.63 1218.17,-7.63"/>
</a>
</g>
</g>
<!-- Node17&#45;&gt;Node3 -->
<g id="edge29_Node000017_Node000003" class="edge">
<title>Node17&#45;&gt;Node3</title>
<g id="a_edge29_Node000017_Node000003"><a xlink:title=" ">
<path fill="none" stroke="#63b8ff" d="M431.04,-131.98C442.23,-113.95 471.1,-72.23 508,-55 562.69,-29.46 972.69,-15.86 1117.52,-11.81"/>
<polygon fill="#63b8ff" stroke="#63b8ff" points="1117.98,-15.3 1127.88,-11.52 1117.79,-8.3 1117.98,-15.3"/>
</a>
</g>
</g>
<!-- Node18 -->
<g id="Node000018" class="node">
<title>Node18</title>
<g id="a_Node000018"><a xlink:title=" ">
<polygon fill="#e0e0e0" stroke="#999999" points="226,-79.5 150,-79.5 150,-60.5 226,-60.5 226,-79.5"/>
<text text-anchor="middle" x="188" y="-67.5" font-family="Helvetica,sans-Serif" font-size="10.00">NanoOcp1.h</text>
</a>
</g>
</g>
<!-- Node17&#45;&gt;Node18 -->
<g id="edge30_Node000017_Node000018" class="edge">
<title>Node17&#45;&gt;Node18</title>
<g id="a_edge30_Node000017_Node000018"><a xlink:title=" ">
<path fill="none" stroke="#63b8ff" d="M396.21,-131.91C358.61,-121.06 291.98,-101.76 235,-85 232.24,-84.19 229.4,-83.35 226.53,-82.5"/>
<polygon fill="#63b8ff" stroke="#63b8ff" points="227.41,-79.11 216.82,-79.62 225.41,-85.82 227.41,-79.11"/>
</a>
</g>
</g>
<!-- Node19 -->
<g id="Node000019" class="node">
<title>Node19</title>
<g id="a_Node000019"><a xlink:title=" ">
<polygon fill="#e0e0e0" stroke="#999999" points="378,-79.5 244,-79.5 244,-60.5 378,-60.5 378,-79.5"/>
<text text-anchor="middle" x="311" y="-67.5" font-family="Helvetica,sans-Serif" font-size="10.00">Ocp1ObjectDefinitions.h</text>
</a>
</g>
</g>
<!-- Node17&#45;&gt;Node19 -->
<g id="edge31_Node000017_Node000019" class="edge">
<title>Node17&#45;&gt;Node19</title>
<g id="a_edge31_Node000017_Node000019"><a xlink:title=" ">
<path fill="none" stroke="#63b8ff" d="M411.9,-131.98C392.5,-120.25 357.35,-99.01 334.08,-84.95"/>
<polygon fill="#63b8ff" stroke="#63b8ff" points="335.59,-81.77 325.22,-79.59 331.96,-87.76 335.59,-81.77"/>
</a>
</g>
</g>
<!-- Node20 -->
<g id="Node000020" class="node">
<title>Node20</title>
<g id="a_Node000020"><a xlink:title=" ">
<polygon fill="#e0e0e0" stroke="#999999" points="456,-79.5 396,-79.5 396,-60.5 456,-60.5 456,-79.5"/>
<text text-anchor="middle" x="426" y="-67.5" font-family="Helvetica,sans-Serif" font-size="10.00">Variant.h</text>
</a>
</g>
</g>
<!-- Node17&#45;&gt;Node20 -->
<g id="edge32_Node000017_Node000020" class="edge">
<title>Node17&#45;&gt;Node20</title>
<g id="a_edge32_Node000017_Node000020"><a xlink:title=" ">
<path fill="none" stroke="#63b8ff" d="M426,-131.98C426,-121.56 426,-103.61 426,-89.88"/>
<polygon fill="#63b8ff" stroke="#63b8ff" points="429.5,-89.59 426,-79.59 422.5,-89.59 429.5,-89.59"/>
</a>
</g>
</g>
<!-- Node21&#45;&gt;Node3 -->
<g id="edge34_Node000021_Node000003" class="edge">
<title>Node21&#45;&gt;Node3</title>
<g id="a_edge34_Node000021_Node000003"><a xlink:title=" ">
<path fill="none" stroke="#63b8ff" d="M86.97,-197.84C84.37,-171.41 80.62,-91.4 125,-55 163.76,-23.21 914.77,-13.13 1117.78,-10.98"/>
<polygon fill="#63b8ff" stroke="#63b8ff" points="1117.9,-14.48 1127.87,-10.87 1117.83,-7.48 1117.9,-14.48"/>
</a>
</g>
</g>
<!-- Node22&#45;&gt;Node3 -->
<g id="edge36_Node000022_Node000003" class="edge">
<title>Node22&#45;&gt;Node3</title>
<g id="a_edge36_Node000022_Node000003"><a xlink:title=" ">
<path fill="none" stroke="#63b8ff" d="M804.98,-197.98C726.73,-177.93 553.17,-124.19 617,-55 650.58,-18.6 988.22,-11.97 1117.76,-10.76"/>
<polygon fill="#63b8ff" stroke="#63b8ff" points="1117.85,-14.26 1127.82,-10.68 1117.79,-7.26 1117.85,-14.26"/>
</a>
</g>
</g>
<!-- Node22&#45;&gt;Node4 -->
<g id="edge37_Node000022_Node000004" class="edge">
<title>Node22&#45;&gt;Node4</title>
<g id="a_edge37_Node000022_Node000004"><a xlink:title=" ">
<path fill="none" stroke="#63b8ff" d="M865.82,-197.87C898,-186.67 954.32,-167.08 990.62,-154.46"/>
<polygon fill="#63b8ff" stroke="#63b8ff" points="991.99,-157.69 1000.28,-151.1 989.69,-151.08 991.99,-157.69"/>
</a>
</g>
</g>
<!-- Node22&#45;&gt;Node17 -->
<g id="edge38_Node000022_Node000017" class="edge">
<title>Node22&#45;&gt;Node17</title>
<g id="a_edge38_Node000022_Node000017"><a xlink:title=" ">
<path fill="none" stroke="#63b8ff" d="M785.46,-197.94C708.68,-186.09 570.45,-164.78 489.61,-152.31"/>
<polygon fill="#63b8ff" stroke="#63b8ff" points="489.98,-148.83 479.57,-150.76 488.92,-155.74 489.98,-148.83"/>
</a>
</g>
</g>
<!-- Node23 -->
<g id="Node000023" class="node">
<title>Node23</title>
<g id="a_Node000023"><a xlink:href="UmsciPaintNControlComponentBase_8h.html" target="_top" xlink:title=" ">
<polygon fill="white" stroke="#666666" points="832,-85 626,-85 626,-55 832,-55 832,-85"/>
<text text-anchor="start" x="634" y="-73" font-family="Helvetica,sans-Serif" font-size="10.00">UmsciPaintNControlComponents</text>
<text text-anchor="middle" x="729" y="-62" font-family="Helvetica,sans-Serif" font-size="10.00">/UmsciPaintNControlComponentBase.h</text>
</a>
</g>
</g>
<!-- Node22&#45;&gt;Node23 -->
<g id="edge39_Node000022_Node000023" class="edge">
<title>Node22&#45;&gt;Node23</title>
<g id="a_edge39_Node000022_Node000023"><a xlink:title=" ">
<path fill="none" stroke="#63b8ff" d="M793.44,-197.94C772.42,-191.63 749.46,-180.73 736,-162 722.19,-142.79 722.11,-115.02 724.44,-95.22"/>
<polygon fill="#63b8ff" stroke="#63b8ff" points="727.93,-95.54 725.91,-85.14 721,-94.53 727.93,-95.54"/>
</a>
</g>
</g>
<!-- Node24 -->
<g id="Node000024" class="node">
<title>Node24</title>
<g id="a_Node000024"><a xlink:href="UmsciUpmixIndicatorPaintNControlComponent_8h.html" target="_top" xlink:title=" ">
<polygon fill="white" stroke="#666666" points="937,-162 745,-162 745,-121 937,-121 937,-162"/>
<text text-anchor="start" x="753" y="-150" font-family="Helvetica,sans-Serif" font-size="10.00">UmsciPaintNControlComponents</text>
<text text-anchor="start" x="753" y="-139" font-family="Helvetica,sans-Serif" font-size="10.00">/UmsciUpmixIndicatorPaintNControl</text>
<text text-anchor="middle" x="841" y="-128" font-family="Helvetica,sans-Serif" font-size="10.00">Component.h</text>
</a>
</g>
</g>
<!-- Node22&#45;&gt;Node24 -->
<g id="edge41_Node000022_Node000024" class="edge">
<title>Node22&#45;&gt;Node24</title>
<g id="a_edge41_Node000022_Node000024"><a xlink:title=" ">
<path fill="none" stroke="#63b8ff" d="M841,-197.87C841,-191.22 841,-181.63 841,-172.28"/>
<polygon fill="#63b8ff" stroke="#63b8ff" points="844.5,-172.01 841,-162.01 837.5,-172.01 844.5,-172.01"/>
</a>
</g>
</g>
<!-- Node23&#45;&gt;Node3 -->
<g id="edge40_Node000023_Node000003" class="edge">
<title>Node23&#45;&gt;Node3</title>
<g id="a_edge40_Node000023_Node000003"><a xlink:title=" ">
<path fill="none" stroke="#63b8ff" d="M832.2,-55.25C922.01,-43.28 1048.33,-26.45 1117.62,-17.21"/>
<polygon fill="#63b8ff" stroke="#63b8ff" points="1118.38,-20.64 1127.83,-15.85 1117.45,-13.71 1118.38,-20.64"/>
</a>
</g>
</g>
<!-- Node24&#45;&gt;Node3 -->
<g id="edge42_Node000024_Node000003" class="edge">
<title>Node24&#45;&gt;Node3</title>
<g id="a_edge42_Node000024_Node000003"><a xlink:title=" ">
<path fill="none" stroke="#63b8ff" d="M889.09,-120.87C911.02,-111.18 936.96,-98.64 959,-85 977.3,-73.68 977.73,-64.58 997,-55 1035.38,-35.92 1082.79,-24.41 1117.96,-17.89"/>
<polygon fill="#63b8ff" stroke="#63b8ff" points="1118.76,-21.3 1127.99,-16.11 1117.53,-14.41 1118.76,-21.3"/>
</a>
</g>
</g>
<!-- Node24&#45;&gt;Node23 -->
<g id="edge43_Node000024_Node000023" class="edge">
<title>Node24&#45;&gt;Node23</title>
<g id="a_edge43_Node000024_Node000023"><a xlink:title=" ">
<path fill="none" stroke="#63b8ff" d="M809.5,-120.96C794.14,-111.42 775.72,-99.99 760.37,-90.47"/>
<polygon fill="#63b8ff" stroke="#63b8ff" points="762.09,-87.41 751.74,-85.11 758.39,-93.36 762.09,-87.41"/>
</a>
</g>
</g>
<!-- Node25 -->
<g id="Node000025" class="node">
<title>Node25</title>
<g id="a_Node000025"><a xlink:title=" ">
<polygon fill="#e0e0e0" stroke="#999999" points="949.5,-79.5 850.5,-79.5 850.5,-60.5 949.5,-60.5 949.5,-79.5"/>
<text text-anchor="middle" x="900" y="-67.5" font-family="Helvetica,sans-Serif" font-size="10.00">TwoDFieldBase.h</text>
</a>
</g>
</g>
<!-- Node24&#45;&gt;Node25 -->
<g id="edge44_Node000024_Node000025" class="edge">
<title>Node24&#45;&gt;Node25</title>
<g id="a_edge44_Node000024_Node000025"><a xlink:title=" ">
<path fill="none" stroke="#63b8ff" d="M857.75,-120.77C866.6,-110.34 877.35,-97.68 885.79,-87.73"/>
<polygon fill="#63b8ff" stroke="#63b8ff" points="888.71,-89.71 892.51,-79.82 883.37,-85.18 888.71,-89.71"/>
</a>
</g>
</g>
<!-- Node26&#45;&gt;Node3 -->
<g id="edge46_Node000026_Node000003" class="edge">
<title>Node26&#45;&gt;Node3</title>
<g id="a_edge46_Node000026_Node000003"><a xlink:title=" ">
<path fill="none" stroke="#63b8ff" d="M276.2,-197.87C221.58,-175.11 87.03,-111.36 141,-55 175.12,-19.37 916.74,-12.09 1117.99,-10.77"/>
<polygon fill="#63b8ff" stroke="#63b8ff" points="1118.02,-14.27 1128,-10.7 1117.97,-7.27 1118.02,-14.27"/>
</a>
</g>
</g>
<!-- Node27&#45;&gt;Node3 -->
<g id="edge48_Node000027_Node000003" class="edge">
<title>Node27&#45;&gt;Node3</title>
<g id="a_edge48_Node000027_Node000003"><a xlink:title=" ">
<path fill="none" stroke="#63b8ff" d="M536.33,-197.87C534.83,-171.53 534.3,-91.74 579,-55 620.17,-21.17 982.71,-12.94 1117.67,-11.04"/>
<polygon fill="#63b8ff" stroke="#63b8ff" points="1117.79,-14.54 1127.74,-10.9 1117.7,-7.54 1117.79,-14.54"/>
</a>
</g>
</g>
<!-- Node28&#45;&gt;Node3 -->
<g id="edge50_Node000028_Node000003" class="edge">
<title>Node28&#45;&gt;Node3</title>
<g id="a_edge50_Node000028_Node000003"><a xlink:title=" ">
<path fill="none" stroke="#63b8ff" d="M671.06,-197.86C654.83,-190.63 633.77,-178.77 621,-162 591.59,-123.37 566.04,-90.64 599,-55 633.84,-17.33 984.83,-11.49 1117.54,-10.63"/>
<polygon fill="#63b8ff" stroke="#63b8ff" points="1117.85,-14.13 1127.83,-10.57 1117.81,-7.13 1117.85,-14.13"/>
</a>
</g>
</g>
</g>
</svg>
