<?xml version="1.0" encoding="UTF-8" standalone="no"?>
<!DOCTYPE svg PUBLIC "-//W3C//DTD SVG 1.1//EN"
 "http://www.w3.org/Graphics/SVG/1.1/DTD/svg11.dtd">
<!-- Generated by graphviz version 2.43.0 (0)
 -->
<!-- Title: Source/MainComponent.h Pages: 1 -->
<svg width="1277pt" height="214pt"
 viewBox="0.00 0.00 1276.50 214.00" xmlns="http://www.w3.org/2000/svg" xmlns:xlink="http://www.w3.org/1999/xlink">
<g id="graph0" class="graph" transform="scale(1 1) rotate(0) translate(4 210)">
<title>Source/MainComponent.h</title>
<!-- Node1 -->
<g id="Node000001" class="node">
<title>Node1</title>
<g id="a_Node000001"><a xlink:title=" ">
<polygon fill="#999999" stroke="#666666" points="677.5,-206 535.5,-206 535.5,-187 677.5,-187 677.5,-206"/>
<text text-anchor="middle" x="606.5" y="-194" font-family="Helvetica,sans-Serif" font-size="10.00">Source/MainComponent.h</text>
</a>
</g>
</g>
<!-- Node2 -->
<g id="Node000002" class="node">
<title>Node2</title>
<g id="a_Node000002"><a xlink:title=" ">
<polygon fill="#e0e0e0" stroke="#999999" points="646.5,-19 566.5,-19 566.5,0 646.5,0 646.5,-19"/>
<text text-anchor="middle" x="606.5" y="-7" font-family="Helvetica,sans-Serif" font-size="10.00">JuceHeader.h</text>
</a>
</g>
</g>
<!-- Node1&#45;&gt;Node2 -->
<g id="edge1_Node000001_Node000002" class="edge">
<title>Node1&#45;&gt;Node2</title>
<g id="a_edge1_Node000001_Node000002"><a xlink:title=" ">
<path fill="none" stroke="#63b8ff" d="M606.5,-186.58C606.5,-158.07 606.5,-68.74 606.5,-29.41"/>
<polygon fill="#63b8ff" stroke="#63b8ff" points="610,-29.33 606.5,-19.33 603,-29.33 610,-29.33"/>
</a>
</g>
</g>
<!-- Node3 -->
<g id="Node000003" class="node">
<title>Node3</title>
<g id="a_Node000003"><a xlink:href="UmsciAppConfiguration_8h.html" target="_top" xlink:title=" ">
<polygon fill="white" stroke="#666666" points="1268.5,-145.5 1128.5,-145.5 1128.5,-126.5 1268.5,-126.5 1268.5,-145.5"/>
<text text-anchor="middle" x="1198.5" y="-133.5" font-family="Helvetica,sans-Serif" font-size="10.00">UmsciAppConfiguration.h</text>
</a>
</g>
</g>
<!-- Node1&#45;&gt;Node3 -->
<g id="edge2_Node000001_Node000003" class="edge">
<title>Node1&#45;&gt;Node3</title>
<g id="a_edge2_Node000001_Node000003"><a xlink:title=" ">
<path fill="none" stroke="#63b8ff" d="M677.67,-191.33C776.92,-185.06 962.4,-171.69 1119.5,-151 1127.55,-149.94 1136.03,-148.64 1144.33,-147.26"/>
<polygon fill="#63b8ff" stroke="#63b8ff" points="1145.05,-150.68 1154.32,-145.54 1143.87,-143.78 1145.05,-150.68"/>
</a>
</g>
</g>
<!-- Node5 -->
<g id="Node000005" class="node">
<title>Node5</title>
<g id="a_Node000005"><a xlink:href="UmsciExternalControlComponent_8h.html" target="_top" xlink:title=" ">
<polygon fill="white" stroke="#666666" points="308.5,-79.5 120.5,-79.5 120.5,-60.5 308.5,-60.5 308.5,-79.5"/>
<text text-anchor="middle" x="214.5" y="-67.5" font-family="Helvetica,sans-Serif" font-size="10.00">UmsciExternalControlComponent.h</text>
</a>
</g>
</g>
<!-- Node1&#45;&gt;Node5 -->
<g id="edge5_Node000001_Node000005" class="edge">
<title>Node1&#45;&gt;Node5</title>
<g id="a_edge5_Node000001_Node000005"><a xlink:title=" ">
<path fill="none" stroke="#63b8ff" d="M535.38,-196.38C439.77,-196.03 276.76,-189.57 233.5,-151 216.38,-135.74 213.27,-108.12 213.32,-89.67"/>
<polygon fill="#63b8ff" stroke="#63b8ff" points="216.82,-89.68 213.67,-79.56 209.83,-89.44 216.82,-89.68"/>
</a>
</g>
</g>
<!-- Node8 -->
<g id="Node000008" class="node">
<title>Node8</title>
<g id="a_Node000008"><a xlink:href="UmsciZeroconfDiscoverComboComponent_8h.html" target="_top" xlink:title=" ">
<polygon fill="white" stroke="#666666" points="802.5,-151 634.5,-151 634.5,-121 802.5,-121 802.5,-151"/>
<text text-anchor="start" x="642.5" y="-139" font-family="Helvetica,sans-Serif" font-size="10.00">UmsciZeroconfDiscoverCombo</text>
<text text-anchor="middle" x="718.5" y="-128" font-family="Helvetica,sans-Serif" font-size="10.00">Component.h</text>
</a>
</g>
</g>
<!-- Node1&#45;&gt;Node8 -->
<g id="edge9_Node000001_Node000008" class="edge">
<title>Node1&#45;&gt;Node8</title>
<g id="a_edge9_Node000001_Node000008"><a xlink:title=" ">
<path fill="none" stroke="#63b8ff" d="M623.03,-186.87C638.65,-178.71 662.6,-166.2 682.61,-155.75"/>
<polygon fill="#63b8ff" stroke="#63b8ff" points="684.23,-158.85 691.48,-151.11 680.99,-152.64 684.23,-158.85"/>
</a>
</g>
</g>
<!-- Node10 -->
<g id="Node000010" class="node">
<title>Node10</title>
<g id="a_Node000010"><a xlink:href="MidiController_8h.html" target="_top" xlink:title=" ">
<polygon fill="white" stroke="#666666" points="336.5,-145.5 242.5,-145.5 242.5,-126.5 336.5,-126.5 336.5,-145.5"/>
<text text-anchor="middle" x="289.5" y="-133.5" font-family="Helvetica,sans-Serif" font-size="10.00">MidiController.h</text>
</a>
</g>
</g>
<!-- Node1&#45;&gt;Node10 -->
<g id="edge12_Node000001_Node000010" class="edge">
<title>Node1&#45;&gt;Node10</title>
<g id="a_edge12_Node000001_Node000010"><a xlink:title=" ">
<path fill="none" stroke="#63b8ff" d="M548.98,-186.98C495.94,-178.82 415.12,-165.61 345.5,-151 341.08,-150.07 336.48,-149.04 331.89,-147.96"/>
<polygon fill="#63b8ff" stroke="#63b8ff" points="332.52,-144.51 321.98,-145.56 330.88,-151.31 332.52,-144.51"/>
</a>
</g>
</g>
<!-- Node11 -->
<g id="Node000011" class="node">
<title>Node11</title>
<g id="a_Node000011"><a xlink:href="OscController_8h.html" target="_top" xlink:title=" ">
<polygon fill="white" stroke="#666666" points="446,-145.5 355,-145.5 355,-126.5 446,-126.5 446,-145.5"/>
<text text-anchor="middle" x="400.5" y="-133.5" font-family="Helvetica,sans-Serif" font-size="10.00">OscController.h</text>
</a>
</g>
</g>
<!-- Node1&#45;&gt;Node11 -->
<g id="edge16_Node000001_Node000011" class="edge">
<title>Node1&#45;&gt;Node11</title>
<g id="a_edge16_Node000001_Node000011"><a xlink:title=" ">
<path fill="none" stroke="#63b8ff" d="M576.55,-186.99C540.54,-176.77 480,-159.58 440.15,-148.26"/>
<polygon fill="#63b8ff" stroke="#63b8ff" points="441.07,-144.88 430.49,-145.52 439.15,-151.62 441.07,-144.88"/>
</a>
</g>
</g>
<!-- Node12 -->
<g id="Node000012" class="node">
<title>Node12</title>
<g id="a_Node000012"><a xlink:href="DbprController_8h.html" target="_top" xlink:title=" ">
<polygon fill="white" stroke="#666666" points="916.5,-145.5 820.5,-145.5 820.5,-126.5 916.5,-126.5 916.5,-145.5"/>
<text text-anchor="middle" x="868.5" y="-133.5" font-family="Helvetica,sans-Serif" font-size="10.00">DbprController.h</text>
</a>
</g>
</g>
<!-- Node1&#45;&gt;Node12 -->
<g id="edge19_Node000001_Node000012" class="edge">
<title>Node1&#45;&gt;Node12</title>
<g id="a_edge19_Node000001_Node000012"><a xlink:title=" ">
<path fill="none" stroke="#63b8ff" d="M647.41,-186.96C688.84,-178.23 754.73,-164.13 811.5,-151 815.69,-150.03 820.04,-149 824.4,-147.96"/>
<polygon fill="#63b8ff" stroke="#63b8ff" points="825.58,-151.27 834.48,-145.52 823.93,-144.47 825.58,-151.27"/>
</a>
</g>
</g>
<!-- Node14 -->
<g id="Node000014" class="node">
<title>Node14</title>
<g id="a_Node000014"><a xlink:href="UmsciDbprProjectComponent_8h.html" target="_top" xlink:title=" ">
<polygon fill="white" stroke="#666666" points="1110.5,-151 934.5,-151 934.5,-121 1110.5,-121 1110.5,-151"/>
<text text-anchor="start" x="942.5" y="-139" font-family="Helvetica,sans-Serif" font-size="10.00">UmsciPaintNControlComponents</text>
<text text-anchor="middle" x="1022.5" y="-128" font-family="Helvetica,sans-Serif" font-size="10.00">/UmsciDbprProjectComponent.h</text>
</a>
</g>
</g>
<!-- Node1&#45;&gt;Node14 -->
<g id="edge22_Node000001_Node000014" class="edge">
<title>Node1&#45;&gt;Node14</title>
<g id="a_edge22_Node000001_Node000014"><a xlink:title=" ">
<path fill="none" stroke="#63b8ff" d="M668.26,-186.97C730.34,-178.38 829.05,-164.67 924.37,-151.16"/>
<polygon fill="#63b8ff" stroke="#63b8ff" points="925.06,-154.59 934.47,-149.72 924.08,-147.66 925.06,-154.59"/>
</a>
</g>
</g>
<!-- Node15 -->
<g id="Node000015" class="node">
<title>Node15</title>
<g id="a_Node000015"><a xlink:href="UmsciSnapshotComponent_8h.html" target="_top" xlink:title=" ">
<polygon fill="white" stroke="#666666" points="578.5,-85 402.5,-85 402.5,-55 578.5,-55 578.5,-85"/>
<text text-anchor="start" x="410.5" y="-73" font-family="Helvetica,sans-Serif" font-size="10.00">UmsciPaintNControlComponents</text>
<text text-anchor="middle" x="490.5" y="-62" font-family="Helvetica,sans-Serif" font-size="10.00">/UmsciSnapshotComponent.h</text>
</a>
</g>
</g>
<!-- Node1&#45;&gt;Node15 -->
<g id="edge25_Node000001_Node000015" class="edge">
<title>Node1&#45;&gt;Node15</title>
<g id="a_edge25_Node000001_Node000015"><a xlink:title=" ">
<path fill="none" stroke="#63b8ff" d="M598.53,-186.94C580.64,-167.74 536.83,-120.73 510.83,-92.82"/>
<polygon fill="#63b8ff" stroke="#63b8ff" points="513.07,-90.09 503.69,-85.16 507.95,-94.86 513.07,-90.09"/>
</a>
</g>
</g>
<!-- Node3&#45;&gt;Node2 -->
<g id="edge3_Node000003_Node000002" class="edge">
<title>Node3&#45;&gt;Node2</title>
<g id="a_edge3_Node000003_Node000002"><a xlink:title=" ">
<path fill="none" stroke="#63b8ff" d="M1202.06,-126.17C1208.01,-109.78 1217.64,-74.55 1199.5,-55 1162.93,-15.58 793.19,-10.85 656.74,-10.45"/>
<polygon fill="#63b8ff" stroke="#63b8ff" points="656.57,-6.95 646.56,-10.43 656.55,-13.95 656.57,-6.95"/>
</a>
</g>
</g>
<!-- Node4 -->
<g id="Node000004" class="node">
<title>Node4</title>
<g id="a_Node000004"><a xlink:title=" ">
<polygon fill="#e0e0e0" stroke="#999999" points="1190.5,-79.5 1056.5,-79.5 1056.5,-60.5 1190.5,-60.5 1190.5,-79.5"/>
<text text-anchor="middle" x="1123.5" y="-67.5" font-family="Helvetica,sans-Serif" font-size="10.00">AppConfigurationBase.h</text>
</a>
</g>
</g>
<!-- Node3&#45;&gt;Node4 -->
<g id="edge4_Node000003_Node000004" class="edge">
<title>Node3&#45;&gt;Node4</title>
<g id="a_edge4_Node000003_Node000004"><a xlink:title=" ">
<path fill="none" stroke="#63b8ff" d="M1188.39,-126.37C1176.49,-116.21 1156.5,-99.16 1141.85,-86.65"/>
<polygon fill="#63b8ff" stroke="#63b8ff" points="1143.81,-83.73 1133.94,-79.91 1139.27,-89.06 1143.81,-83.73"/>
</a>
</g>
</g>
<!-- Node5&#45;&gt;Node2 -->
<g id="edge6_Node000005_Node000002" class="edge">
<title>Node5&#45;&gt;Node2</title>
<g id="a_edge6_Node000005_Node000002"><a xlink:title=" ">
<path fill="none" stroke="#63b8ff" d="M271.5,-60.49C348.11,-49.06 483.07,-28.92 556.13,-18.02"/>
<polygon fill="#63b8ff" stroke="#63b8ff" points="557.07,-21.42 566.44,-16.48 556.04,-14.49 557.07,-21.42"/>
</a>
</g>
</g>
<!-- Node6 -->
<g id="Node000006" class="node">
<title>Node6</title>
<g id="a_Node000006"><a xlink:title=" ">
<polygon fill="#e0e0e0" stroke="#999999" points="185,-19 0,-19 0,0 185,0 185,-19"/>
<text text-anchor="middle" x="92.5" y="-7" font-family="Helvetica,sans-Serif" font-size="10.00">MidiCommandRangeAssignment.h</text>
</a>
</g>
</g>
<!-- Node5&#45;&gt;Node6 -->
<g id="edge7_Node000005_Node000006" class="edge">
<title>Node5&#45;&gt;Node6</title>
<g id="a_edge7_Node000005_Node000006"><a xlink:title=" ">
<path fill="none" stroke="#63b8ff" d="M196.76,-60.49C176.43,-50.75 142.89,-34.66 119.36,-23.38"/>
<polygon fill="#63b8ff" stroke="#63b8ff" points="120.79,-20.18 110.26,-19.02 117.76,-26.5 120.79,-20.18"/>
</a>
</g>
</g>
<!-- Node7 -->
<g id="Node000007" class="node">
<title>Node7</title>
<g id="a_Node000007"><a xlink:title=" ">
<polygon fill="#e0e0e0" stroke="#999999" points="343.5,-19 203.5,-19 203.5,0 343.5,0 343.5,-19"/>
<text text-anchor="middle" x="273.5" y="-7" font-family="Helvetica,sans-Serif" font-size="10.00">MidiLearnerComponent.h</text>
</a>
</g>
</g>
<!-- Node5&#45;&gt;Node7 -->
<g id="edge8_Node000005_Node000007" class="edge">
<title>Node5&#45;&gt;Node7</title>
<g id="a_edge8_Node000005_Node000007"><a xlink:title=" ">
<path fill="none" stroke="#63b8ff" d="M223.21,-60.37C232.18,-51.47 246.38,-37.39 257.41,-26.45"/>
<polygon fill="#63b8ff" stroke="#63b8ff" points="260.12,-28.69 264.76,-19.17 255.19,-23.72 260.12,-28.69"/>
</a>
</g>
</g>
<!-- Node8&#45;&gt;Node2 -->
<g id="edge10_Node000008_Node000002" class="edge">
<title>Node8&#45;&gt;Node2</title>
<g id="a_edge10_Node000008_Node000002"><a xlink:title=" ">
<path fill="none" stroke="#63b8ff" d="M701.4,-120.86C690.15,-111.23 675.37,-97.92 663.5,-85 646.53,-66.53 629.35,-43.31 618.35,-27.75"/>
<polygon fill="#63b8ff" stroke="#63b8ff" points="620.95,-25.36 612.36,-19.16 615.21,-29.37 620.95,-25.36"/>
</a>
</g>
</g>
<!-- Node9 -->
<g id="Node000009" class="node">
<title>Node9</title>
<g id="a_Node000009"><a xlink:title=" ">
<polygon fill="#e0e0e0" stroke="#999999" points="840.5,-79.5 672.5,-79.5 672.5,-60.5 840.5,-60.5 840.5,-79.5"/>
<text text-anchor="middle" x="756.5" y="-67.5" font-family="Helvetica,sans-Serif" font-size="10.00">ZeroconfDiscoverComponent.h</text>
</a>
</g>
</g>
<!-- Node8&#45;&gt;Node9 -->
<g id="edge11_Node000008_Node000009" class="edge">
<title>Node8&#45;&gt;Node9</title>
<g id="a_edge11_Node000008_Node000009"><a xlink:title=" ">
<path fill="none" stroke="#63b8ff" d="M726.93,-120.8C732.57,-111.31 740.02,-98.76 746.03,-88.63"/>
<polygon fill="#63b8ff" stroke="#63b8ff" points="749.15,-90.23 751.25,-79.84 743.13,-86.66 749.15,-90.23"/>
</a>
</g>
</g>
<!-- Node10&#45;&gt;Node2 -->
<g id="edge13_Node000010_Node000002" class="edge">
<title>Node10&#45;&gt;Node2</title>
<g id="a_edge13_Node000010_Node000002"><a xlink:title=" ">
<path fill="none" stroke="#63b8ff" d="M296.59,-126.37C310.8,-109.69 344.62,-73.06 381.5,-55 437.47,-27.58 509.1,-17.06 556.33,-13.02"/>
<polygon fill="#63b8ff" stroke="#63b8ff" points="556.62,-16.5 566.31,-12.23 556.07,-9.53 556.62,-16.5"/>
</a>
</g>
</g>
<!-- Node10&#45;&gt;Node5 -->
<g id="edge15_Node000010_Node000005" class="edge">
<title>Node10&#45;&gt;Node5</title>
<g id="a_edge15_Node000010_Node000005"><a xlink:title=" ">
<path fill="none" stroke="#63b8ff" d="M279.39,-126.37C267.49,-116.21 247.5,-99.16 232.85,-86.65"/>
<polygon fill="#63b8ff" stroke="#63b8ff" points="234.81,-83.73 224.94,-79.91 230.27,-89.06 234.81,-83.73"/>
</a>
</g>
</g>
<!-- Node10&#45;&gt;Node6 -->
<g id="edge14_Node000010_Node000006" class="edge">
<title>Node10&#45;&gt;Node6</title>
<g id="a_edge14_Node000010_Node000006"><a xlink:title=" ">
<path fill="none" stroke="#63b8ff" d="M242.11,-134.24C201.94,-130.99 145.58,-119.91 111.5,-85 97.11,-70.25 93.16,-46.2 92.3,-29.43"/>
<polygon fill="#63b8ff" stroke="#63b8ff" points="95.8,-29.11 92.1,-19.18 88.8,-29.25 95.8,-29.11"/>
</a>
</g>
</g>
<!-- Node11&#45;&gt;Node2 -->
<g id="edge17_Node000011_Node000002" class="edge">
<title>Node11&#45;&gt;Node2</title>
<g id="a_edge17_Node000011_Node000002"><a xlink:title=" ">
<path fill="none" stroke="#63b8ff" d="M396.24,-126.4C389,-110.39 376.62,-75.77 393.5,-55 413.57,-30.3 499.51,-18.83 555.91,-13.88"/>
<polygon fill="#63b8ff" stroke="#63b8ff" points="556.4,-17.36 566.07,-13.03 555.81,-10.38 556.4,-17.36"/>
</a>
</g>
</g>
<!-- Node11&#45;&gt;Node5 -->
<g id="edge18_Node000011_Node000005" class="edge">
<title>Node11&#45;&gt;Node5</title>
<g id="a_edge18_Node000011_Node000005"><a xlink:title=" ">
<path fill="none" stroke="#63b8ff" d="M375.42,-126.37C342.88,-115.17 285.95,-95.58 249.26,-82.96"/>
<polygon fill="#63b8ff" stroke="#63b8ff" points="250.08,-79.54 239.48,-79.6 247.8,-86.16 250.08,-79.54"/>
</a>
</g>
</g>
<!-- Node12&#45;&gt;Node2 -->
<g id="edge20_Node000012_Node000002" class="edge">
<title>Node12&#45;&gt;Node2</title>
<g id="a_edge20_Node000012_Node000002"><a xlink:title=" ">
<path fill="none" stroke="#63b8ff" d="M869.24,-126.3C870.13,-109.81 869.48,-73.97 849.5,-55 822.39,-29.27 719.55,-17.95 656.67,-13.34"/>
<polygon fill="#63b8ff" stroke="#63b8ff" points="656.78,-9.84 646.56,-12.63 656.29,-16.82 656.78,-9.84"/>
</a>
</g>
</g>
<!-- Node13 -->
<g id="Node000013" class="node">
<title>Node13</title>
<g id="a_Node000013"><a xlink:href="dbprProjectUtils_8h.html" target="_top" xlink:title=" ">
<polygon fill="white" stroke="#666666" points="1000.5,-79.5 896.5,-79.5 896.5,-60.5 1000.5,-60.5 1000.5,-79.5"/>
<text text-anchor="middle" x="948.5" y="-67.5" font-family="Helvetica,sans-Serif" font-size="10.00">dbprProjectUtils.h</text>
</a>
</g>
</g>
<!-- Node12&#45;&gt;Node13 -->
<g id="edge21_Node000012_Node000013" class="edge">
<title>Node12&#45;&gt;Node13</title>
<g id="a_edge21_Node000012_Node000013"><a xlink:title=" ">
<path fill="none" stroke="#63b8ff" d="M879.29,-126.37C892.17,-116.06 913.94,-98.65 929.63,-86.09"/>
<polygon fill="#63b8ff" stroke="#63b8ff" points="932,-88.68 937.63,-79.7 927.63,-83.21 932,-88.68"/>
</a>
</g>
</g>
<!-- Node14&#45;&gt;Node2 -->
<g id="edge23_Node000014_Node000002" class="edge">
<title>Node14&#45;&gt;Node2</title>
<g id="a_edge23_Node000014_Node000002"><a xlink:title=" ">
<path fill="none" stroke="#63b8ff" d="M1024.82,-120.83C1026.88,-102.76 1027.25,-71.86 1009.5,-55 984.37,-31.12 759.3,-17.64 656.87,-12.7"/>
<polygon fill="#63b8ff" stroke="#63b8ff" points="656.92,-9.2 646.76,-12.22 656.59,-16.19 656.92,-9.2"/>
</a>
</g>
</g>
<!-- Node14&#45;&gt;Node13 -->
<g id="edge24_Node000014_Node000013" class="edge">
<title>Node14&#45;&gt;Node13</title>
<g id="a_edge24_Node000014_Node000013"><a xlink:title=" ">
<path fill="none" stroke="#63b8ff" d="M1006.08,-120.8C994.31,-110.62 978.48,-96.93 966.4,-86.48"/>
<polygon fill="#63b8ff" stroke="#63b8ff" points="968.58,-83.74 958.73,-79.84 964,-89.03 968.58,-83.74"/>
</a>
</g>
</g>
<!-- Node15&#45;&gt;Node2 -->
<g id="edge26_Node000015_Node000002" class="edge">
<title>Node15&#45;&gt;Node2</title>
<g id="a_edge26_Node000015_Node000002"><a xlink:title=" ">
<path fill="none" stroke="#63b8ff" d="M518.28,-54.99C537.12,-45.49 561.85,-33.02 580.34,-23.69"/>
<polygon fill="#63b8ff" stroke="#63b8ff" points="582.02,-26.77 589.37,-19.14 578.86,-20.52 582.02,-26.77"/>
</a>
</g>
</g>
</g>
</svg>
