<?xml version="1.0" encoding="UTF-8" standalone="no"?>
<!DOCTYPE svg PUBLIC "-//W3C//DTD SVG 1.1//EN"
 "http://www.w3.org/Graphics/SVG/1.1/DTD/svg11.dtd">
<!-- Generated by graphviz version 2.43.0 (0)
 -->
<!-- Title: Source/MainComponent.h Pages: 1 -->
<svg width="1408pt" height="214pt"
 viewBox="0.00 0.00 1407.97 214.00" xmlns="http://www.w3.org/2000/svg" xmlns:xlink="http://www.w3.org/1999/xlink">
<g id="graph0" class="graph" transform="scale(1 1) rotate(0) translate(4 210)">
<title>Source/MainComponent.h</title>
<!-- Node1 -->
<g id="Node000001" class="node">
<title>Node1</title>
<g id="a_Node000001"><a xlink:title=" ">
<polygon fill="#999999" stroke="#666666" points="812.5,-206 670.5,-206 670.5,-187 812.5,-187 812.5,-206"/>
<text text-anchor="middle" x="741.5" y="-194" font-family="Helvetica,sans-Serif" font-size="10.00">Source/MainComponent.h</text>
</a>
</g>
</g>
<!-- Node2 -->
<g id="Node000002" class="node">
<title>Node2</title>
<g id="a_Node000002"><a xlink:title=" ">
<polygon fill="#e0e0e0" stroke="#999999" points="788.5,-19 708.5,-19 708.5,0 788.5,0 788.5,-19"/>
<text text-anchor="middle" x="748.5" y="-7" font-family="Helvetica,sans-Serif" font-size="10.00">JuceHeader.h</text>
</a>
</g>
</g>
<!-- Node1&#45;&gt;Node2 -->
<g id="edge1_Node000001_Node000002" class="edge">
<title>Node1&#45;&gt;Node2</title>
<g id="a_edge1_Node000001_Node000002"><a xlink:title=" ">
<path fill="none" stroke="#63b8ff" d="M812.57,-195.48C969.05,-194.73 1332.66,-188.89 1372.5,-151 1403.52,-121.5 1409.69,-86.32 1380.5,-55 1341.17,-12.81 942.02,-9.88 799.08,-10.2"/>
<polygon fill="#63b8ff" stroke="#63b8ff" points="798.83,-6.7 788.84,-10.23 798.85,-13.7 798.83,-6.7"/>
</a>
</g>
</g>
<!-- Node3 -->
<g id="Node000003" class="node">
<title>Node3</title>
<g id="a_Node000003"><a xlink:href="UmsciAppConfiguration_8h.html" target="_top" xlink:title=" ">
<polygon fill="white" stroke="#666666" points="869.5,-145.5 729.5,-145.5 729.5,-126.5 869.5,-126.5 869.5,-145.5"/>
<text text-anchor="middle" x="799.5" y="-133.5" font-family="Helvetica,sans-Serif" font-size="10.00">UmsciAppConfiguration.h</text>
</a>
</g>
</g>
<!-- Node1&#45;&gt;Node3 -->
<g id="edge2_Node000001_Node000003" class="edge">
<title>Node1&#45;&gt;Node3</title>
<g id="a_edge2_Node000001_Node000003"><a xlink:title=" ">
<path fill="none" stroke="#63b8ff" d="M750.06,-186.87C758.88,-177.97 772.84,-163.89 783.68,-152.95"/>
<polygon fill="#63b8ff" stroke="#63b8ff" points="786.35,-155.23 790.91,-145.67 781.38,-150.3 786.35,-155.23"/>
</a>
</g>
</g>
<!-- Node5 -->
<g id="Node000005" class="node">
<title>Node5</title>
<g id="a_Node000005"><a xlink:href="UmsciExternalControlComponent_8h.html" target="_top" xlink:title=" ">
<polygon fill="white" stroke="#666666" points="308.5,-79.5 120.5,-79.5 120.5,-60.5 308.5,-60.5 308.5,-79.5"/>
<text text-anchor="middle" x="214.5" y="-67.5" font-family="Helvetica,sans-Serif" font-size="10.00">UmsciExternalControlComponent.h</text>
</a>
</g>
</g>
<!-- Node1&#45;&gt;Node5 -->
<g id="edge5_Node000001_Node000005" class="edge">
<title>Node1&#45;&gt;Node5</title>
<g id="a_edge5_Node000001_Node000005"><a xlink:title=" ">
<path fill="none" stroke="#63b8ff" d="M670.44,-192.64C567.27,-187.7 381.55,-175.64 319.5,-151 300.45,-143.43 256.74,-107.37 232.15,-86.34"/>
<polygon fill="#63b8ff" stroke="#63b8ff" points="234.18,-83.47 224.32,-79.6 229.61,-88.77 234.18,-83.47"/>
</a>
</g>
</g>
<!-- Node8 -->
<g id="Node000008" class="node">
<title>Node8</title>
<g id="a_Node000008"><a xlink:href="UmsciZeroconfDiscoverComboComponent_8h.html" target="_top" xlink:title=" ">
<polygon fill="white" stroke="#666666" points="1363.5,-151 1195.5,-151 1195.5,-121 1363.5,-121 1363.5,-151"/>
<text text-anchor="start" x="1203.5" y="-139" font-family="Helvetica,sans-Serif" font-size="10.00">UmsciZeroconfDiscoverCombo</text>
<text text-anchor="middle" x="1279.5" y="-128" font-family="Helvetica,sans-Serif" font-size="10.00">Component.h</text>
</a>
</g>
</g>
<!-- Node1&#45;&gt;Node8 -->
<g id="edge9_Node000001_Node000008" class="edge">
<title>Node1&#45;&gt;Node8</title>
<g id="a_edge9_Node000001_Node000008"><a xlink:title=" ">
<path fill="none" stroke="#63b8ff" d="M812.53,-189.49C898.32,-181.99 1047.27,-168.19 1185.05,-151.14"/>
<polygon fill="#63b8ff" stroke="#63b8ff" points="1185.89,-154.56 1195.38,-149.86 1185.02,-147.62 1185.89,-154.56"/>
</a>
</g>
</g>
<!-- Node10 -->
<g id="Node000010" class="node">
<title>Node10</title>
<g id="a_Node000010"><a xlink:href="MidiController_8h.html" target="_top" xlink:title=" ">
<polygon fill="white" stroke="#666666" points="264.5,-145.5 170.5,-145.5 170.5,-126.5 264.5,-126.5 264.5,-145.5"/>
<text text-anchor="middle" x="217.5" y="-133.5" font-family="Helvetica,sans-Serif" font-size="10.00">MidiController.h</text>
</a>
</g>
</g>
<!-- Node1&#45;&gt;Node10 -->
<g id="edge12_Node000001_Node000010" class="edge">
<title>Node1&#45;&gt;Node10</title>
<g id="a_edge12_Node000001_Node000010"><a xlink:title=" ">
<path fill="none" stroke="#63b8ff" d="M670.25,-191.24C579.55,-185.22 418.23,-172.49 281.5,-151 275.53,-150.06 269.27,-148.91 263.11,-147.67"/>
<polygon fill="#63b8ff" stroke="#63b8ff" points="263.41,-144.16 252.9,-145.53 261.97,-151.01 263.41,-144.16"/>
</a>
</g>
</g>
<!-- Node11 -->
<g id="Node000011" class="node">
<title>Node11</title>
<g id="a_Node000011"><a xlink:href="OscController_8h.html" target="_top" xlink:title=" ">
<polygon fill="white" stroke="#666666" points="420,-145.5 329,-145.5 329,-126.5 420,-126.5 420,-145.5"/>
<text text-anchor="middle" x="374.5" y="-133.5" font-family="Helvetica,sans-Serif" font-size="10.00">OscController.h</text>
</a>
</g>
</g>
<!-- Node1&#45;&gt;Node11 -->
<g id="edge16_Node000001_Node000011" class="edge">
<title>Node1&#45;&gt;Node11</title>
<g id="a_edge16_Node000001_Node000011"><a xlink:title=" ">
<path fill="none" stroke="#63b8ff" d="M688.14,-186.99C619.26,-176.01 499.98,-157 430.06,-145.86"/>
<polygon fill="#63b8ff" stroke="#63b8ff" points="430.54,-142.39 420.11,-144.27 429.43,-149.3 430.54,-142.39"/>
</a>
</g>
</g>
<!-- Node12 -->
<g id="Node000012" class="node">
<title>Node12</title>
<g id="a_Node000012"><a xlink:href="DbprController_8h.html" target="_top" xlink:title=" ">
<polygon fill="white" stroke="#666666" points="1177.5,-145.5 1081.5,-145.5 1081.5,-126.5 1177.5,-126.5 1177.5,-145.5"/>
<text text-anchor="middle" x="1129.5" y="-133.5" font-family="Helvetica,sans-Serif" font-size="10.00">DbprController.h</text>
</a>
</g>
</g>
<!-- Node1&#45;&gt;Node12 -->
<g id="edge19_Node000001_Node000012" class="edge">
<title>Node1&#45;&gt;Node12</title>
<g id="a_edge19_Node000001_Node000012"><a xlink:title=" ">
<path fill="none" stroke="#63b8ff" d="M812.56,-188.18C879.82,-180.72 983.49,-167.86 1072.5,-151 1077.32,-150.09 1082.33,-149.02 1087.31,-147.9"/>
<polygon fill="#63b8ff" stroke="#63b8ff" points="1088.44,-151.23 1097.38,-145.53 1086.84,-144.41 1088.44,-151.23"/>
</a>
</g>
</g>
<!-- Node14 -->
<g id="Node000014" class="node">
<title>Node14</title>
<g id="a_Node000014"><a xlink:href="UmsciDbprProjectComponent_8h.html" target="_top" xlink:title=" ">
<polygon fill="white" stroke="#666666" points="1063.5,-151 887.5,-151 887.5,-121 1063.5,-121 1063.5,-151"/>
<text text-anchor="start" x="895.5" y="-139" font-family="Helvetica,sans-Serif" font-size="10.00">UmsciPaintNControlComponents</text>
<text text-anchor="middle" x="975.5" y="-128" font-family="Helvetica,sans-Serif" font-size="10.00">/UmsciDbprProjectComponent.h</text>
</a>
</g>
</g>
<!-- Node1&#45;&gt;Node14 -->
<g id="edge22_Node000001_Node000014" class="edge">
<title>Node1&#45;&gt;Node14</title>
<g id="a_edge22_Node000001_Node000014"><a xlink:title=" ">
<path fill="none" stroke="#63b8ff" d="M775.53,-186.99C810.45,-178.26 865.7,-164.45 909.29,-153.55"/>
<polygon fill="#63b8ff" stroke="#63b8ff" points="910.39,-156.89 919.24,-151.06 908.69,-150.09 910.39,-156.89"/>
</a>
</g>
</g>
<!-- Node15 -->
<g id="Node000015" class="node">
<title>Node15</title>
<g id="a_Node000015"><a xlink:href="UmsciSnapshotComponent_8h.html" target="_top" xlink:title=" ">
<polygon fill="white" stroke="#666666" points="578.5,-85 402.5,-85 402.5,-55 578.5,-55 578.5,-85"/>
<text text-anchor="start" x="410.5" y="-73" font-family="Helvetica,sans-Serif" font-size="10.00">UmsciPaintNControlComponents</text>
<text text-anchor="middle" x="490.5" y="-62" font-family="Helvetica,sans-Serif" font-size="10.00">/UmsciSnapshotComponent.h</text>
</a>
</g>
</g>
<!-- Node1&#45;&gt;Node15 -->
<g id="edge25_Node000001_Node000015" class="edge">
<title>Node1&#45;&gt;Node15</title>
<g id="a_edge25_Node000001_Node000015"><a xlink:title=" ">
<path fill="none" stroke="#63b8ff" d="M724.25,-186.94C684.04,-167 583.35,-117.06 528.15,-89.68"/>
<polygon fill="#63b8ff" stroke="#63b8ff" points="529.56,-86.47 519.05,-85.16 526.45,-92.74 529.56,-86.47"/>
</a>
</g>
</g>
<!-- Node16 -->
<g id="Node000016" class="node">
<title>Node16</title>
<g id="a_Node000016"><a xlink:href="UmsciUpmixParamsComponent_8h.html" target="_top" xlink:title=" ">
<polygon fill="white" stroke="#666666" points="780.5,-85 596.5,-85 596.5,-55 780.5,-55 780.5,-85"/>
<text text-anchor="start" x="604.5" y="-73" font-family="Helvetica,sans-Serif" font-size="10.00">UmsciPaintNControlComponents</text>
<text text-anchor="middle" x="688.5" y="-62" font-family="Helvetica,sans-Serif" font-size="10.00">/UmsciUpmixParamsComponent.h</text>
</a>
</g>
</g>
<!-- Node1&#45;&gt;Node16 -->
<g id="edge27_Node000001_Node000016" class="edge">
<title>Node1&#45;&gt;Node16</title>
<g id="a_edge27_Node000001_Node000016"><a xlink:title=" ">
<path fill="none" stroke="#63b8ff" d="M737.16,-186.71C732.8,-177.78 725.96,-163.53 720.5,-151 712.37,-132.32 703.83,-110.88 697.62,-94.9"/>
<polygon fill="#63b8ff" stroke="#63b8ff" points="700.77,-93.34 693.91,-85.27 694.24,-95.86 700.77,-93.34"/>
</a>
</g>
</g>
<!-- Node3&#45;&gt;Node2 -->
<g id="edge3_Node000003_Node000002" class="edge">
<title>Node3&#45;&gt;Node2</title>
<g id="a_edge3_Node000003_Node000002"><a xlink:title=" ">
<path fill="none" stroke="#63b8ff" d="M800.1,-126.12C800.78,-110.83 800.58,-78.87 789.5,-55 784.34,-43.88 775.36,-33.65 767.12,-25.81"/>
<polygon fill="#63b8ff" stroke="#63b8ff" points="769.38,-23.14 759.6,-19.07 764.72,-28.35 769.38,-23.14"/>
</a>
</g>
</g>
<!-- Node4 -->
<g id="Node000004" class="node">
<title>Node4</title>
<g id="a_Node000004"><a xlink:title=" ">
<polygon fill="#e0e0e0" stroke="#999999" points="970.5,-79.5 836.5,-79.5 836.5,-60.5 970.5,-60.5 970.5,-79.5"/>
<text text-anchor="middle" x="903.5" y="-67.5" font-family="Helvetica,sans-Serif" font-size="10.00">AppConfigurationBase.h</text>
</a>
</g>
</g>
<!-- Node3&#45;&gt;Node4 -->
<g id="edge4_Node000003_Node000004" class="edge">
<title>Node3&#45;&gt;Node4</title>
<g id="a_edge4_Node000003_Node000004"><a xlink:title=" ">
<path fill="none" stroke="#63b8ff" d="M813.53,-126.37C830.74,-115.78 860.16,-97.67 880.65,-85.06"/>
<polygon fill="#63b8ff" stroke="#63b8ff" points="882.68,-87.92 889.36,-79.7 879.01,-81.96 882.68,-87.92"/>
</a>
</g>
</g>
<!-- Node5&#45;&gt;Node2 -->
<g id="edge6_Node000005_Node000002" class="edge">
<title>Node5&#45;&gt;Node2</title>
<g id="a_edge6_Node000005_Node000002"><a xlink:title=" ">
<path fill="none" stroke="#63b8ff" d="M278.14,-60.48C292.71,-58.61 308.13,-56.68 322.5,-55 458.04,-39.14 618.16,-23.15 697.98,-15.37"/>
<polygon fill="#63b8ff" stroke="#63b8ff" points="698.62,-18.82 708.23,-14.37 697.94,-11.86 698.62,-18.82"/>
</a>
</g>
</g>
<!-- Node6 -->
<g id="Node000006" class="node">
<title>Node6</title>
<g id="a_Node000006"><a xlink:title=" ">
<polygon fill="#e0e0e0" stroke="#999999" points="185,-19 0,-19 0,0 185,0 185,-19"/>
<text text-anchor="middle" x="92.5" y="-7" font-family="Helvetica,sans-Serif" font-size="10.00">MidiCommandRangeAssignment.h</text>
</a>
</g>
</g>
<!-- Node5&#45;&gt;Node6 -->
<g id="edge7_Node000005_Node000006" class="edge">
<title>Node5&#45;&gt;Node6</title>
<g id="a_edge7_Node000005_Node000006"><a xlink:title=" ">
<path fill="none" stroke="#63b8ff" d="M196.76,-60.49C176.43,-50.75 142.89,-34.66 119.36,-23.38"/>
<polygon fill="#63b8ff" stroke="#63b8ff" points="120.79,-20.18 110.26,-19.02 117.76,-26.5 120.79,-20.18"/>
</a>
</g>
</g>
<!-- Node7 -->
<g id="Node000007" class="node">
<title>Node7</title>
<g id="a_Node000007"><a xlink:title=" ">
<polygon fill="#e0e0e0" stroke="#999999" points="343.5,-19 203.5,-19 203.5,0 343.5,0 343.5,-19"/>
<text text-anchor="middle" x="273.5" y="-7" font-family="Helvetica,sans-Serif" font-size="10.00">MidiLearnerComponent.h</text>
</a>
</g>
</g>
<!-- Node5&#45;&gt;Node7 -->
<g id="edge8_Node000005_Node000007" class="edge">
<title>Node5&#45;&gt;Node7</title>
<g id="a_edge8_Node000005_Node000007"><a xlink:title=" ">
<path fill="none" stroke="#63b8ff" d="M223.21,-60.37C232.18,-51.47 246.38,-37.39 257.41,-26.45"/>
<polygon fill="#63b8ff" stroke="#63b8ff" points="260.12,-28.69 264.76,-19.17 255.19,-23.72 260.12,-28.69"/>
</a>
</g>
</g>
<!-- Node8&#45;&gt;Node2 -->
<g id="edge10_Node000008_Node000002" class="edge">
<title>Node8&#45;&gt;Node2</title>
<g id="a_edge10_Node000008_Node000002"><a xlink:title=" ">
<path fill="none" stroke="#63b8ff" d="M1312.67,-120.94C1344.95,-105.37 1386.06,-79.26 1363.5,-55 1325.35,-14 938.63,-10.29 798.7,-10.31"/>
<polygon fill="#63b8ff" stroke="#63b8ff" points="798.66,-6.81 788.66,-10.32 798.67,-13.81 798.66,-6.81"/>
</a>
</g>
</g>
<!-- Node9 -->
<g id="Node000009" class="node">
<title>Node9</title>
<g id="a_Node000009"><a xlink:title=" ">
<polygon fill="#e0e0e0" stroke="#999999" points="1354.5,-79.5 1186.5,-79.5 1186.5,-60.5 1354.5,-60.5 1354.5,-79.5"/>
<text text-anchor="middle" x="1270.5" y="-67.5" font-family="Helvetica,sans-Serif" font-size="10.00">ZeroconfDiscoverComponent.h</text>
</a>
</g>
</g>
<!-- Node8&#45;&gt;Node9 -->
<g id="edge11_Node000008_Node000009" class="edge">
<title>Node8&#45;&gt;Node9</title>
<g id="a_edge11_Node000008_Node000009"><a xlink:title=" ">
<path fill="none" stroke="#63b8ff" d="M1277.5,-120.8C1276.22,-111.7 1274.55,-99.79 1273.16,-89.9"/>
<polygon fill="#63b8ff" stroke="#63b8ff" points="1276.6,-89.26 1271.74,-79.84 1269.67,-90.23 1276.6,-89.26"/>
</a>
</g>
</g>
<!-- Node10&#45;&gt;Node2 -->
<g id="edge13_Node000010_Node000002" class="edge">
<title>Node10&#45;&gt;Node2</title>
<g id="a_edge13_Node000010_Node000002"><a xlink:title=" ">
<path fill="none" stroke="#63b8ff" d="M234.92,-126.48C254.93,-116.64 288.71,-99.9 317.5,-85 342.57,-72.02 346.57,-63.48 373.5,-55 485.71,-19.68 624.84,-12.01 698.03,-10.58"/>
<polygon fill="#63b8ff" stroke="#63b8ff" points="698.4,-14.08 708.34,-10.41 698.29,-7.08 698.4,-14.08"/>
</a>
</g>
</g>
<!-- Node10&#45;&gt;Node5 -->
<g id="edge15_Node000010_Node000005" class="edge">
<title>Node10&#45;&gt;Node5</title>
<g id="a_edge15_Node000010_Node000005"><a xlink:title=" ">
<path fill="none" stroke="#63b8ff" d="M217.1,-126.37C216.66,-117.07 215.95,-101.98 215.39,-89.9"/>
<polygon fill="#63b8ff" stroke="#63b8ff" points="218.88,-89.73 214.92,-79.91 211.89,-90.06 218.88,-89.73"/>
</a>
</g>
</g>
<!-- Node10&#45;&gt;Node6 -->
<g id="edge14_Node000010_Node000006" class="edge">
<title>Node10&#45;&gt;Node6</title>
<g id="a_edge14_Node000010_Node000006"><a xlink:title=" ">
<path fill="none" stroke="#63b8ff" d="M181.33,-126.49C158.14,-119.22 129.18,-106.42 111.5,-85 98.52,-69.27 94.27,-45.79 92.95,-29.41"/>
<polygon fill="#63b8ff" stroke="#63b8ff" points="96.44,-29.19 92.43,-19.38 89.45,-29.55 96.44,-29.19"/>
</a>
</g>
</g>
<!-- Node11&#45;&gt;Node2 -->
<g id="edge17_Node000011_Node000002" class="edge">
<title>Node11&#45;&gt;Node2</title>
<g id="a_edge17_Node000011_Node000002"><a xlink:title=" ">
<path fill="none" stroke="#63b8ff" d="M373.68,-126.45C372.6,-109.9 372.88,-73.49 393.5,-55 437.32,-15.69 610.86,-10.2 698.01,-9.99"/>
<polygon fill="#63b8ff" stroke="#63b8ff" points="698.2,-13.49 708.2,-9.99 698.2,-6.49 698.2,-13.49"/>
</a>
</g>
</g>
<!-- Node11&#45;&gt;Node5 -->
<g id="edge18_Node000011_Node000005" class="edge">
<title>Node11&#45;&gt;Node5</title>
<g id="a_edge18_Node000011_Node000005"><a xlink:title=" ">
<path fill="none" stroke="#63b8ff" d="M352.92,-126.37C325.29,-115.32 277.21,-96.08 245.62,-83.45"/>
<polygon fill="#63b8ff" stroke="#63b8ff" points="246.58,-80.06 235.99,-79.6 243.98,-86.56 246.58,-80.06"/>
</a>
</g>
</g>
<!-- Node12&#45;&gt;Node2 -->
<g id="edge20_Node000012_Node000002" class="edge">
<title>Node12&#45;&gt;Node2</title>
<g id="a_edge20_Node000012_Node000002"><a xlink:title=" ">
<path fill="none" stroke="#63b8ff" d="M1134.42,-126.26C1142.82,-110.02 1157.4,-75.05 1139.5,-55 1117.17,-29.99 899.18,-17.17 798.73,-12.55"/>
<polygon fill="#63b8ff" stroke="#63b8ff" points="798.67,-9.04 788.52,-12.09 798.35,-16.04 798.67,-9.04"/>
</a>
</g>
</g>
<!-- Node13 -->
<g id="Node000013" class="node">
<title>Node13</title>
<g id="a_Node000013"><a xlink:href="dbprProjectUtils_8h.html" target="_top" xlink:title=" ">
<polygon fill="white" stroke="#666666" points="1130.5,-79.5 1026.5,-79.5 1026.5,-60.5 1130.5,-60.5 1130.5,-79.5"/>
<text text-anchor="middle" x="1078.5" y="-67.5" font-family="Helvetica,sans-Serif" font-size="10.00">dbprProjectUtils.h</text>
</a>
</g>
</g>
<!-- Node12&#45;&gt;Node13 -->
<g id="edge21_Node000012_Node000013" class="edge">
<title>Node12&#45;&gt;Node13</title>
<g id="a_edge21_Node000012_Node000013"><a xlink:title=" ">
<path fill="none" stroke="#63b8ff" d="M1122.62,-126.37C1114.83,-116.59 1101.95,-100.42 1092.11,-88.08"/>
<polygon fill="#63b8ff" stroke="#63b8ff" points="1094.57,-85.54 1085.6,-79.91 1089.09,-89.91 1094.57,-85.54"/>
</a>
</g>
</g>
<!-- Node14&#45;&gt;Node2 -->
<g id="edge23_Node000014_Node000002" class="edge">
<title>Node14&#45;&gt;Node2</title>
<g id="a_edge23_Node000014_Node000002"><a xlink:title=" ">
<path fill="none" stroke="#63b8ff" d="M981.43,-120.77C987.69,-103.22 994.73,-73.44 979.5,-55 957.07,-27.83 859.96,-17.07 799.02,-12.94"/>
<polygon fill="#63b8ff" stroke="#63b8ff" points="799.03,-9.44 788.82,-12.29 798.58,-16.42 799.03,-9.44"/>
</a>
</g>
</g>
<!-- Node14&#45;&gt;Node13 -->
<g id="edge24_Node000014_Node000013" class="edge">
<title>Node14&#45;&gt;Node13</title>
<g id="a_edge24_Node000014_Node000013"><a xlink:title=" ">
<path fill="none" stroke="#63b8ff" d="M998.1,-120.95C1015.29,-110.27 1038.83,-95.65 1055.99,-84.98"/>
<polygon fill="#63b8ff" stroke="#63b8ff" points="1058.15,-87.77 1064.79,-79.52 1054.45,-81.82 1058.15,-87.77"/>
</a>
</g>
</g>
<!-- Node15&#45;&gt;Node2 -->
<g id="edge26_Node000015_Node000002" class="edge">
<title>Node15&#45;&gt;Node2</title>
<g id="a_edge26_Node000015_Node000002"><a xlink:title=" ">
<path fill="none" stroke="#63b8ff" d="M552.3,-54.99C597.88,-44.65 659,-30.79 700.84,-21.31"/>
<polygon fill="#63b8ff" stroke="#63b8ff" points="701.8,-24.68 710.78,-19.05 700.25,-17.85 701.8,-24.68"/>
</a>
</g>
</g>
<!-- Node16&#45;&gt;Node2 -->
<g id="edge28_Node000016_Node000002" class="edge">
<title>Node16&#45;&gt;Node2</title>
<g id="a_edge28_Node000016_Node000002"><a xlink:title=" ">
<path fill="none" stroke="#63b8ff" d="M703.02,-54.84C711.82,-46.26 723.07,-35.3 732.17,-26.42"/>
<polygon fill="#63b8ff" stroke="#63b8ff" points="734.79,-28.75 739.51,-19.27 729.91,-23.74 734.79,-28.75"/>
</a>
</g>
</g>
</g>
</svg>
