<?xml version="1.0" encoding="UTF-8" standalone="no"?>
<!DOCTYPE svg PUBLIC "-//W3C//DTD SVG 1.1//EN"
 "http://www.w3.org/Graphics/SVG/1.1/DTD/svg11.dtd">
<!-- Generated by graphviz version 2.43.0 (0)
 -->
<!-- Title: Source/Main.cpp Pages: 1 -->
<!--zoomable 269 -->

<svg id="main" version="1.1" xmlns="http://www.w3.org/2000/svg" xmlns:xlink="http://www.w3.org/1999/xlink" xml:space="preserve" onload="init(evt)">
<style type="text/css"><![CDATA[
.node, .edge {opacity: 0.7;}
.node.selected, .edge.selected {opacity: 1;}
.edge:hover path { stroke: red; }
.edge:hover polygon { stroke: red; fill: red; }
]]></style>

<defs>
  <circle id="rim" cx="0" cy="0" r="7"/>
  <circle id="rim2" cx="0" cy="0" r="3.5"/>
  <g id="zoomPlus">
    <use xlink:href="#rim" fill="#404040"><set attributeName="fill" to="#808080" begin="zoomplus.mouseover" end="zoomplus.mouseout"/></use>
    <path d="M-4,0h8M0,-4v8" fill="none" stroke="white" stroke-width="1.5" pointer-events="none"/>
  </g>
  <g id="zoomMin">
    <use xlink:href="#rim" fill="#404040"><set attributeName="fill" to="#808080" begin="zoomminus.mouseover" end="zoomminus.mouseout"/></use>
    <path d="M-4,0h8" fill="none" stroke="white" stroke-width="1.5" pointer-events="none"/>
  </g>
  <g id="arrowUp" transform="translate(30 24)">
    <use xlink:href="#rim"/>
    <path pointer-events="none" fill="none" stroke="white" stroke-width="1.5" d="M0,-3.0v7 M-2.5,-0.5L0,-3.0L2.5,-0.5"/>
  </g>
  <g id="arrowRight" transform="rotate(90) translate(36 -43)">
    <use xlink:href="#rim"/>
    <path pointer-events="none" fill="none" stroke="white" stroke-width="1.5" d="M0,-3.0v7 M-2.5,-0.5L0,-3.0L2.5,-0.5"/>
  </g>
  <g id="arrowDown" transform="rotate(180) translate(-30 -48)">
    <use xlink:href="#rim"/>
    <path pointer-events="none" fill="none" stroke="white" stroke-width="1.5" d="M0,-3.0v7 M-2.5,-0.5L0,-3.0L2.5,-0.5"/>
  </g>
  <g id="arrowLeft" transform="rotate(270) translate(-36 17)">
    <use xlink:href="#rim"/>
    <path pointer-events="none" fill="none" stroke="white" stroke-width="1.5" d="M0,-3.0v7 M-2.5,-0.5L0,-3.0L2.5,-0.5"/>
  </g>
  <g id="resetDef">
    <use xlink:href="#rim2" fill="#404040"><set attributeName="fill" to="#808080" begin="reset.mouseover" end="reset.mouseout"/></use>
  </g>
</defs>
<script type="application/ecmascript">
var viewWidth = 1637;
var viewHeight = 269;
var sectionId = 'dynsection-0';
</script>
<script type="application/ecmascript" xlink:href="svg.min.js"/>
<svg id="graph" class="graph">
<g id="viewport">
<title>Source/Main.cpp</title>
<!-- Node1 -->
<g id="Node000001" class="node">
<title>Node1</title>
<g id="a_Node000001"><a xlink:title=" ">
<polygon fill="#999999" stroke="#666666" points="1346,-261 1249,-261 1249,-242 1346,-242 1346,-261"/>
<text text-anchor="middle" x="1297.5" y="-249" font-family="Helvetica,sans-Serif" font-size="10.00">Source/Main.cpp</text>
</a>
</g>
</g>
<!-- Node2 -->
<g id="Node000002" class="node">
<title>Node2</title>
<g id="a_Node000002"><a xlink:title=" ">
<polygon fill="#e0e0e0" stroke="#999999" points="866.5,-19 786.5,-19 786.5,0 866.5,0 866.5,-19"/>
<text text-anchor="middle" x="826.5" y="-7" font-family="Helvetica,sans-Serif" font-size="10.00">JuceHeader.h</text>
</a>
</g>
</g>
<!-- Node1&#45;&gt;Node2 -->
<g id="edge1_Node000001_Node000002" class="edge">
<title>Node1&#45;&gt;Node2</title>
<g id="a_edge1_Node000001_Node000002"><a xlink:title=" ">
<path fill="none" stroke="#63b8ff" d="M1296.87,-241.61C1294.1,-210.09 1280.17,-102.98 1216.5,-55 1164.04,-15.47 969.44,-10.24 876.52,-10.07"/>
<polygon fill="#63b8ff" stroke="#63b8ff" points="876.51,-6.57 866.51,-10.07 876.51,-13.57 876.51,-6.57"/>
</a>
</g>
</g>
<!-- Node3 -->
<g id="Node000003" class="node">
<title>Node3</title>
<g id="a_Node000003"><a xlink:href="MainComponent_8h.html" target="_top" xlink:title=" ">
<polygon fill="white" stroke="#666666" points="816.5,-206 710.5,-206 710.5,-187 816.5,-187 816.5,-206"/>
<text text-anchor="middle" x="763.5" y="-194" font-family="Helvetica,sans-Serif" font-size="10.00">MainComponent.h</text>
</a>
</g>
</g>
<!-- Node1&#45;&gt;Node3 -->
<g id="edge2_Node000001_Node000003" class="edge">
<title>Node1&#45;&gt;Node3</title>
<g id="a_edge2_Node000001_Node000003"><a xlink:title=" ">
<path fill="none" stroke="#63b8ff" d="M1248.7,-245.66C1151.67,-236.03 934.63,-214.48 826.8,-203.78"/>
<polygon fill="#63b8ff" stroke="#63b8ff" points="827.01,-200.29 816.71,-202.78 826.32,-207.25 827.01,-200.29"/>
</a>
</g>
</g>
<!-- Node17 -->
<g id="Node000017" class="node">
<title>Node17</title>
<g id="a_Node000017"><a xlink:href="DeviceController_8h.html" target="_top" xlink:title=" ">
<polygon fill="white" stroke="#666666" points="1417,-206 1310,-206 1310,-187 1417,-187 1417,-206"/>
<text text-anchor="middle" x="1363.5" y="-194" font-family="Helvetica,sans-Serif" font-size="10.00">DeviceController.h</text>
</a>
</g>
</g>
<!-- Node1&#45;&gt;Node17 -->
<g id="edge29_Node000001_Node000017" class="edge">
<title>Node1&#45;&gt;Node17</title>
<g id="a_edge29_Node000001_Node000017"><a xlink:title=" ">
<path fill="none" stroke="#63b8ff" d="M1308.1,-241.98C1317.96,-234.07 1332.85,-222.11 1344.72,-212.58"/>
<polygon fill="#63b8ff" stroke="#63b8ff" points="1347.1,-215.16 1352.7,-206.17 1342.71,-209.7 1347.1,-215.16"/>
</a>
</g>
</g>
<!-- Node21 -->
<g id="Node000021" class="node">
<title>Node21</title>
<g id="a_Node000021"><a xlink:title=" ">
<polygon fill="#e0e0e0" stroke="#999999" points="1560,-206 1435,-206 1435,-187 1560,-187 1560,-206"/>
<text text-anchor="middle" x="1497.5" y="-194" font-family="Helvetica,sans-Serif" font-size="10.00">CustomLookAndFeel.h</text>
</a>
</g>
</g>
<!-- Node1&#45;&gt;Node21 -->
<g id="edge34_Node000001_Node000021" class="edge">
<title>Node1&#45;&gt;Node21</title>
<g id="a_edge34_Node000001_Node000021"><a xlink:title=" ">
<path fill="none" stroke="#63b8ff" d="M1329.63,-241.98C1363.65,-232.97 1417.5,-218.7 1455,-208.76"/>
<polygon fill="#63b8ff" stroke="#63b8ff" points="1456.34,-212.03 1465.11,-206.08 1454.55,-205.26 1456.34,-212.03"/>
</a>
</g>
</g>
<!-- Node3&#45;&gt;Node2 -->
<g id="edge3_Node000003_Node000002" class="edge">
<title>Node3&#45;&gt;Node2</title>
<g id="a_edge3_Node000003_Node000002"><a xlink:title=" ">
<path fill="none" stroke="#63b8ff" d="M816.7,-196.34C885.65,-195.72 1008.54,-188.69 1105.5,-151 1153.08,-132.5 1175.96,-130.29 1199.5,-85 1205.65,-73.17 1208.35,-64.97 1199.5,-55 1178.43,-31.27 973.74,-17.9 876.86,-12.85"/>
<polygon fill="#63b8ff" stroke="#63b8ff" points="876.88,-9.35 866.71,-12.33 876.52,-16.34 876.88,-9.35"/>
</a>
</g>
</g>
<!-- Node4 -->
<g id="Node000004" class="node">
<title>Node4</title>
<g id="a_Node000004"><a xlink:href="UmsciAppConfiguration_8h.html" target="_top" xlink:title=" ">
<polygon fill="white" stroke="#666666" points="765.5,-145.5 625.5,-145.5 625.5,-126.5 765.5,-126.5 765.5,-145.5"/>
<text text-anchor="middle" x="695.5" y="-133.5" font-family="Helvetica,sans-Serif" font-size="10.00">UmsciAppConfiguration.h</text>
</a>
</g>
</g>
<!-- Node3&#45;&gt;Node4 -->
<g id="edge4_Node000003_Node000004" class="edge">
<title>Node3&#45;&gt;Node4</title>
<g id="a_edge4_Node000003_Node000004"><a xlink:title=" ">
<path fill="none" stroke="#63b8ff" d="M753.47,-186.87C742.92,-177.8 726.11,-163.34 713.31,-152.32"/>
<polygon fill="#63b8ff" stroke="#63b8ff" points="715.44,-149.54 705.57,-145.67 710.87,-154.84 715.44,-149.54"/>
</a>
</g>
</g>
<!-- Node6 -->
<g id="Node000006" class="node">
<title>Node6</title>
<g id="a_Node000006"><a xlink:href="UmsciExternalControlComponent_8h.html" target="_top" xlink:title=" ">
<polygon fill="white" stroke="#666666" points="346.5,-79.5 158.5,-79.5 158.5,-60.5 346.5,-60.5 346.5,-79.5"/>
<text text-anchor="middle" x="252.5" y="-67.5" font-family="Helvetica,sans-Serif" font-size="10.00">UmsciExternalControlComponent.h</text>
</a>
</g>
</g>
<!-- Node3&#45;&gt;Node6 -->
<g id="edge7_Node000003_Node000006" class="edge">
<title>Node3&#45;&gt;Node6</title>
<g id="a_edge7_Node000003_Node000006"><a xlink:title=" ">
<path fill="none" stroke="#63b8ff" d="M710.47,-195.13C607.79,-193.62 386.09,-186.24 319.5,-151 292.91,-136.93 272.63,-107.45 261.65,-88.48"/>
<polygon fill="#63b8ff" stroke="#63b8ff" points="264.68,-86.71 256.78,-79.65 258.55,-90.09 264.68,-86.71"/>
</a>
</g>
</g>
<!-- Node9 -->
<g id="Node000009" class="node">
<title>Node9</title>
<g id="a_Node000009"><a xlink:href="UmsciZeroconfDiscoverComboComponent_8h.html" target="_top" xlink:title=" ">
<polygon fill="white" stroke="#666666" points="607.5,-151 439.5,-151 439.5,-121 607.5,-121 607.5,-151"/>
<text text-anchor="start" x="447.5" y="-139" font-family="Helvetica,sans-Serif" font-size="10.00">UmsciZeroconfDiscoverCombo</text>
<text text-anchor="middle" x="523.5" y="-128" font-family="Helvetica,sans-Serif" font-size="10.00">Component.h</text>
</a>
</g>
</g>
<!-- Node3&#45;&gt;Node9 -->
<g id="edge11_Node000003_Node000009" class="edge">
<title>Node3&#45;&gt;Node9</title>
<g id="a_edge11_Node000003_Node000009"><a xlink:title=" ">
<path fill="none" stroke="#63b8ff" d="M728.6,-186.99C692.7,-178.24 635.87,-164.39 591.13,-153.48"/>
<polygon fill="#63b8ff" stroke="#63b8ff" points="591.74,-150.03 581.2,-151.06 590.09,-156.83 591.74,-150.03"/>
</a>
</g>
</g>
<!-- Node11 -->
<g id="Node000011" class="node">
<title>Node11</title>
<g id="a_Node000011"><a xlink:href="MidiController_8h.html" target="_top" xlink:title=" ">
<polygon fill="white" stroke="#666666" points="201.5,-145.5 107.5,-145.5 107.5,-126.5 201.5,-126.5 201.5,-145.5"/>
<text text-anchor="middle" x="154.5" y="-133.5" font-family="Helvetica,sans-Serif" font-size="10.00">MidiController.h</text>
</a>
</g>
</g>
<!-- Node3&#45;&gt;Node11 -->
<g id="edge14_Node000003_Node000011" class="edge">
<title>Node3&#45;&gt;Node11</title>
<g id="a_edge14_Node000003_Node000011"><a xlink:title=" ">
<path fill="none" stroke="#63b8ff" d="M710.41,-191.49C618.87,-184.42 425.48,-168.79 262.5,-151 246,-149.2 228.12,-146.99 211.74,-144.86"/>
<polygon fill="#63b8ff" stroke="#63b8ff" points="212.14,-141.38 201.76,-143.55 211.22,-148.32 212.14,-141.38"/>
</a>
</g>
</g>
<!-- Node12 -->
<g id="Node000012" class="node">
<title>Node12</title>
<g id="a_Node000012"><a xlink:href="OscController_8h.html" target="_top" xlink:title=" ">
<polygon fill="white" stroke="#666666" points="420,-145.5 329,-145.5 329,-126.5 420,-126.5 420,-145.5"/>
<text text-anchor="middle" x="374.5" y="-133.5" font-family="Helvetica,sans-Serif" font-size="10.00">OscController.h</text>
</a>
</g>
</g>
<!-- Node3&#45;&gt;Node12 -->
<g id="edge18_Node000003_Node000012" class="edge">
<title>Node3&#45;&gt;Node12</title>
<g id="a_edge18_Node000003_Node000012"><a xlink:title=" ">
<path fill="none" stroke="#63b8ff" d="M710.43,-190.27C644.47,-183.33 528.61,-169.76 430.5,-151 425.77,-150.09 420.83,-149.04 415.95,-147.91"/>
<polygon fill="#63b8ff" stroke="#63b8ff" points="416.59,-144.47 406.05,-145.55 414.96,-151.28 416.59,-144.47"/>
</a>
</g>
</g>
<!-- Node13 -->
<g id="Node000013" class="node">
<title>Node13</title>
<g id="a_Node000013"><a xlink:href="DbprController_8h.html" target="_top" xlink:title=" ">
<polygon fill="white" stroke="#666666" points="879.5,-145.5 783.5,-145.5 783.5,-126.5 879.5,-126.5 879.5,-145.5"/>
<text text-anchor="middle" x="831.5" y="-133.5" font-family="Helvetica,sans-Serif" font-size="10.00">DbprController.h</text>
</a>
</g>
</g>
<!-- Node3&#45;&gt;Node13 -->
<g id="edge21_Node000003_Node000013" class="edge">
<title>Node3&#45;&gt;Node13</title>
<g id="a_edge21_Node000003_Node000013"><a xlink:title=" ">
<path fill="none" stroke="#63b8ff" d="M773.53,-186.87C784.08,-177.8 800.89,-163.34 813.69,-152.32"/>
<polygon fill="#63b8ff" stroke="#63b8ff" points="816.13,-154.84 821.43,-145.67 811.56,-149.54 816.13,-154.84"/>
</a>
</g>
</g>
<!-- Node15 -->
<g id="Node000015" class="node">
<title>Node15</title>
<g id="a_Node000015"><a xlink:href="UmsciDbprProjectComponent_8h.html" target="_top" xlink:title=" ">
<polygon fill="white" stroke="#666666" points="1073.5,-151 897.5,-151 897.5,-121 1073.5,-121 1073.5,-151"/>
<text text-anchor="start" x="905.5" y="-139" font-family="Helvetica,sans-Serif" font-size="10.00">UmsciPaintNControlComponents</text>
<text text-anchor="middle" x="985.5" y="-128" font-family="Helvetica,sans-Serif" font-size="10.00">/UmsciDbprProjectComponent.h</text>
</a>
</g>
</g>
<!-- Node3&#45;&gt;Node15 -->
<g id="edge24_Node000003_Node000015" class="edge">
<title>Node3&#45;&gt;Node15</title>
<g id="a_edge24_Node000003_Node000015"><a xlink:title=" ">
<path fill="none" stroke="#63b8ff" d="M795.78,-186.99C828.85,-178.28 881.11,-164.51 922.42,-153.62"/>
<polygon fill="#63b8ff" stroke="#63b8ff" points="923.35,-157 932.13,-151.06 921.57,-150.23 923.35,-157"/>
</a>
</g>
</g>
<!-- Node16 -->
<g id="Node000016" class="node">
<title>Node16</title>
<g id="a_Node000016"><a xlink:href="UmsciSnapshotComponent_8h.html" target="_top" xlink:title=" ">
<polygon fill="white" stroke="#666666" points="1190.5,-85 1014.5,-85 1014.5,-55 1190.5,-55 1190.5,-85"/>
<text text-anchor="start" x="1022.5" y="-73" font-family="Helvetica,sans-Serif" font-size="10.00">UmsciPaintNControlComponents</text>
<text text-anchor="middle" x="1102.5" y="-62" font-family="Helvetica,sans-Serif" font-size="10.00">/UmsciSnapshotComponent.h</text>
</a>
</g>
</g>
<!-- Node3&#45;&gt;Node16 -->
<g id="edge27_Node000003_Node000016" class="edge">
<title>Node3&#45;&gt;Node16</title>
<g id="a_edge27_Node000003_Node000016"><a xlink:title=" ">
<path fill="none" stroke="#63b8ff" d="M816.58,-195.07C896.99,-193.29 1044.34,-185.3 1082.5,-151 1097.91,-137.14 1102.29,-113.37 1103.18,-95.34"/>
<polygon fill="#63b8ff" stroke="#63b8ff" points="1106.68,-95.3 1103.36,-85.24 1099.69,-95.18 1106.68,-95.3"/>
</a>
</g>
</g>
<!-- Node4&#45;&gt;Node2 -->
<g id="edge5_Node000004_Node000002" class="edge">
<title>Node4&#45;&gt;Node2</title>
<g id="a_edge5_Node000004_Node000002"><a xlink:title=" ">
<path fill="none" stroke="#63b8ff" d="M711.3,-126.36C727.06,-117.29 751.45,-102.02 769.5,-85 787.95,-67.61 805.04,-43.82 815.6,-27.84"/>
<polygon fill="#63b8ff" stroke="#63b8ff" points="818.8,-29.33 821.29,-19.03 812.92,-25.54 818.8,-29.33"/>
</a>
</g>
</g>
<!-- Node5 -->
<g id="Node000005" class="node">
<title>Node5</title>
<g id="a_Node000005"><a xlink:title=" ">
<polygon fill="#e0e0e0" stroke="#999999" points="760.5,-79.5 626.5,-79.5 626.5,-60.5 760.5,-60.5 760.5,-79.5"/>
<text text-anchor="middle" x="693.5" y="-67.5" font-family="Helvetica,sans-Serif" font-size="10.00">AppConfigurationBase.h</text>
</a>
</g>
</g>
<!-- Node4&#45;&gt;Node5 -->
<g id="edge6_Node000004_Node000005" class="edge">
<title>Node4&#45;&gt;Node5</title>
<g id="a_edge6_Node000004_Node000005"><a xlink:title=" ">
<path fill="none" stroke="#63b8ff" d="M695.23,-126.37C694.94,-117.16 694.48,-102.29 694.1,-90.27"/>
<polygon fill="#63b8ff" stroke="#63b8ff" points="697.59,-89.79 693.78,-79.91 690.59,-90.01 697.59,-89.79"/>
</a>
</g>
</g>
<!-- Node6&#45;&gt;Node2 -->
<g id="edge8_Node000006_Node000002" class="edge">
<title>Node6&#45;&gt;Node2</title>
<g id="a_edge8_Node000006_Node000002"><a xlink:title=" ">
<path fill="none" stroke="#63b8ff" d="M315.28,-60.5C330.09,-58.59 345.85,-56.65 360.5,-55 511.48,-38.01 690.47,-22.1 776.04,-14.76"/>
<polygon fill="#63b8ff" stroke="#63b8ff" points="776.58,-18.22 786.25,-13.88 775.99,-11.25 776.58,-18.22"/>
</a>
</g>
</g>
<!-- Node7 -->
<g id="Node000007" class="node">
<title>Node7</title>
<g id="a_Node000007"><a xlink:title=" ">
<polygon fill="#e0e0e0" stroke="#999999" points="185,-19 0,-19 0,0 185,0 185,-19"/>
<text text-anchor="middle" x="92.5" y="-7" font-family="Helvetica,sans-Serif" font-size="10.00">MidiCommandRangeAssignment.h</text>
</a>
</g>
</g>
<!-- Node6&#45;&gt;Node7 -->
<g id="edge9_Node000006_Node000007" class="edge">
<title>Node6&#45;&gt;Node7</title>
<g id="a_edge9_Node000006_Node000007"><a xlink:title=" ">
<path fill="none" stroke="#63b8ff" d="M229.23,-60.49C201.86,-50.49 156.23,-33.8 125.28,-22.49"/>
<polygon fill="#63b8ff" stroke="#63b8ff" points="126.39,-19.16 115.79,-19.02 123.98,-25.74 126.39,-19.16"/>
</a>
</g>
</g>
<!-- Node8 -->
<g id="Node000008" class="node">
<title>Node8</title>
<g id="a_Node000008"><a xlink:title=" ">
<polygon fill="#e0e0e0" stroke="#999999" points="343.5,-19 203.5,-19 203.5,0 343.5,0 343.5,-19"/>
<text text-anchor="middle" x="273.5" y="-7" font-family="Helvetica,sans-Serif" font-size="10.00">MidiLearnerComponent.h</text>
</a>
</g>
</g>
<!-- Node6&#45;&gt;Node8 -->
<g id="edge10_Node000006_Node000008" class="edge">
<title>Node6&#45;&gt;Node8</title>
<g id="a_edge10_Node000006_Node000008"><a xlink:title=" ">
<path fill="none" stroke="#63b8ff" d="M255.6,-60.37C258.58,-52.07 263.17,-39.28 266.96,-28.72"/>
<polygon fill="#63b8ff" stroke="#63b8ff" points="270.3,-29.76 270.39,-19.17 263.72,-27.4 270.3,-29.76"/>
</a>
</g>
</g>
<!-- Node9&#45;&gt;Node2 -->
<g id="edge12_Node000009_Node000002" class="edge">
<title>Node9&#45;&gt;Node2</title>
<g id="a_edge12_Node000009_Node000002"><a xlink:title=" ">
<path fill="none" stroke="#63b8ff" d="M539.13,-120.96C563.48,-99.21 608.61,-59.38 617.5,-55 668.19,-30.05 732.53,-19.03 776.35,-14.21"/>
<polygon fill="#63b8ff" stroke="#63b8ff" points="776.88,-17.67 786.47,-13.16 776.16,-10.71 776.88,-17.67"/>
</a>
</g>
</g>
<!-- Node10 -->
<g id="Node000010" class="node">
<title>Node10</title>
<g id="a_Node000010"><a xlink:title=" ">
<polygon fill="#e0e0e0" stroke="#999999" points="570.5,-79.5 402.5,-79.5 402.5,-60.5 570.5,-60.5 570.5,-79.5"/>
<text text-anchor="middle" x="486.5" y="-67.5" font-family="Helvetica,sans-Serif" font-size="10.00">ZeroconfDiscoverComponent.h</text>
</a>
</g>
</g>
<!-- Node9&#45;&gt;Node10 -->
<g id="edge13_Node000009_Node000010" class="edge">
<title>Node9&#45;&gt;Node10</title>
<g id="a_edge13_Node000009_Node000010"><a xlink:title=" ">
<path fill="none" stroke="#63b8ff" d="M515.29,-120.8C509.8,-111.31 502.55,-98.76 496.69,-88.63"/>
<polygon fill="#63b8ff" stroke="#63b8ff" points="499.65,-86.75 491.61,-79.84 493.59,-90.25 499.65,-86.75"/>
</a>
</g>
</g>
<!-- Node11&#45;&gt;Node2 -->
<g id="edge15_Node000011_Node000002" class="edge">
<title>Node11&#45;&gt;Node2</title>
<g id="a_edge15_Node000011_Node000002"><a xlink:title=" ">
<path fill="none" stroke="#63b8ff" d="M150.29,-126.16C143.18,-109.75 131.24,-74.5 149.5,-55 170.87,-32.18 622.69,-16.6 776.07,-11.95"/>
<polygon fill="#63b8ff" stroke="#63b8ff" points="776.27,-15.44 786.16,-11.65 776.06,-8.45 776.27,-15.44"/>
</a>
</g>
</g>
<!-- Node11&#45;&gt;Node6 -->
<g id="edge17_Node000011_Node000006" class="edge">
<title>Node11&#45;&gt;Node6</title>
<g id="a_edge17_Node000011_Node000006"><a xlink:title=" ">
<path fill="none" stroke="#63b8ff" d="M167.72,-126.37C183.86,-115.82 211.41,-97.84 230.71,-85.23"/>
<polygon fill="#63b8ff" stroke="#63b8ff" points="232.72,-88.1 239.18,-79.7 228.89,-82.24 232.72,-88.1"/>
</a>
</g>
</g>
<!-- Node11&#45;&gt;Node7 -->
<g id="edge16_Node000011_Node000007" class="edge">
<title>Node11&#45;&gt;Node7</title>
<g id="a_edge16_Node000011_Node000007"><a xlink:title=" ">
<path fill="none" stroke="#63b8ff" d="M146.51,-126.41C138.04,-116.92 124.77,-100.85 116.5,-85 107.09,-66.97 100.48,-44.55 96.61,-29.05"/>
<polygon fill="#63b8ff" stroke="#63b8ff" points="99.98,-28.07 94.28,-19.14 93.17,-29.67 99.98,-28.07"/>
</a>
</g>
</g>
<!-- Node12&#45;&gt;Node2 -->
<g id="edge19_Node000012_Node000002" class="edge">
<title>Node12&#45;&gt;Node2</title>
<g id="a_edge19_Node000012_Node000002"><a xlink:title=" ">
<path fill="none" stroke="#63b8ff" d="M373.64,-126.41C372.5,-109.79 372.68,-73.26 393.5,-55 421.81,-30.17 668.52,-17.03 776.39,-12.43"/>
<polygon fill="#63b8ff" stroke="#63b8ff" points="776.53,-15.92 786.38,-12.01 776.24,-8.93 776.53,-15.92"/>
</a>
</g>
</g>
<!-- Node12&#45;&gt;Node6 -->
<g id="edge20_Node000012_Node000006" class="edge">
<title>Node12&#45;&gt;Node6</title>
<g id="a_edge20_Node000012_Node000006"><a xlink:title=" ">
<path fill="none" stroke="#63b8ff" d="M358.05,-126.37C337.49,-115.59 302.1,-97.02 278.01,-84.38"/>
<polygon fill="#63b8ff" stroke="#63b8ff" points="279.56,-81.25 269.08,-79.7 276.31,-87.44 279.56,-81.25"/>
</a>
</g>
</g>
<!-- Node13&#45;&gt;Node2 -->
<g id="edge22_Node000013_Node000002" class="edge">
<title>Node13&#45;&gt;Node2</title>
<g id="a_edge22_Node000013_Node000002"><a xlink:title=" ">
<path fill="none" stroke="#63b8ff" d="M831.16,-126.44C830.36,-106.54 828.36,-56.76 827.26,-29.35"/>
<polygon fill="#63b8ff" stroke="#63b8ff" points="830.74,-28.97 826.85,-19.12 823.75,-29.25 830.74,-28.97"/>
</a>
</g>
</g>
<!-- Node14 -->
<g id="Node000014" class="node">
<title>Node14</title>
<g id="a_Node000014"><a xlink:href="dbprProjectUtils_8h.html" target="_top" xlink:title=" ">
<polygon fill="white" stroke="#666666" points="958.5,-79.5 854.5,-79.5 854.5,-60.5 958.5,-60.5 958.5,-79.5"/>
<text text-anchor="middle" x="906.5" y="-67.5" font-family="Helvetica,sans-Serif" font-size="10.00">dbprProjectUtils.h</text>
</a>
</g>
</g>
<!-- Node13&#45;&gt;Node14 -->
<g id="edge23_Node000013_Node000014" class="edge">
<title>Node13&#45;&gt;Node14</title>
<g id="a_edge23_Node000013_Node000014"><a xlink:title=" ">
<path fill="none" stroke="#63b8ff" d="M841.61,-126.37C853.51,-116.21 873.5,-99.16 888.15,-86.65"/>
<polygon fill="#63b8ff" stroke="#63b8ff" points="890.73,-89.06 896.06,-79.91 886.19,-83.73 890.73,-89.06"/>
</a>
</g>
</g>
<!-- Node15&#45;&gt;Node2 -->
<g id="edge25_Node000015_Node000002" class="edge">
<title>Node15&#45;&gt;Node2</title>
<g id="a_edge25_Node000015_Node000002"><a xlink:title=" ">
<path fill="none" stroke="#63b8ff" d="M986.31,-120.94C986.53,-103.29 984.16,-73.13 967.5,-55 944.33,-29.78 907.01,-18.76 876.59,-13.99"/>
<polygon fill="#63b8ff" stroke="#63b8ff" points="876.95,-10.51 866.56,-12.6 875.99,-17.44 876.95,-10.51"/>
</a>
</g>
</g>
<!-- Node15&#45;&gt;Node14 -->
<g id="edge26_Node000015_Node000014" class="edge">
<title>Node15&#45;&gt;Node14</title>
<g id="a_edge26_Node000015_Node000014"><a xlink:title=" ">
<path fill="none" stroke="#63b8ff" d="M967.97,-120.8C955.29,-110.53 938.18,-96.67 925.24,-86.18"/>
<polygon fill="#63b8ff" stroke="#63b8ff" points="927.39,-83.42 917.42,-79.84 922.98,-88.86 927.39,-83.42"/>
</a>
</g>
</g>
<!-- Node16&#45;&gt;Node2 -->
<g id="edge28_Node000016_Node000002" class="edge">
<title>Node16&#45;&gt;Node2</title>
<g id="a_edge28_Node000016_Node000002"><a xlink:title=" ">
<path fill="none" stroke="#63b8ff" d="M1036.39,-54.99C987.42,-44.61 921.69,-30.68 876.92,-21.19"/>
<polygon fill="#63b8ff" stroke="#63b8ff" points="877.36,-17.7 866.86,-19.05 875.91,-24.55 877.36,-17.7"/>
</a>
</g>
</g>
<!-- Node17&#45;&gt;Node2 -->
<g id="edge30_Node000017_Node000002" class="edge">
<title>Node17&#45;&gt;Node2</title>
<g id="a_edge30_Node000017_Node000002"><a xlink:title=" ">
<path fill="none" stroke="#63b8ff" d="M1351.05,-186.81C1340.02,-178.61 1324.08,-165.44 1313.5,-151 1285.87,-113.29 1308.42,-82.35 1270.5,-55 1239.11,-32.37 986.25,-17.96 876.75,-12.72"/>
<polygon fill="#63b8ff" stroke="#63b8ff" points="876.77,-9.22 866.62,-12.24 876.44,-16.21 876.77,-9.22"/>
</a>
</g>
</g>
<!-- Node18 -->
<g id="Node000018" class="node">
<title>Node18</title>
<g id="a_Node000018"><a xlink:title=" ">
<polygon fill="#e0e0e0" stroke="#999999" points="1628.5,-145.5 1552.5,-145.5 1552.5,-126.5 1628.5,-126.5 1628.5,-145.5"/>
<text text-anchor="middle" x="1590.5" y="-133.5" font-family="Helvetica,sans-Serif" font-size="10.00">NanoOcp1.h</text>
</a>
</g>
</g>
<!-- Node17&#45;&gt;Node18 -->
<g id="edge31_Node000017_Node000018" class="edge">
<title>Node17&#45;&gt;Node18</title>
<g id="a_edge31_Node000017_Node000018"><a xlink:title=" ">
<path fill="none" stroke="#63b8ff" d="M1400.17,-186.97C1436.64,-178.36 1494.12,-164.45 1543.5,-151 1546.62,-150.15 1549.85,-149.24 1553.09,-148.32"/>
<polygon fill="#63b8ff" stroke="#63b8ff" points="1554.11,-151.67 1562.73,-145.51 1552.15,-144.95 1554.11,-151.67"/>
</a>
</g>
</g>
<!-- Node19 -->
<g id="Node000019" class="node">
<title>Node19</title>
<g id="a_Node000019"><a xlink:title=" ">
<polygon fill="#e0e0e0" stroke="#999999" points="1456.5,-145.5 1322.5,-145.5 1322.5,-126.5 1456.5,-126.5 1456.5,-145.5"/>
<text text-anchor="middle" x="1389.5" y="-133.5" font-family="Helvetica,sans-Serif" font-size="10.00">Ocp1ObjectDefinitions.h</text>
</a>
</g>
</g>
<!-- Node17&#45;&gt;Node19 -->
<g id="edge32_Node000017_Node000019" class="edge">
<title>Node17&#45;&gt;Node19</title>
<g id="a_edge32_Node000017_Node000019"><a xlink:title=" ">
<path fill="none" stroke="#63b8ff" d="M1367.34,-186.87C1371.06,-178.49 1376.83,-165.51 1381.55,-154.89"/>
<polygon fill="#63b8ff" stroke="#63b8ff" points="1384.78,-156.23 1385.65,-145.67 1378.39,-153.38 1384.78,-156.23"/>
</a>
</g>
</g>
<!-- Node20 -->
<g id="Node000020" class="node">
<title>Node20</title>
<g id="a_Node000020"><a xlink:title=" ">
<polygon fill="#e0e0e0" stroke="#999999" points="1534.5,-145.5 1474.5,-145.5 1474.5,-126.5 1534.5,-126.5 1534.5,-145.5"/>
<text text-anchor="middle" x="1504.5" y="-133.5" font-family="Helvetica,sans-Serif" font-size="10.00">Variant.h</text>
</a>
</g>
</g>
<!-- Node17&#45;&gt;Node20 -->
<g id="edge33_Node000017_Node000020" class="edge">
<title>Node17&#45;&gt;Node20</title>
<g id="a_edge33_Node000017_Node000020"><a xlink:title=" ">
<path fill="none" stroke="#63b8ff" d="M1384,-186.99C1407.81,-177.12 1447.29,-160.73 1474.54,-149.43"/>
<polygon fill="#63b8ff" stroke="#63b8ff" points="1476.08,-152.58 1483.97,-145.52 1473.39,-146.12 1476.08,-152.58"/>
</a>
</g>
</g>
</g>
</svg>

<g id="navigator" transform="translate(0 0)" fill="#404254">
  <rect fill="#f2f5e9" fill-opacity="0.5" stroke="#606060" stroke-width=".5" x="0" y="0" width="60" height="60"/>
  <use id="zoomplus" xlink:href="#zoomPlus" x="17" y="9" onmousedown="handleZoom(evt,'in')"/>
  <use id="zoomminus" xlink:href="#zoomMin" x="42" y="9" onmousedown="handleZoom(evt,'out')"/>
  <use id="reset" xlink:href="#resetDef" x="30" y="36" onmousedown="handleReset()"/>
   <use id="arrowup" xlink:href="#arrowUp" x="0" y="0" onmousedown="handlePan(0,-1)"/>
  <use id="arrowright" xlink:href="#arrowRight" x="0" y="0" onmousedown="handlePan(1,0)"/>
  <use id="arrowdown" xlink:href="#arrowDown" x="0" y="0" onmousedown="handlePan(0,1)"/>
  <use id="arrowleft" xlink:href="#arrowLeft" x="0" y="0" onmousedown="handlePan(-1,0)"/>
</g>
<svg viewBox="0 0 15 15" width="100%" height="30px" preserveAspectRatio="xMaxYMin meet">
 <g id="arrow_out" transform="scale(0.3 0.3)">
  <a xlink:href="Main_8cpp__incl_org.svg" target="_base">
   <rect id="button" ry="5" rx="5" y="6" x="6" height="38" width="38"
        fill="#f2f5e9" fill-opacity="0.5" stroke="#606060" stroke-width="1.0"/>
   <path id="arrow"
     d="M 11.500037,31.436501 C 11.940474,20.09759 22.043105,11.32322 32.158766,21.979434 L 37.068811,17.246167 C 37.068811,17.246167 37.088388,32 37.088388,32 L 22.160133,31.978069 C 22.160133,31.978069 26.997745,27.140456 26.997745,27.140456 C 18.528582,18.264221 13.291696,25.230495 11.500037,31.436501 z"
     style="fill:#404040;"/>
  </a>
 </g>
</svg>

<style type='text/css'>
<![CDATA[
[data-mouse-over-selected='false'] { opacity: 0.7; }
[data-mouse-over-selected='true']  { opacity: 1.0; }
]]>
</style>
<script type="application/ecmascript"><![CDATA[
document.addEventListener('DOMContentLoaded', (event) => {
  highlightEdges();
  highlightAdjacentNodes();
});
]]></script>
</svg>
