<?xml version="1.0" encoding="UTF-8" standalone="no"?>
<!DOCTYPE svg PUBLIC "-//W3C//DTD SVG 1.1//EN"
 "http://www.w3.org/Graphics/SVG/1.1/DTD/svg11.dtd">
<!-- Generated by graphviz version 2.43.0 (0)
 -->
<!-- Title: Source/MidiController.h Pages: 1 -->
<svg width="358pt" height="137pt"
 viewBox="0.00 0.00 358.00 137.00" xmlns="http://www.w3.org/2000/svg" xmlns:xlink="http://www.w3.org/1999/xlink">
<g id="graph0" class="graph" transform="scale(1 1) rotate(0) translate(4 133)">
<title>Source/MidiController.h</title>
<!-- Node1 -->
<g id="Node000001" class="node">
<title>Node1</title>
<g id="a_Node000001"><a xlink:title=" ">
<polygon fill="#999999" stroke="#666666" points="264.5,-129 134.5,-129 134.5,-110 264.5,-110 264.5,-129"/>
<text text-anchor="middle" x="199.5" y="-117" font-family="Helvetica,sans-Serif" font-size="10.00">Source/MidiController.h</text>
</a>
</g>
</g>
<!-- Node2 -->
<g id="Node000002" class="node">
<title>Node2</title>
<g id="a_Node000002"><a xlink:href="MainComponent_8h.html" target="_top" xlink:title=" ">
<polygon fill="white" stroke="#666666" points="190.5,-74 48.5,-74 48.5,-55 190.5,-55 190.5,-74"/>
<text text-anchor="middle" x="119.5" y="-62" font-family="Helvetica,sans-Serif" font-size="10.00">Source/MainComponent.h</text>
</a>
</g>
</g>
<!-- Node1&#45;&gt;Node2 -->
<g id="edge1_Node000001_Node000002" class="edge">
<title>Node1&#45;&gt;Node2</title>
<g id="a_edge1_Node000001_Node000002"><a xlink:title=" ">
<path fill="none" stroke="#63b8ff" d="M178.25,-104.42C163.74,-94.81 144.96,-82.37 132.59,-74.17"/>
<polygon fill="#63b8ff" stroke="#63b8ff" points="176.38,-107.38 186.65,-109.98 180.24,-101.54 176.38,-107.38"/>
</a>
</g>
</g>
<!-- Node5 -->
<g id="Node000005" class="node">
<title>Node5</title>
<g id="a_Node000005"><a xlink:href="MidiController_8cpp.html" target="_top" xlink:title=" ">
<polygon fill="white" stroke="#666666" points="350,-74 209,-74 209,-55 350,-55 350,-74"/>
<text text-anchor="middle" x="279.5" y="-62" font-family="Helvetica,sans-Serif" font-size="10.00">Source/MidiController.cpp</text>
</a>
</g>
</g>
<!-- Node1&#45;&gt;Node5 -->
<g id="edge4_Node000001_Node000005" class="edge">
<title>Node1&#45;&gt;Node5</title>
<g id="a_edge4_Node000001_Node000005"><a xlink:title=" ">
<path fill="none" stroke="#63b8ff" d="M220.75,-104.42C235.26,-94.81 254.04,-82.37 266.41,-74.17"/>
<polygon fill="#63b8ff" stroke="#63b8ff" points="218.76,-101.54 212.35,-109.98 222.62,-107.38 218.76,-101.54"/>
</a>
</g>
</g>
<!-- Node3 -->
<g id="Node000003" class="node">
<title>Node3</title>
<g id="a_Node000003"><a xlink:href="Main_8cpp.html" target="_top" xlink:title=" ">
<polygon fill="white" stroke="#666666" points="97,-19 0,-19 0,0 97,0 97,-19"/>
<text text-anchor="middle" x="48.5" y="-7" font-family="Helvetica,sans-Serif" font-size="10.00">Source/Main.cpp</text>
</a>
</g>
</g>
<!-- Node2&#45;&gt;Node3 -->
<g id="edge2_Node000002_Node000003" class="edge">
<title>Node2&#45;&gt;Node3</title>
<g id="a_edge2_Node000002_Node000003"><a xlink:title=" ">
<path fill="none" stroke="#63b8ff" d="M99.91,-48.88C87.13,-39.34 70.89,-27.21 60.11,-19.17"/>
<polygon fill="#63b8ff" stroke="#63b8ff" points="97.99,-51.81 108.09,-54.98 102.17,-46.2 97.99,-51.81"/>
</a>
</g>
</g>
<!-- Node4 -->
<g id="Node000004" class="node">
<title>Node4</title>
<g id="a_Node000004"><a xlink:href="MainComponent_8cpp.html" target="_top" xlink:title=" ">
<polygon fill="white" stroke="#666666" points="268,-19 115,-19 115,0 268,0 268,-19"/>
<text text-anchor="middle" x="191.5" y="-7" font-family="Helvetica,sans-Serif" font-size="10.00">Source/MainComponent.cpp</text>
</a>
</g>
</g>
<!-- Node2&#45;&gt;Node4 -->
<g id="edge3_Node000002_Node000004" class="edge">
<title>Node2&#45;&gt;Node4</title>
<g id="a_edge3_Node000002_Node000004"><a xlink:title=" ">
<path fill="none" stroke="#63b8ff" d="M139.37,-48.88C152.32,-39.34 168.8,-27.21 179.72,-19.17"/>
<polygon fill="#63b8ff" stroke="#63b8ff" points="137.05,-46.24 131.07,-54.98 141.2,-51.88 137.05,-46.24"/>
</a>
</g>
</g>
</g>
</svg>
