<?xml version="1.0" encoding="UTF-8" standalone="no"?>
<!DOCTYPE svg PUBLIC "-//W3C//DTD SVG 1.1//EN"
 "http://www.w3.org/Graphics/SVG/1.1/DTD/svg11.dtd">
<!-- Generated by graphviz version 2.43.0 (0)
 -->
<!-- Title: Source/UmsciControlComponent.h Pages: 1 -->
<svg width="922pt" height="225pt"
 viewBox="0.00 0.00 922.21 225.00" xmlns="http://www.w3.org/2000/svg" xmlns:xlink="http://www.w3.org/1999/xlink">
<g id="graph0" class="graph" transform="scale(1 1) rotate(0) translate(4 221)">
<title>Source/UmsciControlComponent.h</title>
<!-- Node1 -->
<g id="Node000001" class="node">
<title>Node1</title>
<g id="a_Node000001"><a xlink:title=" ">
<polygon fill="#999999" stroke="#666666" points="404.71,-217 220.71,-217 220.71,-198 404.71,-198 404.71,-217"/>
<text text-anchor="middle" x="312.71" y="-205" font-family="Helvetica,sans-Serif" font-size="10.00">Source/UmsciControlComponent.h</text>
</a>
</g>
</g>
<!-- Node2 -->
<g id="Node000002" class="node">
<title>Node2</title>
<g id="a_Node000002"><a xlink:title=" ">
<polygon fill="#e0e0e0" stroke="#999999" points="240.71,-19 160.71,-19 160.71,0 240.71,0 240.71,-19"/>
<text text-anchor="middle" x="200.71" y="-7" font-family="Helvetica,sans-Serif" font-size="10.00">JuceHeader.h</text>
</a>
</g>
</g>
<!-- Node1&#45;&gt;Node2 -->
<g id="edge1_Node000001_Node000002" class="edge">
<title>Node1&#45;&gt;Node2</title>
<g id="a_edge1_Node000001_Node000002"><a xlink:title=" ">
<path fill="none" stroke="#63b8ff" d="M220.48,-204.21C147.05,-200.28 52.45,-189.79 26.71,-162 -5.66,-127.06 -8.65,-92.5 20.71,-55 36.56,-34.75 102.74,-22.44 150.25,-16.05"/>
<polygon fill="#63b8ff" stroke="#63b8ff" points="150.92,-19.5 160.38,-14.74 150.02,-12.55 150.92,-19.5"/>
</a>
</g>
</g>
<!-- Node3 -->
<g id="Node000003" class="node">
<title>Node3</title>
<g id="a_Node000003"><a xlink:href="UmsciAppConfiguration_8h.html" target="_top" xlink:title=" ">
<polygon fill="white" stroke="#666666" points="175.71,-151 35.71,-151 35.71,-132 175.71,-132 175.71,-151"/>
<text text-anchor="middle" x="105.71" y="-139" font-family="Helvetica,sans-Serif" font-size="10.00">UmsciAppConfiguration.h</text>
</a>
</g>
</g>
<!-- Node1&#45;&gt;Node3 -->
<g id="edge2_Node000001_Node000003" class="edge">
<title>Node1&#45;&gt;Node3</title>
<g id="a_edge2_Node000001_Node000003"><a xlink:title=" ">
<path fill="none" stroke="#63b8ff" d="M284.79,-197.87C248.19,-186.55 183.87,-166.66 143.09,-154.06"/>
<polygon fill="#63b8ff" stroke="#63b8ff" points="144.1,-150.71 133.51,-151.1 142.03,-157.39 144.1,-150.71"/>
</a>
</g>
</g>
<!-- Node5 -->
<g id="Node000005" class="node">
<title>Node5</title>
<g id="a_Node000005"><a xlink:href="DeviceController_8h.html" target="_top" xlink:title=" ">
<polygon fill="white" stroke="#666666" points="366.21,-151 259.21,-151 259.21,-132 366.21,-132 366.21,-151"/>
<text text-anchor="middle" x="312.71" y="-139" font-family="Helvetica,sans-Serif" font-size="10.00">DeviceController.h</text>
</a>
</g>
</g>
<!-- Node1&#45;&gt;Node5 -->
<g id="edge5_Node000001_Node000005" class="edge">
<title>Node1&#45;&gt;Node5</title>
<g id="a_edge5_Node000001_Node000005"><a xlink:title=" ">
<path fill="none" stroke="#63b8ff" d="M312.71,-197.87C312.71,-188.66 312.71,-173.79 312.71,-161.77"/>
<polygon fill="#63b8ff" stroke="#63b8ff" points="316.21,-161.41 312.71,-151.41 309.21,-161.41 316.21,-161.41"/>
</a>
</g>
</g>
<!-- Node9 -->
<g id="Node000009" class="node">
<title>Node9</title>
<g id="a_Node000009"><a xlink:href="UmsciPaintNControlComponentBase_8h.html" target="_top" xlink:title=" ">
<polygon fill="white" stroke="#666666" points="758.71,-85 552.71,-85 552.71,-55 758.71,-55 758.71,-85"/>
<text text-anchor="start" x="560.71" y="-73" font-family="Helvetica,sans-Serif" font-size="10.00">UmsciPaintNControlComponents</text>
<text text-anchor="middle" x="655.71" y="-62" font-family="Helvetica,sans-Serif" font-size="10.00">/UmsciPaintNControlComponentBase.h</text>
</a>
</g>
</g>
<!-- Node1&#45;&gt;Node9 -->
<g id="edge10_Node000001_Node000009" class="edge">
<title>Node1&#45;&gt;Node9</title>
<g id="a_edge10_Node000001_Node000009"><a xlink:title=" ">
<path fill="none" stroke="#63b8ff" d="M334.43,-197.92C389.53,-176.15 535.7,-118.41 610.39,-88.9"/>
<polygon fill="#63b8ff" stroke="#63b8ff" points="611.99,-92.03 620.01,-85.1 609.42,-85.52 611.99,-92.03"/>
</a>
</g>
</g>
<!-- Node10 -->
<g id="Node000010" class="node">
<title>Node10</title>
<g id="a_Node000010"><a xlink:href="UmsciUpmixIndicatorPaintNControlComponent_8h.html" target="_top" xlink:title=" ">
<polygon fill="white" stroke="#666666" points="816.71,-162 624.71,-162 624.71,-121 816.71,-121 816.71,-162"/>
<text text-anchor="start" x="632.71" y="-150" font-family="Helvetica,sans-Serif" font-size="10.00">UmsciPaintNControlComponents</text>
<text text-anchor="start" x="632.71" y="-139" font-family="Helvetica,sans-Serif" font-size="10.00">/UmsciUpmixIndicatorPaintNControl</text>
<text text-anchor="middle" x="720.71" y="-128" font-family="Helvetica,sans-Serif" font-size="10.00">Component.h</text>
</a>
</g>
</g>
<!-- Node1&#45;&gt;Node10 -->
<g id="edge12_Node000001_Node000010" class="edge">
<title>Node1&#45;&gt;Node10</title>
<g id="a_edge12_Node000001_Node000010"><a xlink:title=" ">
<path fill="none" stroke="#63b8ff" d="M367.31,-197.94C430.3,-188.05 535.36,-171.57 614.6,-159.15"/>
<polygon fill="#63b8ff" stroke="#63b8ff" points="615.28,-162.58 624.62,-157.57 614.2,-155.67 615.28,-162.58"/>
</a>
</g>
</g>
<!-- Node3&#45;&gt;Node2 -->
<g id="edge3_Node000003_Node000002" class="edge">
<title>Node3&#45;&gt;Node2</title>
<g id="a_edge3_Node000003_Node000002"><a xlink:title=" ">
<path fill="none" stroke="#63b8ff" d="M87.64,-131.86C58.57,-116.8 6.87,-84.54 29.71,-55 44.45,-35.93 105.51,-23.51 150.48,-16.76"/>
<polygon fill="#63b8ff" stroke="#63b8ff" points="150.98,-20.22 160.38,-15.32 149.98,-13.29 150.98,-20.22"/>
</a>
</g>
</g>
<!-- Node4 -->
<g id="Node000004" class="node">
<title>Node4</title>
<g id="a_Node000004"><a xlink:title=" ">
<polygon fill="#e0e0e0" stroke="#999999" points="172.71,-79.5 38.71,-79.5 38.71,-60.5 172.71,-60.5 172.71,-79.5"/>
<text text-anchor="middle" x="105.71" y="-67.5" font-family="Helvetica,sans-Serif" font-size="10.00">AppConfigurationBase.h</text>
</a>
</g>
</g>
<!-- Node3&#45;&gt;Node4 -->
<g id="edge4_Node000003_Node000004" class="edge">
<title>Node3&#45;&gt;Node4</title>
<g id="a_edge4_Node000003_Node000004"><a xlink:title=" ">
<path fill="none" stroke="#63b8ff" d="M105.71,-131.98C105.71,-121.56 105.71,-103.61 105.71,-89.88"/>
<polygon fill="#63b8ff" stroke="#63b8ff" points="109.21,-89.59 105.71,-79.59 102.21,-89.59 109.21,-89.59"/>
</a>
</g>
</g>
<!-- Node5&#45;&gt;Node2 -->
<g id="edge6_Node000005_Node000002" class="edge">
<title>Node5&#45;&gt;Node2</title>
<g id="a_edge6_Node000005_Node000002"><a xlink:title=" ">
<path fill="none" stroke="#63b8ff" d="M288.02,-131.97C266.78,-123.37 236.92,-108.05 219.71,-85 207.63,-68.82 203.19,-45.74 201.58,-29.58"/>
<polygon fill="#63b8ff" stroke="#63b8ff" points="205.05,-28.94 200.84,-19.22 198.06,-29.44 205.05,-28.94"/>
</a>
</g>
</g>
<!-- Node6 -->
<g id="Node000006" class="node">
<title>Node6</title>
<g id="a_Node000006"><a xlink:title=" ">
<polygon fill="#e0e0e0" stroke="#999999" points="304.71,-79.5 228.71,-79.5 228.71,-60.5 304.71,-60.5 304.71,-79.5"/>
<text text-anchor="middle" x="266.71" y="-67.5" font-family="Helvetica,sans-Serif" font-size="10.00">NanoOcp1.h</text>
</a>
</g>
</g>
<!-- Node5&#45;&gt;Node6 -->
<g id="edge7_Node000005_Node000006" class="edge">
<title>Node5&#45;&gt;Node6</title>
<g id="a_edge7_Node000005_Node000006"><a xlink:title=" ">
<path fill="none" stroke="#63b8ff" d="M307.07,-131.98C299.9,-121.14 287.34,-102.16 278.13,-88.25"/>
<polygon fill="#63b8ff" stroke="#63b8ff" points="280.83,-86 272.4,-79.59 275,-89.86 280.83,-86"/>
</a>
</g>
</g>
<!-- Node7 -->
<g id="Node000007" class="node">
<title>Node7</title>
<g id="a_Node000007"><a xlink:title=" ">
<polygon fill="#e0e0e0" stroke="#999999" points="456.71,-79.5 322.71,-79.5 322.71,-60.5 456.71,-60.5 456.71,-79.5"/>
<text text-anchor="middle" x="389.71" y="-67.5" font-family="Helvetica,sans-Serif" font-size="10.00">Ocp1ObjectDefinitions.h</text>
</a>
</g>
</g>
<!-- Node5&#45;&gt;Node7 -->
<g id="edge8_Node000005_Node000007" class="edge">
<title>Node5&#45;&gt;Node7</title>
<g id="a_edge8_Node000005_Node000007"><a xlink:title=" ">
<path fill="none" stroke="#63b8ff" d="M322.15,-131.98C334.62,-120.72 356.81,-100.69 372.35,-86.67"/>
<polygon fill="#63b8ff" stroke="#63b8ff" points="375.11,-88.89 380.19,-79.59 370.42,-83.69 375.11,-88.89"/>
</a>
</g>
</g>
<!-- Node8 -->
<g id="Node000008" class="node">
<title>Node8</title>
<g id="a_Node000008"><a xlink:title=" ">
<polygon fill="#e0e0e0" stroke="#999999" points="534.71,-79.5 474.71,-79.5 474.71,-60.5 534.71,-60.5 534.71,-79.5"/>
<text text-anchor="middle" x="504.71" y="-67.5" font-family="Helvetica,sans-Serif" font-size="10.00">Variant.h</text>
</a>
</g>
</g>
<!-- Node5&#45;&gt;Node8 -->
<g id="edge9_Node000005_Node000008" class="edge">
<title>Node5&#45;&gt;Node8</title>
<g id="a_edge9_Node000005_Node000008"><a xlink:title=" ">
<path fill="none" stroke="#63b8ff" d="M336.25,-131.98C370.08,-119.73 432.6,-97.1 471.23,-83.12"/>
<polygon fill="#63b8ff" stroke="#63b8ff" points="472.76,-86.29 480.97,-79.59 470.38,-79.7 472.76,-86.29"/>
</a>
</g>
</g>
<!-- Node9&#45;&gt;Node2 -->
<g id="edge11_Node000009_Node000002" class="edge">
<title>Node9&#45;&gt;Node2</title>
<g id="a_edge11_Node000009_Node000002"><a xlink:title=" ">
<path fill="none" stroke="#63b8ff" d="M552.46,-55.73C458.37,-43.63 323.38,-26.27 251.04,-16.97"/>
<polygon fill="#63b8ff" stroke="#63b8ff" points="251.2,-13.46 240.84,-15.66 250.31,-20.41 251.2,-13.46"/>
</a>
</g>
</g>
<!-- Node10&#45;&gt;Node2 -->
<g id="edge13_Node000010_Node000002" class="edge">
<title>Node10&#45;&gt;Node2</title>
<g id="a_edge13_Node000010_Node000002"><a xlink:title=" ">
<path fill="none" stroke="#63b8ff" d="M744.46,-120.79C764,-102.26 785.76,-74.53 767.71,-55 733,-17.46 383.24,-11.53 250.99,-10.64"/>
<polygon fill="#63b8ff" stroke="#63b8ff" points="250.76,-7.14 240.74,-10.58 250.72,-14.14 250.76,-7.14"/>
</a>
</g>
</g>
<!-- Node10&#45;&gt;Node9 -->
<g id="edge14_Node000010_Node000009" class="edge">
<title>Node10&#45;&gt;Node9</title>
<g id="a_edge14_Node000010_Node000009"><a xlink:title=" ">
<path fill="none" stroke="#63b8ff" d="M702.26,-120.77C694.01,-111.95 684.28,-101.54 675.84,-92.53"/>
<polygon fill="#63b8ff" stroke="#63b8ff" points="678.23,-89.95 668.84,-85.04 673.11,-94.73 678.23,-89.95"/>
</a>
</g>
</g>
<!-- Node11 -->
<g id="Node000011" class="node">
<title>Node11</title>
<g id="a_Node000011"><a xlink:title=" ">
<polygon fill="#e0e0e0" stroke="#999999" points="914.21,-79.5 815.21,-79.5 815.21,-60.5 914.21,-60.5 914.21,-79.5"/>
<text text-anchor="middle" x="864.71" y="-67.5" font-family="Helvetica,sans-Serif" font-size="10.00">TwoDFieldBase.h</text>
</a>
</g>
</g>
<!-- Node10&#45;&gt;Node11 -->
<g id="edge15_Node000010_Node000011" class="edge">
<title>Node10&#45;&gt;Node11</title>
<g id="a_edge15_Node000010_Node000011"><a xlink:title=" ">
<path fill="none" stroke="#63b8ff" d="M761.21,-120.96C785.73,-109.12 816.34,-94.35 837.88,-83.95"/>
<polygon fill="#63b8ff" stroke="#63b8ff" points="839.61,-87 847.09,-79.5 836.56,-80.7 839.61,-87"/>
</a>
</g>
</g>
</g>
</svg>
