<?xml version="1.0" encoding="UTF-8" standalone="no"?>
<!DOCTYPE svg PUBLIC "-//W3C//DTD SVG 1.1//EN"
 "http://www.w3.org/Graphics/SVG/1.1/DTD/svg11.dtd">
<!-- Generated by graphviz version 2.43.0 (0)
 -->
<!-- Title: Source/UmsciPaintNControlComponents/UmsciUpmixIndicatorPaintNControlComponent.cpp Pages: 1 -->
<svg width="323pt" height="236pt"
 viewBox="0.00 0.00 322.57 236.00" xmlns="http://www.w3.org/2000/svg" xmlns:xlink="http://www.w3.org/1999/xlink">
<g id="graph0" class="graph" transform="scale(1 1) rotate(0) translate(4 232)">
<title>Source/UmsciPaintNControlComponents/UmsciUpmixIndicatorPaintNControlComponent.cpp</title>
<!-- Node1 -->
<g id="Node000001" class="node">
<title>Node1</title>
<g id="a_Node000001"><a xlink:title=" ">
<polygon fill="#999999" stroke="#666666" points="268.57,-228 81.57,-228 81.57,-187 268.57,-187 268.57,-228"/>
<text text-anchor="start" x="89.57" y="-216" font-family="Helvetica,sans-Serif" font-size="10.00">Source/UmsciPaintNControl</text>
<text text-anchor="start" x="89.57" y="-205" font-family="Helvetica,sans-Serif" font-size="10.00">Components/UmsciUpmixIndicator</text>
<text text-anchor="middle" x="175.07" y="-194" font-family="Helvetica,sans-Serif" font-size="10.00">PaintNControlComponent.cpp</text>
</a>
</g>
</g>
<!-- Node2 -->
<g id="Node000002" class="node">
<title>Node2</title>
<g id="a_Node000002"><a xlink:href="UmsciUpmixIndicatorPaintNControlComponent_8h.html" target="_top" xlink:title=" ">
<polygon fill="white" stroke="#666666" points="171.07,-151 25.07,-151 25.07,-121 171.07,-121 171.07,-151"/>
<text text-anchor="start" x="33.07" y="-139" font-family="Helvetica,sans-Serif" font-size="10.00">UmsciUpmixIndicatorPaint</text>
<text text-anchor="middle" x="98.07" y="-128" font-family="Helvetica,sans-Serif" font-size="10.00">NControlComponent.h</text>
</a>
</g>
</g>
<!-- Node1&#45;&gt;Node2 -->
<g id="edge1_Node000001_Node000002" class="edge">
<title>Node1&#45;&gt;Node2</title>
<g id="a_edge1_Node000001_Node000002"><a xlink:title=" ">
<path fill="none" stroke="#63b8ff" d="M153.21,-186.77C143.25,-177.78 131.44,-167.12 121.31,-157.98"/>
<polygon fill="#63b8ff" stroke="#63b8ff" points="123.39,-155.14 113.62,-151.04 118.7,-160.34 123.39,-155.14"/>
</a>
</g>
</g>
<!-- Node6 -->
<g id="Node000006" class="node">
<title>Node6</title>
<g id="a_Node000006"><a xlink:title=" ">
<polygon fill="#e0e0e0" stroke="#999999" points="314.57,-145.5 189.57,-145.5 189.57,-126.5 314.57,-126.5 314.57,-145.5"/>
<text text-anchor="middle" x="252.07" y="-133.5" font-family="Helvetica,sans-Serif" font-size="10.00">CustomLookAndFeel.h</text>
</a>
</g>
</g>
<!-- Node1&#45;&gt;Node6 -->
<g id="edge6_Node000001_Node000006" class="edge">
<title>Node1&#45;&gt;Node6</title>
<g id="a_edge6_Node000001_Node000006"><a xlink:title=" ">
<path fill="none" stroke="#63b8ff" d="M196.93,-186.77C208.95,-175.92 223.65,-162.65 234.85,-152.54"/>
<polygon fill="#63b8ff" stroke="#63b8ff" points="237.22,-155.12 242.3,-145.82 232.53,-149.92 237.22,-155.12"/>
</a>
</g>
</g>
<!-- Node3 -->
<g id="Node000003" class="node">
<title>Node3</title>
<g id="a_Node000003"><a xlink:title=" ">
<polygon fill="#e0e0e0" stroke="#999999" points="81.07,-19 1.07,-19 1.07,0 81.07,0 81.07,-19"/>
<text text-anchor="middle" x="41.07" y="-7" font-family="Helvetica,sans-Serif" font-size="10.00">JuceHeader.h</text>
</a>
</g>
</g>
<!-- Node2&#45;&gt;Node3 -->
<g id="edge2_Node000002_Node000003" class="edge">
<title>Node2&#45;&gt;Node3</title>
<g id="a_edge2_Node000002_Node000003"><a xlink:title=" ">
<path fill="none" stroke="#63b8ff" d="M49.46,-120.92C32.01,-113.25 14.16,-101.8 4.07,-85 -7.58,-65.6 8.89,-42.04 23.42,-26.68"/>
<polygon fill="#63b8ff" stroke="#63b8ff" points="26.06,-28.99 30.69,-19.46 21.13,-24.03 26.06,-28.99"/>
</a>
</g>
</g>
<!-- Node4 -->
<g id="Node000004" class="node">
<title>Node4</title>
<g id="a_Node000004"><a xlink:href="UmsciPaintNControlComponentBase_8h.html" target="_top" xlink:title=" ">
<polygon fill="white" stroke="#666666" points="183.07,-85 13.07,-85 13.07,-55 183.07,-55 183.07,-85"/>
<text text-anchor="start" x="21.07" y="-73" font-family="Helvetica,sans-Serif" font-size="10.00">UmsciPaintNControlComponent</text>
<text text-anchor="middle" x="98.07" y="-62" font-family="Helvetica,sans-Serif" font-size="10.00">Base.h</text>
</a>
</g>
</g>
<!-- Node2&#45;&gt;Node4 -->
<g id="edge3_Node000002_Node000004" class="edge">
<title>Node2&#45;&gt;Node4</title>
<g id="a_edge3_Node000002_Node000004"><a xlink:title=" ">
<path fill="none" stroke="#63b8ff" d="M98.07,-120.8C98.07,-113.34 98.07,-103.99 98.07,-95.41"/>
<polygon fill="#63b8ff" stroke="#63b8ff" points="101.57,-95.16 98.07,-85.16 94.57,-95.16 101.57,-95.16"/>
</a>
</g>
</g>
<!-- Node5 -->
<g id="Node000005" class="node">
<title>Node5</title>
<g id="a_Node000005"><a xlink:title=" ">
<polygon fill="#e0e0e0" stroke="#999999" points="300.57,-79.5 201.57,-79.5 201.57,-60.5 300.57,-60.5 300.57,-79.5"/>
<text text-anchor="middle" x="251.07" y="-67.5" font-family="Helvetica,sans-Serif" font-size="10.00">TwoDFieldBase.h</text>
</a>
</g>
</g>
<!-- Node2&#45;&gt;Node5 -->
<g id="edge5_Node000002_Node000005" class="edge">
<title>Node2&#45;&gt;Node5</title>
<g id="a_edge5_Node000002_Node000005"><a xlink:title=" ">
<path fill="none" stroke="#63b8ff" d="M131.64,-120.95C158.48,-109.73 195.73,-94.15 221.46,-83.39"/>
<polygon fill="#63b8ff" stroke="#63b8ff" points="222.83,-86.61 230.71,-79.52 220.13,-80.15 222.83,-86.61"/>
</a>
</g>
</g>
<!-- Node4&#45;&gt;Node3 -->
<g id="edge4_Node000004_Node000003" class="edge">
<title>Node4&#45;&gt;Node3</title>
<g id="a_edge4_Node000004_Node000003"><a xlink:title=" ">
<path fill="none" stroke="#63b8ff" d="M84.27,-54.84C76,-46.35 65.45,-35.52 56.84,-26.69"/>
<polygon fill="#63b8ff" stroke="#63b8ff" points="59.1,-23.99 49.61,-19.27 54.08,-28.87 59.1,-23.99"/>
</a>
</g>
</g>
</g>
</svg>
