<?xml version="1.0" encoding="UTF-8" standalone="no"?>
<!DOCTYPE svg PUBLIC "-//W3C//DTD SVG 1.1//EN"
 "http://www.w3.org/Graphics/SVG/1.1/DTD/svg11.dtd">
<!-- Generated by graphviz version 2.43.0 (0)
 -->
<!-- Title: Source/UmsciControlComponent.cpp Pages: 1 -->
<svg width="1151pt" height="280pt"
 viewBox="0.00 0.00 1151.10 280.00" xmlns="http://www.w3.org/2000/svg" xmlns:xlink="http://www.w3.org/1999/xlink">
<g id="graph0" class="graph" transform="scale(1 1) rotate(0) translate(4 276)">
<title>Source/UmsciControlComponent.cpp</title>
<!-- Node1 -->
<g id="Node000001" class="node">
<title>Node1</title>
<g id="a_Node000001"><a xlink:title=" ">
<polygon fill="#999999" stroke="#666666" points="732.1,-272 537.1,-272 537.1,-253 732.1,-253 732.1,-272"/>
<text text-anchor="middle" x="634.6" y="-260" font-family="Helvetica,sans-Serif" font-size="10.00">Source/UmsciControlComponent.cpp</text>
</a>
</g>
</g>
<!-- Node2 -->
<g id="Node000002" class="node">
<title>Node2</title>
<g id="a_Node000002"><a xlink:href="UmsciControlComponent_8h.html" target="_top" xlink:title=" ">
<polygon fill="white" stroke="#666666" points="554.6,-217 406.6,-217 406.6,-198 554.6,-198 554.6,-217"/>
<text text-anchor="middle" x="480.6" y="-205" font-family="Helvetica,sans-Serif" font-size="10.00">UmsciControlComponent.h</text>
</a>
</g>
</g>
<!-- Node1&#45;&gt;Node2 -->
<g id="edge1_Node000001_Node000002" class="edge">
<title>Node1&#45;&gt;Node2</title>
<g id="a_edge1_Node000001_Node000002"><a xlink:title=" ">
<path fill="none" stroke="#63b8ff" d="M609.85,-252.98C584.22,-244.16 543.97,-230.31 515.19,-220.41"/>
<polygon fill="#63b8ff" stroke="#63b8ff" points="516.13,-217.03 505.53,-217.08 513.85,-223.65 516.13,-217.03"/>
</a>
</g>
</g>
<!-- Node11 -->
<g id="Node000011" class="node">
<title>Node11</title>
<g id="a_Node000011"><a xlink:href="UmsciUpmixIndicatorPaintNControlComponent_8h.html" target="_top" xlink:title=" ">
<polygon fill="white" stroke="#666666" points="657.6,-162 465.6,-162 465.6,-121 657.6,-121 657.6,-162"/>
<text text-anchor="start" x="473.6" y="-150" font-family="Helvetica,sans-Serif" font-size="10.00">UmsciPaintNControlComponents</text>
<text text-anchor="start" x="473.6" y="-139" font-family="Helvetica,sans-Serif" font-size="10.00">/UmsciUpmixIndicatorPaintNControl</text>
<text text-anchor="middle" x="561.6" y="-128" font-family="Helvetica,sans-Serif" font-size="10.00">Component.h</text>
</a>
</g>
</g>
<!-- Node1&#45;&gt;Node11 -->
<g id="edge24_Node000001_Node000011" class="edge">
<title>Node1&#45;&gt;Node11</title>
<g id="a_edge24_Node000001_Node000011"><a xlink:title=" ">
<path fill="none" stroke="#63b8ff" d="M629.35,-252.94C618.95,-235.99 595.33,-197.48 578.92,-170.74"/>
<polygon fill="#63b8ff" stroke="#63b8ff" points="581.88,-168.87 573.66,-162.17 575.91,-172.53 581.88,-168.87"/>
</a>
</g>
</g>
<!-- Node13 -->
<g id="Node000013" class="node">
<title>Node13</title>
<g id="a_Node000013"><a xlink:href="UmsciLoudspeakersPaintComponent_8h.html" target="_top" xlink:title=" ">
<polygon fill="white" stroke="#666666" points="919.6,-156.5 713.6,-156.5 713.6,-126.5 919.6,-126.5 919.6,-156.5"/>
<text text-anchor="start" x="721.6" y="-144.5" font-family="Helvetica,sans-Serif" font-size="10.00">UmsciPaintNControlComponents</text>
<text text-anchor="middle" x="816.6" y="-133.5" font-family="Helvetica,sans-Serif" font-size="10.00">/UmsciLoudspeakersPaintComponent.h</text>
</a>
</g>
</g>
<!-- Node1&#45;&gt;Node13 -->
<g id="edge17_Node000001_Node000013" class="edge">
<title>Node1&#45;&gt;Node13</title>
<g id="a_edge17_Node000001_Node000013"><a xlink:title=" ">
<path fill="none" stroke="#63b8ff" d="M647.69,-252.94C676.56,-234.07 746.32,-188.45 786.58,-162.12"/>
<polygon fill="#63b8ff" stroke="#63b8ff" points="788.73,-164.9 795.18,-156.5 784.9,-159.05 788.73,-164.9"/>
</a>
</g>
</g>
<!-- Node14 -->
<g id="Node000014" class="node">
<title>Node14</title>
<g id="a_Node000014"><a xlink:href="UmsciSoundobjectsPaintComponent_8h.html" target="_top" xlink:title=" ">
<polygon fill="white" stroke="#666666" points="1143.1,-156.5 938.1,-156.5 938.1,-126.5 1143.1,-126.5 1143.1,-156.5"/>
<text text-anchor="start" x="946.1" y="-144.5" font-family="Helvetica,sans-Serif" font-size="10.00">UmsciPaintNControlComponents</text>
<text text-anchor="middle" x="1040.6" y="-133.5" font-family="Helvetica,sans-Serif" font-size="10.00">/UmsciSoundobjectsPaintComponent.h</text>
</a>
</g>
</g>
<!-- Node1&#45;&gt;Node14 -->
<g id="edge20_Node000001_Node000014" class="edge">
<title>Node1&#45;&gt;Node14</title>
<g id="a_edge20_Node000001_Node000014"><a xlink:title=" ">
<path fill="none" stroke="#63b8ff" d="M663.8,-252.94C730.5,-233.39 895.07,-185.16 983.01,-159.38"/>
<polygon fill="#63b8ff" stroke="#63b8ff" points="984.21,-162.67 992.82,-156.5 982.24,-155.96 984.21,-162.67"/>
</a>
</g>
</g>
<!-- Node3 -->
<g id="Node000003" class="node">
<title>Node3</title>
<g id="a_Node000003"><a xlink:title=" ">
<polygon fill="#e0e0e0" stroke="#999999" points="604.6,-19 524.6,-19 524.6,0 604.6,0 604.6,-19"/>
<text text-anchor="middle" x="564.6" y="-7" font-family="Helvetica,sans-Serif" font-size="10.00">JuceHeader.h</text>
</a>
</g>
</g>
<!-- Node2&#45;&gt;Node3 -->
<g id="edge2_Node000002_Node000003" class="edge">
<title>Node2&#45;&gt;Node3</title>
<g id="a_edge2_Node000002_Node000003"><a xlink:title=" ">
<path fill="none" stroke="#63b8ff" d="M406.42,-204.28C285,-199.91 54.64,-188.23 28.6,-162 -4.98,-128.18 -10.7,-90.05 21.6,-55 54.6,-19.18 385.97,-12.19 514.25,-10.83"/>
<polygon fill="#63b8ff" stroke="#63b8ff" points="514.61,-14.33 524.58,-10.73 514.54,-7.33 514.61,-14.33"/>
</a>
</g>
</g>
<!-- Node4 -->
<g id="Node000004" class="node">
<title>Node4</title>
<g id="a_Node000004"><a xlink:href="UmsciAppConfiguration_8h.html" target="_top" xlink:title=" ">
<polygon fill="white" stroke="#666666" points="177.6,-151 37.6,-151 37.6,-132 177.6,-132 177.6,-151"/>
<text text-anchor="middle" x="107.6" y="-139" font-family="Helvetica,sans-Serif" font-size="10.00">UmsciAppConfiguration.h</text>
</a>
</g>
</g>
<!-- Node2&#45;&gt;Node4 -->
<g id="edge3_Node000002_Node000004" class="edge">
<title>Node2&#45;&gt;Node4</title>
<g id="a_edge3_Node000002_Node000004"><a xlink:title=" ">
<path fill="none" stroke="#63b8ff" d="M430.68,-197.94C362.43,-186.22 240.14,-165.24 167.18,-152.72"/>
<polygon fill="#63b8ff" stroke="#63b8ff" points="167.67,-149.26 157.22,-151.01 166.48,-156.15 167.67,-149.26"/>
</a>
</g>
</g>
<!-- Node6 -->
<g id="Node000006" class="node">
<title>Node6</title>
<g id="a_Node000006"><a xlink:href="DeviceController_8h.html" target="_top" xlink:title=" ">
<polygon fill="white" stroke="#666666" points="447.1,-151 340.1,-151 340.1,-132 447.1,-132 447.1,-151"/>
<text text-anchor="middle" x="393.6" y="-139" font-family="Helvetica,sans-Serif" font-size="10.00">DeviceController.h</text>
</a>
</g>
</g>
<!-- Node2&#45;&gt;Node6 -->
<g id="edge6_Node000002_Node000006" class="edge">
<title>Node2&#45;&gt;Node6</title>
<g id="a_edge6_Node000002_Node000006"><a xlink:title=" ">
<path fill="none" stroke="#63b8ff" d="M468.86,-197.87C454.72,-187.47 430.74,-169.82 413.64,-157.25"/>
<polygon fill="#63b8ff" stroke="#63b8ff" points="415.55,-154.31 405.42,-151.2 411.4,-159.94 415.55,-154.31"/>
</a>
</g>
</g>
<!-- Node10 -->
<g id="Node000010" class="node">
<title>Node10</title>
<g id="a_Node000010"><a xlink:href="UmsciPaintNControlComponentBase_8h.html" target="_top" xlink:title=" ">
<polygon fill="white" stroke="#666666" points="916.6,-85 710.6,-85 710.6,-55 916.6,-55 916.6,-85"/>
<text text-anchor="start" x="718.6" y="-73" font-family="Helvetica,sans-Serif" font-size="10.00">UmsciPaintNControlComponents</text>
<text text-anchor="middle" x="813.6" y="-62" font-family="Helvetica,sans-Serif" font-size="10.00">/UmsciPaintNControlComponentBase.h</text>
</a>
</g>
</g>
<!-- Node2&#45;&gt;Node10 -->
<g id="edge11_Node000002_Node000010" class="edge">
<title>Node2&#45;&gt;Node10</title>
<g id="a_edge11_Node000002_Node000010"><a xlink:title=" ">
<path fill="none" stroke="#63b8ff" d="M554.99,-198.89C590.61,-192.78 632.77,-181.78 666.6,-162 688.05,-149.46 684.47,-135.57 704.6,-121 722.57,-107.99 744.46,-97.15 763.9,-88.92"/>
<polygon fill="#63b8ff" stroke="#63b8ff" points="765.3,-92.13 773.22,-85.09 762.64,-85.66 765.3,-92.13"/>
</a>
</g>
</g>
<!-- Node2&#45;&gt;Node11 -->
<g id="edge13_Node000002_Node000011" class="edge">
<title>Node2&#45;&gt;Node11</title>
<g id="a_edge13_Node000002_Node000011"><a xlink:title=" ">
<path fill="none" stroke="#63b8ff" d="M491.52,-197.87C501.11,-190.3 515.55,-178.89 528.84,-168.39"/>
<polygon fill="#63b8ff" stroke="#63b8ff" points="531.23,-170.95 536.91,-162.01 526.89,-165.46 531.23,-170.95"/>
</a>
</g>
</g>
<!-- Node4&#45;&gt;Node3 -->
<g id="edge4_Node000004_Node000003" class="edge">
<title>Node4&#45;&gt;Node3</title>
<g id="a_edge4_Node000004_Node000003"><a xlink:title=" ">
<path fill="none" stroke="#63b8ff" d="M89.95,-131.92C60.29,-116.42 6.05,-82.77 31.6,-55 63.89,-19.9 387.71,-12.48 514.28,-10.91"/>
<polygon fill="#63b8ff" stroke="#63b8ff" points="514.52,-14.41 524.47,-10.8 514.43,-7.41 514.52,-14.41"/>
</a>
</g>
</g>
<!-- Node5 -->
<g id="Node000005" class="node">
<title>Node5</title>
<g id="a_Node000005"><a xlink:title=" ">
<polygon fill="#e0e0e0" stroke="#999999" points="174.6,-79.5 40.6,-79.5 40.6,-60.5 174.6,-60.5 174.6,-79.5"/>
<text text-anchor="middle" x="107.6" y="-67.5" font-family="Helvetica,sans-Serif" font-size="10.00">AppConfigurationBase.h</text>
</a>
</g>
</g>
<!-- Node4&#45;&gt;Node5 -->
<g id="edge5_Node000004_Node000005" class="edge">
<title>Node4&#45;&gt;Node5</title>
<g id="a_edge5_Node000004_Node000005"><a xlink:title=" ">
<path fill="none" stroke="#63b8ff" d="M107.6,-131.98C107.6,-121.56 107.6,-103.61 107.6,-89.88"/>
<polygon fill="#63b8ff" stroke="#63b8ff" points="111.1,-89.59 107.6,-79.59 104.1,-89.59 111.1,-89.59"/>
</a>
</g>
</g>
<!-- Node6&#45;&gt;Node3 -->
<g id="edge7_Node000006_Node000003" class="edge">
<title>Node6&#45;&gt;Node3</title>
<g id="a_edge7_Node000006_Node000003"><a xlink:title=" ">
<path fill="none" stroke="#63b8ff" d="M397.26,-131.97C404.93,-115.02 424.29,-76.86 451.6,-55 470.87,-39.58 496.15,-28.95 517.91,-21.97"/>
<polygon fill="#63b8ff" stroke="#63b8ff" points="519.07,-25.27 527.62,-19.01 517.04,-18.57 519.07,-25.27"/>
</a>
</g>
</g>
<!-- Node7 -->
<g id="Node000007" class="node">
<title>Node7</title>
<g id="a_Node000007"><a xlink:title=" ">
<polygon fill="#e0e0e0" stroke="#999999" points="536.6,-79.5 460.6,-79.5 460.6,-60.5 536.6,-60.5 536.6,-79.5"/>
<text text-anchor="middle" x="498.6" y="-67.5" font-family="Helvetica,sans-Serif" font-size="10.00">NanoOcp1.h</text>
</a>
</g>
</g>
<!-- Node6&#45;&gt;Node7 -->
<g id="edge8_Node000006_Node000007" class="edge">
<title>Node6&#45;&gt;Node7</title>
<g id="a_edge8_Node000006_Node000007"><a xlink:title=" ">
<path fill="none" stroke="#63b8ff" d="M406.47,-131.98C424.11,-120.31 456,-99.2 477.24,-85.14"/>
<polygon fill="#63b8ff" stroke="#63b8ff" points="479.21,-88.03 485.62,-79.59 475.35,-82.19 479.21,-88.03"/>
</a>
</g>
</g>
<!-- Node8 -->
<g id="Node000008" class="node">
<title>Node8</title>
<g id="a_Node000008"><a xlink:title=" ">
<polygon fill="#e0e0e0" stroke="#999999" points="326.6,-79.5 192.6,-79.5 192.6,-60.5 326.6,-60.5 326.6,-79.5"/>
<text text-anchor="middle" x="259.6" y="-67.5" font-family="Helvetica,sans-Serif" font-size="10.00">Ocp1ObjectDefinitions.h</text>
</a>
</g>
</g>
<!-- Node6&#45;&gt;Node8 -->
<g id="edge9_Node000006_Node000008" class="edge">
<title>Node6&#45;&gt;Node8</title>
<g id="a_edge9_Node000006_Node000008"><a xlink:title=" ">
<path fill="none" stroke="#63b8ff" d="M377.17,-131.98C354.16,-120.05 312.14,-98.25 285.06,-84.21"/>
<polygon fill="#63b8ff" stroke="#63b8ff" points="286.65,-81.09 276.16,-79.59 283.43,-87.3 286.65,-81.09"/>
</a>
</g>
</g>
<!-- Node9 -->
<g id="Node000009" class="node">
<title>Node9</title>
<g id="a_Node000009"><a xlink:title=" ">
<polygon fill="#e0e0e0" stroke="#999999" points="404.6,-79.5 344.6,-79.5 344.6,-60.5 404.6,-60.5 404.6,-79.5"/>
<text text-anchor="middle" x="374.6" y="-67.5" font-family="Helvetica,sans-Serif" font-size="10.00">Variant.h</text>
</a>
</g>
</g>
<!-- Node6&#45;&gt;Node9 -->
<g id="edge10_Node000006_Node000009" class="edge">
<title>Node6&#45;&gt;Node9</title>
<g id="a_edge10_Node000006_Node000009"><a xlink:title=" ">
<path fill="none" stroke="#63b8ff" d="M391.27,-131.98C388.39,-121.45 383.41,-103.25 379.65,-89.47"/>
<polygon fill="#63b8ff" stroke="#63b8ff" points="382.96,-88.31 376.95,-79.59 376.21,-90.16 382.96,-88.31"/>
</a>
</g>
</g>
<!-- Node10&#45;&gt;Node3 -->
<g id="edge12_Node000010_Node000003" class="edge">
<title>Node10&#45;&gt;Node3</title>
<g id="a_edge12_Node000010_Node000003"><a xlink:title=" ">
<path fill="none" stroke="#63b8ff" d="M753.96,-54.99C710.05,-44.67 651.22,-30.85 610.85,-21.37"/>
<polygon fill="#63b8ff" stroke="#63b8ff" points="611.54,-17.93 601,-19.05 609.94,-24.75 611.54,-17.93"/>
</a>
</g>
</g>
<!-- Node11&#45;&gt;Node3 -->
<g id="edge14_Node000011_Node000003" class="edge">
<title>Node11&#45;&gt;Node3</title>
<g id="a_edge14_Node000011_Node000003"><a xlink:title=" ">
<path fill="none" stroke="#63b8ff" d="M562.05,-120.76C562.63,-95.86 563.61,-53.38 564.17,-29.06"/>
<polygon fill="#63b8ff" stroke="#63b8ff" points="567.67,-29.09 564.4,-19.01 560.67,-28.93 567.67,-29.09"/>
</a>
</g>
</g>
<!-- Node11&#45;&gt;Node10 -->
<g id="edge15_Node000011_Node000010" class="edge">
<title>Node11&#45;&gt;Node10</title>
<g id="a_edge15_Node000011_Node000010"><a xlink:title=" ">
<path fill="none" stroke="#63b8ff" d="M632.46,-120.96C670.39,-110.5 716.61,-97.75 752.87,-87.75"/>
<polygon fill="#63b8ff" stroke="#63b8ff" points="754.11,-91.04 762.82,-85 752.25,-84.29 754.11,-91.04"/>
</a>
</g>
</g>
<!-- Node12 -->
<g id="Node000012" class="node">
<title>Node12</title>
<g id="a_Node000012"><a xlink:title=" ">
<polygon fill="#e0e0e0" stroke="#999999" points="692.1,-79.5 593.1,-79.5 593.1,-60.5 692.1,-60.5 692.1,-79.5"/>
<text text-anchor="middle" x="642.6" y="-67.5" font-family="Helvetica,sans-Serif" font-size="10.00">TwoDFieldBase.h</text>
</a>
</g>
</g>
<!-- Node11&#45;&gt;Node12 -->
<g id="edge16_Node000011_Node000012" class="edge">
<title>Node11&#45;&gt;Node12</title>
<g id="a_edge16_Node000011_Node000012"><a xlink:title=" ">
<path fill="none" stroke="#63b8ff" d="M584.59,-120.77C597.24,-109.92 612.7,-96.65 624.48,-86.54"/>
<polygon fill="#63b8ff" stroke="#63b8ff" points="627.01,-88.99 632.32,-79.82 622.45,-83.68 627.01,-88.99"/>
</a>
</g>
</g>
<!-- Node13&#45;&gt;Node3 -->
<g id="edge18_Node000013_Node000003" class="edge">
<title>Node13&#45;&gt;Node3</title>
<g id="a_edge18_Node000013_Node000003"><a xlink:title=" ">
<path fill="none" stroke="#63b8ff" d="M859.58,-126.47C900.28,-111 951.57,-84.37 925.6,-55 905.36,-32.12 709.48,-18.4 615.03,-13.07"/>
<polygon fill="#63b8ff" stroke="#63b8ff" points="615.03,-9.57 604.85,-12.51 614.64,-16.55 615.03,-9.57"/>
</a>
</g>
</g>
<!-- Node13&#45;&gt;Node10 -->
<g id="edge19_Node000013_Node000010" class="edge">
<title>Node13&#45;&gt;Node10</title>
<g id="a_edge19_Node000013_Node000010"><a xlink:title=" ">
<path fill="none" stroke="#63b8ff" d="M815.99,-126.44C815.6,-117.49 815.09,-105.66 814.64,-95.23"/>
<polygon fill="#63b8ff" stroke="#63b8ff" points="818.13,-94.88 814.2,-85.04 811.14,-95.19 818.13,-94.88"/>
</a>
</g>
</g>
<!-- Node14&#45;&gt;Node3 -->
<g id="edge21_Node000014_Node000003" class="edge">
<title>Node14&#45;&gt;Node3</title>
<g id="a_edge21_Node000014_Node000003"><a xlink:title=" ">
<path fill="none" stroke="#63b8ff" d="M1029.36,-126.39C1012.74,-106.66 979.55,-71.38 942.6,-55 885.07,-29.5 703.92,-17.31 614.93,-12.74"/>
<polygon fill="#63b8ff" stroke="#63b8ff" points="614.97,-9.24 604.8,-12.23 614.62,-16.23 614.97,-9.24"/>
</a>
</g>
</g>
<!-- Node14&#45;&gt;Node10 -->
<g id="edge22_Node000014_Node000010" class="edge">
<title>Node14&#45;&gt;Node10</title>
<g id="a_edge22_Node000014_Node000010"><a xlink:title=" ">
<path fill="none" stroke="#63b8ff" d="M994.66,-126.44C958.51,-115.37 907.98,-99.9 869.48,-88.11"/>
<polygon fill="#63b8ff" stroke="#63b8ff" points="870.05,-84.62 859.47,-85.04 868,-91.32 870.05,-84.62"/>
</a>
</g>
</g>
<!-- Node15 -->
<g id="Node000015" class="node">
<title>Node15</title>
<g id="a_Node000015"><a xlink:title=" ">
<polygon fill="#e0e0e0" stroke="#999999" points="1056.6,-79.5 1024.6,-79.5 1024.6,-60.5 1056.6,-60.5 1056.6,-79.5"/>
<text text-anchor="middle" x="1040.6" y="-67.5" font-family="Helvetica,sans-Serif" font-size="10.00">set</text>
</a>
</g>
</g>
<!-- Node14&#45;&gt;Node15 -->
<g id="edge23_Node000014_Node000015" class="edge">
<title>Node14&#45;&gt;Node15</title>
<g id="a_edge23_Node000014_Node000015"><a xlink:title=" ">
<path fill="none" stroke="#63b8ff" d="M1040.6,-126.44C1040.6,-115.96 1040.6,-101.55 1040.6,-90.05"/>
<polygon fill="#63b8ff" stroke="#63b8ff" points="1044.1,-89.77 1040.6,-79.77 1037.1,-89.77 1044.1,-89.77"/>
</a>
</g>
</g>
</g>
</svg>
