<?xml version="1.0" encoding="UTF-8" standalone="no"?>
<!DOCTYPE svg PUBLIC "-//W3C//DTD SVG 1.1//EN"
 "http://www.w3.org/Graphics/SVG/1.1/DTD/svg11.dtd">
<!-- Generated by graphviz version 2.43.0 (0)
 -->
<!-- Title: Source/UmsciPaintNControlComponents/UmsciSoundobjectsPaintComponent.cpp Pages: 1 -->
<svg width="354pt" height="225pt"
 viewBox="0.00 0.00 353.50 225.00" xmlns="http://www.w3.org/2000/svg" xmlns:xlink="http://www.w3.org/1999/xlink">

<svg id="main" version="1.1" xmlns="http://www.w3.org/2000/svg" xmlns:xlink="http://www.w3.org/1999/xlink" xml:space="preserve" onload="init(evt)">
<style type="text/css"><![CDATA[
.node, .edge {opacity: 0.7;}
.node.selected, .edge.selected {opacity: 1;}
.edge:hover path { stroke: red; }
.edge:hover polygon { stroke: red; fill: red; }
]]></style>
<script type="application/ecmascript" xlink:href="svg.min.js"/>
<svg id="graph" class="graph">
<g id="graph0" class="graph" transform="scale(1 1) rotate(0) translate(4 221)">
<title>Source/UmsciPaintNControlComponents/UmsciSoundobjectsPaintComponent.cpp</title>
<!-- Node1 -->
<g id="Node000001" class="node">
<title>Node1</title>
<g id="a_Node000001"><a xlink:title=" ">
<polygon fill="#999999" stroke="#666666" points="292.5,-217 91.5,-217 91.5,-176 292.5,-176 292.5,-217"/>
<text text-anchor="start" x="99.5" y="-205" font-family="Helvetica,sans-Serif" font-size="10.00">Source/UmsciPaintNControl</text>
<text text-anchor="start" x="99.5" y="-194" font-family="Helvetica,sans-Serif" font-size="10.00">Components/UmsciSoundobjectsPaint</text>
<text text-anchor="middle" x="192" y="-183" font-family="Helvetica,sans-Serif" font-size="10.00">Component.cpp</text>
</a>
</g>
</g>
<!-- Node2 -->
<g id="Node000002" class="node">
<title>Node2</title>
<g id="a_Node000002"><a xlink:href="UmsciSoundobjectsPaintComponent_8h.html" target="_top" xlink:title=" ">
<polygon fill="white" stroke="#666666" points="202,-140 0,-140 0,-121 202,-121 202,-140"/>
<text text-anchor="middle" x="101" y="-128" font-family="Helvetica,sans-Serif" font-size="10.00">UmsciSoundobjectsPaintComponent.h</text>
</a>
</g>
</g>
<!-- Node1&#45;&gt;Node2 -->
<g id="edge1_Node000001_Node000002" class="edge">
<title>Node1&#45;&gt;Node2</title>
<g id="a_edge1_Node000001_Node000002"><a xlink:title=" ">
<path fill="none" stroke="#63b8ff" d="M164.2,-175.95C150.58,-166.37 134.44,-155.02 121.88,-146.19"/>
<polygon fill="#63b8ff" stroke="#63b8ff" points="123.65,-143.15 113.46,-140.26 119.62,-148.88 123.65,-143.15"/>
</a>
</g>
</g>
<!-- Node6 -->
<g id="Node000006" class="node">
<title>Node6</title>
<g id="a_Node000006"><a xlink:title=" ">
<polygon fill="#e0e0e0" stroke="#999999" points="345.5,-140 220.5,-140 220.5,-121 345.5,-121 345.5,-140"/>
<text text-anchor="middle" x="283" y="-128" font-family="Helvetica,sans-Serif" font-size="10.00">CustomLookAndFeel.h</text>
</a>
</g>
</g>
<!-- Node1&#45;&gt;Node6 -->
<g id="edge6_Node000001_Node000006" class="edge">
<title>Node1&#45;&gt;Node6</title>
<g id="a_edge6_Node000001_Node000006"><a xlink:title=" ">
<path fill="none" stroke="#63b8ff" d="M219.8,-175.95C233.42,-166.37 249.56,-155.02 262.12,-146.19"/>
<polygon fill="#63b8ff" stroke="#63b8ff" points="264.38,-148.88 270.54,-140.26 260.35,-143.15 264.38,-148.88"/>
</a>
</g>
</g>
<!-- Node3 -->
<g id="Node000003" class="node">
<title>Node3</title>
<g id="a_Node000003"><a xlink:title=" ">
<polygon fill="#e0e0e0" stroke="#999999" points="84,-19 4,-19 4,0 84,0 84,-19"/>
<text text-anchor="middle" x="44" y="-7" font-family="Helvetica,sans-Serif" font-size="10.00">JuceHeader.h</text>
</a>
</g>
</g>
<!-- Node2&#45;&gt;Node3 -->
<g id="edge2_Node000002_Node000003" class="edge">
<title>Node2&#45;&gt;Node3</title>
<g id="a_edge2_Node000002_Node000003"><a xlink:title=" ">
<path fill="none" stroke="#63b8ff" d="M60.38,-120.99C40.68,-114.59 18.78,-103.61 7,-85 -5.23,-65.67 11.83,-41.74 26.63,-26.3"/>
<polygon fill="#63b8ff" stroke="#63b8ff" points="29.31,-28.58 33.99,-19.07 24.4,-23.58 29.31,-28.58"/>
</a>
</g>
</g>
<!-- Node4 -->
<g id="Node000004" class="node">
<title>Node4</title>
<g id="a_Node000004"><a xlink:href="UmsciPaintNControlComponentBase_8h.html" target="_top" xlink:title=" ">
<polygon fill="white" stroke="#666666" points="186,-85 16,-85 16,-55 186,-55 186,-85"/>
<text text-anchor="start" x="24" y="-73" font-family="Helvetica,sans-Serif" font-size="10.00">UmsciPaintNControlComponent</text>
<text text-anchor="middle" x="101" y="-62" font-family="Helvetica,sans-Serif" font-size="10.00">Base.h</text>
</a>
</g>
</g>
<!-- Node2&#45;&gt;Node4 -->
<g id="edge3_Node000002_Node000004" class="edge">
<title>Node2&#45;&gt;Node4</title>
<g id="a_edge3_Node000002_Node000004"><a xlink:title=" ">
<path fill="none" stroke="#63b8ff" d="M101,-120.87C101,-114.11 101,-104.35 101,-95.26"/>
<polygon fill="#63b8ff" stroke="#63b8ff" points="104.5,-95.11 101,-85.11 97.5,-95.11 104.5,-95.11"/>
</a>
</g>
</g>
<!-- Node5 -->
<g id="Node000005" class="node">
<title>Node5</title>
<g id="a_Node000005"><a xlink:title=" ">
<polygon fill="#e0e0e0" stroke="#999999" points="236,-79.5 204,-79.5 204,-60.5 236,-60.5 236,-79.5"/>
<text text-anchor="middle" x="220" y="-67.5" font-family="Helvetica,sans-Serif" font-size="10.00">set</text>
</a>
</g>
</g>
<!-- Node2&#45;&gt;Node5 -->
<g id="edge5_Node000002_Node000005" class="edge">
<title>Node2&#45;&gt;Node5</title>
<g id="a_edge5_Node000002_Node000005"><a xlink:title=" ">
<path fill="none" stroke="#63b8ff" d="M120.27,-120.84C139.4,-112.14 169.49,-98.16 195,-85 195.31,-84.84 195.62,-84.68 195.92,-84.52"/>
<polygon fill="#63b8ff" stroke="#63b8ff" points="197.88,-87.44 205.02,-79.61 194.56,-81.28 197.88,-87.44"/>
</a>
</g>
</g>
<!-- Node4&#45;&gt;Node3 -->
<g id="edge4_Node000004_Node000003" class="edge">
<title>Node4&#45;&gt;Node3</title>
<g id="a_edge4_Node000004_Node000003"><a xlink:title=" ">
<path fill="none" stroke="#63b8ff" d="M87.2,-54.84C78.93,-46.35 68.38,-35.52 59.77,-26.69"/>
<polygon fill="#63b8ff" stroke="#63b8ff" points="62.03,-23.99 52.54,-19.27 57.01,-28.87 62.03,-23.99"/>
</a>
</g>
</g>
</g>
</svg>
</svg>

<style type='text/css'>
<![CDATA[
[data-mouse-over-selected='false'] { opacity: 0.7; }
[data-mouse-over-selected='true']  { opacity: 1.0; }
]]>
</style>
<script type="application/ecmascript"><![CDATA[
document.addEventListener('DOMContentLoaded', (event) => {
  highlightEdges();
  highlightAdjacentNodes();
});
]]></script>
</svg>
