<?xml version="1.0" encoding="UTF-8" standalone="no"?>
<!DOCTYPE svg PUBLIC "-//W3C//DTD SVG 1.1//EN"
 "http://www.w3.org/Graphics/SVG/1.1/DTD/svg11.dtd">
<!-- Generated by graphviz version 2.43.0 (0)
 -->
<!-- Title: Source/UmsciExternalControlComponent.h Pages: 1 -->
<svg width="584pt" height="214pt"
 viewBox="0.00 0.00 584.00 214.00" xmlns="http://www.w3.org/2000/svg" xmlns:xlink="http://www.w3.org/1999/xlink">
<g id="graph0" class="graph" transform="scale(1 1) rotate(0) translate(4 210)">
<title>Source/UmsciExternalControlComponent.h</title>
<!-- Node1 -->
<g id="Node000001" class="node">
<title>Node1</title>
<g id="a_Node000001"><a xlink:title=" ">
<polygon fill="#999999" stroke="#666666" points="323,-206 164,-206 164,-176 323,-176 323,-206"/>
<text text-anchor="start" x="172" y="-194" font-family="Helvetica,sans-Serif" font-size="10.00">Source/UmsciExternalControl</text>
<text text-anchor="middle" x="243.5" y="-183" font-family="Helvetica,sans-Serif" font-size="10.00">Component.h</text>
</a>
</g>
</g>
<!-- Node2 -->
<g id="Node000002" class="node">
<title>Node2</title>
<g id="a_Node000002"><a xlink:href="MainComponent_8cpp.html" target="_top" xlink:title=" ">
<polygon fill="white" stroke="#666666" points="153,-19 0,-19 0,0 153,0 153,-19"/>
<text text-anchor="middle" x="76.5" y="-7" font-family="Helvetica,sans-Serif" font-size="10.00">Source/MainComponent.cpp</text>
</a>
</g>
</g>
<!-- Node1&#45;&gt;Node2 -->
<g id="edge1_Node000001_Node000002" class="edge">
<title>Node1&#45;&gt;Node2</title>
<g id="a_edge1_Node000001_Node000002"><a xlink:title=" ">
<path fill="none" stroke="#63b8ff" d="M154.01,-176.22C127.08,-168.81 98.79,-157.44 76.5,-140 43.77,-114.39 22.87,-93.9 37.5,-55 43.07,-40.19 56.05,-27.1 65.51,-19.01"/>
<polygon fill="#63b8ff" stroke="#63b8ff" points="153.3,-179.65 163.86,-178.77 155.06,-172.88 153.3,-179.65"/>
</a>
</g>
</g>
<!-- Node3 -->
<g id="Node000003" class="node">
<title>Node3</title>
<g id="a_Node000003"><a xlink:href="MainComponent_8h.html" target="_top" xlink:title=" ">
<polygon fill="white" stroke="#666666" points="348.5,-74 206.5,-74 206.5,-55 348.5,-55 348.5,-74"/>
<text text-anchor="middle" x="277.5" y="-62" font-family="Helvetica,sans-Serif" font-size="10.00">Source/MainComponent.h</text>
</a>
</g>
</g>
<!-- Node1&#45;&gt;Node3 -->
<g id="edge2_Node000001_Node000003" class="edge">
<title>Node1&#45;&gt;Node3</title>
<g id="a_edge2_Node000001_Node000003"><a xlink:title=" ">
<path fill="none" stroke="#63b8ff" d="M248.67,-165.65C252.21,-149.72 257.19,-128.51 262.5,-110 266.09,-97.46 271.06,-83.21 274.27,-74.29"/>
<polygon fill="#63b8ff" stroke="#63b8ff" points="245.18,-165.22 246.47,-175.74 252.02,-166.71 245.18,-165.22"/>
</a>
</g>
</g>
<!-- Node5 -->
<g id="Node000005" class="node">
<title>Node5</title>
<g id="a_Node000005"><a xlink:href="MidiController_8h.html" target="_top" xlink:title=" ">
<polygon fill="white" stroke="#666666" points="215.5,-134.5 85.5,-134.5 85.5,-115.5 215.5,-115.5 215.5,-134.5"/>
<text text-anchor="middle" x="150.5" y="-122.5" font-family="Helvetica,sans-Serif" font-size="10.00">Source/MidiController.h</text>
</a>
</g>
</g>
<!-- Node1&#45;&gt;Node5 -->
<g id="edge5_Node000001_Node000005" class="edge">
<title>Node1&#45;&gt;Node5</title>
<g id="a_edge5_Node000001_Node000005"><a xlink:title=" ">
<path fill="none" stroke="#63b8ff" d="M214.25,-169.87C197.04,-158.03 176.14,-143.65 163.08,-134.66"/>
<polygon fill="#63b8ff" stroke="#63b8ff" points="212.64,-173.01 222.86,-175.8 216.61,-167.24 212.64,-173.01"/>
</a>
</g>
</g>
<!-- Node7 -->
<g id="Node000007" class="node">
<title>Node7</title>
<g id="a_Node000007"><a xlink:href="OscController_8h.html" target="_top" xlink:title=" ">
<polygon fill="white" stroke="#666666" points="399,-134.5 272,-134.5 272,-115.5 399,-115.5 399,-134.5"/>
<text text-anchor="middle" x="335.5" y="-122.5" font-family="Helvetica,sans-Serif" font-size="10.00">Source/OscController.h</text>
</a>
</g>
</g>
<!-- Node1&#45;&gt;Node7 -->
<g id="edge8_Node000001_Node000007" class="edge">
<title>Node1&#45;&gt;Node7</title>
<g id="a_edge8_Node000001_Node000007"><a xlink:title=" ">
<path fill="none" stroke="#63b8ff" d="M272.43,-169.87C289.46,-158.03 310.13,-143.65 323.05,-134.66"/>
<polygon fill="#63b8ff" stroke="#63b8ff" points="270.13,-167.21 263.92,-175.8 274.13,-172.96 270.13,-167.21"/>
</a>
</g>
</g>
<!-- Node9 -->
<g id="Node000009" class="node">
<title>Node9</title>
<g id="a_Node000009"><a xlink:href="UmsciExternalControlComponent_8cpp.html" target="_top" xlink:title=" ">
<polygon fill="white" stroke="#666666" points="576,-140 417,-140 417,-110 576,-110 576,-140"/>
<text text-anchor="start" x="425" y="-128" font-family="Helvetica,sans-Serif" font-size="10.00">Source/UmsciExternalControl</text>
<text text-anchor="middle" x="496.5" y="-117" font-family="Helvetica,sans-Serif" font-size="10.00">Component.cpp</text>
</a>
</g>
</g>
<!-- Node1&#45;&gt;Node9 -->
<g id="edge11_Node000001_Node000009" class="edge">
<title>Node1&#45;&gt;Node9</title>
<g id="a_edge11_Node000001_Node000009"><a xlink:title=" ">
<path fill="none" stroke="#63b8ff" d="M308.92,-173.45C349.91,-163.08 402.17,-149.86 441.11,-140.01"/>
<polygon fill="#63b8ff" stroke="#63b8ff" points="307.86,-170.11 299.02,-175.95 309.57,-176.9 307.86,-170.11"/>
</a>
</g>
</g>
<!-- Node3&#45;&gt;Node2 -->
<g id="edge4_Node000003_Node000002" class="edge">
<title>Node3&#45;&gt;Node2</title>
<g id="a_edge4_Node000003_Node000002"><a xlink:title=" ">
<path fill="none" stroke="#63b8ff" d="M235.07,-52.31C197.46,-42.39 143.33,-28.12 109.05,-19.08"/>
<polygon fill="#63b8ff" stroke="#63b8ff" points="234.64,-55.82 245.21,-54.98 236.43,-49.05 234.64,-55.82"/>
</a>
</g>
</g>
<!-- Node4 -->
<g id="Node000004" class="node">
<title>Node4</title>
<g id="a_Node000004"><a xlink:href="Main_8cpp.html" target="_top" xlink:title=" ">
<polygon fill="white" stroke="#666666" points="326,-19 229,-19 229,0 326,0 326,-19"/>
<text text-anchor="middle" x="277.5" y="-7" font-family="Helvetica,sans-Serif" font-size="10.00">Source/Main.cpp</text>
</a>
</g>
</g>
<!-- Node3&#45;&gt;Node4 -->
<g id="edge3_Node000003_Node000004" class="edge">
<title>Node3&#45;&gt;Node4</title>
<g id="a_edge3_Node000003_Node000004"><a xlink:title=" ">
<path fill="none" stroke="#63b8ff" d="M277.5,-44.66C277.5,-35.93 277.5,-25.99 277.5,-19.09"/>
<polygon fill="#63b8ff" stroke="#63b8ff" points="274,-44.75 277.5,-54.75 281,-44.75 274,-44.75"/>
</a>
</g>
</g>
<!-- Node5&#45;&gt;Node3 -->
<g id="edge6_Node000005_Node000003" class="edge">
<title>Node5&#45;&gt;Node3</title>
<g id="a_edge6_Node000005_Node000003"><a xlink:title=" ">
<path fill="none" stroke="#63b8ff" d="M178.11,-111.28C202.62,-99.99 237.74,-83.81 259.01,-74.02"/>
<polygon fill="#63b8ff" stroke="#63b8ff" points="176.59,-108.13 168.97,-115.49 179.51,-114.49 176.59,-108.13"/>
</a>
</g>
</g>
<!-- Node6 -->
<g id="Node000006" class="node">
<title>Node6</title>
<g id="a_Node000006"><a xlink:href="MidiController_8cpp.html" target="_top" xlink:title=" ">
<polygon fill="white" stroke="#666666" points="188,-74 47,-74 47,-55 188,-55 188,-74"/>
<text text-anchor="middle" x="117.5" y="-62" font-family="Helvetica,sans-Serif" font-size="10.00">Source/MidiController.cpp</text>
</a>
</g>
</g>
<!-- Node5&#45;&gt;Node6 -->
<g id="edge7_Node000005_Node000006" class="edge">
<title>Node5&#45;&gt;Node6</title>
<g id="a_edge7_Node000005_Node000006"><a xlink:title=" ">
<path fill="none" stroke="#63b8ff" d="M140.62,-106.48C134.6,-95.81 127.17,-82.65 122.39,-74.17"/>
<polygon fill="#63b8ff" stroke="#63b8ff" points="137.67,-108.38 145.63,-115.37 143.77,-104.94 137.67,-108.38"/>
</a>
</g>
</g>
<!-- Node7&#45;&gt;Node3 -->
<g id="edge9_Node000007_Node000003" class="edge">
<title>Node7&#45;&gt;Node3</title>
<g id="a_edge9_Node000007_Node000003"><a xlink:title=" ">
<path fill="none" stroke="#63b8ff" d="M319.73,-108.09C308.9,-97.17 294.93,-83.08 286.09,-74.17"/>
<polygon fill="#63b8ff" stroke="#63b8ff" points="317.42,-110.73 326.94,-115.37 322.39,-105.8 317.42,-110.73"/>
</a>
</g>
</g>
<!-- Node8 -->
<g id="Node000008" class="node">
<title>Node8</title>
<g id="a_Node000008"><a xlink:href="OscController_8cpp.html" target="_top" xlink:title=" ">
<polygon fill="white" stroke="#666666" points="504.5,-74 366.5,-74 366.5,-55 504.5,-55 504.5,-74"/>
<text text-anchor="middle" x="435.5" y="-62" font-family="Helvetica,sans-Serif" font-size="10.00">Source/OscController.cpp</text>
</a>
</g>
</g>
<!-- Node7&#45;&gt;Node8 -->
<g id="edge10_Node000007_Node000008" class="edge">
<title>Node7&#45;&gt;Node8</title>
<g id="a_edge10_Node000007_Node000008"><a xlink:title=" ">
<path fill="none" stroke="#63b8ff" d="M358.97,-110.27C378.06,-99.1 404.41,-83.69 420.68,-74.17"/>
<polygon fill="#63b8ff" stroke="#63b8ff" points="357.12,-107.3 350.26,-115.37 360.65,-113.34 357.12,-107.3"/>
</a>
</g>
</g>
</g>
</svg>
