<?xml version="1.0" encoding="UTF-8" standalone="no"?>
<!DOCTYPE svg PUBLIC "-//W3C//DTD SVG 1.1//EN"
 "http://www.w3.org/Graphics/SVG/1.1/DTD/svg11.dtd">
<!-- Generated by graphviz version 2.43.0 (0)
 -->
<!-- Title: Source/UmsciPaintNControlComponents/UmsciUpmixIndicatorPaintNControlComponent.h Pages: 1 -->
<svg width="523pt" height="181pt"
 viewBox="0.00 0.00 523.00 181.00" xmlns="http://www.w3.org/2000/svg" xmlns:xlink="http://www.w3.org/1999/xlink">
<g id="graph0" class="graph" transform="scale(1 1) rotate(0) translate(4 177)">
<title>Source/UmsciPaintNControlComponents/UmsciUpmixIndicatorPaintNControlComponent.h</title>
<!-- Node1 -->
<g id="Node000001" class="node">
<title>Node1</title>
<g id="a_Node000001"><a xlink:title=" ">
<polygon fill="#999999" stroke="#666666" points="311,-173 124,-173 124,-132 311,-132 311,-173"/>
<text text-anchor="start" x="132" y="-161" font-family="Helvetica,sans-Serif" font-size="10.00">Source/UmsciPaintNControl</text>
<text text-anchor="start" x="132" y="-150" font-family="Helvetica,sans-Serif" font-size="10.00">Components/UmsciUpmixIndicator</text>
<text text-anchor="middle" x="217.5" y="-139" font-family="Helvetica,sans-Serif" font-size="10.00">PaintNControlComponent.h</text>
</a>
</g>
</g>
<!-- Node2 -->
<g id="Node000002" class="node">
<title>Node2</title>
<g id="a_Node000002"><a xlink:href="UmsciControlComponent_8cpp.html" target="_top" xlink:title=" ">
<polygon fill="white" stroke="#666666" points="195,-19 0,-19 0,0 195,0 195,-19"/>
<text text-anchor="middle" x="97.5" y="-7" font-family="Helvetica,sans-Serif" font-size="10.00">Source/UmsciControlComponent.cpp</text>
</a>
</g>
</g>
<!-- Node1&#45;&gt;Node2 -->
<g id="edge1_Node000001_Node000002" class="edge">
<title>Node1&#45;&gt;Node2</title>
<g id="a_edge1_Node000001_Node000002"><a xlink:title=" ">
<path fill="none" stroke="#63b8ff" d="M153.93,-127.25C139.82,-119.22 126.19,-108.92 116.5,-96 98.89,-72.52 97.03,-35.85 97.19,-19.22"/>
<polygon fill="#63b8ff" stroke="#63b8ff" points="152.28,-130.34 162.75,-131.97 155.58,-124.17 152.28,-130.34"/>
</a>
</g>
</g>
<!-- Node3 -->
<g id="Node000003" class="node">
<title>Node3</title>
<g id="a_Node000003"><a xlink:href="UmsciControlComponent_8h.html" target="_top" xlink:title=" ">
<polygon fill="white" stroke="#666666" points="309.5,-85 125.5,-85 125.5,-66 309.5,-66 309.5,-85"/>
<text text-anchor="middle" x="217.5" y="-73" font-family="Helvetica,sans-Serif" font-size="10.00">Source/UmsciControlComponent.h</text>
</a>
</g>
</g>
<!-- Node1&#45;&gt;Node3 -->
<g id="edge2_Node000001_Node000003" class="edge">
<title>Node1&#45;&gt;Node3</title>
<g id="a_edge2_Node000001_Node000003"><a xlink:title=" ">
<path fill="none" stroke="#63b8ff" d="M217.5,-121.7C217.5,-108.59 217.5,-94.18 217.5,-85.24"/>
<polygon fill="#63b8ff" stroke="#63b8ff" points="214,-121.79 217.5,-131.79 221,-121.79 214,-121.79"/>
</a>
</g>
</g>
<!-- Node5 -->
<g id="Node000005" class="node">
<title>Node5</title>
<g id="a_Node000005"><a xlink:href="UmsciUpmixIndicatorPaintNControlComponent_8cpp.html" target="_top" xlink:title=" ">
<polygon fill="white" stroke="#666666" points="515,-96 328,-96 328,-55 515,-55 515,-96"/>
<text text-anchor="start" x="336" y="-84" font-family="Helvetica,sans-Serif" font-size="10.00">Source/UmsciPaintNControl</text>
<text text-anchor="start" x="336" y="-73" font-family="Helvetica,sans-Serif" font-size="10.00">Components/UmsciUpmixIndicator</text>
<text text-anchor="middle" x="421.5" y="-62" font-family="Helvetica,sans-Serif" font-size="10.00">PaintNControlComponent.cpp</text>
</a>
</g>
</g>
<!-- Node1&#45;&gt;Node5 -->
<g id="edge5_Node000001_Node000005" class="edge">
<title>Node1&#45;&gt;Node5</title>
<g id="a_edge5_Node000001_Node000005"><a xlink:title=" ">
<path fill="none" stroke="#63b8ff" d="M279.95,-128.54C308.22,-118.15 341.29,-105.99 368.35,-96.04"/>
<polygon fill="#63b8ff" stroke="#63b8ff" points="278.74,-125.25 270.57,-131.99 281.16,-131.82 278.74,-125.25"/>
</a>
</g>
</g>
<!-- Node3&#45;&gt;Node2 -->
<g id="edge4_Node000003_Node000002" class="edge">
<title>Node3&#45;&gt;Node2</title>
<g id="a_edge4_Node000003_Node000002"><a xlink:title=" ">
<path fill="none" stroke="#63b8ff" d="M192.24,-61.03C168.6,-48.42 134,-29.97 113.81,-19.2"/>
<polygon fill="#63b8ff" stroke="#63b8ff" points="190.85,-64.25 201.32,-65.87 194.14,-58.07 190.85,-64.25"/>
</a>
</g>
</g>
<!-- Node4 -->
<g id="Node000004" class="node">
<title>Node4</title>
<g id="a_Node000004"><a xlink:href="MainComponent_8cpp.html" target="_top" xlink:title=" ">
<polygon fill="white" stroke="#666666" points="366,-19 213,-19 213,0 366,0 366,-19"/>
<text text-anchor="middle" x="289.5" y="-7" font-family="Helvetica,sans-Serif" font-size="10.00">Source/MainComponent.cpp</text>
</a>
</g>
</g>
<!-- Node3&#45;&gt;Node4 -->
<g id="edge3_Node000003_Node000004" class="edge">
<title>Node3&#45;&gt;Node4</title>
<g id="a_edge3_Node000003_Node000004"><a xlink:title=" ">
<path fill="none" stroke="#63b8ff" d="M234.74,-59.18C248.71,-46.76 267.92,-29.68 279.48,-19.41"/>
<polygon fill="#63b8ff" stroke="#63b8ff" points="232.36,-56.61 227.21,-65.87 237.01,-61.84 232.36,-56.61"/>
</a>
</g>
</g>
</g>
</svg>
