<?xml version="1.0" encoding="UTF-8" standalone="no"?>
<!DOCTYPE svg PUBLIC "-//W3C//DTD SVG 1.1//EN"
 "http://www.w3.org/Graphics/SVG/1.1/DTD/svg11.dtd">
<!-- Generated by graphviz version 2.43.0 (0)
 -->
<!-- Title: Source/UmsciPaintNControlComponents/UmsciUpmixIndicatorPaintNControlComponent.h Pages: 1 -->
<svg width="308pt" height="170pt"
 viewBox="0.00 0.00 308.38 170.00" xmlns="http://www.w3.org/2000/svg" xmlns:xlink="http://www.w3.org/1999/xlink">

<svg id="main" version="1.1" xmlns="http://www.w3.org/2000/svg" xmlns:xlink="http://www.w3.org/1999/xlink" xml:space="preserve" onload="init(evt)">
<style type="text/css"><![CDATA[
.node, .edge {opacity: 0.7;}
.node.selected, .edge.selected {opacity: 1;}
.edge:hover path { stroke: red; }
.edge:hover polygon { stroke: red; fill: red; }
]]></style>
<script type="application/ecmascript" xlink:href="svg.min.js"/>
<svg id="graph" class="graph">
<g id="graph0" class="graph" transform="scale(1 1) rotate(0) translate(4 166)">
<title>Source/UmsciPaintNControlComponents/UmsciUpmixIndicatorPaintNControlComponent.h</title>
<!-- Node1 -->
<g id="Node000001" class="node">
<title>Node1</title>
<g id="a_Node000001"><a xlink:title=" ">
<polygon fill="#999999" stroke="#666666" points="191.38,-162 4.38,-162 4.38,-121 191.38,-121 191.38,-162"/>
<text text-anchor="start" x="12.38" y="-150" font-family="Helvetica,sans-Serif" font-size="10.00">Source/UmsciPaintNControl</text>
<text text-anchor="start" x="12.38" y="-139" font-family="Helvetica,sans-Serif" font-size="10.00">Components/UmsciUpmixIndicator</text>
<text text-anchor="middle" x="97.88" y="-128" font-family="Helvetica,sans-Serif" font-size="10.00">PaintNControlComponent.h</text>
</a>
</g>
</g>
<!-- Node2 -->
<g id="Node000002" class="node">
<title>Node2</title>
<g id="a_Node000002"><a xlink:title=" ">
<polygon fill="#e0e0e0" stroke="#999999" points="80.88,-19 0.88,-19 0.88,0 80.88,0 80.88,-19"/>
<text text-anchor="middle" x="40.88" y="-7" font-family="Helvetica,sans-Serif" font-size="10.00">JuceHeader.h</text>
</a>
</g>
</g>
<!-- Node1&#45;&gt;Node2 -->
<g id="edge1_Node000001_Node000002" class="edge">
<title>Node1&#45;&gt;Node2</title>
<g id="a_edge1_Node000001_Node000002"><a xlink:title=" ">
<path fill="none" stroke="#63b8ff" d="M43.7,-120.81C28.06,-112.31 12.81,-100.64 3.88,-85 -7.33,-65.35 9.04,-41.84 23.43,-26.56"/>
<polygon fill="#63b8ff" stroke="#63b8ff" points="26.02,-28.93 30.62,-19.39 21.07,-23.98 26.02,-28.93"/>
</a>
</g>
</g>
<!-- Node3 -->
<g id="Node000003" class="node">
<title>Node3</title>
<g id="a_Node000003"><a xlink:href="UmsciPaintNControlComponentBase_8h.html" target="_top" xlink:title=" ">
<polygon fill="white" stroke="#666666" points="182.88,-85 12.88,-85 12.88,-55 182.88,-55 182.88,-85"/>
<text text-anchor="start" x="20.88" y="-73" font-family="Helvetica,sans-Serif" font-size="10.00">UmsciPaintNControlComponent</text>
<text text-anchor="middle" x="97.88" y="-62" font-family="Helvetica,sans-Serif" font-size="10.00">Base.h</text>
</a>
</g>
</g>
<!-- Node1&#45;&gt;Node3 -->
<g id="edge2_Node000001_Node000003" class="edge">
<title>Node1&#45;&gt;Node3</title>
<g id="a_edge2_Node000001_Node000003"><a xlink:title=" ">
<path fill="none" stroke="#63b8ff" d="M97.88,-120.77C97.88,-112.85 97.88,-103.63 97.88,-95.3"/>
<polygon fill="#63b8ff" stroke="#63b8ff" points="101.38,-95.04 97.88,-85.04 94.38,-95.04 101.38,-95.04"/>
</a>
</g>
</g>
<!-- Node4 -->
<g id="Node000004" class="node">
<title>Node4</title>
<g id="a_Node000004"><a xlink:title=" ">
<polygon fill="#e0e0e0" stroke="#999999" points="300.38,-79.5 201.38,-79.5 201.38,-60.5 300.38,-60.5 300.38,-79.5"/>
<text text-anchor="middle" x="250.88" y="-67.5" font-family="Helvetica,sans-Serif" font-size="10.00">TwoDFieldBase.h</text>
</a>
</g>
</g>
<!-- Node1&#45;&gt;Node4 -->
<g id="edge4_Node000001_Node000004" class="edge">
<title>Node1&#45;&gt;Node4</title>
<g id="a_edge4_Node000001_Node000004"><a xlink:title=" ">
<path fill="none" stroke="#63b8ff" d="M140.91,-120.96C167.21,-109.01 200.07,-94.08 223,-83.67"/>
<polygon fill="#63b8ff" stroke="#63b8ff" points="224.51,-86.83 232.16,-79.5 221.61,-80.45 224.51,-86.83"/>
</a>
</g>
</g>
<!-- Node3&#45;&gt;Node2 -->
<g id="edge3_Node000003_Node000002" class="edge">
<title>Node3&#45;&gt;Node2</title>
<g id="a_edge3_Node000003_Node000002"><a xlink:title=" ">
<path fill="none" stroke="#63b8ff" d="M84.09,-54.84C75.81,-46.35 65.26,-35.52 56.66,-26.69"/>
<polygon fill="#63b8ff" stroke="#63b8ff" points="58.91,-23.99 49.43,-19.27 53.9,-28.87 58.91,-23.99"/>
</a>
</g>
</g>
</g>
</svg>
</svg>

<style type='text/css'>
<![CDATA[
[data-mouse-over-selected='false'] { opacity: 0.7; }
[data-mouse-over-selected='true']  { opacity: 1.0; }
]]>
</style>
<script type="application/ecmascript"><![CDATA[
document.addEventListener('DOMContentLoaded', (event) => {
  highlightEdges();
  highlightAdjacentNodes();
});
]]></script>
</svg>
