<?xml version="1.0" encoding="UTF-8" standalone="no"?>
<!DOCTYPE svg PUBLIC "-//W3C//DTD SVG 1.1//EN"
 "http://www.w3.org/Graphics/SVG/1.1/DTD/svg11.dtd">
<!-- Generated by graphviz version 2.43.0 (0)
 -->
<!-- Title: Source/UmsciPaintNControlComponents/UmsciLoudspeakersPaintComponent.cpp Pages: 1 -->
<svg width="252pt" height="225pt"
 viewBox="0.00 0.00 251.50 225.00" xmlns="http://www.w3.org/2000/svg" xmlns:xlink="http://www.w3.org/1999/xlink">
<g id="graph0" class="graph" transform="scale(1 1) rotate(0) translate(4 221)">
<title>Source/UmsciPaintNControlComponents/UmsciLoudspeakersPaintComponent.cpp</title>
<!-- Node1 -->
<g id="Node000001" class="node">
<title>Node1</title>
<g id="a_Node000001"><a xlink:title=" ">
<polygon fill="#999999" stroke="#666666" points="203,-217 0,-217 0,-176 203,-176 203,-217"/>
<text text-anchor="start" x="8" y="-205" font-family="Helvetica,sans-Serif" font-size="10.00">Source/UmsciPaintNControl</text>
<text text-anchor="start" x="8" y="-194" font-family="Helvetica,sans-Serif" font-size="10.00">Components/UmsciLoudspeakersPaint</text>
<text text-anchor="middle" x="101.5" y="-183" font-family="Helvetica,sans-Serif" font-size="10.00">Component.cpp</text>
</a>
</g>
</g>
<!-- Node2 -->
<g id="Node000002" class="node">
<title>Node2</title>
<g id="a_Node000002"><a xlink:href="UmsciLoudspeakersPaintComponent_8h.html" target="_top" xlink:title=" ">
<polygon fill="white" stroke="#666666" points="203,-140 0,-140 0,-121 203,-121 203,-140"/>
<text text-anchor="middle" x="101.5" y="-128" font-family="Helvetica,sans-Serif" font-size="10.00">UmsciLoudspeakersPaintComponent.h</text>
</a>
</g>
</g>
<!-- Node1&#45;&gt;Node2 -->
<g id="edge1_Node000001_Node000002" class="edge">
<title>Node1&#45;&gt;Node2</title>
<g id="a_edge1_Node000001_Node000002"><a xlink:title=" ">
<path fill="none" stroke="#63b8ff" d="M101.5,-175.95C101.5,-167.85 101.5,-158.5 101.5,-150.47"/>
<polygon fill="#63b8ff" stroke="#63b8ff" points="105,-150.26 101.5,-140.26 98,-150.26 105,-150.26"/>
</a>
</g>
</g>
<!-- Node3 -->
<g id="Node000003" class="node">
<title>Node3</title>
<g id="a_Node000003"><a xlink:title=" ">
<polygon fill="#e0e0e0" stroke="#999999" points="141.5,-19 61.5,-19 61.5,0 141.5,0 141.5,-19"/>
<text text-anchor="middle" x="101.5" y="-7" font-family="Helvetica,sans-Serif" font-size="10.00">JuceHeader.h</text>
</a>
</g>
</g>
<!-- Node2&#45;&gt;Node3 -->
<g id="edge2_Node000002_Node000003" class="edge">
<title>Node2&#45;&gt;Node3</title>
<g id="a_edge2_Node000002_Node000003"><a xlink:title=" ">
<path fill="none" stroke="#63b8ff" d="M91.06,-120.87C82.08,-112.7 69.76,-99.55 64.5,-85 59.97,-72.46 59.97,-67.54 64.5,-55 68.44,-44.09 76.36,-33.96 83.86,-26.14"/>
<polygon fill="#63b8ff" stroke="#63b8ff" points="86.34,-28.61 91.06,-19.13 81.45,-23.6 86.34,-28.61"/>
</a>
</g>
</g>
<!-- Node4 -->
<g id="Node000004" class="node">
<title>Node4</title>
<g id="a_Node000004"><a xlink:href="UmsciPaintNControlComponentBase_8h.html" target="_top" xlink:title=" ">
<polygon fill="white" stroke="#666666" points="243.5,-85 73.5,-85 73.5,-55 243.5,-55 243.5,-85"/>
<text text-anchor="start" x="81.5" y="-73" font-family="Helvetica,sans-Serif" font-size="10.00">UmsciPaintNControlComponent</text>
<text text-anchor="middle" x="158.5" y="-62" font-family="Helvetica,sans-Serif" font-size="10.00">Base.h</text>
</a>
</g>
</g>
<!-- Node2&#45;&gt;Node4 -->
<g id="edge3_Node000002_Node000004" class="edge">
<title>Node2&#45;&gt;Node4</title>
<g id="a_edge3_Node000002_Node000004"><a xlink:title=" ">
<path fill="none" stroke="#63b8ff" d="M109.91,-120.87C117.22,-113.37 128.1,-102.2 137.72,-92.33"/>
<polygon fill="#63b8ff" stroke="#63b8ff" points="140.28,-94.72 144.75,-85.11 135.26,-89.83 140.28,-94.72"/>
</a>
</g>
</g>
<!-- Node4&#45;&gt;Node3 -->
<g id="edge4_Node000004_Node000003" class="edge">
<title>Node4&#45;&gt;Node3</title>
<g id="a_edge4_Node000004_Node000003"><a xlink:title=" ">
<path fill="none" stroke="#63b8ff" d="M144.7,-54.84C136.43,-46.35 125.88,-35.52 117.27,-26.69"/>
<polygon fill="#63b8ff" stroke="#63b8ff" points="119.53,-23.99 110.04,-19.27 114.51,-28.87 119.53,-23.99"/>
</a>
</g>
</g>
</g>
</svg>
