<?xml version="1.0" encoding="UTF-8" standalone="no"?>
<!DOCTYPE svg PUBLIC "-//W3C//DTD SVG 1.1//EN"
 "http://www.w3.org/Graphics/SVG/1.1/DTD/svg11.dtd">
<!-- Generated by graphviz version 2.43.0 (0)
 -->
<!-- Title: Source/UmsciPaintNControlComponents/UmsciPaintNControlComponentBase.h Pages: 1 -->
<svg width="1066pt" height="258pt"
 viewBox="0.00 0.00 1065.50 258.00" xmlns="http://www.w3.org/2000/svg" xmlns:xlink="http://www.w3.org/1999/xlink">
<g id="graph0" class="graph" transform="scale(1 1) rotate(0) translate(4 254)">
<title>Source/UmsciPaintNControlComponents/UmsciPaintNControlComponentBase.h</title>
<!-- Node1 -->
<g id="Node000001" class="node">
<title>Node1</title>
<g id="a_Node000001"><a xlink:title=" ">
<polygon fill="#999999" stroke="#666666" points="581.5,-250 346.5,-250 346.5,-209 581.5,-209 581.5,-250"/>
<text text-anchor="start" x="354.5" y="-238" font-family="Helvetica,sans-Serif" font-size="10.00">Source/UmsciPaintNControl</text>
<text text-anchor="start" x="354.5" y="-227" font-family="Helvetica,sans-Serif" font-size="10.00">Components/UmsciPaintNControlComponent</text>
<text text-anchor="middle" x="464" y="-216" font-family="Helvetica,sans-Serif" font-size="10.00">Base.h</text>
</a>
</g>
</g>
<!-- Node2 -->
<g id="Node000002" class="node">
<title>Node2</title>
<g id="a_Node000002"><a xlink:href="UmsciControlComponent_8h.html" target="_top" xlink:title=" ">
<polygon fill="white" stroke="#666666" points="184,-85 0,-85 0,-66 184,-66 184,-85"/>
<text text-anchor="middle" x="92" y="-73" font-family="Helvetica,sans-Serif" font-size="10.00">Source/UmsciControlComponent.h</text>
</a>
</g>
</g>
<!-- Node1&#45;&gt;Node2 -->
<g id="edge1_Node000001_Node000002" class="edge">
<title>Node1&#45;&gt;Node2</title>
<g id="a_edge1_Node000001_Node000002"><a xlink:title=" ">
<path fill="none" stroke="#63b8ff" d="M335.99,-218.08C260.06,-209.7 172.78,-195.52 142,-173 111.55,-150.71 98.16,-104.35 93.76,-85.13"/>
<polygon fill="#63b8ff" stroke="#63b8ff" points="335.83,-221.58 346.15,-219.17 336.58,-214.62 335.83,-221.58"/>
</a>
</g>
</g>
<!-- Node5 -->
<g id="Node000005" class="node">
<title>Node5</title>
<g id="a_Node000005"><a xlink:href="UmsciLoudspeakersPaintComponent_8h.html" target="_top" xlink:title=" ">
<polygon fill="white" stroke="#666666" points="565.5,-173 362.5,-173 362.5,-132 565.5,-132 565.5,-173"/>
<text text-anchor="start" x="370.5" y="-161" font-family="Helvetica,sans-Serif" font-size="10.00">Source/UmsciPaintNControl</text>
<text text-anchor="start" x="370.5" y="-150" font-family="Helvetica,sans-Serif" font-size="10.00">Components/UmsciLoudspeakersPaint</text>
<text text-anchor="middle" x="464" y="-139" font-family="Helvetica,sans-Serif" font-size="10.00">Component.h</text>
</a>
</g>
</g>
<!-- Node1&#45;&gt;Node5 -->
<g id="edge4_Node000001_Node000005" class="edge">
<title>Node1&#45;&gt;Node5</title>
<g id="a_edge4_Node000001_Node000005"><a xlink:title=" ">
<path fill="none" stroke="#63b8ff" d="M464,-198.69C464,-190.08 464,-180.9 464,-173.07"/>
<polygon fill="#63b8ff" stroke="#63b8ff" points="460.5,-198.79 464,-208.79 467.5,-198.79 460.5,-198.79"/>
</a>
</g>
</g>
<!-- Node7 -->
<g id="Node000007" class="node">
<title>Node7</title>
<g id="a_Node000007"><a xlink:href="UmsciPaintNControlComponentBase_8cpp.html" target="_top" xlink:title=" ">
<polygon fill="white" stroke="#666666" points="1057.5,-173 822.5,-173 822.5,-132 1057.5,-132 1057.5,-173"/>
<text text-anchor="start" x="830.5" y="-161" font-family="Helvetica,sans-Serif" font-size="10.00">Source/UmsciPaintNControl</text>
<text text-anchor="start" x="830.5" y="-150" font-family="Helvetica,sans-Serif" font-size="10.00">Components/UmsciPaintNControlComponent</text>
<text text-anchor="middle" x="940" y="-139" font-family="Helvetica,sans-Serif" font-size="10.00">Base.cpp</text>
</a>
</g>
</g>
<!-- Node1&#45;&gt;Node7 -->
<g id="edge7_Node000001_Node000007" class="edge">
<title>Node1&#45;&gt;Node7</title>
<g id="a_edge7_Node000001_Node000007"><a xlink:title=" ">
<path fill="none" stroke="#63b8ff" d="M591.67,-208.38C663.44,-197.08 752.4,-183.06 822.45,-172.02"/>
<polygon fill="#63b8ff" stroke="#63b8ff" points="591,-204.95 581.66,-209.96 592.09,-211.86 591,-204.95"/>
</a>
</g>
</g>
<!-- Node8 -->
<g id="Node000008" class="node">
<title>Node8</title>
<g id="a_Node000008"><a xlink:href="UmsciSoundobjectsPaintComponent_8h.html" target="_top" xlink:title=" ">
<polygon fill="white" stroke="#666666" points="804.5,-173 603.5,-173 603.5,-132 804.5,-132 804.5,-173"/>
<text text-anchor="start" x="611.5" y="-161" font-family="Helvetica,sans-Serif" font-size="10.00">Source/UmsciPaintNControl</text>
<text text-anchor="start" x="611.5" y="-150" font-family="Helvetica,sans-Serif" font-size="10.00">Components/UmsciSoundobjectsPaint</text>
<text text-anchor="middle" x="704" y="-139" font-family="Helvetica,sans-Serif" font-size="10.00">Component.h</text>
</a>
</g>
</g>
<!-- Node1&#45;&gt;Node8 -->
<g id="edge8_Node000001_Node000008" class="edge">
<title>Node1&#45;&gt;Node8</title>
<g id="a_edge8_Node000001_Node000008"><a xlink:title=" ">
<path fill="none" stroke="#63b8ff" d="M536.18,-205.94C569.72,-195.46 609.22,-183.12 641.47,-173.04"/>
<polygon fill="#63b8ff" stroke="#63b8ff" points="534.93,-202.67 526.43,-208.99 537.02,-209.35 534.93,-202.67"/>
</a>
</g>
</g>
<!-- Node10 -->
<g id="Node000010" class="node">
<title>Node10</title>
<g id="a_Node000010"><a xlink:href="UmsciUpmixIndicatorPaintNControlComponent_8h.html" target="_top" xlink:title=" ">
<polygon fill="white" stroke="#666666" points="337.5,-173 150.5,-173 150.5,-132 337.5,-132 337.5,-173"/>
<text text-anchor="start" x="158.5" y="-161" font-family="Helvetica,sans-Serif" font-size="10.00">Source/UmsciPaintNControl</text>
<text text-anchor="start" x="158.5" y="-150" font-family="Helvetica,sans-Serif" font-size="10.00">Components/UmsciUpmixIndicator</text>
<text text-anchor="middle" x="244" y="-139" font-family="Helvetica,sans-Serif" font-size="10.00">PaintNControlComponent.h</text>
</a>
</g>
</g>
<!-- Node1&#45;&gt;Node10 -->
<g id="edge11_Node000001_Node000010" class="edge">
<title>Node1&#45;&gt;Node10</title>
<g id="a_edge11_Node000001_Node000010"><a xlink:title=" ">
<path fill="none" stroke="#63b8ff" d="M397.05,-205.67C366.47,-195.25 330.63,-183.03 301.32,-173.04"/>
<polygon fill="#63b8ff" stroke="#63b8ff" points="396.18,-209.08 406.77,-208.99 398.44,-202.45 396.18,-209.08"/>
</a>
</g>
</g>
<!-- Node3 -->
<g id="Node000003" class="node">
<title>Node3</title>
<g id="a_Node000003"><a xlink:href="MainComponent_8cpp.html" target="_top" xlink:title=" ">
<polygon fill="white" stroke="#666666" points="168.5,-19 15.5,-19 15.5,0 168.5,0 168.5,-19"/>
<text text-anchor="middle" x="92" y="-7" font-family="Helvetica,sans-Serif" font-size="10.00">Source/MainComponent.cpp</text>
</a>
</g>
</g>
<!-- Node2&#45;&gt;Node3 -->
<g id="edge2_Node000002_Node000003" class="edge">
<title>Node2&#45;&gt;Node3</title>
<g id="a_edge2_Node000002_Node000003"><a xlink:title=" ">
<path fill="none" stroke="#63b8ff" d="M92,-55.58C92,-43.63 92,-28.72 92,-19.41"/>
<polygon fill="#63b8ff" stroke="#63b8ff" points="88.5,-55.87 92,-65.87 95.5,-55.87 88.5,-55.87"/>
</a>
</g>
</g>
<!-- Node4 -->
<g id="Node000004" class="node">
<title>Node4</title>
<g id="a_Node000004"><a xlink:href="UmsciControlComponent_8cpp.html" target="_top" xlink:title=" ">
<polygon fill="white" stroke="#666666" points="466.5,-19 271.5,-19 271.5,0 466.5,0 466.5,-19"/>
<text text-anchor="middle" x="369" y="-7" font-family="Helvetica,sans-Serif" font-size="10.00">Source/UmsciControlComponent.cpp</text>
</a>
</g>
</g>
<!-- Node2&#45;&gt;Node4 -->
<g id="edge3_Node000002_Node000004" class="edge">
<title>Node2&#45;&gt;Node4</title>
<g id="a_edge3_Node000002_Node000004"><a xlink:title=" ">
<path fill="none" stroke="#63b8ff" d="M138.83,-63.68C193.36,-51.08 282.3,-30.53 332.15,-19.01"/>
<polygon fill="#63b8ff" stroke="#63b8ff" points="138.03,-60.27 129.07,-65.94 139.6,-67.09 138.03,-60.27"/>
</a>
</g>
</g>
<!-- Node5&#45;&gt;Node4 -->
<g id="edge5_Node000005_Node000004" class="edge">
<title>Node5&#45;&gt;Node4</title>
<g id="a_edge5_Node000005_Node000004"><a xlink:title=" ">
<path fill="none" stroke="#63b8ff" d="M460.78,-121.61C457.35,-101.24 450.33,-74.52 436,-55 424.01,-38.68 404.11,-26.57 389.11,-19.14"/>
<polygon fill="#63b8ff" stroke="#63b8ff" points="457.33,-122.24 462.26,-131.62 464.26,-121.22 457.33,-122.24"/>
</a>
</g>
</g>
<!-- Node6 -->
<g id="Node000006" class="node">
<title>Node6</title>
<g id="a_Node000006"><a xlink:href="UmsciLoudspeakersPaintComponent_8cpp.html" target="_top" xlink:title=" ">
<polygon fill="white" stroke="#666666" points="685.5,-96 482.5,-96 482.5,-55 685.5,-55 685.5,-96"/>
<text text-anchor="start" x="490.5" y="-84" font-family="Helvetica,sans-Serif" font-size="10.00">Source/UmsciPaintNControl</text>
<text text-anchor="start" x="490.5" y="-73" font-family="Helvetica,sans-Serif" font-size="10.00">Components/UmsciLoudspeakersPaint</text>
<text text-anchor="middle" x="584" y="-62" font-family="Helvetica,sans-Serif" font-size="10.00">Component.cpp</text>
</a>
</g>
</g>
<!-- Node5&#45;&gt;Node6 -->
<g id="edge6_Node000005_Node000006" class="edge">
<title>Node5&#45;&gt;Node6</title>
<g id="a_edge6_Node000005_Node000006"><a xlink:title=" ">
<path fill="none" stroke="#63b8ff" d="M503.77,-126.64C519.62,-116.74 537.61,-105.5 552.52,-96.17"/>
<polygon fill="#63b8ff" stroke="#63b8ff" points="501.84,-123.72 495.22,-131.99 505.55,-129.66 501.84,-123.72"/>
</a>
</g>
</g>
<!-- Node8&#45;&gt;Node4 -->
<g id="edge9_Node000008_Node000004" class="edge">
<title>Node8&#45;&gt;Node4</title>
<g id="a_edge9_Node000008_Node000004"><a xlink:title=" ">
<path fill="none" stroke="#63b8ff" d="M709.99,-122.08C712.51,-100.65 711.71,-72.44 695,-55 664.37,-23.04 551.32,-13.47 466.89,-10.89"/>
<polygon fill="#63b8ff" stroke="#63b8ff" points="706.53,-121.57 708.54,-131.98 713.45,-122.59 706.53,-121.57"/>
</a>
</g>
</g>
<!-- Node9 -->
<g id="Node000009" class="node">
<title>Node9</title>
<g id="a_Node000009"><a xlink:href="UmsciSoundobjectsPaintComponent_8cpp.html" target="_top" xlink:title=" ">
<polygon fill="white" stroke="#666666" points="943.5,-96 742.5,-96 742.5,-55 943.5,-55 943.5,-96"/>
<text text-anchor="start" x="750.5" y="-84" font-family="Helvetica,sans-Serif" font-size="10.00">Source/UmsciPaintNControl</text>
<text text-anchor="start" x="750.5" y="-73" font-family="Helvetica,sans-Serif" font-size="10.00">Components/UmsciSoundobjectsPaint</text>
<text text-anchor="middle" x="843" y="-62" font-family="Helvetica,sans-Serif" font-size="10.00">Component.cpp</text>
</a>
</g>
</g>
<!-- Node8&#45;&gt;Node9 -->
<g id="edge10_Node000008_Node000009" class="edge">
<title>Node8&#45;&gt;Node9</title>
<g id="a_edge10_Node000008_Node000009"><a xlink:title=" ">
<path fill="none" stroke="#63b8ff" d="M749.05,-127.19C767.65,-117.15 788.94,-105.67 806.54,-96.17"/>
<polygon fill="#63b8ff" stroke="#63b8ff" points="747.3,-124.16 740.16,-131.99 750.62,-130.32 747.3,-124.16"/>
</a>
</g>
</g>
<!-- Node10&#45;&gt;Node2 -->
<g id="edge13_Node000010_Node000002" class="edge">
<title>Node10&#45;&gt;Node2</title>
<g id="a_edge13_Node000010_Node000002"><a xlink:title=" ">
<path fill="none" stroke="#63b8ff" d="M195.17,-127.41C165.79,-112.91 130.18,-95.34 109.41,-85.09"/>
<polygon fill="#63b8ff" stroke="#63b8ff" points="193.94,-130.7 204.46,-131.99 197.04,-124.43 193.94,-130.7"/>
</a>
</g>
</g>
<!-- Node10&#45;&gt;Node4 -->
<g id="edge12_Node000010_Node000004" class="edge">
<title>Node10&#45;&gt;Node4</title>
<g id="a_edge12_Node000010_Node000004"><a xlink:title=" ">
<path fill="none" stroke="#63b8ff" d="M229.98,-122.21C222.33,-101.56 216.97,-74.26 231,-55 244.49,-36.48 265.82,-25.51 287.72,-19.05"/>
<polygon fill="#63b8ff" stroke="#63b8ff" points="226.85,-123.8 233.85,-131.75 233.34,-121.17 226.85,-123.8"/>
</a>
</g>
</g>
<!-- Node11 -->
<g id="Node000011" class="node">
<title>Node11</title>
<g id="a_Node000011"><a xlink:href="UmsciUpmixIndicatorPaintNControlComponent_8cpp.html" target="_top" xlink:title=" ">
<polygon fill="white" stroke="#666666" points="426.5,-96 239.5,-96 239.5,-55 426.5,-55 426.5,-96"/>
<text text-anchor="start" x="247.5" y="-84" font-family="Helvetica,sans-Serif" font-size="10.00">Source/UmsciPaintNControl</text>
<text text-anchor="start" x="247.5" y="-73" font-family="Helvetica,sans-Serif" font-size="10.00">Components/UmsciUpmixIndicator</text>
<text text-anchor="middle" x="333" y="-62" font-family="Helvetica,sans-Serif" font-size="10.00">PaintNControlComponent.cpp</text>
</a>
</g>
</g>
<!-- Node10&#45;&gt;Node11 -->
<g id="edge14_Node000010_Node000011" class="edge">
<title>Node10&#45;&gt;Node11</title>
<g id="a_edge14_Node000010_Node000011"><a xlink:title=" ">
<path fill="none" stroke="#63b8ff" d="M275.03,-125.35C286.45,-115.73 299.16,-105.01 309.77,-96.07"/>
<polygon fill="#63b8ff" stroke="#63b8ff" points="272.78,-122.67 267.38,-131.79 277.29,-128.03 272.78,-122.67"/>
</a>
</g>
</g>
</g>
</svg>
