<?xml version="1.0" encoding="UTF-8" standalone="no"?>
<!DOCTYPE svg PUBLIC "-//W3C//DTD SVG 1.1//EN"
 "http://www.w3.org/Graphics/SVG/1.1/DTD/svg11.dtd">
<!-- Generated by graphviz version 2.43.0 (0)
 -->
<!-- Title: Source/UmsciPaintNControlComponents/UmsciLevelMeterPaintComponent.h Pages: 1 -->
<svg width="412pt" height="126pt"
 viewBox="0.00 0.00 412.00 126.00" xmlns="http://www.w3.org/2000/svg" xmlns:xlink="http://www.w3.org/1999/xlink">
<g id="graph0" class="graph" transform="scale(1 1) rotate(0) translate(4 122)">
<title>Source/UmsciPaintNControlComponents/UmsciLevelMeterPaintComponent.h</title>
<!-- Node1 -->
<g id="Node000001" class="node">
<title>Node1</title>
<g id="a_Node000001"><a xlink:title=" ">
<polygon fill="#999999" stroke="#666666" points="298,-118 107,-118 107,-77 298,-77 298,-118"/>
<text text-anchor="start" x="115" y="-106" font-family="Helvetica,sans-Serif" font-size="10.00">Source/UmsciPaintNControl</text>
<text text-anchor="start" x="115" y="-95" font-family="Helvetica,sans-Serif" font-size="10.00">Components/UmsciLevelMeterPaint</text>
<text text-anchor="middle" x="202.5" y="-84" font-family="Helvetica,sans-Serif" font-size="10.00">Component.h</text>
</a>
</g>
</g>
<!-- Node2 -->
<g id="Node000002" class="node">
<title>Node2</title>
<g id="a_Node000002"><a xlink:href="UmsciControlComponent_8cpp.html" target="_top" xlink:title=" ">
<polygon fill="white" stroke="#666666" points="195,-30 0,-30 0,-11 195,-11 195,-30"/>
<text text-anchor="middle" x="97.5" y="-18" font-family="Helvetica,sans-Serif" font-size="10.00">Source/UmsciControlComponent.cpp</text>
</a>
</g>
</g>
<!-- Node1&#45;&gt;Node2 -->
<g id="edge1_Node000001_Node000002" class="edge">
<title>Node1&#45;&gt;Node2</title>
<g id="a_edge1_Node000001_Node000002"><a xlink:title=" ">
<path fill="none" stroke="#63b8ff" d="M166.91,-71.08C146.99,-56.85 123.44,-40.03 109.52,-30.09"/>
<polygon fill="#63b8ff" stroke="#63b8ff" points="165.01,-74.03 175.19,-76.99 169.08,-68.33 165.01,-74.03"/>
</a>
</g>
</g>
<!-- Node3 -->
<g id="Node000003" class="node">
<title>Node3</title>
<g id="a_Node000003"><a xlink:href="UmsciLevelMeterPaintComponent_8cpp.html" target="_top" xlink:title=" ">
<polygon fill="white" stroke="#666666" points="404,-41 213,-41 213,0 404,0 404,-41"/>
<text text-anchor="start" x="221" y="-29" font-family="Helvetica,sans-Serif" font-size="10.00">Source/UmsciPaintNControl</text>
<text text-anchor="start" x="221" y="-18" font-family="Helvetica,sans-Serif" font-size="10.00">Components/UmsciLevelMeterPaint</text>
<text text-anchor="middle" x="308.5" y="-7" font-family="Helvetica,sans-Serif" font-size="10.00">Component.cpp</text>
</a>
</g>
</g>
<!-- Node1&#45;&gt;Node3 -->
<g id="edge2_Node000001_Node000003" class="edge">
<title>Node1&#45;&gt;Node3</title>
<g id="a_edge2_Node000001_Node000003"><a xlink:title=" ">
<path fill="none" stroke="#63b8ff" d="M238.41,-71.09C252.22,-61.32 267.76,-50.32 280.7,-41.17"/>
<polygon fill="#63b8ff" stroke="#63b8ff" points="236.22,-68.36 230.07,-76.99 240.26,-74.07 236.22,-68.36"/>
</a>
</g>
</g>
</g>
</svg>
