<?xml version="1.0" encoding="UTF-8" standalone="no"?>
<!DOCTYPE svg PUBLIC "-//W3C//DTD SVG 1.1//EN"
 "http://www.w3.org/Graphics/SVG/1.1/DTD/svg11.dtd">
<!-- Generated by graphviz version 2.43.0 (0)
 -->
<!-- Title: Source/UmsciZeroconfDiscoverComboComponent.h Pages: 1 -->
<svg width="387pt" height="159pt"
 viewBox="0.00 0.00 386.50 159.00" xmlns="http://www.w3.org/2000/svg" xmlns:xlink="http://www.w3.org/1999/xlink">
<g id="graph0" class="graph" transform="scale(1 1) rotate(0) translate(4 155)">
<title>Source/UmsciZeroconfDiscoverComboComponent.h</title>
<!-- Node1 -->
<g id="Node000001" class="node">
<title>Node1</title>
<g id="a_Node000001"><a xlink:title=" ">
<polygon fill="#999999" stroke="#666666" points="291.5,-151 121.5,-151 121.5,-121 291.5,-121 291.5,-151"/>
<text text-anchor="start" x="129.5" y="-139" font-family="Helvetica,sans-Serif" font-size="10.00">Source/UmsciZeroconfDiscover</text>
<text text-anchor="middle" x="206.5" y="-128" font-family="Helvetica,sans-Serif" font-size="10.00">ComboComponent.h</text>
</a>
</g>
</g>
<!-- Node2 -->
<g id="Node000002" class="node">
<title>Node2</title>
<g id="a_Node000002"><a xlink:href="MainComponent_8h.html" target="_top" xlink:title=" ">
<polygon fill="white" stroke="#666666" points="190.5,-79.5 48.5,-79.5 48.5,-60.5 190.5,-60.5 190.5,-79.5"/>
<text text-anchor="middle" x="119.5" y="-67.5" font-family="Helvetica,sans-Serif" font-size="10.00">Source/MainComponent.h</text>
</a>
</g>
</g>
<!-- Node1&#45;&gt;Node2 -->
<g id="edge1_Node000001_Node000002" class="edge">
<title>Node1&#45;&gt;Node2</title>
<g id="a_edge1_Node000001_Node000002"><a xlink:title=" ">
<path fill="none" stroke="#63b8ff" d="M178.7,-114.55C162.68,-102.76 143.38,-88.57 131.27,-79.66"/>
<polygon fill="#63b8ff" stroke="#63b8ff" points="177.06,-117.69 187.19,-120.8 181.21,-112.05 177.06,-117.69"/>
</a>
</g>
</g>
<!-- Node5 -->
<g id="Node000005" class="node">
<title>Node5</title>
<g id="a_Node000005"><a xlink:href="UmsciZeroconfDiscoverComboComponent_8cpp.html" target="_top" xlink:title=" ">
<polygon fill="white" stroke="#666666" points="378.5,-85 208.5,-85 208.5,-55 378.5,-55 378.5,-85"/>
<text text-anchor="start" x="216.5" y="-73" font-family="Helvetica,sans-Serif" font-size="10.00">Source/UmsciZeroconfDiscover</text>
<text text-anchor="middle" x="293.5" y="-62" font-family="Helvetica,sans-Serif" font-size="10.00">ComboComponent.cpp</text>
</a>
</g>
</g>
<!-- Node1&#45;&gt;Node5 -->
<g id="edge4_Node000001_Node000005" class="edge">
<title>Node1&#45;&gt;Node5</title>
<g id="a_edge4_Node000001_Node000005"><a xlink:title=" ">
<path fill="none" stroke="#63b8ff" d="M234.02,-114.75C247.11,-105.13 262.43,-93.86 274.25,-85.16"/>
<polygon fill="#63b8ff" stroke="#63b8ff" points="231.79,-112.05 225.81,-120.8 235.94,-117.69 231.79,-112.05"/>
</a>
</g>
</g>
<!-- Node3 -->
<g id="Node000003" class="node">
<title>Node3</title>
<g id="a_Node000003"><a xlink:href="Main_8cpp.html" target="_top" xlink:title=" ">
<polygon fill="white" stroke="#666666" points="97,-19 0,-19 0,0 97,0 97,-19"/>
<text text-anchor="middle" x="48.5" y="-7" font-family="Helvetica,sans-Serif" font-size="10.00">Source/Main.cpp</text>
</a>
</g>
</g>
<!-- Node2&#45;&gt;Node3 -->
<g id="edge2_Node000002_Node000003" class="edge">
<title>Node2&#45;&gt;Node3</title>
<g id="a_edge2_Node000002_Node000003"><a xlink:title=" ">
<path fill="none" stroke="#63b8ff" d="M100.96,-53.72C87.6,-42.71 70.05,-28.25 59.02,-19.17"/>
<polygon fill="#63b8ff" stroke="#63b8ff" points="99.08,-56.71 109.02,-60.37 103.53,-51.31 99.08,-56.71"/>
</a>
</g>
</g>
<!-- Node4 -->
<g id="Node000004" class="node">
<title>Node4</title>
<g id="a_Node000004"><a xlink:href="MainComponent_8cpp.html" target="_top" xlink:title=" ">
<polygon fill="white" stroke="#666666" points="268,-19 115,-19 115,0 268,0 268,-19"/>
<text text-anchor="middle" x="191.5" y="-7" font-family="Helvetica,sans-Serif" font-size="10.00">Source/MainComponent.cpp</text>
</a>
</g>
</g>
<!-- Node2&#45;&gt;Node4 -->
<g id="edge3_Node000002_Node000004" class="edge">
<title>Node2&#45;&gt;Node4</title>
<g id="a_edge3_Node000002_Node000004"><a xlink:title=" ">
<path fill="none" stroke="#63b8ff" d="M137.92,-54.04C151.51,-42.99 169.54,-28.34 180.83,-19.17"/>
<polygon fill="#63b8ff" stroke="#63b8ff" points="135.68,-51.35 130.12,-60.37 140.09,-56.78 135.68,-51.35"/>
</a>
</g>
</g>
</g>
</svg>
