<?xml version="1.0" encoding="UTF-8" standalone="no"?>
<!DOCTYPE svg PUBLIC "-//W3C//DTD SVG 1.1//EN"
 "http://www.w3.org/Graphics/SVG/1.1/DTD/svg11.dtd">
<!-- Generated by graphviz version 2.43.0 (0)
 -->
<!-- Title: Source/UmsciControlComponent.cpp Pages: 1 -->
<svg width="1369pt" height="291pt"
 viewBox="0.00 0.00 1369.00 291.00" xmlns="http://www.w3.org/2000/svg" xmlns:xlink="http://www.w3.org/1999/xlink">
<g id="graph0" class="graph" transform="scale(1 1) rotate(0) translate(4 287)">
<title>Source/UmsciControlComponent.cpp</title>
<!-- Node1 -->
<g id="Node000001" class="node">
<title>Node1</title>
<g id="a_Node000001"><a xlink:title=" ">
<polygon fill="#999999" stroke="#666666" points="1006.5,-283 811.5,-283 811.5,-264 1006.5,-264 1006.5,-283"/>
<text text-anchor="middle" x="909" y="-271" font-family="Helvetica,sans-Serif" font-size="10.00">Source/UmsciControlComponent.cpp</text>
</a>
</g>
</g>
<!-- Node2 -->
<g id="Node000002" class="node">
<title>Node2</title>
<g id="a_Node000002"><a xlink:href="UmsciControlComponent_8h.html" target="_top" xlink:title=" ">
<polygon fill="white" stroke="#666666" points="636,-222.5 488,-222.5 488,-203.5 636,-203.5 636,-222.5"/>
<text text-anchor="middle" x="562" y="-210.5" font-family="Helvetica,sans-Serif" font-size="10.00">UmsciControlComponent.h</text>
</a>
</g>
</g>
<!-- Node1&#45;&gt;Node2 -->
<g id="edge1_Node000001_Node000002" class="edge">
<title>Node1&#45;&gt;Node2</title>
<g id="a_edge1_Node000001_Node000002"><a xlink:title=" ">
<path fill="none" stroke="#63b8ff" d="M858.54,-263.99C795.97,-253.44 689.39,-235.48 622.5,-224.2"/>
<polygon fill="#63b8ff" stroke="#63b8ff" points="622.96,-220.73 612.52,-222.52 621.8,-227.63 622.96,-220.73"/>
</a>
</g>
</g>
<!-- Node11 -->
<g id="Node000011" class="node">
<title>Node11</title>
<g id="a_Node000011"><a xlink:href="UmsciUpmixIndicatorPaintNControlComponent_8h.html" target="_top" xlink:title=" ">
<polygon fill="white" stroke="#666666" points="750,-162 558,-162 558,-121 750,-121 750,-162"/>
<text text-anchor="start" x="566" y="-150" font-family="Helvetica,sans-Serif" font-size="10.00">UmsciPaintNControlComponents</text>
<text text-anchor="start" x="566" y="-139" font-family="Helvetica,sans-Serif" font-size="10.00">/UmsciUpmixIndicatorPaintNControl</text>
<text text-anchor="middle" x="654" y="-128" font-family="Helvetica,sans-Serif" font-size="10.00">Component.h</text>
</a>
</g>
</g>
<!-- Node1&#45;&gt;Node11 -->
<g id="edge24_Node000001_Node000011" class="edge">
<title>Node1&#45;&gt;Node11</title>
<g id="a_edge24_Node000001_Node000011"><a xlink:title=" ">
<path fill="none" stroke="#63b8ff" d="M892.27,-263.97C854.09,-244.51 759.39,-196.23 701.53,-166.73"/>
<polygon fill="#63b8ff" stroke="#63b8ff" points="703.07,-163.59 692.57,-162.16 699.89,-169.82 703.07,-163.59"/>
</a>
</g>
</g>
<!-- Node13 -->
<g id="Node000013" class="node">
<title>Node13</title>
<g id="a_Node000013"><a xlink:href="UmsciLoudspeakersPaintComponent_8h.html" target="_top" xlink:title=" ">
<polygon fill="white" stroke="#666666" points="1012,-156.5 806,-156.5 806,-126.5 1012,-126.5 1012,-156.5"/>
<text text-anchor="start" x="814" y="-144.5" font-family="Helvetica,sans-Serif" font-size="10.00">UmsciPaintNControlComponents</text>
<text text-anchor="middle" x="909" y="-133.5" font-family="Helvetica,sans-Serif" font-size="10.00">/UmsciLoudspeakersPaintComponent.h</text>
</a>
</g>
</g>
<!-- Node1&#45;&gt;Node13 -->
<g id="edge17_Node000001_Node000013" class="edge">
<title>Node1&#45;&gt;Node13</title>
<g id="a_edge17_Node000001_Node000013"><a xlink:title=" ">
<path fill="none" stroke="#63b8ff" d="M909,-263.97C909,-244.54 909,-196.37 909,-166.86"/>
<polygon fill="#63b8ff" stroke="#63b8ff" points="912.5,-166.57 909,-156.57 905.5,-166.57 912.5,-166.57"/>
</a>
</g>
</g>
<!-- Node14 -->
<g id="Node000014" class="node">
<title>Node14</title>
<g id="a_Node000014"><a xlink:href="UmsciSoundobjectsPaintComponent_8h.html" target="_top" xlink:title=" ">
<polygon fill="white" stroke="#666666" points="1235.5,-156.5 1030.5,-156.5 1030.5,-126.5 1235.5,-126.5 1235.5,-156.5"/>
<text text-anchor="start" x="1038.5" y="-144.5" font-family="Helvetica,sans-Serif" font-size="10.00">UmsciPaintNControlComponents</text>
<text text-anchor="middle" x="1133" y="-133.5" font-family="Helvetica,sans-Serif" font-size="10.00">/UmsciSoundobjectsPaintComponent.h</text>
</a>
</g>
</g>
<!-- Node1&#45;&gt;Node14 -->
<g id="edge20_Node000001_Node000014" class="edge">
<title>Node1&#45;&gt;Node14</title>
<g id="a_edge20_Node000001_Node000014"><a xlink:title=" ">
<path fill="none" stroke="#63b8ff" d="M923.7,-263.97C959.25,-243.34 1050.6,-190.32 1100.04,-161.63"/>
<polygon fill="#63b8ff" stroke="#63b8ff" points="1101.87,-164.61 1108.76,-156.57 1098.36,-158.56 1101.87,-164.61"/>
</a>
</g>
</g>
<!-- Node16 -->
<g id="Node000016" class="node">
<title>Node16</title>
<g id="a_Node000016"><a xlink:href="UmsciLevelMeterPaintComponent_8h.html" target="_top" xlink:title=" ">
<polygon fill="white" stroke="#666666" points="1361,-228 1167,-228 1167,-198 1361,-198 1361,-228"/>
<text text-anchor="start" x="1175" y="-216" font-family="Helvetica,sans-Serif" font-size="10.00">UmsciPaintNControlComponents</text>
<text text-anchor="middle" x="1264" y="-205" font-family="Helvetica,sans-Serif" font-size="10.00">/UmsciLevelMeterPaintComponent.h</text>
</a>
</g>
</g>
<!-- Node1&#45;&gt;Node16 -->
<g id="edge25_Node000001_Node000016" class="edge">
<title>Node1&#45;&gt;Node16</title>
<g id="a_edge25_Node000001_Node000016"><a xlink:title=" ">
<path fill="none" stroke="#63b8ff" d="M960.62,-263.99C1015.04,-255.03 1101.97,-240.7 1168.86,-229.68"/>
<polygon fill="#63b8ff" stroke="#63b8ff" points="1169.7,-233.09 1179,-228.01 1168.56,-226.18 1169.7,-233.09"/>
</a>
</g>
</g>
<!-- Node3 -->
<g id="Node000003" class="node">
<title>Node3</title>
<g id="a_Node000003"><a xlink:title=" ">
<polygon fill="#e0e0e0" stroke="#999999" points="764,-19 684,-19 684,0 764,0 764,-19"/>
<text text-anchor="middle" x="724" y="-7" font-family="Helvetica,sans-Serif" font-size="10.00">JuceHeader.h</text>
</a>
</g>
</g>
<!-- Node2&#45;&gt;Node3 -->
<g id="edge2_Node000002_Node000003" class="edge">
<title>Node2&#45;&gt;Node3</title>
<g id="a_edge2_Node000002_Node000003"><a xlink:title=" ">
<path fill="none" stroke="#63b8ff" d="M508.12,-203.43C463.5,-195.1 405.19,-180.93 391,-162 362.48,-123.95 359.68,-90.78 391,-55 409.31,-34.08 585.13,-19.63 673.63,-13.62"/>
<polygon fill="#63b8ff" stroke="#63b8ff" points="673.97,-17.11 683.71,-12.95 673.5,-10.13 673.97,-17.11"/>
</a>
</g>
</g>
<!-- Node4 -->
<g id="Node000004" class="node">
<title>Node4</title>
<g id="a_Node000004"><a xlink:href="UmsciAppConfiguration_8h.html" target="_top" xlink:title=" ">
<polygon fill="white" stroke="#666666" points="540,-151 400,-151 400,-132 540,-132 540,-151"/>
<text text-anchor="middle" x="470" y="-139" font-family="Helvetica,sans-Serif" font-size="10.00">UmsciAppConfiguration.h</text>
</a>
</g>
</g>
<!-- Node2&#45;&gt;Node4 -->
<g id="edge3_Node000002_Node000004" class="edge">
<title>Node2&#45;&gt;Node4</title>
<g id="a_edge3_Node000002_Node000004"><a xlink:title=" ">
<path fill="none" stroke="#63b8ff" d="M550.72,-203.48C535.48,-191.96 508.07,-171.26 489.47,-157.21"/>
<polygon fill="#63b8ff" stroke="#63b8ff" points="491.46,-154.33 481.37,-151.09 487.24,-159.91 491.46,-154.33"/>
</a>
</g>
</g>
<!-- Node6 -->
<g id="Node000006" class="node">
<title>Node6</title>
<g id="a_Node000006"><a xlink:href="DeviceController_8h.html" target="_top" xlink:title=" ">
<polygon fill="white" stroke="#666666" points="329.5,-151 222.5,-151 222.5,-132 329.5,-132 329.5,-151"/>
<text text-anchor="middle" x="276" y="-139" font-family="Helvetica,sans-Serif" font-size="10.00">DeviceController.h</text>
</a>
</g>
</g>
<!-- Node2&#45;&gt;Node6 -->
<g id="edge6_Node000002_Node000006" class="edge">
<title>Node2&#45;&gt;Node6</title>
<g id="a_edge6_Node000002_Node000006"><a xlink:title=" ">
<path fill="none" stroke="#63b8ff" d="M526.93,-203.48C475.15,-190.89 378.22,-167.34 321.18,-153.48"/>
<polygon fill="#63b8ff" stroke="#63b8ff" points="321.9,-150.05 311.36,-151.09 320.25,-156.85 321.9,-150.05"/>
</a>
</g>
</g>
<!-- Node10 -->
<g id="Node000010" class="node">
<title>Node10</title>
<g id="a_Node000010"><a xlink:href="UmsciPaintNControlComponentBase_8h.html" target="_top" xlink:title=" ">
<polygon fill="white" stroke="#666666" points="952,-85 746,-85 746,-55 952,-55 952,-85"/>
<text text-anchor="start" x="754" y="-73" font-family="Helvetica,sans-Serif" font-size="10.00">UmsciPaintNControlComponents</text>
<text text-anchor="middle" x="849" y="-62" font-family="Helvetica,sans-Serif" font-size="10.00">/UmsciPaintNControlComponentBase.h</text>
</a>
</g>
</g>
<!-- Node2&#45;&gt;Node10 -->
<g id="edge11_Node000002_Node000010" class="edge">
<title>Node2&#45;&gt;Node10</title>
<g id="a_edge11_Node000002_Node000010"><a xlink:title=" ">
<path fill="none" stroke="#63b8ff" d="M636.05,-203.48C674.75,-196.57 721.68,-184.16 759,-162 780.36,-149.31 779.59,-138.73 797,-121 806.46,-111.37 817.17,-100.98 826.41,-92.18"/>
<polygon fill="#63b8ff" stroke="#63b8ff" points="828.91,-94.63 833.76,-85.22 824.09,-89.55 828.91,-94.63"/>
</a>
</g>
</g>
<!-- Node2&#45;&gt;Node11 -->
<g id="edge13_Node000002_Node000011" class="edge">
<title>Node2&#45;&gt;Node11</title>
<g id="a_edge13_Node000002_Node000011"><a xlink:title=" ">
<path fill="none" stroke="#63b8ff" d="M573.28,-203.48C584.8,-194.77 603.27,-180.82 619.64,-168.46"/>
<polygon fill="#63b8ff" stroke="#63b8ff" points="622.09,-170.99 627.96,-162.17 617.87,-165.41 622.09,-170.99"/>
</a>
</g>
</g>
<!-- Node4&#45;&gt;Node3 -->
<g id="edge4_Node000004_Node000003" class="edge">
<title>Node4&#45;&gt;Node3</title>
<g id="a_edge4_Node000004_Node000003"><a xlink:title=" ">
<path fill="none" stroke="#63b8ff" d="M482.32,-131.95C506.19,-115.61 560.75,-79.41 610,-55 635.54,-42.34 665.61,-30.73 688.46,-22.54"/>
<polygon fill="#63b8ff" stroke="#63b8ff" points="689.83,-25.77 698.09,-19.14 687.49,-19.17 689.83,-25.77"/>
</a>
</g>
</g>
<!-- Node5 -->
<g id="Node000005" class="node">
<title>Node5</title>
<g id="a_Node000005"><a xlink:title=" ">
<polygon fill="#e0e0e0" stroke="#999999" points="534,-79.5 400,-79.5 400,-60.5 534,-60.5 534,-79.5"/>
<text text-anchor="middle" x="467" y="-67.5" font-family="Helvetica,sans-Serif" font-size="10.00">AppConfigurationBase.h</text>
</a>
</g>
</g>
<!-- Node4&#45;&gt;Node5 -->
<g id="edge5_Node000004_Node000005" class="edge">
<title>Node4&#45;&gt;Node5</title>
<g id="a_edge5_Node000004_Node000005"><a xlink:title=" ">
<path fill="none" stroke="#63b8ff" d="M469.63,-131.98C469.18,-121.56 468.41,-103.61 467.81,-89.88"/>
<polygon fill="#63b8ff" stroke="#63b8ff" points="471.3,-89.43 467.37,-79.59 464.31,-89.73 471.3,-89.43"/>
</a>
</g>
</g>
<!-- Node6&#45;&gt;Node3 -->
<g id="edge7_Node000006_Node000003" class="edge">
<title>Node6&#45;&gt;Node3</title>
<g id="a_edge7_Node000006_Node000003"><a xlink:title=" ">
<path fill="none" stroke="#63b8ff" d="M281.28,-131.86C292.74,-113.98 321.76,-73.12 358,-55 412.26,-27.87 586.81,-16.52 673.78,-12.45"/>
<polygon fill="#63b8ff" stroke="#63b8ff" points="674.11,-15.94 683.94,-11.99 673.79,-8.95 674.11,-15.94"/>
</a>
</g>
</g>
<!-- Node7 -->
<g id="Node000007" class="node">
<title>Node7</title>
<g id="a_Node000007"><a xlink:title=" ">
<polygon fill="#e0e0e0" stroke="#999999" points="76,-79.5 0,-79.5 0,-60.5 76,-60.5 76,-79.5"/>
<text text-anchor="middle" x="38" y="-67.5" font-family="Helvetica,sans-Serif" font-size="10.00">NanoOcp1.h</text>
</a>
</g>
</g>
<!-- Node6&#45;&gt;Node7 -->
<g id="edge8_Node000006_Node000007" class="edge">
<title>Node6&#45;&gt;Node7</title>
<g id="a_edge8_Node000006_Node000007"><a xlink:title=" ">
<path fill="none" stroke="#63b8ff" d="M246.21,-131.91C208.61,-121.06 141.98,-101.76 85,-85 82.24,-84.19 79.4,-83.35 76.53,-82.5"/>
<polygon fill="#63b8ff" stroke="#63b8ff" points="77.41,-79.11 66.82,-79.62 75.41,-85.82 77.41,-79.11"/>
</a>
</g>
</g>
<!-- Node8 -->
<g id="Node000008" class="node">
<title>Node8</title>
<g id="a_Node000008"><a xlink:title=" ">
<polygon fill="#e0e0e0" stroke="#999999" points="228,-79.5 94,-79.5 94,-60.5 228,-60.5 228,-79.5"/>
<text text-anchor="middle" x="161" y="-67.5" font-family="Helvetica,sans-Serif" font-size="10.00">Ocp1ObjectDefinitions.h</text>
</a>
</g>
</g>
<!-- Node6&#45;&gt;Node8 -->
<g id="edge9_Node000006_Node000008" class="edge">
<title>Node6&#45;&gt;Node8</title>
<g id="a_edge9_Node000006_Node000008"><a xlink:title=" ">
<path fill="none" stroke="#63b8ff" d="M261.9,-131.98C242.5,-120.25 207.35,-99.01 184.08,-84.95"/>
<polygon fill="#63b8ff" stroke="#63b8ff" points="185.59,-81.77 175.22,-79.59 181.96,-87.76 185.59,-81.77"/>
</a>
</g>
</g>
<!-- Node9 -->
<g id="Node000009" class="node">
<title>Node9</title>
<g id="a_Node000009"><a xlink:title=" ">
<polygon fill="#e0e0e0" stroke="#999999" points="306,-79.5 246,-79.5 246,-60.5 306,-60.5 306,-79.5"/>
<text text-anchor="middle" x="276" y="-67.5" font-family="Helvetica,sans-Serif" font-size="10.00">Variant.h</text>
</a>
</g>
</g>
<!-- Node6&#45;&gt;Node9 -->
<g id="edge10_Node000006_Node000009" class="edge">
<title>Node6&#45;&gt;Node9</title>
<g id="a_edge10_Node000006_Node000009"><a xlink:title=" ">
<path fill="none" stroke="#63b8ff" d="M276,-131.98C276,-121.56 276,-103.61 276,-89.88"/>
<polygon fill="#63b8ff" stroke="#63b8ff" points="279.5,-89.59 276,-79.59 272.5,-89.59 279.5,-89.59"/>
</a>
</g>
</g>
<!-- Node10&#45;&gt;Node3 -->
<g id="edge12_Node000010_Node000003" class="edge">
<title>Node10&#45;&gt;Node3</title>
<g id="a_edge12_Node000010_Node000003"><a xlink:title=" ">
<path fill="none" stroke="#63b8ff" d="M819.06,-54.99C798.58,-45.4 771.62,-32.79 751.65,-23.44"/>
<polygon fill="#63b8ff" stroke="#63b8ff" points="753,-20.21 742.46,-19.14 750.03,-26.55 753,-20.21"/>
</a>
</g>
</g>
<!-- Node11&#45;&gt;Node3 -->
<g id="edge14_Node000011_Node000003" class="edge">
<title>Node11&#45;&gt;Node3</title>
<g id="a_edge14_Node000011_Node000003"><a xlink:title=" ">
<path fill="none" stroke="#63b8ff" d="M635.54,-120.75C621,-102.7 605.27,-75.73 619,-55 631.41,-36.26 653.46,-25.39 674.16,-19.1"/>
<polygon fill="#63b8ff" stroke="#63b8ff" points="675.14,-22.46 683.85,-16.44 673.28,-15.71 675.14,-22.46"/>
</a>
</g>
</g>
<!-- Node11&#45;&gt;Node10 -->
<g id="edge15_Node000011_Node000010" class="edge">
<title>Node11&#45;&gt;Node10</title>
<g id="a_edge15_Node000011_Node000010"><a xlink:title=" ">
<path fill="none" stroke="#63b8ff" d="M708.84,-120.96C737.56,-110.72 772.43,-98.29 800.2,-88.39"/>
<polygon fill="#63b8ff" stroke="#63b8ff" points="801.46,-91.66 809.71,-85 799.11,-85.06 801.46,-91.66"/>
</a>
</g>
</g>
<!-- Node12 -->
<g id="Node000012" class="node">
<title>Node12</title>
<g id="a_Node000012"><a xlink:title=" ">
<polygon fill="#e0e0e0" stroke="#999999" points="727.5,-79.5 628.5,-79.5 628.5,-60.5 727.5,-60.5 727.5,-79.5"/>
<text text-anchor="middle" x="678" y="-67.5" font-family="Helvetica,sans-Serif" font-size="10.00">TwoDFieldBase.h</text>
</a>
</g>
</g>
<!-- Node11&#45;&gt;Node12 -->
<g id="edge16_Node000011_Node000012" class="edge">
<title>Node11&#45;&gt;Node12</title>
<g id="a_edge16_Node000011_Node000012"><a xlink:title=" ">
<path fill="none" stroke="#63b8ff" d="M660.81,-120.77C664.2,-110.97 668.26,-99.2 671.59,-89.57"/>
<polygon fill="#63b8ff" stroke="#63b8ff" points="675,-90.41 674.95,-79.82 668.38,-88.13 675,-90.41"/>
</a>
</g>
</g>
<!-- Node13&#45;&gt;Node3 -->
<g id="edge18_Node000013_Node000003" class="edge">
<title>Node13&#45;&gt;Node3</title>
<g id="a_edge18_Node000013_Node000003"><a xlink:title=" ">
<path fill="none" stroke="#63b8ff" d="M928.28,-126.35C950.05,-108.69 980.08,-78 961,-55 937.77,-27 836.82,-16.51 774.4,-12.66"/>
<polygon fill="#63b8ff" stroke="#63b8ff" points="774.54,-9.16 764.36,-12.07 774.14,-16.15 774.54,-9.16"/>
</a>
</g>
</g>
<!-- Node13&#45;&gt;Node10 -->
<g id="edge19_Node000013_Node000010" class="edge">
<title>Node13&#45;&gt;Node10</title>
<g id="a_edge19_Node000013_Node000010"><a xlink:title=" ">
<path fill="none" stroke="#63b8ff" d="M896.86,-126.44C888.48,-116.73 877.18,-103.65 867.67,-92.63"/>
<polygon fill="#63b8ff" stroke="#63b8ff" points="870.31,-90.33 861.12,-85.04 865.01,-94.9 870.31,-90.33"/>
</a>
</g>
</g>
<!-- Node14&#45;&gt;Node3 -->
<g id="edge21_Node000014_Node000003" class="edge">
<title>Node14&#45;&gt;Node3</title>
<g id="a_edge21_Node000014_Node000003"><a xlink:title=" ">
<path fill="none" stroke="#63b8ff" d="M1112.63,-126.25C1084.12,-107.01 1030.03,-73.04 979,-55 910.48,-30.78 826.77,-19.4 774.4,-14.31"/>
<polygon fill="#63b8ff" stroke="#63b8ff" points="774.64,-10.81 764.36,-13.37 773.99,-17.78 774.64,-10.81"/>
</a>
</g>
</g>
<!-- Node14&#45;&gt;Node10 -->
<g id="edge22_Node000014_Node000010" class="edge">
<title>Node14&#45;&gt;Node10</title>
<g id="a_edge22_Node000014_Node000010"><a xlink:title=" ">
<path fill="none" stroke="#63b8ff" d="M1075.53,-126.44C1029.43,-115.15 964.65,-99.3 916.16,-87.44"/>
<polygon fill="#63b8ff" stroke="#63b8ff" points="916.93,-84.02 906.39,-85.04 915.27,-90.82 916.93,-84.02"/>
</a>
</g>
</g>
<!-- Node15 -->
<g id="Node000015" class="node">
<title>Node15</title>
<g id="a_Node000015"><a xlink:title=" ">
<polygon fill="#e0e0e0" stroke="#999999" points="1149,-79.5 1117,-79.5 1117,-60.5 1149,-60.5 1149,-79.5"/>
<text text-anchor="middle" x="1133" y="-67.5" font-family="Helvetica,sans-Serif" font-size="10.00">set</text>
</a>
</g>
</g>
<!-- Node14&#45;&gt;Node15 -->
<g id="edge23_Node000014_Node000015" class="edge">
<title>Node14&#45;&gt;Node15</title>
<g id="a_edge23_Node000014_Node000015"><a xlink:title=" ">
<path fill="none" stroke="#63b8ff" d="M1133,-126.44C1133,-115.96 1133,-101.55 1133,-90.05"/>
<polygon fill="#63b8ff" stroke="#63b8ff" points="1136.5,-89.77 1133,-79.77 1129.5,-89.77 1136.5,-89.77"/>
</a>
</g>
</g>
<!-- Node16&#45;&gt;Node3 -->
<g id="edge26_Node000016_Node000003" class="edge">
<title>Node16&#45;&gt;Node3</title>
<g id="a_edge26_Node000016_Node000003"><a xlink:title=" ">
<path fill="none" stroke="#63b8ff" d="M1263.84,-197.93C1263,-179.03 1259.27,-145.03 1244,-121 1218.15,-80.34 1202.77,-72.8 1158,-55 1089.34,-27.71 873.27,-16.17 774.35,-12.22"/>
<polygon fill="#63b8ff" stroke="#63b8ff" points="774.42,-8.72 764.3,-11.83 774.15,-15.72 774.42,-8.72"/>
</a>
</g>
</g>
<!-- Node17 -->
<g id="Node000017" class="node">
<title>Node17</title>
<g id="a_Node000017"><a xlink:title=" ">
<polygon fill="#e0e0e0" stroke="#999999" points="1342,-151 1292,-151 1292,-132 1342,-132 1342,-151"/>
<text text-anchor="middle" x="1317" y="-139" font-family="Helvetica,sans-Serif" font-size="10.00">atomic</text>
</a>
</g>
</g>
<!-- Node16&#45;&gt;Node17 -->
<g id="edge27_Node000016_Node000017" class="edge">
<title>Node16&#45;&gt;Node17</title>
<g id="a_edge27_Node000016_Node000017"><a xlink:title=" ">
<path fill="none" stroke="#63b8ff" d="M1274.73,-197.94C1283.21,-186.81 1295.09,-171.24 1304.09,-159.43"/>
<polygon fill="#63b8ff" stroke="#63b8ff" points="1307.03,-161.34 1310.31,-151.27 1301.47,-157.1 1307.03,-161.34"/>
</a>
</g>
</g>
</g>
</svg>
