<?xml version="1.0" encoding="UTF-8" standalone="no"?>
<svg
   height="24px"
   viewBox="0 0 960 960"
   width="24px"
   fill="#000000"
   version="1.1"
   id="svg1"
   sodipodi:docname="Umsci.svg"
   inkscape:version="1.3.2 (091e20e, 2023-11-25)"
   xmlns:inkscape="http://www.inkscape.org/namespaces/inkscape"
   xmlns:sodipodi="http://sodipodi.sourceforge.net/DTD/sodipodi-0.0"
   xmlns="http://www.w3.org/2000/svg"
   xmlns:svg="http://www.w3.org/2000/svg">
  <defs
     id="defs1" />
  <sodipodi:namedview
     id="namedview1"
     pagecolor="#ffffff"
     bordercolor="#000000"
     borderopacity="0.25"
     inkscape:showpageshadow="2"
     inkscape:pageopacity="0.0"
     inkscape:pagecheckerboard="0"
     inkscape:deskcolor="#d1d1d1" />
  <g
     inkscape:groupmode="layer"
     id="layer2"
     inkscape:label="Layer 1"
     transform="translate(0,960)">
    <path
       id="path1-5"
       style="stroke-width:1.12741"
       inkscape:label="C"
       d="M 85.078125 -919.45312 C 91.817071 -889.32269 101.41177 -861.00836 113.67188 -834.45312 C 109.45615 -822.13109 103.64668 -810.56916 96.09375 -799.76562 C 85.128332 -784.08098 71.473718 -770.96001 55.15625 -760.39062 C 53.760153 -759.48633 52.279957 -758.74342 50.859375 -757.89062 L 50.859375 -654.84375 C 70.266625 -661.07804 88.615084 -669.39725 105.70312 -680.23438 C 131.58984 -696.65155 153.74931 -717.79627 172.1875 -743.67188 C 188.3095 -725.0325 206.3605 -707.66105 226.40625 -691.5625 C 231.64544 -687.35495 236.99102 -683.35992 242.34375 -679.45312 C 218.28605 -647.9369 189.76425 -621.64268 156.79688 -600.70312 C 124.39006 -580.11963 89.085328 -565.51126 50.859375 -556.875 L 50.859375 -459.45312 C 107.29487 -469.44684 159.42824 -489.83077 207.34375 -520.54688 C 253.71498 -550.27304 293.00798 -587.70644 325.3125 -632.73438 C 373.16312 -613.06309 424.70742 -603.16094 480 -603.20312 C 534.95468 -603.24509 586.17633 -613.07409 633.75 -632.57812 C 666.24125 -587.12816 705.83481 -549.46159 752.57812 -519.53125 C 800.43473 -488.88809 852.5031 -468.53096 908.82812 -458.51562 L 908.82812 -554.92188 C 870.65772 -563.59454 835.44611 -578.33262 803.125 -599.21875 C 769.89538 -620.69195 741.17923 -647.4518 716.95312 -679.375 C 722.48733 -683.41359 728.02525 -687.59298 733.4375 -691.95312 C 753.32313 -707.97313 771.17651 -725.22938 787.1875 -743.75 C 805.77373 -717.50459 828.11259 -696.0399 854.29688 -679.45312 C 871.26576 -668.70398 889.55919 -660.49073 908.82812 -654.29688 L 908.82812 -758.28125 C 907.56474 -759.01489 906.24505 -759.61826 905 -760.39062 C 888.58063 -770.57642 874.89805 -783.5138 863.90625 -799.21875 C 856.22354 -810.19573 850.21456 -822.03053 845.78125 -834.60938 C 858.01011 -861.1289 867.42323 -889.3776 874.14062 -919.45312 L 781.71875 -919.45312 C 781.71181 -919.42903 781.72581 -919.39917 781.71875 -919.375 L 781.25 -919.45312 L 745.70312 -919.45312 C 741.60324 -892.47528 741.75542 -865.94565 746.40625 -840 C 727.02288 -808.98087 702.1539 -781.87436 671.79688 -758.75 C 665.08534 -775.49422 659.67825 -792.69698 655.78125 -810.46875 C 651.77229 -828.7511 649.38709 -847.17282 648.51562 -865.78125 C 662.84721 -881.95644 675.31593 -899.83842 685.9375 -919.45312 L 554.45312 -919.45312 C 553.89813 -912.70527 553.29846 -905.94998 553.04688 -899.21875 C 546.27753 -894.5339 539.28426 -890.33309 531.95312 -886.71875 C 515.21833 -878.46828 497.25766 -874.31176 478.125 -874.29688 C 460.05525 -874.28309 442.80997 -878.54043 426.32812 -887.03125 C 419.40913 -890.59566 412.84206 -894.65474 406.48438 -899.0625 C 406.23805 -905.86078 405.63975 -912.64653 405.07812 -919.45312 L 273.35938 -919.45312 C 284.32962 -899.21213 297.17937 -880.86987 311.95312 -864.29688 C 310.91389 -846.44179 308.44983 -828.73954 304.45312 -811.17188 C 300.34021 -793.09332 294.68574 -775.6001 287.73438 -758.59375 C 257.43562 -781.62693 232.59493 -808.62598 213.20312 -839.53125 C 217.98445 -865.63261 218.1574 -892.30977 214.0625 -919.45312 L 85.078125 -919.45312 z M 560.9375 -800.70312 C 561.61854 -797.27494 562.20273 -793.81542 562.96875 -790.39062 C 568.97844 -763.52197 577.4829 -737.69393 588.28125 -712.8125 C 554.29319 -700.45192 518.18903 -694.16992 479.92188 -694.14062 C 441.4565 -694.11126 405.09837 -700.29772 370.9375 -712.73438 C 381.89869 -737.86361 390.42434 -763.93358 396.48438 -791.09375 C 397.15744 -794.11036 397.6742 -797.13703 398.28125 -800.15625 C 423.33739 -789.55045 450.25147 -784.19681 479.0625 -784.21875 C 508.19984 -784.24101 535.43079 -789.81666 560.9375 -800.70312 z M 874.92188 -406.32812 C 846.92532 -405.76158 819.03178 -402.33561 791.25 -396.17188 C 735.68646 -383.84439 684.35837 -361.2768 637.26562 -328.4375 C 590.17289 -295.59821 551.24188 -255.22162 520.46875 -207.34375 C 504.00181 -181.72392 490.61442 -154.8634 480.07812 -126.79688 C 469.54602 -154.51098 456.18164 -181.02313 439.84375 -206.32812 C 409.02389 -254.06354 370.05036 -294.3428 322.96875 -327.03125 C 275.88715 -359.71972 224.63704 -382.10349 169.14062 -394.29688 C 129.91635 -402.91504 90.497161 -405.83069 50.859375 -403.28125 L 50.859375 -308.98438 C 84.170225 -311.78026 117.00887 -309.59667 149.375 -302.34375 C 192.29389 -292.72606 232.21387 -275.09114 269.14062 -249.45312 C 306.0674 -223.81514 336.38017 -192.54672 360 -155.625 C 381.2375 -122.42726 396.12016 -86.108444 404.76562 -46.71875 L 481.32812 -46.71875 L 482.1875 -46.875 L 483.04688 -46.71875 L 554.60938 -46.71875 C 563.18197 -86.571157 578.25826 -123.27842 600 -156.79688 C 623.97513 -193.75848 654.47077 -225.10306 691.40625 -250.85938 C 728.34172 -276.61568 768.27132 -294.18575 811.17188 -303.51562 C 843.24594 -310.49099 875.77312 -312.61824 908.82812 -309.92188 L 908.82812 -405.54688 C 897.50491 -406.23106 886.19802 -406.55632 874.92188 -406.32812 z M 878.28125 -216.64062 C 862.57406 -216.40942 847.06836 -214.65524 831.71875 -211.32812 C 801.01954 -204.67393 772.24698 -191.95457 745.46875 -173.28125 C 718.69055 -154.60793 696.85521 -132.0539 680 -105.54688 C 668.39559 -87.297403 659.59761 -67.637366 653.28125 -46.71875 L 756.17188 -46.71875 C 757.63401 -49.422966 759.06939 -52.142163 760.70312 -54.765625 C 770.90008 -71.140016 783.83369 -84.834822 799.53125 -95.78125 C 815.22882 -106.72768 832.60291 -114.29324 851.5625 -118.59375 C 870.34435 -122.85394 889.42673 -123.30951 908.82812 -119.92188 L 908.82812 -214.92188 C 898.57743 -216.06413 888.38451 -216.78935 878.28125 -216.64062 z M 82.65625 -214.92188 C 72.150407 -215.05501 61.524797 -214.22952 50.859375 -212.96875 L 50.859375 -123.51562 L 52.03125 -117.03125 C 71.582739 -120.55899 90.743042 -120.34795 109.60938 -116.48438 C 128.4757 -112.62081 145.7905 -105.27116 161.48438 -94.375 C 177.17824 -83.478852 190.33298 -69.84954 200.9375 -53.59375 C 202.39454 -51.360233 203.59929 -49.01321 204.92188 -46.71875 L 307.1875 -46.71875 C 300.84909 -67.192709 292.21009 -86.482674 280.78125 -104.375 C 263.89989 -130.80351 242.08438 -153.28745 215.3125 -171.875 C 188.54061 -190.46254 159.80243 -203.10711 129.14062 -209.6875 C 113.80973 -212.9777 98.337813 -214.72314 82.65625 -214.92188 z " />
  </g>
  <g
     id="g1"
     transform="matrix(1.0599078,0,0,1.0599078,131.63022,967.5304145)"
     inkscape:label="CircleR">
    <path
       d="m 468.63863,-265.17426 c -48.49347,0 -90.00683,-17.26662 -124.54006,-51.79985 -34.53323,-34.53323 -51.79985,-76.04659 -51.79985,-124.54006 0,-48.49348 17.26662,-90.00683 51.79985,-124.54006 34.53323,-34.53323 76.04659,-51.79985 124.54006,-51.79985 48.49348,0 90.00683,17.26662 124.54006,51.79985 34.53323,34.53323 51.79985,76.04658 51.79985,124.54006 0,48.49347 -17.26662,90.00683 -51.79985,124.54006 -34.53323,34.53323 -76.04658,51.79985 -124.54006,51.79985 z m 0,-88.16996 c 24.24674,0 45.00341,-8.6333 62.27003,-25.89992 17.26662,-17.26662 25.89993,-38.02329 25.89993,-62.27003 0,-24.24674 -8.63331,-45.00341 -25.89993,-62.27003 -17.26662,-17.26662 -38.02329,-25.89993 -62.27003,-25.89993 -24.24674,0 -45.00341,8.63331 -62.27003,25.89993 -17.26662,17.26662 -25.89992,38.02329 -25.89992,62.27003 0,24.24674 8.6333,45.00341 25.89992,62.27003 17.26662,17.26662 38.02329,25.89992 62.27003,25.89992 z"
       id="path1-2"
       style="stroke-width:1.10212" />
  </g>
  <g
     id="g2"
     transform="matrix(1.1704535,0,0,1.1704535,-235.26119,1035.258318)"
     inkscape:label="CircleL">
    <path
       d="m 484.97854,-297.85408 c -44,0 -81.66667,-15.66667 -113,-47 -31.33333,-31.33333 -47,-69 -47,-113 0,-44 15.66667,-81.66667 47,-113 31.33333,-31.33333 69,-47 113,-47 44,0 81.66667,15.66667 113,47 31.33333,31.33333 47,69 47,113 0,44 -15.66667,81.66667 -47,113 -31.33333,31.33333 -69,47 -113,47 z m 0,-80 c 22,0 40.83333,-7.83333 56.5,-23.5 15.66667,-15.66667 23.5,-34.5 23.5,-56.5 0,-22 -7.83333,-40.83333 -23.5,-56.5 -15.66667,-15.66667 -34.5,-23.5 -56.5,-23.5 -22,0 -40.83333,7.83333 -56.5,23.5 -15.66667,15.66667 -23.5,34.5 -23.5,56.5 0,22 7.83333,40.83333 23.5,56.5 15.66667,15.66667 34.5,23.5 56.5,23.5 z"
       id="path1-2-4" />
  </g>
</svg>
