<?xml version="1.0" encoding="UTF-8" standalone="no"?>
<!DOCTYPE svg PUBLIC "-//W3C//DTD SVG 1.1//EN"
 "http://www.w3.org/Graphics/SVG/1.1/DTD/svg11.dtd">
<!-- Generated by graphviz version 2.43.0 (0)
 -->
<!-- Title: Source/CustomParameterControl/CustomParameterOscController.h Pages: 1 -->
<svg width="438pt" height="159pt"
 viewBox="0.00 0.00 438.00 159.00" xmlns="http://www.w3.org/2000/svg" xmlns:xlink="http://www.w3.org/1999/xlink">
<g id="graph0" class="graph" transform="scale(1 1) rotate(0) translate(4 155)">
<title>Source/CustomParameterControl/CustomParameterOscController.h</title>
<!-- Node1 -->
<g id="Node000001" class="node">
<title>Node1</title>
<g id="a_Node000001"><a xlink:title=" ">
<polygon fill="#999999" stroke="#666666" points="280.5,-151 98.5,-151 98.5,-121 280.5,-121 280.5,-151"/>
<text text-anchor="start" x="106.5" y="-139" font-family="Helvetica,sans-Serif" font-size="10.00">Source/CustomParameterControl</text>
<text text-anchor="middle" x="189.5" y="-128" font-family="Helvetica,sans-Serif" font-size="10.00">/CustomParameterOscController.h</text>
</a>
</g>
</g>
<!-- Node2 -->
<g id="Node000002" class="node">
<title>Node2</title>
<g id="a_Node000002"><a xlink:href="CustomParameterOscController_8cpp.html" target="_top" xlink:title=" ">
<polygon fill="white" stroke="#666666" points="193,-85 0,-85 0,-55 193,-55 193,-85"/>
<text text-anchor="start" x="8" y="-73" font-family="Helvetica,sans-Serif" font-size="10.00">Source/CustomParameterControl</text>
<text text-anchor="middle" x="96.5" y="-62" font-family="Helvetica,sans-Serif" font-size="10.00">/CustomParameterOscController.cpp</text>
</a>
</g>
</g>
<!-- Node1&#45;&gt;Node2 -->
<g id="edge1_Node000001_Node000002" class="edge">
<title>Node1&#45;&gt;Node2</title>
<g id="a_edge1_Node000001_Node000002"><a xlink:title=" ">
<path fill="none" stroke="#63b8ff" d="M160.48,-115.03C146.41,-105.34 129.83,-93.94 117.08,-85.16"/>
<polygon fill="#63b8ff" stroke="#63b8ff" points="158.64,-118.01 168.86,-120.8 162.61,-112.24 158.64,-118.01"/>
</a>
</g>
</g>
<!-- Node3 -->
<g id="Node000003" class="node">
<title>Node3</title>
<g id="a_Node000003"><a xlink:href="MainComponent_8h.html" target="_top" xlink:title=" ">
<polygon fill="white" stroke="#666666" points="353.5,-79.5 211.5,-79.5 211.5,-60.5 353.5,-60.5 353.5,-79.5"/>
<text text-anchor="middle" x="282.5" y="-67.5" font-family="Helvetica,sans-Serif" font-size="10.00">Source/MainComponent.h</text>
</a>
</g>
</g>
<!-- Node1&#45;&gt;Node3 -->
<g id="edge2_Node000001_Node000003" class="edge">
<title>Node1&#45;&gt;Node3</title>
<g id="a_edge2_Node000001_Node000003"><a xlink:title=" ">
<path fill="none" stroke="#63b8ff" d="M218.75,-114.87C235.96,-103.03 256.86,-88.65 269.92,-79.66"/>
<polygon fill="#63b8ff" stroke="#63b8ff" points="216.39,-112.24 210.14,-120.8 220.36,-118.01 216.39,-112.24"/>
</a>
</g>
</g>
<!-- Node4 -->
<g id="Node000004" class="node">
<title>Node4</title>
<g id="a_Node000004"><a xlink:href="Main_8cpp.html" target="_top" xlink:title=" ">
<polygon fill="white" stroke="#666666" points="259,-19 162,-19 162,0 259,0 259,-19"/>
<text text-anchor="middle" x="210.5" y="-7" font-family="Helvetica,sans-Serif" font-size="10.00">Source/Main.cpp</text>
</a>
</g>
</g>
<!-- Node3&#45;&gt;Node4 -->
<g id="edge3_Node000003_Node000004" class="edge">
<title>Node3&#45;&gt;Node4</title>
<g id="a_edge3_Node000003_Node000004"><a xlink:title=" ">
<path fill="none" stroke="#63b8ff" d="M264.08,-54.04C250.49,-42.99 232.46,-28.34 221.17,-19.17"/>
<polygon fill="#63b8ff" stroke="#63b8ff" points="261.91,-56.78 271.88,-60.37 266.32,-51.35 261.91,-56.78"/>
</a>
</g>
</g>
<!-- Node5 -->
<g id="Node000005" class="node">
<title>Node5</title>
<g id="a_Node000005"><a xlink:href="MainComponent_8cpp.html" target="_top" xlink:title=" ">
<polygon fill="white" stroke="#666666" points="430,-19 277,-19 277,0 430,0 430,-19"/>
<text text-anchor="middle" x="353.5" y="-7" font-family="Helvetica,sans-Serif" font-size="10.00">Source/MainComponent.cpp</text>
</a>
</g>
</g>
<!-- Node3&#45;&gt;Node5 -->
<g id="edge4_Node000003_Node000005" class="edge">
<title>Node3&#45;&gt;Node5</title>
<g id="a_edge4_Node000003_Node000005"><a xlink:title=" ">
<path fill="none" stroke="#63b8ff" d="M301.04,-53.72C314.4,-42.71 331.95,-28.25 342.98,-19.17"/>
<polygon fill="#63b8ff" stroke="#63b8ff" points="298.47,-51.31 292.98,-60.37 302.92,-56.71 298.47,-51.31"/>
</a>
</g>
</g>
</g>
</svg>
