<?xml version="1.0" encoding="UTF-8" standalone="no"?>
<!DOCTYPE svg PUBLIC "-//W3C//DTD SVG 1.1//EN"
 "http://www.w3.org/Graphics/SVG/1.1/DTD/svg11.dtd">
<!-- Generated by graphviz version 2.43.0 (0)
 -->
<!-- Title: Source/CustomParameterControl/CustomParameterControlConfigDialog.h Pages: 1 -->
<svg width="291pt" height="148pt"
 viewBox="0.00 0.00 290.50 148.00" xmlns="http://www.w3.org/2000/svg" xmlns:xlink="http://www.w3.org/1999/xlink">
<g id="graph0" class="graph" transform="scale(1 1) rotate(0) translate(4 144)">
<title>Source/CustomParameterControl/CustomParameterControlConfigDialog.h</title>
<!-- Node1 -->
<g id="Node000001" class="node">
<title>Node1</title>
<g id="a_Node000001"><a xlink:title=" ">
<polygon fill="#999999" stroke="#666666" points="214,-140 0,-140 0,-110 214,-110 214,-140"/>
<text text-anchor="start" x="8" y="-128" font-family="Helvetica,sans-Serif" font-size="10.00">Source/CustomParameterControl</text>
<text text-anchor="middle" x="107" y="-117" font-family="Helvetica,sans-Serif" font-size="10.00">/CustomParameterControlConfigDialog.h</text>
</a>
</g>
</g>
<!-- Node2 -->
<g id="Node000002" class="node">
<title>Node2</title>
<g id="a_Node000002"><a xlink:title=" ">
<polygon fill="#e0e0e0" stroke="#999999" points="97,-19 17,-19 17,0 97,0 97,-19"/>
<text text-anchor="middle" x="57" y="-7" font-family="Helvetica,sans-Serif" font-size="10.00">JuceHeader.h</text>
</a>
</g>
</g>
<!-- Node1&#45;&gt;Node2 -->
<g id="edge1_Node000001_Node000002" class="edge">
<title>Node1&#45;&gt;Node2</title>
<g id="a_edge1_Node000001_Node000002"><a xlink:title=" ">
<path fill="none" stroke="#63b8ff" d="M96.71,-109.69C90.09,-99.99 81.7,-86.67 76,-74 69.5,-59.55 64.5,-42.28 61.26,-29.4"/>
<polygon fill="#63b8ff" stroke="#63b8ff" points="64.6,-28.31 58.88,-19.39 57.79,-29.93 64.6,-28.31"/>
</a>
</g>
</g>
<!-- Node3 -->
<g id="Node000003" class="node">
<title>Node3</title>
<g id="a_Node000003"><a xlink:href="CustomParameterConfig_8h.html" target="_top" xlink:title=" ">
<polygon fill="white" stroke="#666666" points="229,-74 85,-74 85,-55 229,-55 229,-74"/>
<text text-anchor="middle" x="157" y="-62" font-family="Helvetica,sans-Serif" font-size="10.00">CustomParameterConfig.h</text>
</a>
</g>
</g>
<!-- Node1&#45;&gt;Node3 -->
<g id="edge2_Node000001_Node000003" class="edge">
<title>Node1&#45;&gt;Node3</title>
<g id="a_edge2_Node000001_Node000003"><a xlink:title=" ">
<path fill="none" stroke="#63b8ff" d="M119.1,-109.84C126.29,-101.43 135.43,-90.74 142.93,-81.96"/>
<polygon fill="#63b8ff" stroke="#63b8ff" points="145.67,-84.14 149.51,-74.27 140.35,-79.59 145.67,-84.14"/>
</a>
</g>
</g>
<!-- Node3&#45;&gt;Node2 -->
<g id="edge3_Node000003_Node000002" class="edge">
<title>Node3&#45;&gt;Node2</title>
<g id="a_edge3_Node000003_Node000002"><a xlink:title=" ">
<path fill="none" stroke="#63b8ff" d="M140.93,-54.98C125.14,-46.61 100.78,-33.7 82.37,-23.95"/>
<polygon fill="#63b8ff" stroke="#63b8ff" points="83.83,-20.76 73.36,-19.17 80.56,-26.95 83.83,-20.76"/>
</a>
</g>
</g>
<!-- Node4 -->
<g id="Node000004" class="node">
<title>Node4</title>
<g id="a_Node000004"><a xlink:title=" ">
<polygon fill="#e0e0e0" stroke="#999999" points="282.5,-19 115.5,-19 115.5,0 282.5,0 282.5,-19"/>
<text text-anchor="middle" x="199" y="-7" font-family="Helvetica,sans-Serif" font-size="10.00">ParameterControlComponent.h</text>
</a>
</g>
</g>
<!-- Node3&#45;&gt;Node4 -->
<g id="edge4_Node000003_Node000004" class="edge">
<title>Node3&#45;&gt;Node4</title>
<g id="a_edge4_Node000003_Node000004"><a xlink:title=" ">
<path fill="none" stroke="#63b8ff" d="M163.94,-54.75C169.87,-47.26 178.57,-36.28 185.82,-27.13"/>
<polygon fill="#63b8ff" stroke="#63b8ff" points="188.73,-29.1 192.19,-19.09 183.24,-24.75 188.73,-29.1"/>
</a>
</g>
</g>
</g>
</svg>
