<?xml version="1.0" encoding="UTF-8" standalone="no"?>
<!DOCTYPE svg PUBLIC "-//W3C//DTD SVG 1.1//EN"
 "http://www.w3.org/Graphics/SVG/1.1/DTD/svg11.dtd">
<!-- Generated by graphviz version 2.43.0 (0)
 -->
<!-- Title: Source/CustomParameterControl/CustomParameterControlConfigDialog.cpp Pages: 1 -->
<svg width="296pt" height="214pt"
 viewBox="0.00 0.00 296.00 214.00" xmlns="http://www.w3.org/2000/svg" xmlns:xlink="http://www.w3.org/1999/xlink">
<g id="graph0" class="graph" transform="scale(1 1) rotate(0) translate(4 210)">
<title>Source/CustomParameterControl/CustomParameterControlConfigDialog.cpp</title>
<!-- Node1 -->
<g id="Node000001" class="node">
<title>Node1</title>
<g id="a_Node000001"><a xlink:title=" ">
<polygon fill="#999999" stroke="#666666" points="225,-206 0,-206 0,-176 225,-176 225,-206"/>
<text text-anchor="start" x="8" y="-194" font-family="Helvetica,sans-Serif" font-size="10.00">Source/CustomParameterControl</text>
<text text-anchor="middle" x="112.5" y="-183" font-family="Helvetica,sans-Serif" font-size="10.00">/CustomParameterControlConfigDialog.cpp</text>
</a>
</g>
</g>
<!-- Node2 -->
<g id="Node000002" class="node">
<title>Node2</title>
<g id="a_Node000002"><a xlink:href="CustomParameterControlConfigDialog_8h.html" target="_top" xlink:title=" ">
<polygon fill="white" stroke="#666666" points="197.5,-140 27.5,-140 27.5,-110 197.5,-110 197.5,-140"/>
<text text-anchor="start" x="35.5" y="-128" font-family="Helvetica,sans-Serif" font-size="10.00">CustomParameterControlConfig</text>
<text text-anchor="middle" x="112.5" y="-117" font-family="Helvetica,sans-Serif" font-size="10.00">Dialog.h</text>
</a>
</g>
</g>
<!-- Node1&#45;&gt;Node2 -->
<g id="edge1_Node000001_Node000002" class="edge">
<title>Node1&#45;&gt;Node2</title>
<g id="a_edge1_Node000001_Node000002"><a xlink:title=" ">
<path fill="none" stroke="#63b8ff" d="M112.5,-175.8C112.5,-168.34 112.5,-158.99 112.5,-150.41"/>
<polygon fill="#63b8ff" stroke="#63b8ff" points="116,-150.16 112.5,-140.16 109,-150.16 116,-150.16"/>
</a>
</g>
</g>
<!-- Node3 -->
<g id="Node000003" class="node">
<title>Node3</title>
<g id="a_Node000003"><a xlink:title=" ">
<polygon fill="#e0e0e0" stroke="#999999" points="102.5,-19 22.5,-19 22.5,0 102.5,0 102.5,-19"/>
<text text-anchor="middle" x="62.5" y="-7" font-family="Helvetica,sans-Serif" font-size="10.00">JuceHeader.h</text>
</a>
</g>
</g>
<!-- Node2&#45;&gt;Node3 -->
<g id="edge2_Node000002_Node000003" class="edge">
<title>Node2&#45;&gt;Node3</title>
<g id="a_edge2_Node000002_Node000003"><a xlink:title=" ">
<path fill="none" stroke="#63b8ff" d="M102.21,-109.69C95.59,-99.99 87.2,-86.67 81.5,-74 75,-59.55 70,-42.28 66.76,-29.4"/>
<polygon fill="#63b8ff" stroke="#63b8ff" points="70.1,-28.31 64.38,-19.39 63.29,-29.93 70.1,-28.31"/>
</a>
</g>
</g>
<!-- Node4 -->
<g id="Node000004" class="node">
<title>Node4</title>
<g id="a_Node000004"><a xlink:href="CustomParameterConfig_8h.html" target="_top" xlink:title=" ">
<polygon fill="white" stroke="#666666" points="234.5,-74 90.5,-74 90.5,-55 234.5,-55 234.5,-74"/>
<text text-anchor="middle" x="162.5" y="-62" font-family="Helvetica,sans-Serif" font-size="10.00">CustomParameterConfig.h</text>
</a>
</g>
</g>
<!-- Node2&#45;&gt;Node4 -->
<g id="edge3_Node000002_Node000004" class="edge">
<title>Node2&#45;&gt;Node4</title>
<g id="a_edge3_Node000002_Node000004"><a xlink:title=" ">
<path fill="none" stroke="#63b8ff" d="M124.6,-109.84C131.79,-101.43 140.93,-90.74 148.43,-81.96"/>
<polygon fill="#63b8ff" stroke="#63b8ff" points="151.17,-84.14 155.01,-74.27 145.85,-79.59 151.17,-84.14"/>
</a>
</g>
</g>
<!-- Node4&#45;&gt;Node3 -->
<g id="edge4_Node000004_Node000003" class="edge">
<title>Node4&#45;&gt;Node3</title>
<g id="a_edge4_Node000004_Node000003"><a xlink:title=" ">
<path fill="none" stroke="#63b8ff" d="M146.43,-54.98C130.64,-46.61 106.28,-33.7 87.87,-23.95"/>
<polygon fill="#63b8ff" stroke="#63b8ff" points="89.33,-20.76 78.86,-19.17 86.06,-26.95 89.33,-20.76"/>
</a>
</g>
</g>
<!-- Node5 -->
<g id="Node000005" class="node">
<title>Node5</title>
<g id="a_Node000005"><a xlink:title=" ">
<polygon fill="#e0e0e0" stroke="#999999" points="288,-19 121,-19 121,0 288,0 288,-19"/>
<text text-anchor="middle" x="204.5" y="-7" font-family="Helvetica,sans-Serif" font-size="10.00">ParameterControlComponent.h</text>
</a>
</g>
</g>
<!-- Node4&#45;&gt;Node5 -->
<g id="edge5_Node000004_Node000005" class="edge">
<title>Node4&#45;&gt;Node5</title>
<g id="a_edge5_Node000004_Node000005"><a xlink:title=" ">
<path fill="none" stroke="#63b8ff" d="M169.44,-54.75C175.37,-47.26 184.07,-36.28 191.32,-27.13"/>
<polygon fill="#63b8ff" stroke="#63b8ff" points="194.23,-29.1 197.69,-19.09 188.74,-24.75 194.23,-29.1"/>
</a>
</g>
</g>
</g>
</svg>
