<?xml version="1.0" encoding="UTF-8" standalone="no"?>
<!DOCTYPE svg PUBLIC "-//W3C//DTD SVG 1.1//EN"
 "http://www.w3.org/Graphics/SVG/1.1/DTD/svg11.dtd">
<!-- Generated by graphviz version 2.43.0 (0)
 -->
<!-- Title: Source/UmsciUpmixSettingsComponent.h Pages: 1 -->
<svg width="334pt" height="104pt"
 viewBox="0.00 0.00 334.00 104.00" xmlns="http://www.w3.org/2000/svg" xmlns:xlink="http://www.w3.org/1999/xlink">
<g id="graph0" class="graph" transform="scale(1 1) rotate(0) translate(4 100)">
<title>Source/UmsciUpmixSettingsComponent.h</title>
<!-- Node1 -->
<g id="Node000001" class="node">
<title>Node1</title>
<g id="a_Node000001"><a xlink:title=" ">
<polygon fill="#999999" stroke="#666666" points="240,-96 85,-96 85,-66 240,-66 240,-96"/>
<text text-anchor="start" x="93" y="-84" font-family="Helvetica,sans-Serif" font-size="10.00">Source/UmsciUpmixSettings</text>
<text text-anchor="middle" x="162.5" y="-73" font-family="Helvetica,sans-Serif" font-size="10.00">Component.h</text>
</a>
</g>
</g>
<!-- Node2 -->
<g id="Node000002" class="node">
<title>Node2</title>
<g id="a_Node000002"><a xlink:href="MainComponent_8cpp.html" target="_top" xlink:title=" ">
<polygon fill="white" stroke="#666666" points="153,-24.5 0,-24.5 0,-5.5 153,-5.5 153,-24.5"/>
<text text-anchor="middle" x="76.5" y="-12.5" font-family="Helvetica,sans-Serif" font-size="10.00">Source/MainComponent.cpp</text>
</a>
</g>
</g>
<!-- Node1&#45;&gt;Node2 -->
<g id="edge1_Node000001_Node000002" class="edge">
<title>Node1&#45;&gt;Node2</title>
<g id="a_edge1_Node000001_Node000002"><a xlink:title=" ">
<path fill="none" stroke="#63b8ff" d="M135.07,-59.58C119.33,-47.87 100.38,-33.77 88.38,-24.84"/>
<polygon fill="#63b8ff" stroke="#63b8ff" points="133.3,-62.63 143.41,-65.8 137.48,-57.02 133.3,-62.63"/>
</a>
</g>
</g>
<!-- Node3 -->
<g id="Node000003" class="node">
<title>Node3</title>
<g id="a_Node000003"><a xlink:href="UmsciUpmixSettingsComponent_8cpp.html" target="_top" xlink:title=" ">
<polygon fill="white" stroke="#666666" points="326,-30 171,-30 171,0 326,0 326,-30"/>
<text text-anchor="start" x="179" y="-18" font-family="Helvetica,sans-Serif" font-size="10.00">Source/UmsciUpmixSettings</text>
<text text-anchor="middle" x="248.5" y="-7" font-family="Helvetica,sans-Serif" font-size="10.00">Component.cpp</text>
</a>
</g>
</g>
<!-- Node1&#45;&gt;Node3 -->
<g id="edge2_Node000001_Node000003" class="edge">
<title>Node1&#45;&gt;Node3</title>
<g id="a_edge2_Node000001_Node000003"><a xlink:title=" ">
<path fill="none" stroke="#63b8ff" d="M189.71,-59.75C202.64,-50.13 217.79,-38.86 229.47,-30.16"/>
<polygon fill="#63b8ff" stroke="#63b8ff" points="187.52,-57.02 181.59,-65.8 191.7,-62.63 187.52,-57.02"/>
</a>
</g>
</g>
</g>
</svg>
